M48
; DRILL file {KiCad (6.0.6-0)} date 2025 June 29, Sunday 09:16:54
; FORMAT={-:-/ absolute / inch / decimal}
; #@! TF.CreationDate,2025-06-29T09:16:54+02:00
; #@! TF.GenerationSoftware,Kicad,Pcbnew,(6.0.6-0)
; #@! TF.FileFunction,Plated,1,2,PTH
FMAT,2
INCH
; #@! TA.AperFunction,Plated,PTH,ViaDrill
T1C0.0236
; #@! TA.AperFunction,Plated,PTH,ComponentDrill
T2C0.0315
; #@! TA.AperFunction,Plated,PTH,ComponentDrill
T3C0.0394
; #@! TA.AperFunction,Plated,PTH,ViaDrill
T4C0.0472
; #@! TA.AperFunction,Plated,PTH,ViaDrill
T5C0.0591
%
G90
G05
T1
X7.95Y-1.9
X8.82Y-1.26
X8.82Y-1.38
T2
X8.2288Y-3.4962
X8.3288Y-3.4962
X8.4288Y-3.4962
X8.5288Y-3.4962
X8.925Y-1.8233
X8.925Y-2.1233
T3
X7.7506Y-3.3
X7.8506Y-3.3
X7.9506Y-3.3
X8.6496Y-3.1
X8.6496Y-3.25
X8.7496Y-3.1
X8.7496Y-3.25
X8.8496Y-3.1
X8.8496Y-3.25
X8.9496Y-3.1
X8.9496Y-3.25
T4
X7.95Y-1.275
X8.425Y-3.225
X8.675Y-2.725
X8.925Y-1.95
X8.95Y-2.725
X9.05Y-1.575
T5
X7.975Y-2.45
T0
M30
