%TF.GenerationSoftware,KiCad,Pcbnew,(6.0.6-0)*%
%TF.CreationDate,2024-04-04T07:50:36+02:00*%
%TF.ProjectId,9outputs,396f7574-7075-4747-932e-6b696361645f,rev?*%
%TF.SameCoordinates,Original*%
%TF.FileFunction,Soldermask,Top*%
%TF.FilePolarity,Negative*%
%FSLAX46Y46*%
G04 Gerber Fmt 4.6, Leading zero omitted, Abs format (unit mm)*
G04 Created by KiCad (PCBNEW (6.0.6-0)) date 2024-04-04 07:50:36*
%MOMM*%
%LPD*%
G01*
G04 APERTURE LIST*
G04 Aperture macros list*
%AMRoundRect*
0 Rectangle with rounded corners*
0 $1 Rounding radius*
0 $2 $3 $4 $5 $6 $7 $8 $9 X,Y pos of 4 corners*
0 Add a 4 corners polygon primitive as box body*
4,1,4,$2,$3,$4,$5,$6,$7,$8,$9,$2,$3,0*
0 Add four circle primitives for the rounded corners*
1,1,$1+$1,$2,$3*
1,1,$1+$1,$4,$5*
1,1,$1+$1,$6,$7*
1,1,$1+$1,$8,$9*
0 Add four rect primitives between the rounded corners*
20,1,$1+$1,$2,$3,$4,$5,0*
20,1,$1+$1,$4,$5,$6,$7,0*
20,1,$1+$1,$6,$7,$8,$9,0*
20,1,$1+$1,$8,$9,$2,$3,0*%
G04 Aperture macros list end*
%ADD10R,3.200000X3.200000*%
%ADD11C,3.500000*%
%ADD12C,4.155000*%
%ADD13C,3.300000*%
%ADD14C,3.630000*%
%ADD15C,1.700000*%
%ADD16R,2.600000X2.600000*%
%ADD17C,2.600000*%
%ADD18R,2.000000X1.500000*%
%ADD19R,2.000000X3.800000*%
%ADD20C,3.200000*%
%ADD21RoundRect,0.800000X0.000000X-0.700000X0.000000X0.700000X0.000000X0.700000X0.000000X-0.700000X0*%
G04 APERTURE END LIST*
D10*
%TO.C,1111*%
X103528000Y-87397500D03*
D11*
X103528000Y-93197500D03*
X99878000Y-87797500D03*
X99878000Y-92797500D03*
D12*
X104878000Y-82497500D03*
X104878000Y-98097500D03*
D13*
X96378000Y-82497500D03*
X96378000Y-98097500D03*
D14*
X94378000Y-90297500D03*
D15*
X96378000Y-87797500D03*
X96378000Y-92797500D03*
%TD*%
D16*
%TO.C,J1*%
X141986000Y-58554000D03*
D17*
X141986000Y-53554000D03*
X141986000Y-48554000D03*
X141986000Y-43554000D03*
%TD*%
D18*
%TO.C,Q7*%
X133506007Y-76213999D03*
X133506007Y-73913999D03*
X133506007Y-71613999D03*
D19*
X127206007Y-73913999D03*
%TD*%
D20*
%TO.C,H4*%
X145641000Y-110744000D03*
%TD*%
%TO.C,H2*%
X93726000Y-110744000D03*
%TD*%
D18*
%TO.C,Q9*%
X133506007Y-68593999D03*
X133506007Y-66293999D03*
X133506007Y-63993999D03*
D19*
X127206007Y-66293999D03*
%TD*%
D21*
%TO.C,U4*%
X94008076Y-72405000D03*
X96548076Y-72405000D03*
X99088076Y-72405000D03*
X101628076Y-72405000D03*
X104168076Y-72405000D03*
X106708076Y-72405000D03*
X109248076Y-72405000D03*
X109248076Y-54625000D03*
X106708076Y-54625000D03*
X104168076Y-54625000D03*
X101628076Y-54625000D03*
X99088076Y-54625000D03*
X96548076Y-54625000D03*
X94008076Y-54625000D03*
%TD*%
D20*
%TO.C,H1*%
X93726000Y-35814000D03*
%TD*%
D18*
%TO.C,Q5*%
X133506007Y-83833999D03*
X133506007Y-81533999D03*
X133506007Y-79233999D03*
D19*
X127206007Y-81533999D03*
%TD*%
D16*
%TO.C,J11*%
X105116000Y-42009000D03*
D17*
X100116000Y-42009000D03*
%TD*%
D18*
%TO.C,Q3*%
X133506007Y-91453999D03*
X133506007Y-89153999D03*
X133506007Y-86853999D03*
D19*
X127206007Y-89153999D03*
%TD*%
D16*
%TO.C,J4*%
X122856000Y-42009000D03*
D17*
X117856000Y-42009000D03*
X112856000Y-42009000D03*
%TD*%
D16*
%TO.C,J3*%
X141831000Y-104234000D03*
D17*
X141831000Y-99234000D03*
X141831000Y-94234000D03*
X141831000Y-89234000D03*
%TD*%
D18*
%TO.C,Q2*%
X133506007Y-99073999D03*
X133506007Y-96773999D03*
X133506007Y-94473999D03*
D19*
X127206007Y-96773999D03*
%TD*%
D20*
%TO.C,H3*%
X145641000Y-35814000D03*
%TD*%
D18*
%TO.C,Q1*%
X133506007Y-106693999D03*
X133506007Y-104393999D03*
X133506007Y-102093999D03*
D19*
X127206007Y-104393999D03*
%TD*%
D18*
%TO.C,Q4*%
X133506007Y-60973999D03*
X133506007Y-58673999D03*
X133506007Y-56373999D03*
D19*
X127206007Y-58673999D03*
%TD*%
D18*
%TO.C,Q6*%
X133506007Y-53353999D03*
X133506007Y-51053999D03*
X133506007Y-48753999D03*
D19*
X127206007Y-51053999D03*
%TD*%
D16*
%TO.C,J2*%
X141831000Y-81374000D03*
D17*
X141831000Y-76374000D03*
X141831000Y-71374000D03*
X141831000Y-66374000D03*
%TD*%
D18*
%TO.C,Q8*%
X133506007Y-45733999D03*
X133506007Y-43433999D03*
X133506007Y-41133999D03*
D19*
X127206007Y-43433999D03*
%TD*%
M02*
