%TF.GenerationSoftware,KiCad,Pcbnew,(6.0.6-0)*%
%TF.CreationDate,2024-04-04T07:50:36+02:00*%
%TF.ProjectId,9outputs,396f7574-7075-4747-932e-6b696361645f,rev?*%
%TF.SameCoordinates,Original*%
%TF.FileFunction,Copper,L1,Top*%
%TF.FilePolarity,Positive*%
%FSLAX46Y46*%
G04 Gerber Fmt 4.6, Leading zero omitted, Abs format (unit mm)*
G04 Created by KiCad (PCBNEW (6.0.6-0)) date 2024-04-04 07:50:36*
%MOMM*%
%LPD*%
G01*
G04 APERTURE LIST*
G04 Aperture macros list*
%AMRoundRect*
0 Rectangle with rounded corners*
0 $1 Rounding radius*
0 $2 $3 $4 $5 $6 $7 $8 $9 X,Y pos of 4 corners*
0 Add a 4 corners polygon primitive as box body*
4,1,4,$2,$3,$4,$5,$6,$7,$8,$9,$2,$3,0*
0 Add four circle primitives for the rounded corners*
1,1,$1+$1,$2,$3*
1,1,$1+$1,$4,$5*
1,1,$1+$1,$6,$7*
1,1,$1+$1,$8,$9*
0 Add four rect primitives between the rounded corners*
20,1,$1+$1,$2,$3,$4,$5,0*
20,1,$1+$1,$4,$5,$6,$7,0*
20,1,$1+$1,$6,$7,$8,$9,0*
20,1,$1+$1,$8,$9,$2,$3,0*%
G04 Aperture macros list end*
%TA.AperFunction,ComponentPad*%
%ADD10R,3.200000X3.200000*%
%TD*%
%TA.AperFunction,ComponentPad*%
%ADD11C,3.500000*%
%TD*%
%TA.AperFunction,ComponentPad*%
%ADD12C,4.155000*%
%TD*%
%TA.AperFunction,ComponentPad*%
%ADD13C,3.300000*%
%TD*%
%TA.AperFunction,ComponentPad*%
%ADD14C,3.630000*%
%TD*%
%TA.AperFunction,ComponentPad*%
%ADD15R,2.600000X2.600000*%
%TD*%
%TA.AperFunction,ComponentPad*%
%ADD16C,2.600000*%
%TD*%
%TA.AperFunction,SMDPad,CuDef*%
%ADD17R,2.000000X1.500000*%
%TD*%
%TA.AperFunction,SMDPad,CuDef*%
%ADD18R,2.000000X3.800000*%
%TD*%
%TA.AperFunction,SMDPad,CuDef*%
%ADD19RoundRect,0.800000X0.000000X-0.700000X0.000000X0.700000X0.000000X0.700000X0.000000X-0.700000X0*%
%TD*%
%TA.AperFunction,ViaPad*%
%ADD20C,4.000000*%
%TD*%
%TA.AperFunction,Conductor*%
%ADD21C,4.000000*%
%TD*%
%TA.AperFunction,Conductor*%
%ADD22C,2.000000*%
%TD*%
%TA.AperFunction,Conductor*%
%ADD23C,1.500000*%
%TD*%
G04 APERTURE END LIST*
D10*
%TO.P,1111,1,1*%
%TO.N,+5V*%
X103528000Y-87397500D03*
D11*
%TO.P,1111,2,2*%
%TO.N,+12V*%
X103528000Y-93197500D03*
%TO.P,1111,3,3*%
%TO.N,GND*%
X99878000Y-87797500D03*
%TO.P,1111,4,4*%
X99878000Y-92797500D03*
D12*
%TO.P,1111,MH1,MH1*%
%TO.N,unconnected-(1111-PadMH1)*%
X104878000Y-82497500D03*
%TO.P,1111,MH2,MH2*%
%TO.N,unconnected-(1111-PadMH2)*%
X104878000Y-98097500D03*
D13*
%TO.P,1111,MH3,MH3*%
%TO.N,unconnected-(1111-PadMH3)*%
X96378000Y-82497500D03*
%TO.P,1111,MH4,MH4*%
%TO.N,unconnected-(1111-PadMH4)*%
X96378000Y-98097500D03*
D14*
%TO.P,1111,MH5,MH5*%
%TO.N,unconnected-(1111-PadMH5)*%
X94378000Y-90297500D03*
%TD*%
D15*
%TO.P,J1,1,Pin_1*%
%TO.N,GND_OUT7*%
X141986000Y-58554000D03*
D16*
%TO.P,J1,2,Pin_2*%
%TO.N,GND_OUT8*%
X141986000Y-53554000D03*
%TO.P,J1,3,Pin_3*%
%TO.N,GND_OUT9*%
X141986000Y-48554000D03*
%TO.P,J1,4,Pin_4*%
%TO.N,+12V*%
X141986000Y-43554000D03*
%TD*%
D17*
%TO.P,Q7,1,G*%
%TO.N,OUT5*%
X133506007Y-76213999D03*
%TO.P,Q7,2,D*%
%TO.N,GND_OUT5*%
X133506007Y-73913999D03*
%TO.P,Q7,3,S*%
%TO.N,GND*%
X133506007Y-71613999D03*
D18*
%TO.P,Q7,4,S*%
X127206007Y-73913999D03*
%TD*%
D17*
%TO.P,Q9,1,G*%
%TO.N,OUT6*%
X133506007Y-68593999D03*
%TO.P,Q9,2,D*%
%TO.N,GND_OUT6*%
X133506007Y-66293999D03*
%TO.P,Q9,3,S*%
%TO.N,GND*%
X133506007Y-63993999D03*
D18*
%TO.P,Q9,4,S*%
X127206007Y-66293999D03*
%TD*%
D19*
%TO.P,U4,1,PA02_A0_D0*%
%TO.N,OUT7*%
X94008076Y-72405000D03*
%TO.P,U4,2,PA4_A1_D1*%
%TO.N,OUT6*%
X96548076Y-72405000D03*
%TO.P,U4,3,PA10_A2_D2*%
%TO.N,OUT5*%
X99088076Y-72405000D03*
%TO.P,U4,4,PA11_A3_D3*%
%TO.N,OUT4*%
X101628076Y-72405000D03*
%TO.P,U4,5,PA8_A4_D4_SDA*%
%TO.N,OUT3*%
X104168076Y-72405000D03*
%TO.P,U4,6,PA9_A5_D5_SCL*%
%TO.N,OUT2*%
X106708076Y-72405000D03*
%TO.P,U4,7,PB08_A6_D6_TX*%
%TO.N,OUT1*%
X109248076Y-72405000D03*
%TO.P,U4,8,PB09_A7_D7_RX*%
%TO.N,OUT8*%
X109248076Y-54625000D03*
%TO.P,U4,9,PA7_A8_D8_SCK*%
%TO.N,OUT9*%
X106708076Y-54625000D03*
%TO.P,U4,10,PA5_A9_D9_MISO*%
%TO.N,IN2*%
X104168076Y-54625000D03*
%TO.P,U4,11,PA6_A10_D10_MOSI*%
%TO.N,IN1*%
X101628076Y-54625000D03*
%TO.P,U4,12,3V3*%
%TO.N,+3.3V*%
X99088076Y-54625000D03*
%TO.P,U4,13,GND*%
%TO.N,GND*%
X96548076Y-54625000D03*
%TO.P,U4,14,5V*%
%TO.N,+5V*%
X94008076Y-54625000D03*
%TD*%
D17*
%TO.P,Q5,1,G*%
%TO.N,OUT4*%
X133506007Y-83833999D03*
%TO.P,Q5,2,D*%
%TO.N,GND_OUT4*%
X133506007Y-81533999D03*
%TO.P,Q5,3,S*%
%TO.N,GND*%
X133506007Y-79233999D03*
D18*
%TO.P,Q5,4,S*%
X127206007Y-81533999D03*
%TD*%
D15*
%TO.P,J11,1,Pin_1*%
%TO.N,GND*%
X105116000Y-42009000D03*
D16*
%TO.P,J11,2,Pin_2*%
%TO.N,IN1*%
X100116000Y-42009000D03*
%TD*%
D17*
%TO.P,Q3,1,G*%
%TO.N,OUT3*%
X133506007Y-91453999D03*
%TO.P,Q3,2,D*%
%TO.N,GND_OUT3*%
X133506007Y-89153999D03*
%TO.P,Q3,3,S*%
%TO.N,GND*%
X133506007Y-86853999D03*
D18*
%TO.P,Q3,4,S*%
X127206007Y-89153999D03*
%TD*%
D15*
%TO.P,J4,1,Pin_1*%
%TO.N,GND*%
X122856000Y-42009000D03*
D16*
%TO.P,J4,2,Pin_2*%
%TO.N,IN2*%
X117856000Y-42009000D03*
%TO.P,J4,3,Pin_3*%
%TO.N,+3.3V*%
X112856000Y-42009000D03*
%TD*%
D15*
%TO.P,J3,1,Pin_1*%
%TO.N,GND_OUT1*%
X141831000Y-104234000D03*
D16*
%TO.P,J3,2,Pin_2*%
%TO.N,GND_OUT2*%
X141831000Y-99234000D03*
%TO.P,J3,3,Pin_3*%
%TO.N,GND_OUT3*%
X141831000Y-94234000D03*
%TO.P,J3,4,Pin_4*%
%TO.N,+12V*%
X141831000Y-89234000D03*
%TD*%
D17*
%TO.P,Q2,1,G*%
%TO.N,OUT2*%
X133506007Y-99073999D03*
%TO.P,Q2,2,D*%
%TO.N,GND_OUT2*%
X133506007Y-96773999D03*
%TO.P,Q2,3,S*%
%TO.N,GND*%
X133506007Y-94473999D03*
D18*
%TO.P,Q2,4,S*%
X127206007Y-96773999D03*
%TD*%
D17*
%TO.P,Q1,1,G*%
%TO.N,OUT1*%
X133506007Y-106693999D03*
%TO.P,Q1,2,D*%
%TO.N,GND_OUT1*%
X133506007Y-104393999D03*
%TO.P,Q1,3,S*%
%TO.N,GND*%
X133506007Y-102093999D03*
D18*
%TO.P,Q1,4,S*%
X127206007Y-104393999D03*
%TD*%
D17*
%TO.P,Q4,1,G*%
%TO.N,OUT7*%
X133506007Y-60973999D03*
%TO.P,Q4,2,D*%
%TO.N,GND_OUT7*%
X133506007Y-58673999D03*
%TO.P,Q4,3,S*%
%TO.N,GND*%
X133506007Y-56373999D03*
D18*
%TO.P,Q4,4,S*%
X127206007Y-58673999D03*
%TD*%
D17*
%TO.P,Q6,1,G*%
%TO.N,OUT8*%
X133506007Y-53353999D03*
%TO.P,Q6,2,D*%
%TO.N,GND_OUT8*%
X133506007Y-51053999D03*
%TO.P,Q6,3,S*%
%TO.N,GND*%
X133506007Y-48753999D03*
D18*
%TO.P,Q6,4,S*%
X127206007Y-51053999D03*
%TD*%
D15*
%TO.P,J2,1,Pin_1*%
%TO.N,GND_OUT4*%
X141831000Y-81374000D03*
D16*
%TO.P,J2,2,Pin_2*%
%TO.N,GND_OUT5*%
X141831000Y-76374000D03*
%TO.P,J2,3,Pin_3*%
%TO.N,GND_OUT6*%
X141831000Y-71374000D03*
%TO.P,J2,4,Pin_4*%
%TO.N,+12V*%
X141831000Y-66374000D03*
%TD*%
D17*
%TO.P,Q8,1,G*%
%TO.N,OUT9*%
X133506007Y-45733999D03*
%TO.P,Q8,2,D*%
%TO.N,GND_OUT9*%
X133506007Y-43433999D03*
%TO.P,Q8,3,S*%
%TO.N,GND*%
X133506007Y-41133999D03*
D18*
%TO.P,Q8,4,S*%
X127206007Y-43433999D03*
%TD*%
D20*
%TO.N,GND*%
X93726000Y-50419000D03*
X122936000Y-96774000D03*
X122936000Y-73914000D03*
X122936000Y-66294000D03*
X122936000Y-58674000D03*
X122936000Y-51054000D03*
X122936000Y-81534000D03*
X122936000Y-89154000D03*
X122936000Y-104394000D03*
%TD*%
D21*
%TO.N,GND*%
X127206007Y-51053999D02*
X122936000Y-51054000D01*
D22*
X133506007Y-56373999D02*
X129506007Y-56373999D01*
X129506007Y-86853999D02*
X127206007Y-89153999D01*
X129506007Y-63993999D02*
X127206007Y-66293999D01*
X129506007Y-102093999D02*
X127206007Y-104393999D01*
D21*
X127206007Y-96773999D02*
X122936000Y-96774000D01*
X127206007Y-58673999D02*
X122936000Y-58674000D01*
D22*
X129506007Y-79233999D02*
X127206007Y-81533999D01*
X129506007Y-48753999D02*
X127206007Y-51053999D01*
X96548076Y-53241076D02*
X93726000Y-50419000D01*
X133506007Y-71613999D02*
X129506007Y-71613999D01*
X133506007Y-41133999D02*
X129506007Y-41133999D01*
X129506007Y-56373999D02*
X127206007Y-58673999D01*
D21*
X127206007Y-81533999D02*
X122936000Y-81534000D01*
D22*
X133506007Y-48753999D02*
X129506007Y-48753999D01*
X133506007Y-63993999D02*
X129506007Y-63993999D01*
D21*
X124280999Y-43433999D02*
X122856000Y-42009000D01*
D22*
X129506007Y-94473999D02*
X127206007Y-96773999D01*
D21*
X127206007Y-43433999D02*
X124280999Y-43433999D01*
X127206007Y-104393999D02*
X122936000Y-104394000D01*
X127206007Y-89153999D02*
X122936000Y-89154000D01*
X127206007Y-73913999D02*
X122936000Y-73914000D01*
D22*
X133506007Y-79233999D02*
X129506007Y-79233999D01*
X133506007Y-86853999D02*
X129506007Y-86853999D01*
X96548076Y-54625000D02*
X96548076Y-53241076D01*
X133506007Y-94473999D02*
X129506007Y-94473999D01*
X133506007Y-102093999D02*
X129506007Y-102093999D01*
D21*
X127206007Y-66293999D02*
X122936000Y-66294000D01*
D22*
X129506007Y-41133999D02*
X127206007Y-43433999D01*
X129506007Y-71613999D02*
X127206007Y-73913999D01*
D23*
%TO.N,+3.3V*%
X97536000Y-38989000D02*
X109836000Y-38989000D01*
X95631000Y-40894000D02*
X97536000Y-38989000D01*
X109836000Y-38989000D02*
X112856000Y-42009000D01*
X99088076Y-54625000D02*
X99088076Y-51336076D01*
X95631000Y-47879000D02*
X95631000Y-40894000D01*
X99088076Y-51336076D02*
X95631000Y-47879000D01*
%TO.N,OUT1*%
X133506007Y-106693999D02*
X129526001Y-106693999D01*
X129526001Y-106693999D02*
X128016000Y-108204000D01*
X109248076Y-89662170D02*
X109248076Y-72405000D01*
X128016000Y-108204000D02*
X122301000Y-108204000D01*
X118491000Y-98905094D02*
X109248076Y-89662170D01*
X122301000Y-108204000D02*
X118491000Y-104394000D01*
X118491000Y-104394000D02*
X118491000Y-98905094D01*
%TO.N,OUT3*%
X114046000Y-71374000D02*
X111506000Y-68834000D01*
X121441000Y-92104000D02*
X114046000Y-84709000D01*
X114046000Y-84709000D02*
X114046000Y-71374000D01*
X104168076Y-67916924D02*
X104168076Y-72405000D01*
X105341000Y-66744000D02*
X104168076Y-67916924D01*
X133506007Y-91453999D02*
X132856006Y-92104000D01*
X111506000Y-66744000D02*
X105341000Y-66744000D01*
X111506000Y-68834000D02*
X111506000Y-66744000D01*
X132856006Y-92104000D02*
X121441000Y-92104000D01*
%TO.N,OUT2*%
X129768291Y-99073999D02*
X128258290Y-100584000D01*
X106708076Y-69186924D02*
X106708076Y-72405000D01*
X107061000Y-68834000D02*
X106708076Y-69186924D01*
X133506007Y-99073999D02*
X129768291Y-99073999D01*
X111256418Y-89266348D02*
X111256418Y-71124418D01*
X111256418Y-71124418D02*
X108966000Y-68834000D01*
X128258290Y-100584000D02*
X122574070Y-100584000D01*
X122574070Y-100584000D02*
X111256418Y-89266348D01*
X108966000Y-68834000D02*
X107061000Y-68834000D01*
%TO.N,OUT4*%
X114046000Y-65044000D02*
X102596000Y-65044000D01*
X133506007Y-83833999D02*
X132856006Y-84484000D01*
X102596000Y-65044000D02*
X101628076Y-66011924D01*
X115951000Y-78720930D02*
X115951000Y-70104000D01*
X132856006Y-84484000D02*
X121714070Y-84484000D01*
X121714070Y-84484000D02*
X115951000Y-78720930D01*
X115951000Y-70104000D02*
X114046000Y-68199000D01*
X114046000Y-68199000D02*
X114046000Y-65044000D01*
X101628076Y-66011924D02*
X101628076Y-72405000D01*
D22*
%TO.N,GND_OUT1*%
X141831000Y-104234000D02*
X134477276Y-104234000D01*
%TO.N,GND_OUT2*%
X141831000Y-99234000D02*
X139370999Y-96773999D01*
X139370999Y-96773999D02*
X133506007Y-96773999D01*
%TO.N,GND_OUT3*%
X141831000Y-94234000D02*
X136750999Y-89153999D01*
X136750999Y-89153999D02*
X133506007Y-89153999D01*
D23*
%TO.N,OUT5*%
X99088076Y-72405000D02*
X99088076Y-65376924D01*
X118241418Y-69718582D02*
X118241418Y-73664418D01*
X99088076Y-65376924D02*
X101121000Y-63344000D01*
X101121000Y-63344000D02*
X114906000Y-63344000D01*
X118241418Y-73664418D02*
X121440999Y-76863999D01*
X121440999Y-76863999D02*
X132856007Y-76863999D01*
X114906000Y-63344000D02*
X116156000Y-64594000D01*
X116156000Y-67633163D02*
X118241418Y-69718582D01*
X116156000Y-64594000D02*
X116156000Y-67633163D01*
X132856007Y-76863999D02*
X133506007Y-76213999D01*
%TO.N,OUT9*%
X108966000Y-49149000D02*
X106708076Y-51406924D01*
X114046000Y-49149000D02*
X108966000Y-49149000D01*
X106708076Y-51406924D02*
X106708076Y-54625000D01*
X132856007Y-46383999D02*
X116811001Y-46383999D01*
X116811001Y-46383999D02*
X114046000Y-49149000D01*
X133506007Y-45733999D02*
X132856007Y-46383999D01*
%TO.N,IN1*%
X100076000Y-48514000D02*
X100116000Y-48474000D01*
X100116000Y-48474000D02*
X100116000Y-42009000D01*
X101628076Y-50066076D02*
X100076000Y-48514000D01*
X101628076Y-54625000D02*
X101628076Y-50066076D01*
%TO.N,IN2*%
X107696000Y-47244000D02*
X112621000Y-47244000D01*
X104168076Y-50771924D02*
X107696000Y-47244000D01*
X104168076Y-54625000D02*
X104168076Y-50771924D01*
X112621000Y-47244000D02*
X117856000Y-42009000D01*
%TO.N,OUT8*%
X109644076Y-54229000D02*
X132631006Y-54229000D01*
X109248076Y-54625000D02*
X109644076Y-54229000D01*
X132631006Y-54229000D02*
X133506007Y-53353999D01*
%TO.N,OUT7*%
X118265999Y-61623999D02*
X116586000Y-59944000D01*
X94008076Y-62201924D02*
X94008076Y-72405000D01*
X96266000Y-59944000D02*
X94008076Y-62201924D01*
X132856007Y-61623999D02*
X118265999Y-61623999D01*
X116586000Y-59944000D02*
X96266000Y-59944000D01*
X133506007Y-60973999D02*
X132856007Y-61623999D01*
%TO.N,OUT6*%
X117856000Y-66929000D02*
X117856000Y-63618164D01*
X132856006Y-69244000D02*
X120171000Y-69244000D01*
X120171000Y-69244000D02*
X117856000Y-66929000D01*
X97536000Y-61644000D02*
X96548076Y-62631924D01*
X96548076Y-62631924D02*
X96548076Y-72405000D01*
X115881836Y-61644000D02*
X97536000Y-61644000D01*
X133506007Y-68593999D02*
X132856006Y-69244000D01*
X117856000Y-63618164D02*
X115881836Y-61644000D01*
%TO.N,+5V*%
X103726000Y-86057044D02*
X98171000Y-80502044D01*
X96266000Y-77089000D02*
X92456000Y-77089000D01*
X91821000Y-56769000D02*
X93965000Y-54625000D01*
X91821000Y-76454000D02*
X91821000Y-56769000D01*
X98171000Y-78994000D02*
X96266000Y-77089000D01*
X92456000Y-77089000D02*
X91821000Y-76454000D01*
X93965000Y-54625000D02*
X94008076Y-54625000D01*
X98171000Y-80502044D02*
X98171000Y-78994000D01*
X103726000Y-87484000D02*
X103726000Y-86057044D01*
D22*
%TO.N,GND_OUT7*%
X141866001Y-58673999D02*
X141986000Y-58554000D01*
X133506007Y-58673999D02*
X141866001Y-58673999D01*
%TO.N,GND_OUT8*%
X139485999Y-51053999D02*
X133506007Y-51053999D01*
X141986000Y-53554000D02*
X139485999Y-51053999D01*
%TO.N,GND_OUT9*%
X141986000Y-48554000D02*
X136865999Y-43433999D01*
X136865999Y-43433999D02*
X133506007Y-43433999D01*
%TO.N,GND_OUT4*%
X141671001Y-81533999D02*
X141831000Y-81374000D01*
X133506007Y-81533999D02*
X141671001Y-81533999D01*
%TO.N,GND_OUT5*%
X139370999Y-73913999D02*
X133506007Y-73913999D01*
X141831000Y-76374000D02*
X139370999Y-73913999D01*
%TO.N,GND_OUT6*%
X141831000Y-71374000D02*
X136750999Y-66293999D01*
X136750999Y-66293999D02*
X133506007Y-66293999D01*
%TD*%
M02*
