%TF.GenerationSoftware,KiCad,Pcbnew,(6.0.6-0)*%
%TF.CreationDate,2024-04-04T07:50:36+02:00*%
%TF.ProjectId,9outputs,396f7574-7075-4747-932e-6b696361645f,rev?*%
%TF.SameCoordinates,Original*%
%TF.FileFunction,Legend,Top*%
%TF.FilePolarity,Positive*%
%FSLAX46Y46*%
G04 Gerber Fmt 4.6, Leading zero omitted, Abs format (unit mm)*
G04 Created by KiCad (PCBNEW (6.0.6-0)) date 2024-04-04 07:50:36*
%MOMM*%
%LPD*%
G01*
G04 APERTURE LIST*
%ADD10C,0.325000*%
%ADD11C,0.300000*%
%ADD12C,0.200000*%
%ADD13C,0.254000*%
%ADD14C,0.150000*%
%ADD15C,0.250000*%
%ADD16C,0.100000*%
%ADD17C,0.120000*%
%ADD18C,0.127000*%
G04 APERTURE END LIST*
D10*
X134726864Y-89190237D02*
X134726864Y-88199760D01*
X135222102Y-88694999D02*
X134231626Y-88694999D01*
D11*
X147589571Y-81069714D02*
X146875285Y-81569714D01*
X147589571Y-81926857D02*
X146089571Y-81926857D01*
X146089571Y-81355428D01*
X146161000Y-81212571D01*
X146232428Y-81141142D01*
X146375285Y-81069714D01*
X146589571Y-81069714D01*
X146732428Y-81141142D01*
X146803857Y-81212571D01*
X146875285Y-81355428D01*
X146875285Y-81926857D01*
X147589571Y-67222571D02*
X147589571Y-68079714D01*
X147589571Y-67651142D02*
X146089571Y-67651142D01*
X146303857Y-67794000D01*
X146446714Y-67936857D01*
X146518142Y-68079714D01*
X146232428Y-66651142D02*
X146161000Y-66579714D01*
X146089571Y-66436857D01*
X146089571Y-66079714D01*
X146161000Y-65936857D01*
X146232428Y-65865428D01*
X146375285Y-65794000D01*
X146518142Y-65794000D01*
X146732428Y-65865428D01*
X147589571Y-66722571D01*
X147589571Y-65794000D01*
X146089571Y-65365428D02*
X147589571Y-64865428D01*
X146089571Y-64365428D01*
X146161000Y-53201142D02*
X146089571Y-53344000D01*
X146089571Y-53558285D01*
X146161000Y-53772571D01*
X146303857Y-53915428D01*
X146446714Y-53986857D01*
X146732428Y-54058285D01*
X146946714Y-54058285D01*
X147232428Y-53986857D01*
X147375285Y-53915428D01*
X147518142Y-53772571D01*
X147589571Y-53558285D01*
X147589571Y-53415428D01*
X147518142Y-53201142D01*
X147446714Y-53129714D01*
X146946714Y-53129714D01*
X146946714Y-53415428D01*
X91634571Y-51974714D02*
X91634571Y-52689000D01*
X92348857Y-52760428D01*
X92277428Y-52689000D01*
X92206000Y-52546142D01*
X92206000Y-52189000D01*
X92277428Y-52046142D01*
X92348857Y-51974714D01*
X92491714Y-51903285D01*
X92848857Y-51903285D01*
X92991714Y-51974714D01*
X93063142Y-52046142D01*
X93134571Y-52189000D01*
X93134571Y-52546142D01*
X93063142Y-52689000D01*
X92991714Y-52760428D01*
X91634571Y-51474714D02*
X93134571Y-50974714D01*
X91634571Y-50474714D01*
X97984571Y-51998285D02*
X97984571Y-51069714D01*
X98556000Y-51569714D01*
X98556000Y-51355428D01*
X98627428Y-51212571D01*
X98698857Y-51141142D01*
X98841714Y-51069714D01*
X99198857Y-51069714D01*
X99341714Y-51141142D01*
X99413142Y-51212571D01*
X99484571Y-51355428D01*
X99484571Y-51784000D01*
X99413142Y-51926857D01*
X99341714Y-51998285D01*
X99341714Y-50426857D02*
X99413142Y-50355428D01*
X99484571Y-50426857D01*
X99413142Y-50498285D01*
X99341714Y-50426857D01*
X99484571Y-50426857D01*
X97984571Y-49855428D02*
X97984571Y-48926857D01*
X98556000Y-49426857D01*
X98556000Y-49212571D01*
X98627428Y-49069714D01*
X98698857Y-48998285D01*
X98841714Y-48926857D01*
X99198857Y-48926857D01*
X99341714Y-48998285D01*
X99413142Y-49069714D01*
X99484571Y-49212571D01*
X99484571Y-49641142D01*
X99413142Y-49784000D01*
X99341714Y-49855428D01*
X97984571Y-48498285D02*
X99484571Y-47998285D01*
X97984571Y-47498285D01*
X108497428Y-47835428D02*
X108497428Y-49335428D01*
X107783142Y-47835428D02*
X107783142Y-49335428D01*
X106926000Y-47835428D01*
X106926000Y-49335428D01*
X104283142Y-47835428D02*
X105140285Y-47835428D01*
X104711714Y-47835428D02*
X104711714Y-49335428D01*
X104854571Y-49121142D01*
X104997428Y-48978285D01*
X105140285Y-48906857D01*
X123737428Y-47835428D02*
X123737428Y-49335428D01*
X123023142Y-47835428D02*
X123023142Y-49335428D01*
X122166000Y-47835428D01*
X122166000Y-49335428D01*
X120380285Y-49192571D02*
X120308857Y-49264000D01*
X120166000Y-49335428D01*
X119808857Y-49335428D01*
X119666000Y-49264000D01*
X119594571Y-49192571D01*
X119523142Y-49049714D01*
X119523142Y-48906857D01*
X119594571Y-48692571D01*
X120451714Y-47835428D01*
X119523142Y-47835428D01*
X110577428Y-94912571D02*
X109720285Y-94912571D01*
X110148857Y-94912571D02*
X110148857Y-93412571D01*
X110006000Y-93626857D01*
X109863142Y-93769714D01*
X109720285Y-93841142D01*
X111148857Y-93555428D02*
X111220285Y-93484000D01*
X111363142Y-93412571D01*
X111720285Y-93412571D01*
X111863142Y-93484000D01*
X111934571Y-93555428D01*
X112006000Y-93698285D01*
X112006000Y-93841142D01*
X111934571Y-94055428D01*
X111077428Y-94912571D01*
X112006000Y-94912571D01*
X112434571Y-93412571D02*
X112934571Y-94912571D01*
X113434571Y-93412571D01*
D12*
X134076483Y-103748237D02*
X134076483Y-103510141D01*
X134136007Y-103391094D01*
X134255054Y-103272046D01*
X134493149Y-103212522D01*
X134909816Y-103212522D01*
X135147911Y-103272046D01*
X135266959Y-103391094D01*
X135326483Y-103510141D01*
X135326483Y-103748237D01*
X135266959Y-103867284D01*
X135147911Y-103986332D01*
X134909816Y-104045856D01*
X134493149Y-104045856D01*
X134255054Y-103986332D01*
X134136007Y-103867284D01*
X134076483Y-103748237D01*
X134076483Y-102676808D02*
X135088387Y-102676808D01*
X135207435Y-102617284D01*
X135266959Y-102557760D01*
X135326483Y-102438713D01*
X135326483Y-102200618D01*
X135266959Y-102081570D01*
X135207435Y-102022046D01*
X135088387Y-101962522D01*
X134076483Y-101962522D01*
X134076483Y-101545856D02*
X134076483Y-100831570D01*
X135326483Y-101188713D02*
X134076483Y-101188713D01*
X135326483Y-99760141D02*
X135326483Y-100474427D01*
X135326483Y-100117284D02*
X134076483Y-100117284D01*
X134255054Y-100236332D01*
X134374102Y-100355379D01*
X134433626Y-100474427D01*
D11*
X146161000Y-76061142D02*
X146089571Y-76204000D01*
X146089571Y-76418285D01*
X146161000Y-76632571D01*
X146303857Y-76775428D01*
X146446714Y-76846857D01*
X146732428Y-76918285D01*
X146946714Y-76918285D01*
X147232428Y-76846857D01*
X147375285Y-76775428D01*
X147518142Y-76632571D01*
X147589571Y-76418285D01*
X147589571Y-76275428D01*
X147518142Y-76061142D01*
X147446714Y-75989714D01*
X146946714Y-75989714D01*
X146946714Y-76275428D01*
D10*
X134726864Y-97572237D02*
X134726864Y-96581760D01*
X135222102Y-97076999D02*
X134231626Y-97076999D01*
D12*
X134076483Y-95112237D02*
X134076483Y-94874141D01*
X134136007Y-94755094D01*
X134255054Y-94636046D01*
X134493149Y-94576522D01*
X134909816Y-94576522D01*
X135147911Y-94636046D01*
X135266959Y-94755094D01*
X135326483Y-94874141D01*
X135326483Y-95112237D01*
X135266959Y-95231284D01*
X135147911Y-95350332D01*
X134909816Y-95409856D01*
X134493149Y-95409856D01*
X134255054Y-95350332D01*
X134136007Y-95231284D01*
X134076483Y-95112237D01*
X134076483Y-94040808D02*
X135088387Y-94040808D01*
X135207435Y-93981284D01*
X135266959Y-93921760D01*
X135326483Y-93802713D01*
X135326483Y-93564618D01*
X135266959Y-93445570D01*
X135207435Y-93386046D01*
X135088387Y-93326522D01*
X134076483Y-93326522D01*
X134076483Y-92909856D02*
X134076483Y-92195570D01*
X135326483Y-92552713D02*
X134076483Y-92552713D01*
X134195530Y-91838427D02*
X134136007Y-91778903D01*
X134076483Y-91659856D01*
X134076483Y-91362237D01*
X134136007Y-91243189D01*
X134195530Y-91183665D01*
X134314578Y-91124141D01*
X134433626Y-91124141D01*
X134612197Y-91183665D01*
X135326483Y-91897951D01*
X135326483Y-91124141D01*
D11*
X147589571Y-44362571D02*
X147589571Y-45219714D01*
X147589571Y-44791142D02*
X146089571Y-44791142D01*
X146303857Y-44934000D01*
X146446714Y-45076857D01*
X146518142Y-45219714D01*
X146232428Y-43791142D02*
X146161000Y-43719714D01*
X146089571Y-43576857D01*
X146089571Y-43219714D01*
X146161000Y-43076857D01*
X146232428Y-43005428D01*
X146375285Y-42934000D01*
X146518142Y-42934000D01*
X146732428Y-43005428D01*
X147589571Y-43862571D01*
X147589571Y-42934000D01*
X146089571Y-42505428D02*
X147589571Y-42005428D01*
X146089571Y-41505428D01*
X146803857Y-48406857D02*
X146875285Y-48192571D01*
X146946714Y-48121142D01*
X147089571Y-48049714D01*
X147303857Y-48049714D01*
X147446714Y-48121142D01*
X147518142Y-48192571D01*
X147589571Y-48335428D01*
X147589571Y-48906857D01*
X146089571Y-48906857D01*
X146089571Y-48406857D01*
X146161000Y-48264000D01*
X146232428Y-48192571D01*
X146375285Y-48121142D01*
X146518142Y-48121142D01*
X146661000Y-48192571D01*
X146732428Y-48264000D01*
X146803857Y-48406857D01*
X146803857Y-48906857D01*
X147589571Y-90082571D02*
X147589571Y-90939714D01*
X147589571Y-90511142D02*
X146089571Y-90511142D01*
X146303857Y-90654000D01*
X146446714Y-90796857D01*
X146518142Y-90939714D01*
X146232428Y-89511142D02*
X146161000Y-89439714D01*
X146089571Y-89296857D01*
X146089571Y-88939714D01*
X146161000Y-88796857D01*
X146232428Y-88725428D01*
X146375285Y-88654000D01*
X146518142Y-88654000D01*
X146732428Y-88725428D01*
X147589571Y-89582571D01*
X147589571Y-88654000D01*
X146089571Y-88225428D02*
X147589571Y-87725428D01*
X146089571Y-87225428D01*
X147589571Y-103929714D02*
X146875285Y-104429714D01*
X147589571Y-104786857D02*
X146089571Y-104786857D01*
X146089571Y-104215428D01*
X146161000Y-104072571D01*
X146232428Y-104001142D01*
X146375285Y-103929714D01*
X146589571Y-103929714D01*
X146732428Y-104001142D01*
X146803857Y-104072571D01*
X146875285Y-104215428D01*
X146875285Y-104786857D01*
X111220285Y-87062571D02*
X110506000Y-87062571D01*
X110434571Y-87776857D01*
X110506000Y-87705428D01*
X110648857Y-87634000D01*
X111006000Y-87634000D01*
X111148857Y-87705428D01*
X111220285Y-87776857D01*
X111291714Y-87919714D01*
X111291714Y-88276857D01*
X111220285Y-88419714D01*
X111148857Y-88491142D01*
X111006000Y-88562571D01*
X110648857Y-88562571D01*
X110506000Y-88491142D01*
X110434571Y-88419714D01*
X111720285Y-87062571D02*
X112220285Y-88562571D01*
X112720285Y-87062571D01*
D12*
X131976233Y-87655237D02*
X131976233Y-87417141D01*
X132035757Y-87298094D01*
X132154804Y-87179046D01*
X132392899Y-87119522D01*
X132809566Y-87119522D01*
X133047661Y-87179046D01*
X133166709Y-87298094D01*
X133226233Y-87417141D01*
X133226233Y-87655237D01*
X133166709Y-87774284D01*
X133047661Y-87893332D01*
X132809566Y-87952856D01*
X132392899Y-87952856D01*
X132154804Y-87893332D01*
X132035757Y-87774284D01*
X131976233Y-87655237D01*
X131976233Y-86583808D02*
X132988137Y-86583808D01*
X133107185Y-86524284D01*
X133166709Y-86464760D01*
X133226233Y-86345713D01*
X133226233Y-86107618D01*
X133166709Y-85988570D01*
X133107185Y-85929046D01*
X132988137Y-85869522D01*
X131976233Y-85869522D01*
X131976233Y-85452856D02*
X131976233Y-84738570D01*
X133226233Y-85095713D02*
X131976233Y-85095713D01*
X131976233Y-84440951D02*
X131976233Y-83667141D01*
X132452423Y-84083808D01*
X132452423Y-83905237D01*
X132511947Y-83786189D01*
X132571471Y-83726665D01*
X132690518Y-83667141D01*
X132988137Y-83667141D01*
X133107185Y-83726665D01*
X133166709Y-83786189D01*
X133226233Y-83905237D01*
X133226233Y-84262379D01*
X133166709Y-84381427D01*
X133107185Y-84440951D01*
D11*
X101647428Y-33865428D02*
X101647428Y-35365428D01*
X99861714Y-35436857D02*
X101147428Y-33508285D01*
X99076000Y-35365428D02*
X98790285Y-35365428D01*
X98647428Y-35294000D01*
X98504571Y-35151142D01*
X98433142Y-34865428D01*
X98433142Y-34365428D01*
X98504571Y-34079714D01*
X98647428Y-33936857D01*
X98790285Y-33865428D01*
X99076000Y-33865428D01*
X99218857Y-33936857D01*
X99361714Y-34079714D01*
X99433142Y-34365428D01*
X99433142Y-34865428D01*
X99361714Y-35151142D01*
X99218857Y-35294000D01*
X99076000Y-35365428D01*
X106298857Y-35294000D02*
X106441714Y-35365428D01*
X106656000Y-35365428D01*
X106870285Y-35294000D01*
X107013142Y-35151142D01*
X107084571Y-35008285D01*
X107156000Y-34722571D01*
X107156000Y-34508285D01*
X107084571Y-34222571D01*
X107013142Y-34079714D01*
X106870285Y-33936857D01*
X106656000Y-33865428D01*
X106513142Y-33865428D01*
X106298857Y-33936857D01*
X106227428Y-34008285D01*
X106227428Y-34508285D01*
X106513142Y-34508285D01*
X105584571Y-33865428D02*
X105584571Y-35365428D01*
X104727428Y-33865428D01*
X104727428Y-35365428D01*
X104013142Y-33865428D02*
X104013142Y-35365428D01*
X103656000Y-35365428D01*
X103441714Y-35294000D01*
X103298857Y-35151142D01*
X103227428Y-35008285D01*
X103156000Y-34722571D01*
X103156000Y-34508285D01*
X103227428Y-34222571D01*
X103298857Y-34079714D01*
X103441714Y-33936857D01*
X103656000Y-33865428D01*
X104013142Y-33865428D01*
X147589571Y-58209714D02*
X146875285Y-58709714D01*
X147589571Y-59066857D02*
X146089571Y-59066857D01*
X146089571Y-58495428D01*
X146161000Y-58352571D01*
X146232428Y-58281142D01*
X146375285Y-58209714D01*
X146589571Y-58209714D01*
X146732428Y-58281142D01*
X146803857Y-58352571D01*
X146875285Y-58495428D01*
X146875285Y-59066857D01*
X119427428Y-33865428D02*
X119427428Y-35365428D01*
X117641714Y-35436857D02*
X118927428Y-33508285D01*
X116856000Y-35365428D02*
X116570285Y-35365428D01*
X116427428Y-35294000D01*
X116284571Y-35151142D01*
X116213142Y-34865428D01*
X116213142Y-34365428D01*
X116284571Y-34079714D01*
X116427428Y-33936857D01*
X116570285Y-33865428D01*
X116856000Y-33865428D01*
X116998857Y-33936857D01*
X117141714Y-34079714D01*
X117213142Y-34365428D01*
X117213142Y-34865428D01*
X117141714Y-35151142D01*
X116998857Y-35294000D01*
X116856000Y-35365428D01*
X114990285Y-35365428D02*
X114061714Y-35365428D01*
X114561714Y-34794000D01*
X114347428Y-34794000D01*
X114204571Y-34722571D01*
X114133142Y-34651142D01*
X114061714Y-34508285D01*
X114061714Y-34151142D01*
X114133142Y-34008285D01*
X114204571Y-33936857D01*
X114347428Y-33865428D01*
X114776000Y-33865428D01*
X114918857Y-33936857D01*
X114990285Y-34008285D01*
X113418857Y-34008285D02*
X113347428Y-33936857D01*
X113418857Y-33865428D01*
X113490285Y-33936857D01*
X113418857Y-34008285D01*
X113418857Y-33865428D01*
X112847428Y-35365428D02*
X111918857Y-35365428D01*
X112418857Y-34794000D01*
X112204571Y-34794000D01*
X112061714Y-34722571D01*
X111990285Y-34651142D01*
X111918857Y-34508285D01*
X111918857Y-34151142D01*
X111990285Y-34008285D01*
X112061714Y-33936857D01*
X112204571Y-33865428D01*
X112633142Y-33865428D01*
X112776000Y-33936857D01*
X112847428Y-34008285D01*
X111490285Y-35365428D02*
X110990285Y-33865428D01*
X110490285Y-35365428D01*
X124078857Y-35294000D02*
X124221714Y-35365428D01*
X124436000Y-35365428D01*
X124650285Y-35294000D01*
X124793142Y-35151142D01*
X124864571Y-35008285D01*
X124936000Y-34722571D01*
X124936000Y-34508285D01*
X124864571Y-34222571D01*
X124793142Y-34079714D01*
X124650285Y-33936857D01*
X124436000Y-33865428D01*
X124293142Y-33865428D01*
X124078857Y-33936857D01*
X124007428Y-34008285D01*
X124007428Y-34508285D01*
X124293142Y-34508285D01*
X123364571Y-33865428D02*
X123364571Y-35365428D01*
X122507428Y-33865428D01*
X122507428Y-35365428D01*
X121793142Y-33865428D02*
X121793142Y-35365428D01*
X121436000Y-35365428D01*
X121221714Y-35294000D01*
X121078857Y-35151142D01*
X121007428Y-35008285D01*
X120936000Y-34722571D01*
X120936000Y-34508285D01*
X121007428Y-34222571D01*
X121078857Y-34079714D01*
X121221714Y-33936857D01*
X121436000Y-33865428D01*
X121793142Y-33865428D01*
X95516000Y-50926857D02*
X95444571Y-51069714D01*
X95444571Y-51284000D01*
X95516000Y-51498285D01*
X95658857Y-51641142D01*
X95801714Y-51712571D01*
X96087428Y-51784000D01*
X96301714Y-51784000D01*
X96587428Y-51712571D01*
X96730285Y-51641142D01*
X96873142Y-51498285D01*
X96944571Y-51284000D01*
X96944571Y-51141142D01*
X96873142Y-50926857D01*
X96801714Y-50855428D01*
X96301714Y-50855428D01*
X96301714Y-51141142D01*
X96944571Y-50212571D02*
X95444571Y-50212571D01*
X96944571Y-49355428D01*
X95444571Y-49355428D01*
X96944571Y-48641142D02*
X95444571Y-48641142D01*
X95444571Y-48284000D01*
X95516000Y-48069714D01*
X95658857Y-47926857D01*
X95801714Y-47855428D01*
X96087428Y-47784000D01*
X96301714Y-47784000D01*
X96587428Y-47855428D01*
X96730285Y-47926857D01*
X96873142Y-48069714D01*
X96944571Y-48284000D01*
X96944571Y-48641142D01*
X99358142Y-108159357D02*
X99858142Y-108159357D01*
X100072428Y-108945071D02*
X99358142Y-108945071D01*
X99358142Y-107445071D01*
X100072428Y-107445071D01*
X100643857Y-108873642D02*
X100858142Y-108945071D01*
X101215285Y-108945071D01*
X101358142Y-108873642D01*
X101429571Y-108802214D01*
X101501000Y-108659357D01*
X101501000Y-108516500D01*
X101429571Y-108373642D01*
X101358142Y-108302214D01*
X101215285Y-108230785D01*
X100929571Y-108159357D01*
X100786714Y-108087928D01*
X100715285Y-108016500D01*
X100643857Y-107873642D01*
X100643857Y-107730785D01*
X100715285Y-107587928D01*
X100786714Y-107516500D01*
X100929571Y-107445071D01*
X101286714Y-107445071D01*
X101501000Y-107516500D01*
X102143857Y-108945071D02*
X102143857Y-107445071D01*
X102715285Y-107445071D01*
X102858142Y-107516500D01*
X102929571Y-107587928D01*
X103001000Y-107730785D01*
X103001000Y-107945071D01*
X102929571Y-108087928D01*
X102858142Y-108159357D01*
X102715285Y-108230785D01*
X102143857Y-108230785D01*
X103501000Y-107445071D02*
X104429571Y-107445071D01*
X103929571Y-108016500D01*
X104143857Y-108016500D01*
X104286714Y-108087928D01*
X104358142Y-108159357D01*
X104429571Y-108302214D01*
X104429571Y-108659357D01*
X104358142Y-108802214D01*
X104286714Y-108873642D01*
X104143857Y-108945071D01*
X103715285Y-108945071D01*
X103572428Y-108873642D01*
X103501000Y-108802214D01*
X105001000Y-107587928D02*
X105072428Y-107516500D01*
X105215285Y-107445071D01*
X105572428Y-107445071D01*
X105715285Y-107516500D01*
X105786714Y-107587928D01*
X105858142Y-107730785D01*
X105858142Y-107873642D01*
X105786714Y-108087928D01*
X104929571Y-108945071D01*
X105858142Y-108945071D01*
X106501000Y-108373642D02*
X107643857Y-108373642D01*
X109215285Y-108802214D02*
X109143857Y-108873642D01*
X108929571Y-108945071D01*
X108786714Y-108945071D01*
X108572428Y-108873642D01*
X108429571Y-108730785D01*
X108358142Y-108587928D01*
X108286714Y-108302214D01*
X108286714Y-108087928D01*
X108358142Y-107802214D01*
X108429571Y-107659357D01*
X108572428Y-107516500D01*
X108786714Y-107445071D01*
X108929571Y-107445071D01*
X109143857Y-107516500D01*
X109215285Y-107587928D01*
X109715285Y-107445071D02*
X110643857Y-107445071D01*
X110143857Y-108016500D01*
X110358142Y-108016500D01*
X110501000Y-108087928D01*
X110572428Y-108159357D01*
X110643857Y-108302214D01*
X110643857Y-108659357D01*
X110572428Y-108802214D01*
X110501000Y-108873642D01*
X110358142Y-108945071D01*
X109929571Y-108945071D01*
X109786714Y-108873642D01*
X109715285Y-108802214D01*
X112358142Y-107373642D02*
X111072428Y-109302214D01*
X112786714Y-108873642D02*
X113001000Y-108945071D01*
X113358142Y-108945071D01*
X113501000Y-108873642D01*
X113572428Y-108802214D01*
X113643857Y-108659357D01*
X113643857Y-108516500D01*
X113572428Y-108373642D01*
X113501000Y-108302214D01*
X113358142Y-108230785D01*
X113072428Y-108159357D01*
X112929571Y-108087928D01*
X112858142Y-108016500D01*
X112786714Y-107873642D01*
X112786714Y-107730785D01*
X112858142Y-107587928D01*
X112929571Y-107516500D01*
X113072428Y-107445071D01*
X113429571Y-107445071D01*
X113643857Y-107516500D01*
X114143857Y-107445071D02*
X115072428Y-107445071D01*
X114572428Y-108016500D01*
X114786714Y-108016500D01*
X114929571Y-108087928D01*
X115001000Y-108159357D01*
X115072428Y-108302214D01*
X115072428Y-108659357D01*
X115001000Y-108802214D01*
X114929571Y-108873642D01*
X114786714Y-108945071D01*
X114358142Y-108945071D01*
X114215285Y-108873642D01*
X114143857Y-108802214D01*
X116715285Y-107445071D02*
X117715285Y-108945071D01*
X117715285Y-107445071D02*
X116715285Y-108945071D01*
X118286714Y-108945071D02*
X118286714Y-107445071D01*
X118929571Y-108516500D02*
X119643857Y-108516500D01*
X118786714Y-108945071D02*
X119286714Y-107445071D01*
X119786714Y-108945071D01*
X120572428Y-107445071D02*
X120858142Y-107445071D01*
X121001000Y-107516500D01*
X121143857Y-107659357D01*
X121215285Y-107945071D01*
X121215285Y-108445071D01*
X121143857Y-108730785D01*
X121001000Y-108873642D01*
X120858142Y-108945071D01*
X120572428Y-108945071D01*
X120429571Y-108873642D01*
X120286714Y-108730785D01*
X120215285Y-108445071D01*
X120215285Y-107945071D01*
X120286714Y-107659357D01*
X120429571Y-107516500D01*
X120572428Y-107445071D01*
X99429571Y-111360071D02*
X99715285Y-111360071D01*
X99858142Y-111288642D01*
X99929571Y-111217214D01*
X100072428Y-111002928D01*
X100143857Y-110717214D01*
X100143857Y-110145785D01*
X100072428Y-110002928D01*
X100001000Y-109931500D01*
X99858142Y-109860071D01*
X99572428Y-109860071D01*
X99429571Y-109931500D01*
X99358142Y-110002928D01*
X99286714Y-110145785D01*
X99286714Y-110502928D01*
X99358142Y-110645785D01*
X99429571Y-110717214D01*
X99572428Y-110788642D01*
X99858142Y-110788642D01*
X100001000Y-110717214D01*
X100072428Y-110645785D01*
X100143857Y-110502928D01*
X102143857Y-111360071D02*
X102001000Y-111288642D01*
X101929571Y-111217214D01*
X101858142Y-111074357D01*
X101858142Y-110645785D01*
X101929571Y-110502928D01*
X102001000Y-110431500D01*
X102143857Y-110360071D01*
X102358142Y-110360071D01*
X102501000Y-110431500D01*
X102572428Y-110502928D01*
X102643857Y-110645785D01*
X102643857Y-111074357D01*
X102572428Y-111217214D01*
X102501000Y-111288642D01*
X102358142Y-111360071D01*
X102143857Y-111360071D01*
X103929571Y-110360071D02*
X103929571Y-111360071D01*
X103286714Y-110360071D02*
X103286714Y-111145785D01*
X103358142Y-111288642D01*
X103501000Y-111360071D01*
X103715285Y-111360071D01*
X103858142Y-111288642D01*
X103929571Y-111217214D01*
X104429571Y-110360071D02*
X105001000Y-110360071D01*
X104643857Y-109860071D02*
X104643857Y-111145785D01*
X104715285Y-111288642D01*
X104858142Y-111360071D01*
X105001000Y-111360071D01*
X105501000Y-110360071D02*
X105501000Y-111860071D01*
X105501000Y-110431500D02*
X105643857Y-110360071D01*
X105929571Y-110360071D01*
X106072428Y-110431500D01*
X106143857Y-110502928D01*
X106215285Y-110645785D01*
X106215285Y-111074357D01*
X106143857Y-111217214D01*
X106072428Y-111288642D01*
X105929571Y-111360071D01*
X105643857Y-111360071D01*
X105501000Y-111288642D01*
X107501000Y-110360071D02*
X107501000Y-111360071D01*
X106858142Y-110360071D02*
X106858142Y-111145785D01*
X106929571Y-111288642D01*
X107072428Y-111360071D01*
X107286714Y-111360071D01*
X107429571Y-111288642D01*
X107501000Y-111217214D01*
X108001000Y-110360071D02*
X108572428Y-110360071D01*
X108215285Y-109860071D02*
X108215285Y-111145785D01*
X108286714Y-111288642D01*
X108429571Y-111360071D01*
X108572428Y-111360071D01*
X109001000Y-111288642D02*
X109143857Y-111360071D01*
X109429571Y-111360071D01*
X109572428Y-111288642D01*
X109643857Y-111145785D01*
X109643857Y-111074357D01*
X109572428Y-110931500D01*
X109429571Y-110860071D01*
X109215285Y-110860071D01*
X109072428Y-110788642D01*
X109001000Y-110645785D01*
X109001000Y-110574357D01*
X109072428Y-110431500D01*
X109215285Y-110360071D01*
X109429571Y-110360071D01*
X109572428Y-110431500D01*
X111429571Y-110788642D02*
X112572428Y-110788642D01*
X114286714Y-110360071D02*
X114643857Y-111360071D01*
X115001000Y-110360071D01*
X116358142Y-111360071D02*
X115501000Y-111360071D01*
X115929571Y-111360071D02*
X115929571Y-109860071D01*
X115786714Y-110074357D01*
X115643857Y-110217214D01*
X115501000Y-110288642D01*
X117001000Y-111217214D02*
X117072428Y-111288642D01*
X117001000Y-111360071D01*
X116929571Y-111288642D01*
X117001000Y-111217214D01*
X117001000Y-111360071D01*
X118501000Y-111360071D02*
X117643857Y-111360071D01*
X118072428Y-111360071D02*
X118072428Y-109860071D01*
X117929571Y-110074357D01*
X117786714Y-110217214D01*
X117643857Y-110288642D01*
X119143857Y-111217214D02*
X119215285Y-111288642D01*
X119143857Y-111360071D01*
X119072428Y-111288642D01*
X119143857Y-111217214D01*
X119143857Y-111360071D01*
X120143857Y-109860071D02*
X120286714Y-109860071D01*
X120429571Y-109931500D01*
X120501000Y-110002928D01*
X120572428Y-110145785D01*
X120643857Y-110431500D01*
X120643857Y-110788642D01*
X120572428Y-111074357D01*
X120501000Y-111217214D01*
X120429571Y-111288642D01*
X120286714Y-111360071D01*
X120143857Y-111360071D01*
X120001000Y-111288642D01*
X119929571Y-111217214D01*
X119858142Y-111074357D01*
X119786714Y-110788642D01*
X119786714Y-110431500D01*
X119858142Y-110145785D01*
X119929571Y-110002928D01*
X120001000Y-109931500D01*
X120143857Y-109860071D01*
D10*
X134726864Y-105954237D02*
X134726864Y-104963760D01*
X135222102Y-105458999D02*
X134231626Y-105458999D01*
D11*
X146803857Y-94126857D02*
X146875285Y-93912571D01*
X146946714Y-93841142D01*
X147089571Y-93769714D01*
X147303857Y-93769714D01*
X147446714Y-93841142D01*
X147518142Y-93912571D01*
X147589571Y-94055428D01*
X147589571Y-94626857D01*
X146089571Y-94626857D01*
X146089571Y-94126857D01*
X146161000Y-93984000D01*
X146232428Y-93912571D01*
X146375285Y-93841142D01*
X146518142Y-93841142D01*
X146661000Y-93912571D01*
X146732428Y-93984000D01*
X146803857Y-94126857D01*
X146803857Y-94626857D01*
X146161000Y-98921142D02*
X146089571Y-99064000D01*
X146089571Y-99278285D01*
X146161000Y-99492571D01*
X146303857Y-99635428D01*
X146446714Y-99706857D01*
X146732428Y-99778285D01*
X146946714Y-99778285D01*
X147232428Y-99706857D01*
X147375285Y-99635428D01*
X147518142Y-99492571D01*
X147589571Y-99278285D01*
X147589571Y-99135428D01*
X147518142Y-98921142D01*
X147446714Y-98849714D01*
X146946714Y-98849714D01*
X146946714Y-99135428D01*
X146803857Y-71266857D02*
X146875285Y-71052571D01*
X146946714Y-70981142D01*
X147089571Y-70909714D01*
X147303857Y-70909714D01*
X147446714Y-70981142D01*
X147518142Y-71052571D01*
X147589571Y-71195428D01*
X147589571Y-71766857D01*
X146089571Y-71766857D01*
X146089571Y-71266857D01*
X146161000Y-71124000D01*
X146232428Y-71052571D01*
X146375285Y-70981142D01*
X146518142Y-70981142D01*
X146661000Y-71052571D01*
X146732428Y-71124000D01*
X146803857Y-71266857D01*
X146803857Y-71766857D01*
D13*
%TO.C,1111*%
X98491523Y-91748928D02*
X98491523Y-92474642D01*
X98491523Y-92111785D02*
X97221523Y-92111785D01*
X97402952Y-92232738D01*
X97523904Y-92353690D01*
X97584380Y-92474642D01*
X98491523Y-90539404D02*
X98491523Y-91265119D01*
X98491523Y-90902261D02*
X97221523Y-90902261D01*
X97402952Y-91023214D01*
X97523904Y-91144166D01*
X97584380Y-91265119D01*
X98491523Y-89329880D02*
X98491523Y-90055595D01*
X98491523Y-89692738D02*
X97221523Y-89692738D01*
X97402952Y-89813690D01*
X97523904Y-89934642D01*
X97584380Y-90055595D01*
X98491523Y-88120357D02*
X98491523Y-88846071D01*
X98491523Y-88483214D02*
X97221523Y-88483214D01*
X97402952Y-88604166D01*
X97523904Y-88725119D01*
X97584380Y-88846071D01*
D14*
%TO.C,J1*%
X136123380Y-53722333D02*
X136837666Y-53722333D01*
X136980523Y-53769952D01*
X137075761Y-53865190D01*
X137123380Y-54008047D01*
X137123380Y-54103285D01*
X137123380Y-52722333D02*
X137123380Y-53293761D01*
X137123380Y-53008047D02*
X136123380Y-53008047D01*
X136266238Y-53103285D01*
X136361476Y-53198523D01*
X136409095Y-53293761D01*
%TO.C,Q7*%
X130260768Y-78961618D02*
X130165530Y-78913999D01*
X130070292Y-78818760D01*
X129927435Y-78675903D01*
X129832197Y-78628284D01*
X129736959Y-78628284D01*
X129784578Y-78866379D02*
X129689340Y-78818760D01*
X129594102Y-78723522D01*
X129546483Y-78533046D01*
X129546483Y-78199713D01*
X129594102Y-78009237D01*
X129689340Y-77913999D01*
X129784578Y-77866379D01*
X129975054Y-77866379D01*
X130070292Y-77913999D01*
X130165530Y-78009237D01*
X130213149Y-78199713D01*
X130213149Y-78533046D01*
X130165530Y-78723522D01*
X130070292Y-78818760D01*
X129975054Y-78866379D01*
X129784578Y-78866379D01*
X130546483Y-77866379D02*
X131213149Y-77866379D01*
X130784578Y-78866379D01*
%TO.C,Q9*%
X130260768Y-71341618D02*
X130165530Y-71293999D01*
X130070292Y-71198760D01*
X129927435Y-71055903D01*
X129832197Y-71008284D01*
X129736959Y-71008284D01*
X129784578Y-71246379D02*
X129689340Y-71198760D01*
X129594102Y-71103522D01*
X129546483Y-70913046D01*
X129546483Y-70579713D01*
X129594102Y-70389237D01*
X129689340Y-70293999D01*
X129784578Y-70246379D01*
X129975054Y-70246379D01*
X130070292Y-70293999D01*
X130165530Y-70389237D01*
X130213149Y-70579713D01*
X130213149Y-70913046D01*
X130165530Y-71103522D01*
X130070292Y-71198760D01*
X129975054Y-71246379D01*
X129784578Y-71246379D01*
X130689340Y-71246379D02*
X130879816Y-71246379D01*
X130975054Y-71198760D01*
X131022673Y-71151141D01*
X131117911Y-71008284D01*
X131165530Y-70817808D01*
X131165530Y-70436856D01*
X131117911Y-70341618D01*
X131070292Y-70293999D01*
X130975054Y-70246379D01*
X130784578Y-70246379D01*
X130689340Y-70293999D01*
X130641721Y-70341618D01*
X130594102Y-70436856D01*
X130594102Y-70674951D01*
X130641721Y-70770189D01*
X130689340Y-70817808D01*
X130784578Y-70865427D01*
X130975054Y-70865427D01*
X131070292Y-70817808D01*
X131117911Y-70770189D01*
X131165530Y-70674951D01*
D15*
%TO.C,U4*%
X108803587Y-64804809D02*
X110422635Y-64804809D01*
X110613111Y-64709571D01*
X110708349Y-64614333D01*
X110803587Y-64423857D01*
X110803587Y-64042904D01*
X110708349Y-63852428D01*
X110613111Y-63757190D01*
X110422635Y-63661952D01*
X108803587Y-63661952D01*
X109470254Y-61852428D02*
X110803587Y-61852428D01*
X108708349Y-62328619D02*
X110136921Y-62804809D01*
X110136921Y-61566714D01*
D14*
%TO.C,Q5*%
X130260768Y-86581618D02*
X130165530Y-86533999D01*
X130070292Y-86438760D01*
X129927435Y-86295903D01*
X129832197Y-86248284D01*
X129736959Y-86248284D01*
X129784578Y-86486379D02*
X129689340Y-86438760D01*
X129594102Y-86343522D01*
X129546483Y-86153046D01*
X129546483Y-85819713D01*
X129594102Y-85629237D01*
X129689340Y-85533999D01*
X129784578Y-85486379D01*
X129975054Y-85486379D01*
X130070292Y-85533999D01*
X130165530Y-85629237D01*
X130213149Y-85819713D01*
X130213149Y-86153046D01*
X130165530Y-86343522D01*
X130070292Y-86438760D01*
X129975054Y-86486379D01*
X129784578Y-86486379D01*
X131117911Y-85486379D02*
X130641721Y-85486379D01*
X130594102Y-85962570D01*
X130641721Y-85914951D01*
X130736959Y-85867332D01*
X130975054Y-85867332D01*
X131070292Y-85914951D01*
X131117911Y-85962570D01*
X131165530Y-86057808D01*
X131165530Y-86295903D01*
X131117911Y-86391141D01*
X131070292Y-86438760D01*
X130975054Y-86486379D01*
X130736959Y-86486379D01*
X130641721Y-86438760D01*
X130594102Y-86391141D01*
%TO.C,J11*%
X101806476Y-46821380D02*
X101806476Y-47535666D01*
X101758857Y-47678523D01*
X101663619Y-47773761D01*
X101520761Y-47821380D01*
X101425523Y-47821380D01*
X102806476Y-47821380D02*
X102235047Y-47821380D01*
X102520761Y-47821380D02*
X102520761Y-46821380D01*
X102425523Y-46964238D01*
X102330285Y-47059476D01*
X102235047Y-47107095D01*
X103758857Y-47821380D02*
X103187428Y-47821380D01*
X103473142Y-47821380D02*
X103473142Y-46821380D01*
X103377904Y-46964238D01*
X103282666Y-47059476D01*
X103187428Y-47107095D01*
%TO.C,Q3*%
X127855626Y-85947237D02*
X127808007Y-86042475D01*
X127712768Y-86137713D01*
X127569911Y-86280570D01*
X127522292Y-86375808D01*
X127522292Y-86471046D01*
X127760387Y-86423427D02*
X127712768Y-86518665D01*
X127617530Y-86613903D01*
X127427054Y-86661522D01*
X127093721Y-86661522D01*
X126903245Y-86613903D01*
X126808007Y-86518665D01*
X126760387Y-86423427D01*
X126760387Y-86232951D01*
X126808007Y-86137713D01*
X126903245Y-86042475D01*
X127093721Y-85994856D01*
X127427054Y-85994856D01*
X127617530Y-86042475D01*
X127712768Y-86137713D01*
X127760387Y-86232951D01*
X127760387Y-86423427D01*
X126760387Y-85661522D02*
X126760387Y-85042475D01*
X127141340Y-85375808D01*
X127141340Y-85232951D01*
X127188959Y-85137713D01*
X127236578Y-85090094D01*
X127331816Y-85042475D01*
X127569911Y-85042475D01*
X127665149Y-85090094D01*
X127712768Y-85137713D01*
X127760387Y-85232951D01*
X127760387Y-85518665D01*
X127712768Y-85613903D01*
X127665149Y-85661522D01*
X130284578Y-91280951D02*
X130332197Y-91138094D01*
X130379816Y-91090475D01*
X130475054Y-91042856D01*
X130617911Y-91042856D01*
X130713149Y-91090475D01*
X130760768Y-91138094D01*
X130808387Y-91233332D01*
X130808387Y-91614284D01*
X129808387Y-91614284D01*
X129808387Y-91280951D01*
X129856007Y-91185713D01*
X129903626Y-91138094D01*
X129998864Y-91090475D01*
X130094102Y-91090475D01*
X130189340Y-91138094D01*
X130236959Y-91185713D01*
X130284578Y-91280951D01*
X130284578Y-91614284D01*
X130760768Y-90661903D02*
X130808387Y-90519046D01*
X130808387Y-90280951D01*
X130760768Y-90185713D01*
X130713149Y-90138094D01*
X130617911Y-90090475D01*
X130522673Y-90090475D01*
X130427435Y-90138094D01*
X130379816Y-90185713D01*
X130332197Y-90280951D01*
X130284578Y-90471427D01*
X130236959Y-90566665D01*
X130189340Y-90614284D01*
X130094102Y-90661903D01*
X129998864Y-90661903D01*
X129903626Y-90614284D01*
X129856007Y-90566665D01*
X129808387Y-90471427D01*
X129808387Y-90233332D01*
X129856007Y-90090475D01*
X130808387Y-89661903D02*
X129808387Y-89661903D01*
X129808387Y-89280951D01*
X129856007Y-89185713D01*
X129903626Y-89138094D01*
X129998864Y-89090475D01*
X130141721Y-89090475D01*
X130236959Y-89138094D01*
X130284578Y-89185713D01*
X130332197Y-89280951D01*
X130332197Y-89661903D01*
X129808387Y-88757141D02*
X129808387Y-88090475D01*
X130808387Y-88519046D01*
X129808387Y-87233332D02*
X129808387Y-87709522D01*
X130284578Y-87757141D01*
X130236959Y-87709522D01*
X130189340Y-87614284D01*
X130189340Y-87376189D01*
X130236959Y-87280951D01*
X130284578Y-87233332D01*
X130379816Y-87185713D01*
X130617911Y-87185713D01*
X130713149Y-87233332D01*
X130760768Y-87280951D01*
X130808387Y-87376189D01*
X130808387Y-87614284D01*
X130760768Y-87709522D01*
X130713149Y-87757141D01*
X130808387Y-86757141D02*
X129808387Y-86757141D01*
X130808387Y-86185713D01*
X129808387Y-86185713D01*
%TO.C,J4*%
X117522666Y-46821380D02*
X117522666Y-47535666D01*
X117475047Y-47678523D01*
X117379809Y-47773761D01*
X117236952Y-47821380D01*
X117141714Y-47821380D01*
X118427428Y-47154714D02*
X118427428Y-47821380D01*
X118189333Y-46773761D02*
X117951238Y-47488047D01*
X118570285Y-47488047D01*
%TO.C,J3*%
X135968380Y-99402333D02*
X136682666Y-99402333D01*
X136825523Y-99449952D01*
X136920761Y-99545190D01*
X136968380Y-99688047D01*
X136968380Y-99783285D01*
X135968380Y-99021380D02*
X135968380Y-98402333D01*
X136349333Y-98735666D01*
X136349333Y-98592809D01*
X136396952Y-98497571D01*
X136444571Y-98449952D01*
X136539809Y-98402333D01*
X136777904Y-98402333D01*
X136873142Y-98449952D01*
X136920761Y-98497571D01*
X136968380Y-98592809D01*
X136968380Y-98878523D01*
X136920761Y-98973761D01*
X136873142Y-99021380D01*
%TO.C,Q2*%
X127855626Y-93567237D02*
X127808007Y-93662475D01*
X127712768Y-93757713D01*
X127569911Y-93900570D01*
X127522292Y-93995808D01*
X127522292Y-94091046D01*
X127760387Y-94043427D02*
X127712768Y-94138665D01*
X127617530Y-94233903D01*
X127427054Y-94281522D01*
X127093721Y-94281522D01*
X126903245Y-94233903D01*
X126808007Y-94138665D01*
X126760387Y-94043427D01*
X126760387Y-93852951D01*
X126808007Y-93757713D01*
X126903245Y-93662475D01*
X127093721Y-93614856D01*
X127427054Y-93614856D01*
X127617530Y-93662475D01*
X127712768Y-93757713D01*
X127760387Y-93852951D01*
X127760387Y-94043427D01*
X126855626Y-93233903D02*
X126808007Y-93186284D01*
X126760387Y-93091046D01*
X126760387Y-92852951D01*
X126808007Y-92757713D01*
X126855626Y-92710094D01*
X126950864Y-92662475D01*
X127046102Y-92662475D01*
X127188959Y-92710094D01*
X127760387Y-93281522D01*
X127760387Y-92662475D01*
X130284578Y-99154951D02*
X130332197Y-99012094D01*
X130379816Y-98964475D01*
X130475054Y-98916856D01*
X130617911Y-98916856D01*
X130713149Y-98964475D01*
X130760768Y-99012094D01*
X130808387Y-99107332D01*
X130808387Y-99488284D01*
X129808387Y-99488284D01*
X129808387Y-99154951D01*
X129856007Y-99059713D01*
X129903626Y-99012094D01*
X129998864Y-98964475D01*
X130094102Y-98964475D01*
X130189340Y-99012094D01*
X130236959Y-99059713D01*
X130284578Y-99154951D01*
X130284578Y-99488284D01*
X130760768Y-98535903D02*
X130808387Y-98393046D01*
X130808387Y-98154951D01*
X130760768Y-98059713D01*
X130713149Y-98012094D01*
X130617911Y-97964475D01*
X130522673Y-97964475D01*
X130427435Y-98012094D01*
X130379816Y-98059713D01*
X130332197Y-98154951D01*
X130284578Y-98345427D01*
X130236959Y-98440665D01*
X130189340Y-98488284D01*
X130094102Y-98535903D01*
X129998864Y-98535903D01*
X129903626Y-98488284D01*
X129856007Y-98440665D01*
X129808387Y-98345427D01*
X129808387Y-98107332D01*
X129856007Y-97964475D01*
X130808387Y-97535903D02*
X129808387Y-97535903D01*
X129808387Y-97154951D01*
X129856007Y-97059713D01*
X129903626Y-97012094D01*
X129998864Y-96964475D01*
X130141721Y-96964475D01*
X130236959Y-97012094D01*
X130284578Y-97059713D01*
X130332197Y-97154951D01*
X130332197Y-97535903D01*
X129808387Y-96631141D02*
X129808387Y-95964475D01*
X130808387Y-96393046D01*
X129808387Y-95107332D02*
X129808387Y-95583522D01*
X130284578Y-95631141D01*
X130236959Y-95583522D01*
X130189340Y-95488284D01*
X130189340Y-95250189D01*
X130236959Y-95154951D01*
X130284578Y-95107332D01*
X130379816Y-95059713D01*
X130617911Y-95059713D01*
X130713149Y-95107332D01*
X130760768Y-95154951D01*
X130808387Y-95250189D01*
X130808387Y-95488284D01*
X130760768Y-95583522D01*
X130713149Y-95631141D01*
X130808387Y-94631141D02*
X129808387Y-94631141D01*
X130808387Y-94059713D01*
X129808387Y-94059713D01*
%TO.C,Q1*%
X127855626Y-101187237D02*
X127808007Y-101282475D01*
X127712768Y-101377713D01*
X127569911Y-101520570D01*
X127522292Y-101615808D01*
X127522292Y-101711046D01*
X127760387Y-101663427D02*
X127712768Y-101758665D01*
X127617530Y-101853903D01*
X127427054Y-101901522D01*
X127093721Y-101901522D01*
X126903245Y-101853903D01*
X126808007Y-101758665D01*
X126760387Y-101663427D01*
X126760387Y-101472951D01*
X126808007Y-101377713D01*
X126903245Y-101282475D01*
X127093721Y-101234856D01*
X127427054Y-101234856D01*
X127617530Y-101282475D01*
X127712768Y-101377713D01*
X127760387Y-101472951D01*
X127760387Y-101663427D01*
X127760387Y-100282475D02*
X127760387Y-100853903D01*
X127760387Y-100568189D02*
X126760387Y-100568189D01*
X126903245Y-100663427D01*
X126998483Y-100758665D01*
X127046102Y-100853903D01*
X130284578Y-106774951D02*
X130332197Y-106632094D01*
X130379816Y-106584475D01*
X130475054Y-106536856D01*
X130617911Y-106536856D01*
X130713149Y-106584475D01*
X130760768Y-106632094D01*
X130808387Y-106727332D01*
X130808387Y-107108284D01*
X129808387Y-107108284D01*
X129808387Y-106774951D01*
X129856007Y-106679713D01*
X129903626Y-106632094D01*
X129998864Y-106584475D01*
X130094102Y-106584475D01*
X130189340Y-106632094D01*
X130236959Y-106679713D01*
X130284578Y-106774951D01*
X130284578Y-107108284D01*
X130760768Y-106155903D02*
X130808387Y-106013046D01*
X130808387Y-105774951D01*
X130760768Y-105679713D01*
X130713149Y-105632094D01*
X130617911Y-105584475D01*
X130522673Y-105584475D01*
X130427435Y-105632094D01*
X130379816Y-105679713D01*
X130332197Y-105774951D01*
X130284578Y-105965427D01*
X130236959Y-106060665D01*
X130189340Y-106108284D01*
X130094102Y-106155903D01*
X129998864Y-106155903D01*
X129903626Y-106108284D01*
X129856007Y-106060665D01*
X129808387Y-105965427D01*
X129808387Y-105727332D01*
X129856007Y-105584475D01*
X130808387Y-105155903D02*
X129808387Y-105155903D01*
X129808387Y-104774951D01*
X129856007Y-104679713D01*
X129903626Y-104632094D01*
X129998864Y-104584475D01*
X130141721Y-104584475D01*
X130236959Y-104632094D01*
X130284578Y-104679713D01*
X130332197Y-104774951D01*
X130332197Y-105155903D01*
X129808387Y-104251141D02*
X129808387Y-103584475D01*
X130808387Y-104013046D01*
X129808387Y-102727332D02*
X129808387Y-103203522D01*
X130284578Y-103251141D01*
X130236959Y-103203522D01*
X130189340Y-103108284D01*
X130189340Y-102870189D01*
X130236959Y-102774951D01*
X130284578Y-102727332D01*
X130379816Y-102679713D01*
X130617911Y-102679713D01*
X130713149Y-102727332D01*
X130760768Y-102774951D01*
X130808387Y-102870189D01*
X130808387Y-103108284D01*
X130760768Y-103203522D01*
X130713149Y-103251141D01*
X130808387Y-102251141D02*
X129808387Y-102251141D01*
X130808387Y-101679713D01*
X129808387Y-101679713D01*
%TO.C,Q4*%
X130260768Y-63721618D02*
X130165530Y-63673999D01*
X130070292Y-63578760D01*
X129927435Y-63435903D01*
X129832197Y-63388284D01*
X129736959Y-63388284D01*
X129784578Y-63626379D02*
X129689340Y-63578760D01*
X129594102Y-63483522D01*
X129546483Y-63293046D01*
X129546483Y-62959713D01*
X129594102Y-62769237D01*
X129689340Y-62673999D01*
X129784578Y-62626379D01*
X129975054Y-62626379D01*
X130070292Y-62673999D01*
X130165530Y-62769237D01*
X130213149Y-62959713D01*
X130213149Y-63293046D01*
X130165530Y-63483522D01*
X130070292Y-63578760D01*
X129975054Y-63626379D01*
X129784578Y-63626379D01*
X131070292Y-62959713D02*
X131070292Y-63626379D01*
X130832197Y-62578760D02*
X130594102Y-63293046D01*
X131213149Y-63293046D01*
%TO.C,Q6*%
X130260768Y-56101618D02*
X130165530Y-56053999D01*
X130070292Y-55958760D01*
X129927435Y-55815903D01*
X129832197Y-55768284D01*
X129736959Y-55768284D01*
X129784578Y-56006379D02*
X129689340Y-55958760D01*
X129594102Y-55863522D01*
X129546483Y-55673046D01*
X129546483Y-55339713D01*
X129594102Y-55149237D01*
X129689340Y-55053999D01*
X129784578Y-55006379D01*
X129975054Y-55006379D01*
X130070292Y-55053999D01*
X130165530Y-55149237D01*
X130213149Y-55339713D01*
X130213149Y-55673046D01*
X130165530Y-55863522D01*
X130070292Y-55958760D01*
X129975054Y-56006379D01*
X129784578Y-56006379D01*
X131070292Y-55006379D02*
X130879816Y-55006379D01*
X130784578Y-55053999D01*
X130736959Y-55101618D01*
X130641721Y-55244475D01*
X130594102Y-55434951D01*
X130594102Y-55815903D01*
X130641721Y-55911141D01*
X130689340Y-55958760D01*
X130784578Y-56006379D01*
X130975054Y-56006379D01*
X131070292Y-55958760D01*
X131117911Y-55911141D01*
X131165530Y-55815903D01*
X131165530Y-55577808D01*
X131117911Y-55482570D01*
X131070292Y-55434951D01*
X130975054Y-55387332D01*
X130784578Y-55387332D01*
X130689340Y-55434951D01*
X130641721Y-55482570D01*
X130594102Y-55577808D01*
%TO.C,J2*%
X135968380Y-76542333D02*
X136682666Y-76542333D01*
X136825523Y-76589952D01*
X136920761Y-76685190D01*
X136968380Y-76828047D01*
X136968380Y-76923285D01*
X136063619Y-76113761D02*
X136016000Y-76066142D01*
X135968380Y-75970904D01*
X135968380Y-75732809D01*
X136016000Y-75637571D01*
X136063619Y-75589952D01*
X136158857Y-75542333D01*
X136254095Y-75542333D01*
X136396952Y-75589952D01*
X136968380Y-76161380D01*
X136968380Y-75542333D01*
%TO.C,Q8*%
X130260768Y-48481618D02*
X130165530Y-48433999D01*
X130070292Y-48338760D01*
X129927435Y-48195903D01*
X129832197Y-48148284D01*
X129736959Y-48148284D01*
X129784578Y-48386379D02*
X129689340Y-48338760D01*
X129594102Y-48243522D01*
X129546483Y-48053046D01*
X129546483Y-47719713D01*
X129594102Y-47529237D01*
X129689340Y-47433999D01*
X129784578Y-47386379D01*
X129975054Y-47386379D01*
X130070292Y-47433999D01*
X130165530Y-47529237D01*
X130213149Y-47719713D01*
X130213149Y-48053046D01*
X130165530Y-48243522D01*
X130070292Y-48338760D01*
X129975054Y-48386379D01*
X129784578Y-48386379D01*
X130784578Y-47814951D02*
X130689340Y-47767332D01*
X130641721Y-47719713D01*
X130594102Y-47624475D01*
X130594102Y-47576856D01*
X130641721Y-47481618D01*
X130689340Y-47433999D01*
X130784578Y-47386379D01*
X130975054Y-47386379D01*
X131070292Y-47433999D01*
X131117911Y-47481618D01*
X131165530Y-47576856D01*
X131165530Y-47624475D01*
X131117911Y-47719713D01*
X131070292Y-47767332D01*
X130975054Y-47814951D01*
X130784578Y-47814951D01*
X130689340Y-47862570D01*
X130641721Y-47910189D01*
X130594102Y-48005427D01*
X130594102Y-48195903D01*
X130641721Y-48291141D01*
X130689340Y-48338760D01*
X130784578Y-48386379D01*
X130975054Y-48386379D01*
X131070292Y-48338760D01*
X131117911Y-48291141D01*
X131165530Y-48195903D01*
X131165530Y-48005427D01*
X131117911Y-47910189D01*
X131070292Y-47862570D01*
X130975054Y-47814951D01*
D12*
%TO.C,1111*%
X92878000Y-83847500D02*
X88878000Y-83847500D01*
X88878000Y-83847500D02*
X88878000Y-96747500D01*
X88878000Y-96747500D02*
X92878000Y-96747500D01*
D16*
X107028000Y-87397500D02*
X107028000Y-87397500D01*
X107128000Y-87397500D02*
X107128000Y-87397500D01*
D12*
X106278000Y-85397500D02*
X106278000Y-95397500D01*
X102028000Y-82297500D02*
X99028000Y-82297500D01*
X94028000Y-82297500D02*
X92878000Y-82297500D01*
X92878000Y-82297500D02*
X92878000Y-88397500D01*
X92878000Y-92397500D02*
X92878000Y-98297500D01*
X92878000Y-98297500D02*
X94028000Y-98297500D01*
X102028000Y-98297500D02*
X98528000Y-98297500D01*
D16*
X107028000Y-87397500D02*
G75*
G03*
X107128000Y-87397500I50000J0D01*
G01*
X107128000Y-87397500D02*
G75*
G03*
X107028000Y-87397500I-50000J0D01*
G01*
D17*
%TO.C,J1*%
X140917000Y-47279000D02*
X140963000Y-47326000D01*
X145486000Y-61114000D02*
X145486000Y-40993000D01*
X137626000Y-61114000D02*
X137626000Y-40993000D01*
X146046000Y-61114000D02*
X146046000Y-40993000D01*
X140917000Y-42279000D02*
X140963000Y-42326000D01*
X137686000Y-49554000D02*
X137686000Y-47554000D01*
X140711000Y-47484000D02*
X140747000Y-47519000D01*
X137686000Y-54554000D02*
X138686000Y-54554000D01*
X137686000Y-42554000D02*
X138686000Y-42554000D01*
X140711000Y-52484000D02*
X140747000Y-52519000D01*
X146286000Y-61354000D02*
X146286000Y-60854000D01*
X137626000Y-61114000D02*
X146046000Y-61114000D01*
X138686000Y-44554000D02*
X138686000Y-42554000D01*
X143009000Y-54781000D02*
X143055000Y-54828000D01*
X143225000Y-49588000D02*
X143260000Y-49623000D01*
X137686000Y-44554000D02*
X137686000Y-42554000D01*
X140711000Y-42484000D02*
X140747000Y-42519000D01*
X145546000Y-61354000D02*
X146286000Y-61354000D01*
X143986000Y-61114000D02*
X143986000Y-40993000D01*
X139685000Y-61114000D02*
X139685000Y-40993000D01*
X137686000Y-44554000D02*
X138686000Y-44554000D01*
X143225000Y-54588000D02*
X143260000Y-54623000D01*
X143009000Y-44781000D02*
X143055000Y-44828000D01*
X143225000Y-44588000D02*
X143260000Y-44623000D01*
X137686000Y-54554000D02*
X137686000Y-52554000D01*
X138686000Y-49554000D02*
X138686000Y-47554000D01*
X138686000Y-59554000D02*
X138686000Y-57554000D01*
X138686000Y-54554000D02*
X138686000Y-52554000D01*
X137686000Y-52554000D02*
X138686000Y-52554000D01*
X137686000Y-49554000D02*
X138686000Y-49554000D01*
X140917000Y-52279000D02*
X140963000Y-52326000D01*
X137626000Y-40993000D02*
X146046000Y-40993000D01*
X137686000Y-59554000D02*
X138686000Y-59554000D01*
X137686000Y-59554000D02*
X137686000Y-57554000D01*
X143009000Y-49781000D02*
X143055000Y-49828000D01*
X137686000Y-57554000D02*
X138686000Y-57554000D01*
X137686000Y-47554000D02*
X138686000Y-47554000D01*
X142670000Y-57018999D02*
G75*
G03*
X141302958Y-57018573I-684000J-1535001D01*
G01*
X140451000Y-57870000D02*
G75*
G03*
X140450573Y-59237042I1534993J-684001D01*
G01*
X143521000Y-59238000D02*
G75*
G03*
X143666253Y-58525195I-1535001J683999D01*
G01*
X141302000Y-60089000D02*
G75*
G03*
X142669042Y-60089427I684001J1534993D01*
G01*
X143666000Y-58554000D02*
G75*
G03*
X143520756Y-57870682I-1680000J0D01*
G01*
X143666000Y-48554000D02*
G75*
G03*
X143666000Y-48554000I-1680000J0D01*
G01*
X143666000Y-53554000D02*
G75*
G03*
X143666000Y-53554000I-1680000J0D01*
G01*
X143666000Y-43554000D02*
G75*
G03*
X143666000Y-43554000I-1680000J0D01*
G01*
%TO.C,Q7*%
X128446007Y-77323999D02*
X128446007Y-76063999D01*
X134456007Y-77323999D02*
X128446007Y-77323999D01*
X128446007Y-70503999D02*
X128446007Y-71763999D01*
X132206007Y-70503999D02*
X128446007Y-70503999D01*
%TO.C,Q9*%
X128446007Y-69703999D02*
X128446007Y-68443999D01*
X128446007Y-62883999D02*
X128446007Y-64143999D01*
X132206007Y-62883999D02*
X128446007Y-62883999D01*
X134456007Y-69703999D02*
X128446007Y-69703999D01*
D18*
%TO.C,U4*%
X91799576Y-72405000D02*
X112128076Y-72405000D01*
X97056076Y-59010000D02*
X97056076Y-68009000D01*
X112128076Y-72405000D02*
X112128076Y-54605000D01*
X91128076Y-71733459D02*
X91799576Y-72405000D01*
X91128076Y-54605000D02*
X91128076Y-71733459D01*
X90377425Y-59010000D02*
X97056076Y-59010000D01*
X97056076Y-68009000D02*
X90377425Y-68009000D01*
X112128076Y-54605000D02*
X91128076Y-54605000D01*
X90377425Y-68009000D02*
X90377425Y-59010000D01*
D17*
%TO.C,Q5*%
X128446007Y-84943999D02*
X128446007Y-83683999D01*
X128446007Y-78123999D02*
X128446007Y-79383999D01*
X134456007Y-84943999D02*
X128446007Y-84943999D01*
X132206007Y-78123999D02*
X128446007Y-78123999D01*
%TO.C,J11*%
X107676000Y-40009000D02*
X97556000Y-40009000D01*
X107676000Y-46369000D02*
X97556000Y-46369000D01*
X99046000Y-43284000D02*
X99081000Y-43248000D01*
X101116000Y-45309000D02*
X99116000Y-45309000D01*
X101116000Y-46309000D02*
X99116000Y-46309000D01*
X107916000Y-37709000D02*
X107416000Y-37709000D01*
X101116000Y-46309000D02*
X101116000Y-45309000D01*
X106116000Y-46309000D02*
X104116000Y-46309000D01*
X107916000Y-38449000D02*
X107916000Y-37709000D01*
X107676000Y-46369000D02*
X107676000Y-37949000D01*
X101150000Y-40770000D02*
X101185000Y-40735000D01*
X104116000Y-46309000D02*
X104116000Y-45309000D01*
X107676000Y-38509000D02*
X97556000Y-38509000D01*
X107676000Y-44310000D02*
X97556000Y-44310000D01*
X99116000Y-46309000D02*
X99116000Y-45309000D01*
X101343000Y-40986000D02*
X101390000Y-40940000D01*
X106116000Y-45309000D02*
X104116000Y-45309000D01*
X97556000Y-46369000D02*
X97556000Y-37949000D01*
X98841000Y-43078000D02*
X98888000Y-43032000D01*
X107676000Y-37949000D02*
X97556000Y-37949000D01*
X106116000Y-46309000D02*
X106116000Y-45309000D01*
X106651000Y-42693000D02*
G75*
G03*
X106651427Y-41325958I-1534993J684001D01*
G01*
X105800000Y-40474000D02*
G75*
G03*
X105087195Y-40328747I-683999J-1535001D01*
G01*
X103580999Y-41325000D02*
G75*
G03*
X103580573Y-42692042I1535001J-684000D01*
G01*
X105116000Y-40329000D02*
G75*
G03*
X104432682Y-40474244I0J-1680000D01*
G01*
X104432000Y-43544000D02*
G75*
G03*
X105799042Y-43544427I684001J1534993D01*
G01*
X101796000Y-42009000D02*
G75*
G03*
X101796000Y-42009000I-1680000J0D01*
G01*
%TO.C,Q3*%
X128446007Y-92563999D02*
X128446007Y-91303999D01*
X132206007Y-85743999D02*
X128446007Y-85743999D01*
X134456007Y-92563999D02*
X128446007Y-92563999D01*
X128446007Y-85743999D02*
X128446007Y-87003999D01*
%TO.C,J4*%
X123856000Y-46309000D02*
X121856000Y-46309000D01*
X111581000Y-43078000D02*
X111628000Y-43032000D01*
X125416000Y-46369000D02*
X125416000Y-37949000D01*
X125656000Y-38449000D02*
X125656000Y-37709000D01*
X118856000Y-45309000D02*
X116856000Y-45309000D01*
X114083000Y-40986000D02*
X114130000Y-40940000D01*
X125416000Y-40009000D02*
X110296000Y-40009000D01*
X116856000Y-46309000D02*
X116856000Y-45309000D01*
X116581000Y-43078000D02*
X116628000Y-43032000D01*
X125416000Y-46369000D02*
X110296000Y-46369000D01*
X118856000Y-46309000D02*
X118856000Y-45309000D01*
X116786000Y-43284000D02*
X116821000Y-43248000D01*
X111786000Y-43284000D02*
X111821000Y-43248000D01*
X118856000Y-46309000D02*
X116856000Y-46309000D01*
X119083000Y-40986000D02*
X119130000Y-40940000D01*
X113856000Y-46309000D02*
X113856000Y-45309000D01*
X113856000Y-45309000D02*
X111856000Y-45309000D01*
X125416000Y-44310000D02*
X110296000Y-44310000D01*
X125416000Y-37949000D02*
X110296000Y-37949000D01*
X113890000Y-40770000D02*
X113925000Y-40735000D01*
X113856000Y-46309000D02*
X111856000Y-46309000D01*
X123856000Y-45309000D02*
X121856000Y-45309000D01*
X123856000Y-46309000D02*
X123856000Y-45309000D01*
X125416000Y-38509000D02*
X110296000Y-38509000D01*
X121856000Y-46309000D02*
X121856000Y-45309000D01*
X110296000Y-46369000D02*
X110296000Y-37949000D01*
X125656000Y-37709000D02*
X125156000Y-37709000D01*
X111856000Y-46309000D02*
X111856000Y-45309000D01*
X118890000Y-40770000D02*
X118925000Y-40735000D01*
X122856000Y-40329000D02*
G75*
G03*
X122172682Y-40474244I0J-1680000D01*
G01*
X123540000Y-40474000D02*
G75*
G03*
X122827195Y-40328747I-683999J-1535001D01*
G01*
X121320999Y-41325000D02*
G75*
G03*
X121320573Y-42692042I1535001J-684000D01*
G01*
X124391000Y-42693000D02*
G75*
G03*
X124391427Y-41325958I-1534993J684001D01*
G01*
X122172000Y-43544000D02*
G75*
G03*
X123539042Y-43544427I684001J1534993D01*
G01*
X114536000Y-42009000D02*
G75*
G03*
X114536000Y-42009000I-1680000J0D01*
G01*
X119536000Y-42009000D02*
G75*
G03*
X119536000Y-42009000I-1680000J0D01*
G01*
%TO.C,J3*%
X145391000Y-107034000D02*
X146131000Y-107034000D01*
X142854000Y-95461000D02*
X142900000Y-95508000D01*
X143070000Y-90268000D02*
X143105000Y-90303000D01*
X138531000Y-95234000D02*
X138531000Y-93234000D01*
X137531000Y-98234000D02*
X138531000Y-98234000D01*
X140556000Y-88164000D02*
X140592000Y-88199000D01*
X140556000Y-98164000D02*
X140592000Y-98199000D01*
X138531000Y-100234000D02*
X138531000Y-98234000D01*
X140556000Y-93164000D02*
X140592000Y-93199000D01*
X143831000Y-106794000D02*
X143831000Y-86673000D01*
X137531000Y-100234000D02*
X137531000Y-98234000D01*
X137471000Y-86673000D02*
X145891000Y-86673000D01*
X142854000Y-100461000D02*
X142900000Y-100508000D01*
X142854000Y-90461000D02*
X142900000Y-90508000D01*
X137531000Y-105234000D02*
X137531000Y-103234000D01*
X137531000Y-100234000D02*
X138531000Y-100234000D01*
X137531000Y-103234000D02*
X138531000Y-103234000D01*
X137531000Y-88234000D02*
X138531000Y-88234000D01*
X143070000Y-100268000D02*
X143105000Y-100303000D01*
X138531000Y-90234000D02*
X138531000Y-88234000D01*
X140762000Y-92959000D02*
X140808000Y-93006000D01*
X145891000Y-106794000D02*
X145891000Y-86673000D01*
X137531000Y-95234000D02*
X137531000Y-93234000D01*
X138531000Y-105234000D02*
X138531000Y-103234000D01*
X137531000Y-105234000D02*
X138531000Y-105234000D01*
X143070000Y-95268000D02*
X143105000Y-95303000D01*
X137471000Y-106794000D02*
X145891000Y-106794000D01*
X146131000Y-107034000D02*
X146131000Y-106534000D01*
X137531000Y-90234000D02*
X137531000Y-88234000D01*
X137531000Y-90234000D02*
X138531000Y-90234000D01*
X140762000Y-97959000D02*
X140808000Y-98006000D01*
X140762000Y-87959000D02*
X140808000Y-88006000D01*
X145331000Y-106794000D02*
X145331000Y-86673000D01*
X137531000Y-93234000D02*
X138531000Y-93234000D01*
X137531000Y-95234000D02*
X138531000Y-95234000D01*
X139530000Y-106794000D02*
X139530000Y-86673000D01*
X137471000Y-106794000D02*
X137471000Y-86673000D01*
X143511000Y-104234000D02*
G75*
G03*
X143365756Y-103550682I-1680000J0D01*
G01*
X143366000Y-104918000D02*
G75*
G03*
X143511253Y-104205195I-1535001J683999D01*
G01*
X141147000Y-105769000D02*
G75*
G03*
X142514042Y-105769427I684001J1534993D01*
G01*
X142515000Y-102698999D02*
G75*
G03*
X141147958Y-102698573I-684000J-1535001D01*
G01*
X140296000Y-103550000D02*
G75*
G03*
X140295573Y-104917042I1534993J-684001D01*
G01*
X143511000Y-99234000D02*
G75*
G03*
X143511000Y-99234000I-1680000J0D01*
G01*
X143511000Y-94234000D02*
G75*
G03*
X143511000Y-94234000I-1680000J0D01*
G01*
X143511000Y-89234000D02*
G75*
G03*
X143511000Y-89234000I-1680000J0D01*
G01*
%TO.C,Q2*%
X128446007Y-100183999D02*
X128446007Y-98923999D01*
X128446007Y-93363999D02*
X128446007Y-94623999D01*
X134456007Y-100183999D02*
X128446007Y-100183999D01*
X132206007Y-93363999D02*
X128446007Y-93363999D01*
%TO.C,Q1*%
X128446007Y-100983999D02*
X128446007Y-102243999D01*
X134456007Y-107803999D02*
X128446007Y-107803999D01*
X128446007Y-107803999D02*
X128446007Y-106543999D01*
X132206007Y-100983999D02*
X128446007Y-100983999D01*
%TO.C,Q4*%
X134456007Y-62083999D02*
X128446007Y-62083999D01*
X128446007Y-62083999D02*
X128446007Y-60823999D01*
X128446007Y-55263999D02*
X128446007Y-56523999D01*
X132206007Y-55263999D02*
X128446007Y-55263999D01*
%TO.C,Q6*%
X128446007Y-47643999D02*
X128446007Y-48903999D01*
X132206007Y-47643999D02*
X128446007Y-47643999D01*
X134456007Y-54463999D02*
X128446007Y-54463999D01*
X128446007Y-54463999D02*
X128446007Y-53203999D01*
%TO.C,J2*%
X143070000Y-72408000D02*
X143105000Y-72443000D01*
X143831000Y-83934000D02*
X143831000Y-63813000D01*
X145391000Y-84174000D02*
X146131000Y-84174000D01*
X137531000Y-65374000D02*
X138531000Y-65374000D01*
X143070000Y-77408000D02*
X143105000Y-77443000D01*
X138531000Y-82374000D02*
X138531000Y-80374000D01*
X137471000Y-83934000D02*
X145891000Y-83934000D01*
X143070000Y-67408000D02*
X143105000Y-67443000D01*
X140762000Y-70099000D02*
X140808000Y-70146000D01*
X138531000Y-77374000D02*
X138531000Y-75374000D01*
X142854000Y-67601000D02*
X142900000Y-67648000D01*
X137531000Y-77374000D02*
X137531000Y-75374000D01*
X142854000Y-72601000D02*
X142900000Y-72648000D01*
X137471000Y-63813000D02*
X145891000Y-63813000D01*
X145891000Y-83934000D02*
X145891000Y-63813000D01*
X137531000Y-67374000D02*
X137531000Y-65374000D01*
X137531000Y-80374000D02*
X138531000Y-80374000D01*
X142854000Y-77601000D02*
X142900000Y-77648000D01*
X137531000Y-70374000D02*
X138531000Y-70374000D01*
X137531000Y-67374000D02*
X138531000Y-67374000D01*
X140762000Y-65099000D02*
X140808000Y-65146000D01*
X139530000Y-83934000D02*
X139530000Y-63813000D01*
X137531000Y-82374000D02*
X138531000Y-82374000D01*
X137531000Y-82374000D02*
X137531000Y-80374000D01*
X140556000Y-65304000D02*
X140592000Y-65339000D01*
X140556000Y-70304000D02*
X140592000Y-70339000D01*
X137531000Y-72374000D02*
X138531000Y-72374000D01*
X137471000Y-83934000D02*
X137471000Y-63813000D01*
X138531000Y-67374000D02*
X138531000Y-65374000D01*
X145331000Y-83934000D02*
X145331000Y-63813000D01*
X140556000Y-75304000D02*
X140592000Y-75339000D01*
X138531000Y-72374000D02*
X138531000Y-70374000D01*
X137531000Y-75374000D02*
X138531000Y-75374000D01*
X137531000Y-77374000D02*
X138531000Y-77374000D01*
X137531000Y-72374000D02*
X137531000Y-70374000D01*
X146131000Y-84174000D02*
X146131000Y-83674000D01*
X140762000Y-75099000D02*
X140808000Y-75146000D01*
X140296000Y-80690000D02*
G75*
G03*
X140295573Y-82057042I1534993J-684001D01*
G01*
X143366000Y-82058000D02*
G75*
G03*
X143511253Y-81345195I-1535001J683999D01*
G01*
X142515000Y-79838999D02*
G75*
G03*
X141147958Y-79838573I-684000J-1535001D01*
G01*
X141147000Y-82909000D02*
G75*
G03*
X142514042Y-82909427I684001J1534993D01*
G01*
X143511000Y-81374000D02*
G75*
G03*
X143365756Y-80690682I-1680000J0D01*
G01*
X143511000Y-76374000D02*
G75*
G03*
X143511000Y-76374000I-1680000J0D01*
G01*
X143511000Y-71374000D02*
G75*
G03*
X143511000Y-71374000I-1680000J0D01*
G01*
X143511000Y-66374000D02*
G75*
G03*
X143511000Y-66374000I-1680000J0D01*
G01*
%TO.C,Q8*%
X134456007Y-46843999D02*
X128446007Y-46843999D01*
X128446007Y-46843999D02*
X128446007Y-45583999D01*
X128446007Y-40023999D02*
X128446007Y-41283999D01*
X132206007Y-40023999D02*
X128446007Y-40023999D01*
%TD*%
M02*
