%TF.GenerationSoftware,KiCad,Pcbnew,(6.0.6-0)*%
%TF.CreationDate,2023-10-25T18:50:17+02:00*%
%TF.ProjectId,9outputs,396f7574-7075-4747-932e-6b696361645f,rev?*%
%TF.SameCoordinates,Original*%
%TF.FileFunction,Copper,L2,Bot*%
%TF.FilePolarity,Positive*%
%FSLAX46Y46*%
G04 Gerber Fmt 4.6, Leading zero omitted, Abs format (unit mm)*
G04 Created by KiCad (PCBNEW (6.0.6-0)) date 2023-10-25 18:50:17*
%MOMM*%
%LPD*%
G01*
G04 APERTURE LIST*
%TA.AperFunction,ComponentPad*%
%ADD10R,2.600000X2.600000*%
%TD*%
%TA.AperFunction,ComponentPad*%
%ADD11C,2.600000*%
%TD*%
%TA.AperFunction,ComponentPad*%
%ADD12R,3.200000X3.200000*%
%TD*%
%TA.AperFunction,ComponentPad*%
%ADD13C,3.500000*%
%TD*%
%TA.AperFunction,ComponentPad*%
%ADD14C,4.155000*%
%TD*%
%TA.AperFunction,ComponentPad*%
%ADD15C,3.300000*%
%TD*%
%TA.AperFunction,ComponentPad*%
%ADD16C,3.630000*%
%TD*%
%TA.AperFunction,ViaPad*%
%ADD17C,4.000000*%
%TD*%
%TA.AperFunction,Conductor*%
%ADD18C,4.000000*%
%TD*%
G04 APERTURE END LIST*
D10*
%TO.P,J1,1,Pin_1*%
%TO.N,GND_OUT7*%
X141986000Y-58554000D03*
D11*
%TO.P,J1,2,Pin_2*%
%TO.N,GND_OUT8*%
X141986000Y-53554000D03*
%TO.P,J1,3,Pin_3*%
%TO.N,GND_OUT9*%
X141986000Y-48554000D03*
%TO.P,J1,4,Pin_4*%
%TO.N,+12V*%
X141986000Y-43554000D03*
%TD*%
D10*
%TO.P,J11,1,Pin_1*%
%TO.N,GND*%
X105116000Y-42009000D03*
D11*
%TO.P,J11,2,Pin_2*%
%TO.N,IN1*%
X100116000Y-42009000D03*
%TD*%
D12*
%TO.P,111,1,1*%
%TO.N,+5V*%
X103726000Y-87484000D03*
D13*
%TO.P,111,2,2*%
%TO.N,+12V*%
X103726000Y-93284000D03*
%TO.P,111,3,3*%
%TO.N,GND*%
X100076000Y-87884000D03*
%TO.P,111,4,4*%
X100076000Y-92884000D03*
D14*
%TO.P,111,MH1,MH1*%
%TO.N,unconnected-(111-PadMH1)*%
X105076000Y-82584000D03*
%TO.P,111,MH2,MH2*%
%TO.N,unconnected-(111-PadMH2)*%
X105076000Y-98184000D03*
D15*
%TO.P,111,MH3,MH3*%
%TO.N,unconnected-(111-PadMH3)*%
X96576000Y-82584000D03*
%TO.P,111,MH4,MH4*%
%TO.N,unconnected-(111-PadMH4)*%
X96576000Y-98184000D03*
D16*
%TO.P,111,MH5,MH5*%
%TO.N,unconnected-(111-PadMH5)*%
X94576000Y-90384000D03*
%TD*%
D10*
%TO.P,J4,1,Pin_1*%
%TO.N,GND*%
X122856000Y-42009000D03*
D11*
%TO.P,J4,2,Pin_2*%
%TO.N,IN2*%
X117856000Y-42009000D03*
%TO.P,J4,3,Pin_3*%
%TO.N,+3.3V*%
X112856000Y-42009000D03*
%TD*%
D10*
%TO.P,J3,1,Pin_1*%
%TO.N,GND_OUT1*%
X141831000Y-104234000D03*
D11*
%TO.P,J3,2,Pin_2*%
%TO.N,GND_OUT2*%
X141831000Y-99234000D03*
%TO.P,J3,3,Pin_3*%
%TO.N,GND_OUT3*%
X141831000Y-94234000D03*
%TO.P,J3,4,Pin_4*%
%TO.N,+12V*%
X141831000Y-89234000D03*
%TD*%
D10*
%TO.P,J2,1,Pin_1*%
%TO.N,GND_OUT4*%
X141831000Y-81374000D03*
D11*
%TO.P,J2,2,Pin_2*%
%TO.N,GND_OUT5*%
X141831000Y-76374000D03*
%TO.P,J2,3,Pin_3*%
%TO.N,GND_OUT6*%
X141831000Y-71374000D03*
%TO.P,J2,4,Pin_4*%
%TO.N,+12V*%
X141831000Y-66374000D03*
%TD*%
D17*
%TO.N,GND*%
X93726000Y-50419000D03*
X122936000Y-96774000D03*
X122936000Y-73914000D03*
X122936000Y-66294000D03*
X122936000Y-58674000D03*
X122936000Y-51054000D03*
X122936000Y-81534000D03*
X122936000Y-89154000D03*
X122936000Y-104394000D03*
%TD*%
D18*
%TO.N,+12V*%
X135001000Y-66929000D02*
X135001000Y-91059000D01*
X135001000Y-106299000D02*
X131191000Y-110109000D01*
X112776000Y-96139000D02*
X109921000Y-93284000D01*
X109921000Y-93284000D02*
X104026000Y-93284000D01*
X135556000Y-66374000D02*
X135001000Y-66929000D01*
X135001000Y-91059000D02*
X135001000Y-106299000D01*
X119761000Y-110109000D02*
X112776000Y-103124000D01*
X131191000Y-110109000D02*
X119761000Y-110109000D01*
X112776000Y-103124000D02*
X112776000Y-96139000D01*
X135001000Y-47879000D02*
X135001000Y-66929000D01*
X141986000Y-43554000D02*
X139326000Y-43554000D01*
X141831000Y-66374000D02*
X135556000Y-66374000D01*
X136826000Y-89234000D02*
X135001000Y-91059000D01*
X141831000Y-89234000D02*
X136826000Y-89234000D01*
X139326000Y-43554000D02*
X135001000Y-47879000D01*
%TD*%
%TA.AperFunction,Conductor*%
%TO.N,GND*%
G36*
X147788621Y-33303502D02*
G01*
X147835114Y-33357158D01*
X147846500Y-33409500D01*
X147846500Y-34993878D01*
X147826498Y-35061999D01*
X147772842Y-35108492D01*
X147702568Y-35118596D01*
X147637988Y-35089102D01*
X147604603Y-35043313D01*
X147525763Y-34858477D01*
X147524077Y-34854524D01*
X147376439Y-34607839D01*
X147196687Y-34383472D01*
X146988149Y-34185577D01*
X146754683Y-34017814D01*
X146732843Y-34006250D01*
X146709654Y-33993972D01*
X146500608Y-33883288D01*
X146230627Y-33784489D01*
X145949736Y-33723245D01*
X145918685Y-33720801D01*
X145726718Y-33705693D01*
X145726709Y-33705693D01*
X145724261Y-33705500D01*
X145568729Y-33705500D01*
X145566593Y-33705646D01*
X145566582Y-33705646D01*
X145358452Y-33719835D01*
X145358446Y-33719836D01*
X145354175Y-33720127D01*
X145349980Y-33720996D01*
X145349978Y-33720996D01*
X145213417Y-33749276D01*
X145072658Y-33778426D01*
X144801657Y-33874393D01*
X144546188Y-34006250D01*
X144542687Y-34008711D01*
X144542683Y-34008713D01*
X144532594Y-34015804D01*
X144310977Y-34171559D01*
X144100378Y-34367260D01*
X143918287Y-34589732D01*
X143768073Y-34834858D01*
X143652517Y-35098102D01*
X143573756Y-35374594D01*
X143533249Y-35659216D01*
X143533227Y-35663505D01*
X143533226Y-35663512D01*
X143531765Y-35942417D01*
X143531743Y-35946703D01*
X143569268Y-36231734D01*
X143645129Y-36509036D01*
X143646813Y-36512984D01*
X143677694Y-36585382D01*
X143757923Y-36773476D01*
X143905561Y-37020161D01*
X144085313Y-37244528D01*
X144293851Y-37442423D01*
X144527317Y-37610186D01*
X144531112Y-37612195D01*
X144531113Y-37612196D01*
X144552869Y-37623715D01*
X144781392Y-37744712D01*
X145051373Y-37843511D01*
X145332264Y-37904755D01*
X145360841Y-37907004D01*
X145555282Y-37922307D01*
X145555291Y-37922307D01*
X145557739Y-37922500D01*
X145713271Y-37922500D01*
X145715407Y-37922354D01*
X145715418Y-37922354D01*
X145923548Y-37908165D01*
X145923554Y-37908164D01*
X145927825Y-37907873D01*
X145932020Y-37907004D01*
X145932022Y-37907004D01*
X146068584Y-37878723D01*
X146209342Y-37849574D01*
X146480343Y-37753607D01*
X146735812Y-37621750D01*
X146739313Y-37619289D01*
X146739317Y-37619287D01*
X146853417Y-37539096D01*
X146971023Y-37456441D01*
X147181622Y-37260740D01*
X147363713Y-37038268D01*
X147513927Y-36793142D01*
X147605127Y-36585381D01*
X147650823Y-36531047D01*
X147718641Y-36510042D01*
X147787049Y-36529036D01*
X147834329Y-36582000D01*
X147846500Y-36636028D01*
X147846500Y-109923878D01*
X147826498Y-109991999D01*
X147772842Y-110038492D01*
X147702568Y-110048596D01*
X147637988Y-110019102D01*
X147604603Y-109973313D01*
X147525763Y-109788477D01*
X147524077Y-109784524D01*
X147376439Y-109537839D01*
X147196687Y-109313472D01*
X146988149Y-109115577D01*
X146754683Y-108947814D01*
X146732843Y-108936250D01*
X146709654Y-108923972D01*
X146500608Y-108813288D01*
X146230627Y-108714489D01*
X145949736Y-108653245D01*
X145918685Y-108650801D01*
X145726718Y-108635693D01*
X145726709Y-108635693D01*
X145724261Y-108635500D01*
X145568729Y-108635500D01*
X145566593Y-108635646D01*
X145566582Y-108635646D01*
X145358452Y-108649835D01*
X145358446Y-108649836D01*
X145354175Y-108650127D01*
X145349980Y-108650996D01*
X145349978Y-108650996D01*
X145213416Y-108679277D01*
X145072658Y-108708426D01*
X144801657Y-108804393D01*
X144546188Y-108936250D01*
X144542687Y-108938711D01*
X144542683Y-108938713D01*
X144532594Y-108945804D01*
X144310977Y-109101559D01*
X144100378Y-109297260D01*
X143918287Y-109519732D01*
X143768073Y-109764858D01*
X143652517Y-110028102D01*
X143573756Y-110304594D01*
X143533249Y-110589216D01*
X143533227Y-110593505D01*
X143533226Y-110593512D01*
X143531765Y-110872417D01*
X143531743Y-110876703D01*
X143569268Y-111161734D01*
X143645129Y-111439036D01*
X143646813Y-111442984D01*
X143677694Y-111515382D01*
X143757923Y-111703476D01*
X143769693Y-111723142D01*
X143900218Y-111941233D01*
X143905561Y-111950161D01*
X144085313Y-112174528D01*
X144190388Y-112274240D01*
X144282854Y-112361987D01*
X144293851Y-112372423D01*
X144376285Y-112431658D01*
X144501060Y-112521318D01*
X144527317Y-112540186D01*
X144531112Y-112542195D01*
X144531113Y-112542196D01*
X144552869Y-112553715D01*
X144781392Y-112674712D01*
X145051373Y-112773511D01*
X145332264Y-112834755D01*
X145360841Y-112837004D01*
X145555282Y-112852307D01*
X145555291Y-112852307D01*
X145557739Y-112852500D01*
X145713271Y-112852500D01*
X145715407Y-112852354D01*
X145715418Y-112852354D01*
X145923548Y-112838165D01*
X145923554Y-112838164D01*
X145927825Y-112837873D01*
X145932020Y-112837004D01*
X145932022Y-112837004D01*
X146068583Y-112808724D01*
X146209342Y-112779574D01*
X146480343Y-112683607D01*
X146658767Y-112591516D01*
X146732005Y-112553715D01*
X146732006Y-112553715D01*
X146735812Y-112551750D01*
X146739313Y-112549289D01*
X146739317Y-112549287D01*
X146884594Y-112447184D01*
X146971023Y-112386441D01*
X147077299Y-112287683D01*
X147178479Y-112193661D01*
X147178481Y-112193658D01*
X147181622Y-112190740D01*
X147363713Y-111968268D01*
X147513927Y-111723142D01*
X147605127Y-111515381D01*
X147650823Y-111461047D01*
X147718641Y-111440042D01*
X147787049Y-111459036D01*
X147834329Y-111512000D01*
X147846500Y-111566028D01*
X147846500Y-113272500D01*
X147826498Y-113340621D01*
X147772842Y-113387114D01*
X147720500Y-113398500D01*
X91378500Y-113398500D01*
X91310379Y-113378498D01*
X91263886Y-113324842D01*
X91252500Y-113272500D01*
X91252500Y-110876703D01*
X91616743Y-110876703D01*
X91654268Y-111161734D01*
X91730129Y-111439036D01*
X91731813Y-111442984D01*
X91762694Y-111515382D01*
X91842923Y-111703476D01*
X91854693Y-111723142D01*
X91985218Y-111941233D01*
X91990561Y-111950161D01*
X92170313Y-112174528D01*
X92275388Y-112274240D01*
X92367854Y-112361987D01*
X92378851Y-112372423D01*
X92461285Y-112431658D01*
X92586060Y-112521318D01*
X92612317Y-112540186D01*
X92616112Y-112542195D01*
X92616113Y-112542196D01*
X92637869Y-112553715D01*
X92866392Y-112674712D01*
X93136373Y-112773511D01*
X93417264Y-112834755D01*
X93445841Y-112837004D01*
X93640282Y-112852307D01*
X93640291Y-112852307D01*
X93642739Y-112852500D01*
X93798271Y-112852500D01*
X93800407Y-112852354D01*
X93800418Y-112852354D01*
X94008548Y-112838165D01*
X94008554Y-112838164D01*
X94012825Y-112837873D01*
X94017020Y-112837004D01*
X94017022Y-112837004D01*
X94153583Y-112808724D01*
X94294342Y-112779574D01*
X94565343Y-112683607D01*
X94743767Y-112591516D01*
X94817005Y-112553715D01*
X94817006Y-112553715D01*
X94820812Y-112551750D01*
X94824313Y-112549289D01*
X94824317Y-112549287D01*
X94969594Y-112447184D01*
X95056023Y-112386441D01*
X95162299Y-112287683D01*
X95263479Y-112193661D01*
X95263481Y-112193658D01*
X95266622Y-112190740D01*
X95448713Y-111968268D01*
X95598927Y-111723142D01*
X95714483Y-111459898D01*
X95793244Y-111183406D01*
X95833751Y-110898784D01*
X95833845Y-110880951D01*
X95835235Y-110615583D01*
X95835235Y-110615576D01*
X95835257Y-110611297D01*
X95797732Y-110326266D01*
X95721871Y-110048964D01*
X95609077Y-109784524D01*
X95461439Y-109537839D01*
X95281687Y-109313472D01*
X95073149Y-109115577D01*
X94839683Y-108947814D01*
X94817843Y-108936250D01*
X94794654Y-108923972D01*
X94585608Y-108813288D01*
X94315627Y-108714489D01*
X94034736Y-108653245D01*
X94003685Y-108650801D01*
X93811718Y-108635693D01*
X93811709Y-108635693D01*
X93809261Y-108635500D01*
X93653729Y-108635500D01*
X93651593Y-108635646D01*
X93651582Y-108635646D01*
X93443452Y-108649835D01*
X93443446Y-108649836D01*
X93439175Y-108650127D01*
X93434980Y-108650996D01*
X93434978Y-108650996D01*
X93298416Y-108679277D01*
X93157658Y-108708426D01*
X92886657Y-108804393D01*
X92631188Y-108936250D01*
X92627687Y-108938711D01*
X92627683Y-108938713D01*
X92617594Y-108945804D01*
X92395977Y-109101559D01*
X92185378Y-109297260D01*
X92003287Y-109519732D01*
X91853073Y-109764858D01*
X91737517Y-110028102D01*
X91658756Y-110304594D01*
X91618249Y-110589216D01*
X91618227Y-110593505D01*
X91618226Y-110593512D01*
X91616765Y-110872417D01*
X91616743Y-110876703D01*
X91252500Y-110876703D01*
X91252500Y-98161344D01*
X94412575Y-98161344D01*
X94429516Y-98455164D01*
X94430341Y-98459371D01*
X94430342Y-98459376D01*
X94447190Y-98545250D01*
X94486177Y-98743966D01*
X94487564Y-98748016D01*
X94487565Y-98748021D01*
X94580120Y-99018351D01*
X94581509Y-99022407D01*
X94713747Y-99285334D01*
X94716173Y-99288863D01*
X94716176Y-99288869D01*
X94812255Y-99428664D01*
X94880445Y-99527881D01*
X95078518Y-99745560D01*
X95081807Y-99748310D01*
X95301009Y-99931592D01*
X95301014Y-99931596D01*
X95304301Y-99934344D01*
X95370051Y-99975589D01*
X95549976Y-100088456D01*
X95549980Y-100088458D01*
X95553616Y-100090739D01*
X95626293Y-100123554D01*
X95817937Y-100210085D01*
X95817941Y-100210087D01*
X95821849Y-100211851D01*
X95825968Y-100213071D01*
X96099924Y-100294221D01*
X96099929Y-100294222D01*
X96104037Y-100295439D01*
X96108271Y-100296087D01*
X96108276Y-100296088D01*
X96390717Y-100339307D01*
X96390719Y-100339307D01*
X96394959Y-100339956D01*
X96544772Y-100342310D01*
X96684940Y-100344512D01*
X96684946Y-100344512D01*
X96689231Y-100344579D01*
X96981408Y-100309222D01*
X97266082Y-100234539D01*
X97537988Y-100121912D01*
X97792092Y-99973425D01*
X98023694Y-99791827D01*
X98071605Y-99742387D01*
X98225523Y-99583554D01*
X98228506Y-99580476D01*
X98402741Y-99343285D01*
X98462078Y-99234000D01*
X98541122Y-99088418D01*
X98541123Y-99088416D01*
X98543172Y-99084642D01*
X98607449Y-98914538D01*
X98645685Y-98813351D01*
X98645686Y-98813347D01*
X98647203Y-98809333D01*
X98705967Y-98552754D01*
X98711949Y-98526637D01*
X98711950Y-98526633D01*
X98712907Y-98522453D01*
X98718537Y-98459376D01*
X98738849Y-98231776D01*
X98738849Y-98231774D01*
X98739069Y-98229310D01*
X98739126Y-98223922D01*
X98739518Y-98186484D01*
X98739518Y-98186483D01*
X98739544Y-98184000D01*
X98737953Y-98160662D01*
X98719819Y-97894650D01*
X98719818Y-97894644D01*
X98719527Y-97890373D01*
X98716662Y-97876536D01*
X98669826Y-97650378D01*
X98659845Y-97602180D01*
X98561603Y-97324753D01*
X98426618Y-97063226D01*
X98410589Y-97040418D01*
X98259856Y-96825948D01*
X98259855Y-96825947D01*
X98257389Y-96822438D01*
X98057048Y-96606844D01*
X98034936Y-96588745D01*
X97869618Y-96453435D01*
X97829300Y-96420435D01*
X97578361Y-96266660D01*
X97559706Y-96258471D01*
X97312802Y-96150087D01*
X97312798Y-96150086D01*
X97308874Y-96148363D01*
X97025826Y-96067735D01*
X97021584Y-96067131D01*
X97021578Y-96067130D01*
X96738705Y-96026871D01*
X96734454Y-96026266D01*
X96579306Y-96025454D01*
X96444436Y-96024747D01*
X96444430Y-96024747D01*
X96440150Y-96024725D01*
X96435906Y-96025284D01*
X96435902Y-96025284D01*
X96307341Y-96042210D01*
X96148360Y-96063140D01*
X96144220Y-96064273D01*
X96144218Y-96064273D01*
X96127261Y-96068912D01*
X95864483Y-96140800D01*
X95860533Y-96142485D01*
X95597714Y-96254586D01*
X95597707Y-96254590D01*
X95593772Y-96256268D01*
X95441386Y-96347469D01*
X95344918Y-96405204D01*
X95344914Y-96405207D01*
X95341236Y-96407408D01*
X95111549Y-96591422D01*
X95108605Y-96594524D01*
X95108601Y-96594528D01*
X94992763Y-96716596D01*
X94908961Y-96804905D01*
X94737220Y-97043908D01*
X94599504Y-97304007D01*
X94498362Y-97580390D01*
X94435666Y-97867943D01*
X94412575Y-98161344D01*
X91252500Y-98161344D01*
X91252500Y-94652856D01*
X98672601Y-94652856D01*
X98679059Y-94662216D01*
X98695361Y-94676512D01*
X98701901Y-94681530D01*
X98941144Y-94841387D01*
X98948281Y-94845508D01*
X99206349Y-94972772D01*
X99213953Y-94975922D01*
X99486420Y-95068412D01*
X99494383Y-95070546D01*
X99776600Y-95126683D01*
X99784751Y-95127756D01*
X100071881Y-95146575D01*
X100080119Y-95146575D01*
X100367249Y-95127756D01*
X100375400Y-95126683D01*
X100657617Y-95070546D01*
X100665580Y-95068412D01*
X100938047Y-94975922D01*
X100945651Y-94972772D01*
X101203719Y-94845508D01*
X101210856Y-94841387D01*
X101450099Y-94681530D01*
X101456639Y-94676512D01*
X101471074Y-94663853D01*
X101479472Y-94650614D01*
X101473638Y-94640849D01*
X100088810Y-93256020D01*
X100074869Y-93248408D01*
X100073034Y-93248539D01*
X100066420Y-93252790D01*
X98680116Y-94639095D01*
X98672601Y-94652856D01*
X91252500Y-94652856D01*
X91252500Y-90384000D01*
X92247515Y-90384000D01*
X92247785Y-90388119D01*
X92264311Y-90640244D01*
X92267436Y-90687928D01*
X92326856Y-90986656D01*
X92328181Y-90990560D01*
X92328182Y-90990563D01*
X92415720Y-91248442D01*
X92424760Y-91275073D01*
X92426583Y-91278769D01*
X92426586Y-91278777D01*
X92509410Y-91446726D01*
X92559473Y-91548242D01*
X92728689Y-91801492D01*
X92929512Y-92030488D01*
X93158508Y-92231311D01*
X93411757Y-92400527D01*
X93415460Y-92402353D01*
X93681223Y-92533414D01*
X93681231Y-92533417D01*
X93684927Y-92535240D01*
X93688841Y-92536569D01*
X93688842Y-92536569D01*
X93969437Y-92631818D01*
X93969440Y-92631819D01*
X93973344Y-92633144D01*
X94196406Y-92677513D01*
X94268029Y-92691760D01*
X94268032Y-92691760D01*
X94272072Y-92692564D01*
X94276183Y-92692833D01*
X94276187Y-92692834D01*
X94571881Y-92712215D01*
X94576000Y-92712485D01*
X94580119Y-92712215D01*
X94875813Y-92692834D01*
X94875817Y-92692833D01*
X94879928Y-92692564D01*
X94883968Y-92691760D01*
X94883971Y-92691760D01*
X95067854Y-92655184D01*
X95138568Y-92661512D01*
X95194635Y-92705067D01*
X95218254Y-92772019D01*
X95217343Y-92795316D01*
X95216946Y-92798314D01*
X95214102Y-92819774D01*
X95214302Y-92825103D01*
X95214302Y-92825105D01*
X95216402Y-92881034D01*
X95222751Y-93050158D01*
X95270093Y-93275791D01*
X95272051Y-93280750D01*
X95272052Y-93280752D01*
X95340171Y-93453238D01*
X95354776Y-93490221D01*
X95474377Y-93687317D01*
X95477874Y-93691347D01*
X95564438Y-93791103D01*
X95625477Y-93861445D01*
X95629608Y-93864832D01*
X95799627Y-94004240D01*
X95799633Y-94004244D01*
X95803755Y-94007624D01*
X95808391Y-94010263D01*
X95808394Y-94010265D01*
X95917422Y-94072327D01*
X96004114Y-94121675D01*
X96220825Y-94200337D01*
X96226074Y-94201286D01*
X96226077Y-94201287D01*
X96443608Y-94240623D01*
X96443615Y-94240624D01*
X96447692Y-94241361D01*
X96465414Y-94242197D01*
X96470356Y-94242430D01*
X96470363Y-94242430D01*
X96471844Y-94242500D01*
X96633890Y-94242500D01*
X96700809Y-94236822D01*
X96800409Y-94228371D01*
X96800413Y-94228370D01*
X96805720Y-94227920D01*
X96810875Y-94226582D01*
X96810881Y-94226581D01*
X97023703Y-94171343D01*
X97023707Y-94171342D01*
X97028872Y-94170001D01*
X97033738Y-94167809D01*
X97033741Y-94167808D01*
X97234202Y-94077507D01*
X97239075Y-94075312D01*
X97430319Y-93946559D01*
X97459128Y-93919077D01*
X97593278Y-93791103D01*
X97597135Y-93787424D01*
X97729236Y-93609874D01*
X97785945Y-93567162D01*
X97856746Y-93561889D01*
X97919158Y-93595731D01*
X97949637Y-93644587D01*
X97984078Y-93746047D01*
X97987228Y-93753651D01*
X98114492Y-94011718D01*
X98118613Y-94018855D01*
X98278470Y-94258099D01*
X98283488Y-94264639D01*
X98296147Y-94279074D01*
X98309386Y-94287472D01*
X98319151Y-94281638D01*
X99703980Y-92896810D01*
X99710357Y-92885131D01*
X100440408Y-92885131D01*
X100440539Y-92886966D01*
X100444790Y-92893580D01*
X101580036Y-94028825D01*
X101610254Y-94077419D01*
X101634941Y-94150145D01*
X101688178Y-94258099D01*
X101726560Y-94335929D01*
X101765885Y-94415673D01*
X101768179Y-94419106D01*
X101873871Y-94577285D01*
X101879521Y-94586587D01*
X101886935Y-94600072D01*
X101903816Y-94630779D01*
X101906144Y-94633983D01*
X101906147Y-94633988D01*
X102072584Y-94863069D01*
X102089346Y-94886140D01*
X102305418Y-95116233D01*
X102308469Y-95118757D01*
X102308470Y-95118758D01*
X102386546Y-95183348D01*
X102548625Y-95317432D01*
X102815131Y-95486562D01*
X102818710Y-95488246D01*
X102818717Y-95488250D01*
X103097144Y-95619267D01*
X103097148Y-95619269D01*
X103100734Y-95620956D01*
X103104506Y-95622182D01*
X103104507Y-95622182D01*
X103135238Y-95632167D01*
X103400928Y-95718495D01*
X103651207Y-95766239D01*
X103714372Y-95798650D01*
X103749987Y-95860067D01*
X103746744Y-95930990D01*
X103705672Y-95988900D01*
X103692019Y-95998291D01*
X103628782Y-96035913D01*
X103619795Y-96041260D01*
X103616794Y-96043575D01*
X103616790Y-96043578D01*
X103583953Y-96068912D01*
X103372920Y-96231723D01*
X103370219Y-96234382D01*
X103370212Y-96234388D01*
X103191729Y-96410090D01*
X103150715Y-96450465D01*
X103148351Y-96453432D01*
X103148348Y-96453435D01*
X102958762Y-96691350D01*
X102956397Y-96694318D01*
X102792783Y-96959750D01*
X102662242Y-97242915D01*
X102661083Y-97246515D01*
X102661080Y-97246522D01*
X102603988Y-97423812D01*
X102566665Y-97539712D01*
X102565946Y-97543428D01*
X102565944Y-97543436D01*
X102508156Y-97842123D01*
X102508155Y-97842132D01*
X102507437Y-97845842D01*
X102507170Y-97849618D01*
X102507169Y-97849623D01*
X102495901Y-98008769D01*
X102485415Y-98156870D01*
X102488551Y-98219864D01*
X102500170Y-98453238D01*
X102500919Y-98468292D01*
X102501560Y-98472023D01*
X102501561Y-98472031D01*
X102548985Y-98748021D01*
X102553723Y-98775595D01*
X102554811Y-98779234D01*
X102554812Y-98779237D01*
X102595276Y-98914538D01*
X102643063Y-99074328D01*
X102767645Y-99360165D01*
X102769568Y-99363436D01*
X102769570Y-99363440D01*
X102923742Y-99625695D01*
X102923747Y-99625703D01*
X102925665Y-99628965D01*
X103114832Y-99876834D01*
X103332408Y-100100182D01*
X103575241Y-100295774D01*
X103839812Y-100460775D01*
X104122290Y-100592797D01*
X104418582Y-100689927D01*
X104724398Y-100750757D01*
X104728170Y-100751044D01*
X104728178Y-100751045D01*
X105031530Y-100774120D01*
X105031535Y-100774120D01*
X105035307Y-100774407D01*
X105346805Y-100760535D01*
X105350543Y-100759913D01*
X105350551Y-100759912D01*
X105650638Y-100709963D01*
X105650640Y-100709962D01*
X105654380Y-100709340D01*
X105953577Y-100621565D01*
X105957044Y-100620075D01*
X105957048Y-100620074D01*
X106236579Y-100499978D01*
X106236581Y-100499977D01*
X106240063Y-100498481D01*
X106509686Y-100341872D01*
X106512708Y-100339591D01*
X106512712Y-100339588D01*
X106755519Y-100156287D01*
X106755520Y-100156286D01*
X106758543Y-100154004D01*
X106943438Y-99975765D01*
X106980293Y-99940237D01*
X106980296Y-99940233D01*
X106983027Y-99937601D01*
X107099548Y-99794478D01*
X107177496Y-99698733D01*
X107177497Y-99698732D01*
X107179887Y-99695796D01*
X107222054Y-99628965D01*
X107344248Y-99435299D01*
X107344251Y-99435293D01*
X107346271Y-99432092D01*
X107479770Y-99150310D01*
X107578450Y-98854529D01*
X107640881Y-98549037D01*
X107666159Y-98238256D01*
X107666727Y-98184000D01*
X107666578Y-98181519D01*
X107648191Y-97876536D01*
X107648191Y-97876532D01*
X107647963Y-97872758D01*
X107591944Y-97566025D01*
X107499480Y-97268243D01*
X107371912Y-96983726D01*
X107262381Y-96801796D01*
X107213045Y-96719849D01*
X107213041Y-96719843D01*
X107211086Y-96716596D01*
X107208759Y-96713612D01*
X107208754Y-96713605D01*
X107021669Y-96473716D01*
X107021667Y-96473713D01*
X107019333Y-96470721D01*
X106799430Y-96249664D01*
X106554563Y-96056627D01*
X106537884Y-96046466D01*
X106504461Y-96026104D01*
X106456692Y-95973582D01*
X106444903Y-95903571D01*
X106472835Y-95838300D01*
X106531621Y-95798492D01*
X106570015Y-95792500D01*
X108829756Y-95792500D01*
X108897877Y-95812502D01*
X108918851Y-95829405D01*
X110230595Y-97141149D01*
X110264621Y-97203461D01*
X110267500Y-97230244D01*
X110267500Y-103082597D01*
X110267438Y-103086555D01*
X110263780Y-103202949D01*
X110274743Y-103318915D01*
X110275048Y-103322807D01*
X110282359Y-103439020D01*
X110283101Y-103442909D01*
X110283102Y-103442918D01*
X110288652Y-103472010D01*
X110290325Y-103483762D01*
X110293485Y-103517192D01*
X110318894Y-103630864D01*
X110319685Y-103634688D01*
X110341505Y-103749072D01*
X110342729Y-103752839D01*
X110342730Y-103752843D01*
X110351881Y-103781007D01*
X110355014Y-103792456D01*
X110362340Y-103825233D01*
X110401803Y-103934845D01*
X110403056Y-103938507D01*
X110439044Y-104049266D01*
X110440726Y-104052841D01*
X110440729Y-104052848D01*
X110453344Y-104079657D01*
X110457885Y-104090621D01*
X110467920Y-104118493D01*
X110467924Y-104118501D01*
X110469261Y-104122216D01*
X110471050Y-104125727D01*
X110471053Y-104125734D01*
X110522126Y-104225969D01*
X110523863Y-104229515D01*
X110573438Y-104334869D01*
X110575559Y-104338211D01*
X110575560Y-104338213D01*
X110591434Y-104363226D01*
X110597312Y-104373531D01*
X110612559Y-104403455D01*
X110614786Y-104406732D01*
X110614789Y-104406737D01*
X110678003Y-104499753D01*
X110680171Y-104503053D01*
X110742568Y-104601375D01*
X110745096Y-104604430D01*
X110745099Y-104604435D01*
X110763980Y-104627259D01*
X110771103Y-104636746D01*
X110789977Y-104664518D01*
X110792596Y-104667489D01*
X110792601Y-104667495D01*
X110866972Y-104751850D01*
X110869532Y-104754847D01*
X110943767Y-104844582D01*
X110946654Y-104847293D01*
X111028675Y-104924316D01*
X111031517Y-104927071D01*
X117957929Y-111853483D01*
X117960683Y-111856324D01*
X118040418Y-111941233D01*
X118130172Y-112015484D01*
X118133134Y-112018014D01*
X118220483Y-112095023D01*
X118223763Y-112097252D01*
X118248255Y-112113897D01*
X118257742Y-112121020D01*
X118283625Y-112142432D01*
X118286969Y-112144554D01*
X118381929Y-112204818D01*
X118385237Y-112206991D01*
X118478264Y-112270211D01*
X118481545Y-112272441D01*
X118485064Y-112274234D01*
X118485069Y-112274237D01*
X118496901Y-112280265D01*
X118511469Y-112287688D01*
X118521770Y-112293564D01*
X118550131Y-112311562D01*
X118655512Y-112361150D01*
X118659013Y-112362865D01*
X118762785Y-112415739D01*
X118766508Y-112417079D01*
X118766514Y-112417082D01*
X118794385Y-112427117D01*
X118805348Y-112431658D01*
X118832144Y-112444267D01*
X118832148Y-112444269D01*
X118835734Y-112445956D01*
X118839498Y-112447179D01*
X118839511Y-112447184D01*
X118922264Y-112474071D01*
X118946477Y-112481939D01*
X118950159Y-112483198D01*
X119059767Y-112522660D01*
X119092539Y-112529986D01*
X119103984Y-112533117D01*
X119132153Y-112542269D01*
X119132161Y-112542271D01*
X119135928Y-112543495D01*
X119139819Y-112544237D01*
X119139818Y-112544237D01*
X119250291Y-112565311D01*
X119254167Y-112566114D01*
X119363939Y-112590651D01*
X119367809Y-112591516D01*
X119371743Y-112591888D01*
X119371750Y-112591889D01*
X119394644Y-112594053D01*
X119401252Y-112594677D01*
X119412998Y-112596349D01*
X119445980Y-112602641D01*
X119519885Y-112607291D01*
X119562165Y-112609951D01*
X119566110Y-112610261D01*
X119612394Y-112614636D01*
X119682051Y-112621220D01*
X119686003Y-112621096D01*
X119686009Y-112621096D01*
X119798445Y-112617562D01*
X119802403Y-112617500D01*
X131149597Y-112617500D01*
X131153555Y-112617562D01*
X131265992Y-112621096D01*
X131265998Y-112621096D01*
X131269949Y-112621220D01*
X131385915Y-112610257D01*
X131389807Y-112609952D01*
X131506020Y-112602641D01*
X131509909Y-112601899D01*
X131509918Y-112601898D01*
X131539010Y-112596348D01*
X131550762Y-112594675D01*
X131551956Y-112594562D01*
X131584192Y-112591515D01*
X131697864Y-112566106D01*
X131701688Y-112565315D01*
X131725532Y-112560766D01*
X131816072Y-112543495D01*
X131819839Y-112542271D01*
X131819843Y-112542270D01*
X131848007Y-112533119D01*
X131859457Y-112529986D01*
X131892233Y-112522660D01*
X132001845Y-112483197D01*
X132005507Y-112481944D01*
X132116266Y-112445956D01*
X132119841Y-112444274D01*
X132119848Y-112444271D01*
X132146657Y-112431656D01*
X132157621Y-112427115D01*
X132185493Y-112417080D01*
X132185501Y-112417076D01*
X132189216Y-112415739D01*
X132192727Y-112413950D01*
X132192734Y-112413947D01*
X132280018Y-112369473D01*
X132292977Y-112362870D01*
X132296524Y-112361133D01*
X132398284Y-112313249D01*
X132398285Y-112313249D01*
X132401869Y-112311562D01*
X132430230Y-112293564D01*
X132440531Y-112287688D01*
X132456032Y-112279790D01*
X132466925Y-112274240D01*
X132466929Y-112274237D01*
X132470455Y-112272441D01*
X132473735Y-112270212D01*
X132473737Y-112270211D01*
X132566753Y-112206997D01*
X132570061Y-112204824D01*
X132668375Y-112142432D01*
X132671430Y-112139904D01*
X132671435Y-112139901D01*
X132694259Y-112121020D01*
X132703746Y-112113897D01*
X132731518Y-112095023D01*
X132734489Y-112092404D01*
X132734495Y-112092399D01*
X132785956Y-112047028D01*
X132818864Y-112018016D01*
X132821861Y-112015456D01*
X132908531Y-111943757D01*
X132911582Y-111941233D01*
X132991317Y-111856324D01*
X132994071Y-111853483D01*
X136745483Y-108102071D01*
X136748325Y-108099316D01*
X136830346Y-108022293D01*
X136833233Y-108019582D01*
X136907484Y-107929828D01*
X136910014Y-107926866D01*
X136987023Y-107839517D01*
X137005898Y-107811744D01*
X137013024Y-107802253D01*
X137034432Y-107776375D01*
X137096818Y-107678071D01*
X137098991Y-107674763D01*
X137162209Y-107581740D01*
X137162212Y-107581734D01*
X137164441Y-107578455D01*
X137179687Y-107548531D01*
X137185565Y-107538227D01*
X137201443Y-107513208D01*
X137203562Y-107509869D01*
X137253143Y-107404505D01*
X137254858Y-107401003D01*
X137307740Y-107297215D01*
X137319117Y-107265613D01*
X137323659Y-107254649D01*
X137336272Y-107227844D01*
X137337956Y-107224266D01*
X137373935Y-107113536D01*
X137375217Y-107109793D01*
X137413315Y-107003971D01*
X137413318Y-107003960D01*
X137414660Y-107000233D01*
X137421986Y-106967461D01*
X137425117Y-106956016D01*
X137434269Y-106927847D01*
X137434271Y-106927839D01*
X137435495Y-106924072D01*
X137457311Y-106809709D01*
X137458114Y-106805833D01*
X137482651Y-106696061D01*
X137482651Y-106696060D01*
X137483516Y-106692191D01*
X137486677Y-106658748D01*
X137488350Y-106646998D01*
X137493897Y-106617919D01*
X137494641Y-106614020D01*
X137501951Y-106497835D01*
X137502261Y-106493890D01*
X137512847Y-106381892D01*
X137513220Y-106377949D01*
X137509562Y-106261555D01*
X137509500Y-106257597D01*
X137509500Y-105582134D01*
X140022500Y-105582134D01*
X140029255Y-105644316D01*
X140080385Y-105780705D01*
X140167739Y-105897261D01*
X140284295Y-105984615D01*
X140420684Y-106035745D01*
X140482866Y-106042500D01*
X143179134Y-106042500D01*
X143241316Y-106035745D01*
X143377705Y-105984615D01*
X143494261Y-105897261D01*
X143581615Y-105780705D01*
X143632745Y-105644316D01*
X143639500Y-105582134D01*
X143639500Y-102885866D01*
X143632745Y-102823684D01*
X143581615Y-102687295D01*
X143494261Y-102570739D01*
X143377705Y-102483385D01*
X143241316Y-102432255D01*
X143179134Y-102425500D01*
X140482866Y-102425500D01*
X140420684Y-102432255D01*
X140284295Y-102483385D01*
X140167739Y-102570739D01*
X140080385Y-102687295D01*
X140029255Y-102823684D01*
X140022500Y-102885866D01*
X140022500Y-105582134D01*
X137509500Y-105582134D01*
X137509500Y-99186526D01*
X140018050Y-99186526D01*
X140030947Y-99455019D01*
X140083388Y-99718656D01*
X140174220Y-99971646D01*
X140301450Y-100208431D01*
X140304241Y-100212168D01*
X140304245Y-100212175D01*
X140385887Y-100321506D01*
X140462281Y-100423810D01*
X140465590Y-100427090D01*
X140465595Y-100427096D01*
X140631125Y-100591187D01*
X140653180Y-100613050D01*
X140656942Y-100615808D01*
X140656945Y-100615811D01*
X140854555Y-100760704D01*
X140869954Y-100771995D01*
X140874089Y-100774171D01*
X140874093Y-100774173D01*
X141103698Y-100894975D01*
X141107840Y-100897154D01*
X141361613Y-100985775D01*
X141366206Y-100986647D01*
X141621109Y-101035042D01*
X141621112Y-101035042D01*
X141625698Y-101035913D01*
X141753370Y-101040929D01*
X141889625Y-101046283D01*
X141889630Y-101046283D01*
X141894293Y-101046466D01*
X141998607Y-101035042D01*
X142156844Y-101017713D01*
X142156850Y-101017712D01*
X142161497Y-101017203D01*
X142166021Y-101016012D01*
X142416918Y-100949956D01*
X142416920Y-100949955D01*
X142421441Y-100948765D01*
X142425738Y-100946919D01*
X142664120Y-100844502D01*
X142664122Y-100844501D01*
X142668414Y-100842657D01*
X142802129Y-100759912D01*
X142893017Y-100703669D01*
X142893021Y-100703666D01*
X142896990Y-100701210D01*
X143102149Y-100527530D01*
X143279382Y-100325434D01*
X143297166Y-100297787D01*
X143391343Y-100151371D01*
X143424797Y-100099361D01*
X143535199Y-99854278D01*
X143572209Y-99723051D01*
X143606893Y-99600072D01*
X143606894Y-99600069D01*
X143608163Y-99595568D01*
X143626043Y-99455019D01*
X143641688Y-99332045D01*
X143641688Y-99332041D01*
X143642086Y-99328915D01*
X143643135Y-99288869D01*
X143644488Y-99237160D01*
X143644571Y-99234000D01*
X143624650Y-98965937D01*
X143600253Y-98858116D01*
X143566361Y-98708331D01*
X143566360Y-98708326D01*
X143565327Y-98703763D01*
X143467902Y-98453238D01*
X143334518Y-98219864D01*
X143308204Y-98186484D01*
X143268416Y-98136014D01*
X143168105Y-98008769D01*
X142972317Y-97824591D01*
X142751457Y-97671374D01*
X142747264Y-97669306D01*
X142514564Y-97554551D01*
X142514561Y-97554550D01*
X142510376Y-97552486D01*
X142462745Y-97537239D01*
X142408621Y-97519914D01*
X142254370Y-97470538D01*
X142249763Y-97469788D01*
X142249760Y-97469787D01*
X141993674Y-97428081D01*
X141993675Y-97428081D01*
X141989063Y-97427330D01*
X141858719Y-97425624D01*
X141724961Y-97423873D01*
X141724958Y-97423873D01*
X141720284Y-97423812D01*
X141453937Y-97460060D01*
X141195874Y-97535278D01*
X140951763Y-97647815D01*
X140947854Y-97650378D01*
X140730881Y-97792631D01*
X140730876Y-97792635D01*
X140726968Y-97795197D01*
X140526426Y-97974188D01*
X140494615Y-98012437D01*
X140377643Y-98153081D01*
X140354544Y-98180854D01*
X140215096Y-98410656D01*
X140213287Y-98414970D01*
X140213285Y-98414974D01*
X140190927Y-98468292D01*
X140111148Y-98658545D01*
X140044981Y-98919077D01*
X140018050Y-99186526D01*
X137509500Y-99186526D01*
X137509500Y-94186526D01*
X140018050Y-94186526D01*
X140018274Y-94191192D01*
X140018274Y-94191197D01*
X140022619Y-94281638D01*
X140030947Y-94455019D01*
X140083388Y-94718656D01*
X140174220Y-94971646D01*
X140176432Y-94975762D01*
X140176433Y-94975765D01*
X140251910Y-95116233D01*
X140301450Y-95208431D01*
X140304241Y-95212168D01*
X140304245Y-95212175D01*
X140308230Y-95217511D01*
X140462281Y-95423810D01*
X140465590Y-95427090D01*
X140465595Y-95427096D01*
X140649863Y-95609762D01*
X140653180Y-95613050D01*
X140656942Y-95615808D01*
X140656945Y-95615811D01*
X140796989Y-95718495D01*
X140869954Y-95771995D01*
X140874089Y-95774171D01*
X140874093Y-95774173D01*
X141102615Y-95894405D01*
X141107840Y-95897154D01*
X141361613Y-95985775D01*
X141366206Y-95986647D01*
X141621109Y-96035042D01*
X141621112Y-96035042D01*
X141625698Y-96035913D01*
X141753370Y-96040929D01*
X141889625Y-96046283D01*
X141889630Y-96046283D01*
X141894293Y-96046466D01*
X141998607Y-96035042D01*
X142156844Y-96017713D01*
X142156850Y-96017712D01*
X142161497Y-96017203D01*
X142166021Y-96016012D01*
X142416918Y-95949956D01*
X142416920Y-95949955D01*
X142421441Y-95948765D01*
X142432276Y-95944110D01*
X142664120Y-95844502D01*
X142664122Y-95844501D01*
X142668414Y-95842657D01*
X142831173Y-95741939D01*
X142893017Y-95703669D01*
X142893021Y-95703666D01*
X142896990Y-95701210D01*
X143102149Y-95527530D01*
X143279382Y-95325434D01*
X143286154Y-95314907D01*
X143412320Y-95118758D01*
X143424797Y-95099361D01*
X143535199Y-94854278D01*
X143572209Y-94723051D01*
X143606893Y-94600072D01*
X143606894Y-94600069D01*
X143608163Y-94595568D01*
X143626043Y-94455019D01*
X143641688Y-94332045D01*
X143641688Y-94332041D01*
X143642086Y-94328915D01*
X143644571Y-94234000D01*
X143632556Y-94072327D01*
X143624996Y-93970592D01*
X143624996Y-93970591D01*
X143624650Y-93965937D01*
X143620940Y-93949539D01*
X143566361Y-93708331D01*
X143566360Y-93708326D01*
X143565327Y-93703763D01*
X143467902Y-93453238D01*
X143334518Y-93219864D01*
X143168105Y-93008769D01*
X142972317Y-92824591D01*
X142790131Y-92698203D01*
X142755299Y-92674039D01*
X142755296Y-92674037D01*
X142751457Y-92671374D01*
X142718627Y-92655184D01*
X142514564Y-92554551D01*
X142514561Y-92554550D01*
X142510376Y-92552486D01*
X142462745Y-92537239D01*
X142322070Y-92492209D01*
X142254370Y-92470538D01*
X142249763Y-92469788D01*
X142249760Y-92469787D01*
X141993674Y-92428081D01*
X141993675Y-92428081D01*
X141989063Y-92427330D01*
X141858719Y-92425624D01*
X141724961Y-92423873D01*
X141724958Y-92423873D01*
X141720284Y-92423812D01*
X141453937Y-92460060D01*
X141195874Y-92535278D01*
X140951763Y-92647815D01*
X140930872Y-92661512D01*
X140730881Y-92792631D01*
X140730876Y-92792635D01*
X140726968Y-92795197D01*
X140723476Y-92798314D01*
X140613121Y-92896810D01*
X140526426Y-92974188D01*
X140354544Y-93180854D01*
X140215096Y-93410656D01*
X140111148Y-93658545D01*
X140044981Y-93919077D01*
X140018050Y-94186526D01*
X137509500Y-94186526D01*
X137509500Y-92150244D01*
X137529502Y-92082123D01*
X137546405Y-92061149D01*
X137828149Y-91779405D01*
X137890461Y-91745379D01*
X137917244Y-91742500D01*
X141909838Y-91742500D01*
X142146020Y-91727641D01*
X142456072Y-91668495D01*
X142756266Y-91570956D01*
X142759852Y-91569269D01*
X142759856Y-91569267D01*
X143038283Y-91438250D01*
X143038290Y-91438246D01*
X143041869Y-91436562D01*
X143308375Y-91267432D01*
X143505752Y-91104147D01*
X143548530Y-91068758D01*
X143548531Y-91068757D01*
X143551582Y-91066233D01*
X143767654Y-90836140D01*
X143953184Y-90580779D01*
X144105247Y-90304179D01*
X144193978Y-90080072D01*
X144219990Y-90014372D01*
X144219990Y-90014371D01*
X144221443Y-90010702D01*
X144299940Y-89704975D01*
X144339500Y-89391821D01*
X144339500Y-89076179D01*
X144299940Y-88763025D01*
X144221443Y-88457298D01*
X144185156Y-88365647D01*
X144106702Y-88167495D01*
X144106700Y-88167490D01*
X144105247Y-88163821D01*
X144078368Y-88114928D01*
X143955093Y-87890693D01*
X143955091Y-87890690D01*
X143953184Y-87887221D01*
X143767654Y-87631860D01*
X143551582Y-87401767D01*
X143308375Y-87200568D01*
X143041869Y-87031438D01*
X143038290Y-87029754D01*
X143038283Y-87029750D01*
X142759856Y-86898733D01*
X142759852Y-86898731D01*
X142756266Y-86897044D01*
X142456072Y-86799505D01*
X142146020Y-86740359D01*
X141909838Y-86725500D01*
X137635500Y-86725500D01*
X137567379Y-86705498D01*
X137520886Y-86651842D01*
X137509500Y-86599500D01*
X137509500Y-82722134D01*
X140022500Y-82722134D01*
X140029255Y-82784316D01*
X140080385Y-82920705D01*
X140167739Y-83037261D01*
X140284295Y-83124615D01*
X140420684Y-83175745D01*
X140482866Y-83182500D01*
X143179134Y-83182500D01*
X143241316Y-83175745D01*
X143377705Y-83124615D01*
X143494261Y-83037261D01*
X143581615Y-82920705D01*
X143632745Y-82784316D01*
X143639500Y-82722134D01*
X143639500Y-80025866D01*
X143632745Y-79963684D01*
X143581615Y-79827295D01*
X143494261Y-79710739D01*
X143377705Y-79623385D01*
X143241316Y-79572255D01*
X143179134Y-79565500D01*
X140482866Y-79565500D01*
X140420684Y-79572255D01*
X140284295Y-79623385D01*
X140167739Y-79710739D01*
X140080385Y-79827295D01*
X140029255Y-79963684D01*
X140022500Y-80025866D01*
X140022500Y-82722134D01*
X137509500Y-82722134D01*
X137509500Y-76326526D01*
X140018050Y-76326526D01*
X140030947Y-76595019D01*
X140083388Y-76858656D01*
X140174220Y-77111646D01*
X140301450Y-77348431D01*
X140304241Y-77352168D01*
X140304245Y-77352175D01*
X140385887Y-77461506D01*
X140462281Y-77563810D01*
X140465590Y-77567090D01*
X140465595Y-77567096D01*
X140649863Y-77749762D01*
X140653180Y-77753050D01*
X140656942Y-77755808D01*
X140656945Y-77755811D01*
X140769299Y-77838192D01*
X140869954Y-77911995D01*
X140874089Y-77914171D01*
X140874093Y-77914173D01*
X141103698Y-78034975D01*
X141107840Y-78037154D01*
X141361613Y-78125775D01*
X141366206Y-78126647D01*
X141621109Y-78175042D01*
X141621112Y-78175042D01*
X141625698Y-78175913D01*
X141753370Y-78180929D01*
X141889625Y-78186283D01*
X141889630Y-78186283D01*
X141894293Y-78186466D01*
X141998607Y-78175042D01*
X142156844Y-78157713D01*
X142156850Y-78157712D01*
X142161497Y-78157203D01*
X142166021Y-78156012D01*
X142416918Y-78089956D01*
X142416920Y-78089955D01*
X142421441Y-78088765D01*
X142425738Y-78086919D01*
X142664120Y-77984502D01*
X142664122Y-77984501D01*
X142668414Y-77982657D01*
X142787071Y-77909230D01*
X142893017Y-77843669D01*
X142893021Y-77843666D01*
X142896990Y-77841210D01*
X143102149Y-77667530D01*
X143279382Y-77465434D01*
X143424797Y-77239361D01*
X143535199Y-76994278D01*
X143572209Y-76863051D01*
X143606893Y-76740072D01*
X143606894Y-76740069D01*
X143608163Y-76735568D01*
X143626043Y-76595019D01*
X143641688Y-76472045D01*
X143641688Y-76472041D01*
X143642086Y-76468915D01*
X143644571Y-76374000D01*
X143624650Y-76105937D01*
X143565327Y-75843763D01*
X143467902Y-75593238D01*
X143334518Y-75359864D01*
X143168105Y-75148769D01*
X142972317Y-74964591D01*
X142751457Y-74811374D01*
X142747264Y-74809306D01*
X142514564Y-74694551D01*
X142514561Y-74694550D01*
X142510376Y-74692486D01*
X142462745Y-74677239D01*
X142408621Y-74659914D01*
X142254370Y-74610538D01*
X142249763Y-74609788D01*
X142249760Y-74609787D01*
X141993674Y-74568081D01*
X141993675Y-74568081D01*
X141989063Y-74567330D01*
X141858719Y-74565624D01*
X141724961Y-74563873D01*
X141724958Y-74563873D01*
X141720284Y-74563812D01*
X141453937Y-74600060D01*
X141195874Y-74675278D01*
X140951763Y-74787815D01*
X140947854Y-74790378D01*
X140730881Y-74932631D01*
X140730876Y-74932635D01*
X140726968Y-74935197D01*
X140526426Y-75114188D01*
X140354544Y-75320854D01*
X140215096Y-75550656D01*
X140111148Y-75798545D01*
X140044981Y-76059077D01*
X140018050Y-76326526D01*
X137509500Y-76326526D01*
X137509500Y-71326526D01*
X140018050Y-71326526D01*
X140030947Y-71595019D01*
X140083388Y-71858656D01*
X140174220Y-72111646D01*
X140301450Y-72348431D01*
X140304241Y-72352168D01*
X140304245Y-72352175D01*
X140385887Y-72461506D01*
X140462281Y-72563810D01*
X140465590Y-72567090D01*
X140465595Y-72567096D01*
X140649863Y-72749762D01*
X140653180Y-72753050D01*
X140656942Y-72755808D01*
X140656945Y-72755811D01*
X140769299Y-72838192D01*
X140869954Y-72911995D01*
X140874089Y-72914171D01*
X140874093Y-72914173D01*
X141103698Y-73034975D01*
X141107840Y-73037154D01*
X141361613Y-73125775D01*
X141366206Y-73126647D01*
X141621109Y-73175042D01*
X141621112Y-73175042D01*
X141625698Y-73175913D01*
X141753370Y-73180929D01*
X141889625Y-73186283D01*
X141889630Y-73186283D01*
X141894293Y-73186466D01*
X141998607Y-73175042D01*
X142156844Y-73157713D01*
X142156850Y-73157712D01*
X142161497Y-73157203D01*
X142166021Y-73156012D01*
X142416918Y-73089956D01*
X142416920Y-73089955D01*
X142421441Y-73088765D01*
X142425738Y-73086919D01*
X142664120Y-72984502D01*
X142664122Y-72984501D01*
X142668414Y-72982657D01*
X142787071Y-72909230D01*
X142893017Y-72843669D01*
X142893021Y-72843666D01*
X142896990Y-72841210D01*
X143102149Y-72667530D01*
X143279382Y-72465434D01*
X143424797Y-72239361D01*
X143535199Y-71994278D01*
X143572209Y-71863051D01*
X143606893Y-71740072D01*
X143606894Y-71740069D01*
X143608163Y-71735568D01*
X143626043Y-71595019D01*
X143641688Y-71472045D01*
X143641688Y-71472041D01*
X143642086Y-71468915D01*
X143644571Y-71374000D01*
X143624650Y-71105937D01*
X143565327Y-70843763D01*
X143467902Y-70593238D01*
X143334518Y-70359864D01*
X143168105Y-70148769D01*
X142972317Y-69964591D01*
X142751457Y-69811374D01*
X142747264Y-69809306D01*
X142514564Y-69694551D01*
X142514561Y-69694550D01*
X142510376Y-69692486D01*
X142462745Y-69677239D01*
X142408621Y-69659914D01*
X142254370Y-69610538D01*
X142249763Y-69609788D01*
X142249760Y-69609787D01*
X141993674Y-69568081D01*
X141993675Y-69568081D01*
X141989063Y-69567330D01*
X141858719Y-69565624D01*
X141724961Y-69563873D01*
X141724958Y-69563873D01*
X141720284Y-69563812D01*
X141453937Y-69600060D01*
X141195874Y-69675278D01*
X140951763Y-69787815D01*
X140947854Y-69790378D01*
X140730881Y-69932631D01*
X140730876Y-69932635D01*
X140726968Y-69935197D01*
X140526426Y-70114188D01*
X140354544Y-70320854D01*
X140215096Y-70550656D01*
X140111148Y-70798545D01*
X140044981Y-71059077D01*
X140018050Y-71326526D01*
X137509500Y-71326526D01*
X137509500Y-69008500D01*
X137529502Y-68940379D01*
X137583158Y-68893886D01*
X137635500Y-68882500D01*
X141909838Y-68882500D01*
X142146020Y-68867641D01*
X142456072Y-68808495D01*
X142756266Y-68710956D01*
X142759852Y-68709269D01*
X142759856Y-68709267D01*
X143038283Y-68578250D01*
X143038290Y-68578246D01*
X143041869Y-68576562D01*
X143308375Y-68407432D01*
X143551582Y-68206233D01*
X143767654Y-67976140D01*
X143953184Y-67720779D01*
X144105247Y-67444179D01*
X144221443Y-67150702D01*
X144299940Y-66844975D01*
X144339500Y-66531821D01*
X144339500Y-66216179D01*
X144299940Y-65903025D01*
X144221443Y-65597298D01*
X144105247Y-65303821D01*
X143953184Y-65027221D01*
X143767654Y-64771860D01*
X143551582Y-64541767D01*
X143308375Y-64340568D01*
X143041869Y-64171438D01*
X143038290Y-64169754D01*
X143038283Y-64169750D01*
X142759856Y-64038733D01*
X142759852Y-64038731D01*
X142756266Y-64037044D01*
X142456072Y-63939505D01*
X142146020Y-63880359D01*
X141909838Y-63865500D01*
X137635500Y-63865500D01*
X137567379Y-63845498D01*
X137520886Y-63791842D01*
X137509500Y-63739500D01*
X137509500Y-59902134D01*
X140177500Y-59902134D01*
X140184255Y-59964316D01*
X140235385Y-60100705D01*
X140322739Y-60217261D01*
X140439295Y-60304615D01*
X140575684Y-60355745D01*
X140637866Y-60362500D01*
X143334134Y-60362500D01*
X143396316Y-60355745D01*
X143532705Y-60304615D01*
X143649261Y-60217261D01*
X143736615Y-60100705D01*
X143787745Y-59964316D01*
X143794500Y-59902134D01*
X143794500Y-57205866D01*
X143787745Y-57143684D01*
X143736615Y-57007295D01*
X143649261Y-56890739D01*
X143532705Y-56803385D01*
X143396316Y-56752255D01*
X143334134Y-56745500D01*
X140637866Y-56745500D01*
X140575684Y-56752255D01*
X140439295Y-56803385D01*
X140322739Y-56890739D01*
X140235385Y-57007295D01*
X140184255Y-57143684D01*
X140177500Y-57205866D01*
X140177500Y-59902134D01*
X137509500Y-59902134D01*
X137509500Y-53506526D01*
X140173050Y-53506526D01*
X140185947Y-53775019D01*
X140238388Y-54038656D01*
X140329220Y-54291646D01*
X140456450Y-54528431D01*
X140459241Y-54532168D01*
X140459245Y-54532175D01*
X140540887Y-54641506D01*
X140617281Y-54743810D01*
X140620590Y-54747090D01*
X140620595Y-54747096D01*
X140804863Y-54929762D01*
X140808180Y-54933050D01*
X140811942Y-54935808D01*
X140811945Y-54935811D01*
X140924299Y-55018192D01*
X141024954Y-55091995D01*
X141029089Y-55094171D01*
X141029093Y-55094173D01*
X141258698Y-55214975D01*
X141262840Y-55217154D01*
X141516613Y-55305775D01*
X141521206Y-55306647D01*
X141776109Y-55355042D01*
X141776112Y-55355042D01*
X141780698Y-55355913D01*
X141908370Y-55360929D01*
X142044625Y-55366283D01*
X142044630Y-55366283D01*
X142049293Y-55366466D01*
X142153607Y-55355042D01*
X142311844Y-55337713D01*
X142311850Y-55337712D01*
X142316497Y-55337203D01*
X142321021Y-55336012D01*
X142571918Y-55269956D01*
X142571920Y-55269955D01*
X142576441Y-55268765D01*
X142580738Y-55266919D01*
X142819120Y-55164502D01*
X142819122Y-55164501D01*
X142823414Y-55162657D01*
X142942071Y-55089230D01*
X143048017Y-55023669D01*
X143048021Y-55023666D01*
X143051990Y-55021210D01*
X143257149Y-54847530D01*
X143434382Y-54645434D01*
X143579797Y-54419361D01*
X143690199Y-54174278D01*
X143727209Y-54043051D01*
X143761893Y-53920072D01*
X143761894Y-53920069D01*
X143763163Y-53915568D01*
X143781043Y-53775019D01*
X143796688Y-53652045D01*
X143796688Y-53652041D01*
X143797086Y-53648915D01*
X143799571Y-53554000D01*
X143779650Y-53285937D01*
X143720327Y-53023763D01*
X143622902Y-52773238D01*
X143489518Y-52539864D01*
X143323105Y-52328769D01*
X143127317Y-52144591D01*
X142906457Y-51991374D01*
X142902264Y-51989306D01*
X142669564Y-51874551D01*
X142669561Y-51874550D01*
X142665376Y-51872486D01*
X142617745Y-51857239D01*
X142563621Y-51839914D01*
X142409370Y-51790538D01*
X142404763Y-51789788D01*
X142404760Y-51789787D01*
X142148674Y-51748081D01*
X142148675Y-51748081D01*
X142144063Y-51747330D01*
X142013719Y-51745624D01*
X141879961Y-51743873D01*
X141879958Y-51743873D01*
X141875284Y-51743812D01*
X141608937Y-51780060D01*
X141350874Y-51855278D01*
X141106763Y-51967815D01*
X141102854Y-51970378D01*
X140885881Y-52112631D01*
X140885876Y-52112635D01*
X140881968Y-52115197D01*
X140681426Y-52294188D01*
X140509544Y-52500854D01*
X140370096Y-52730656D01*
X140266148Y-52978545D01*
X140199981Y-53239077D01*
X140173050Y-53506526D01*
X137509500Y-53506526D01*
X137509500Y-48970244D01*
X137529502Y-48902123D01*
X137546405Y-48881149D01*
X137921028Y-48506526D01*
X140173050Y-48506526D01*
X140185947Y-48775019D01*
X140238388Y-49038656D01*
X140329220Y-49291646D01*
X140456450Y-49528431D01*
X140459241Y-49532168D01*
X140459245Y-49532175D01*
X140540887Y-49641506D01*
X140617281Y-49743810D01*
X140620590Y-49747090D01*
X140620595Y-49747096D01*
X140804863Y-49929762D01*
X140808180Y-49933050D01*
X140811942Y-49935808D01*
X140811945Y-49935811D01*
X140924299Y-50018192D01*
X141024954Y-50091995D01*
X141029089Y-50094171D01*
X141029093Y-50094173D01*
X141258698Y-50214975D01*
X141262840Y-50217154D01*
X141516613Y-50305775D01*
X141521206Y-50306647D01*
X141776109Y-50355042D01*
X141776112Y-50355042D01*
X141780698Y-50355913D01*
X141908370Y-50360929D01*
X142044625Y-50366283D01*
X142044630Y-50366283D01*
X142049293Y-50366466D01*
X142153607Y-50355042D01*
X142311844Y-50337713D01*
X142311850Y-50337712D01*
X142316497Y-50337203D01*
X142321021Y-50336012D01*
X142571918Y-50269956D01*
X142571920Y-50269955D01*
X142576441Y-50268765D01*
X142580738Y-50266919D01*
X142819120Y-50164502D01*
X142819122Y-50164501D01*
X142823414Y-50162657D01*
X142942071Y-50089230D01*
X143048017Y-50023669D01*
X143048021Y-50023666D01*
X143051990Y-50021210D01*
X143257149Y-49847530D01*
X143434382Y-49645434D01*
X143579797Y-49419361D01*
X143690199Y-49174278D01*
X143727209Y-49043051D01*
X143761893Y-48920072D01*
X143761894Y-48920069D01*
X143763163Y-48915568D01*
X143781043Y-48775019D01*
X143796688Y-48652045D01*
X143796688Y-48652041D01*
X143797086Y-48648915D01*
X143799571Y-48554000D01*
X143779650Y-48285937D01*
X143720327Y-48023763D01*
X143622902Y-47773238D01*
X143489518Y-47539864D01*
X143482523Y-47530990D01*
X143423416Y-47456014D01*
X143323105Y-47328769D01*
X143127317Y-47144591D01*
X142906457Y-46991374D01*
X142902264Y-46989306D01*
X142669564Y-46874551D01*
X142669561Y-46874550D01*
X142665376Y-46872486D01*
X142617745Y-46857239D01*
X142563621Y-46839914D01*
X142409370Y-46790538D01*
X142404763Y-46789788D01*
X142404760Y-46789787D01*
X142148674Y-46748081D01*
X142148675Y-46748081D01*
X142144063Y-46747330D01*
X142013719Y-46745624D01*
X141879961Y-46743873D01*
X141879958Y-46743873D01*
X141875284Y-46743812D01*
X141608937Y-46780060D01*
X141350874Y-46855278D01*
X141106763Y-46967815D01*
X141102854Y-46970378D01*
X140885881Y-47112631D01*
X140885876Y-47112635D01*
X140881968Y-47115197D01*
X140681426Y-47294188D01*
X140509544Y-47500854D01*
X140370096Y-47730656D01*
X140368287Y-47734970D01*
X140368285Y-47734974D01*
X140291361Y-47918418D01*
X140266148Y-47978545D01*
X140199981Y-48239077D01*
X140173050Y-48506526D01*
X137921028Y-48506526D01*
X140328149Y-46099405D01*
X140390461Y-46065379D01*
X140417244Y-46062500D01*
X142064838Y-46062500D01*
X142301020Y-46047641D01*
X142611072Y-45988495D01*
X142911266Y-45890956D01*
X142914852Y-45889269D01*
X142914856Y-45889267D01*
X143193283Y-45758250D01*
X143193290Y-45758246D01*
X143196869Y-45756562D01*
X143463375Y-45587432D01*
X143706582Y-45386233D01*
X143922654Y-45156140D01*
X144108184Y-44900779D01*
X144260247Y-44624179D01*
X144376443Y-44330702D01*
X144454940Y-44024975D01*
X144494500Y-43711821D01*
X144494500Y-43396179D01*
X144454940Y-43083025D01*
X144376443Y-42777298D01*
X144260247Y-42483821D01*
X144258340Y-42480352D01*
X144110093Y-42210693D01*
X144110091Y-42210690D01*
X144108184Y-42207221D01*
X143961881Y-42005851D01*
X143924982Y-41955064D01*
X143924981Y-41955062D01*
X143922654Y-41951860D01*
X143728955Y-41745592D01*
X143709297Y-41724658D01*
X143709293Y-41724654D01*
X143706582Y-41721767D01*
X143463375Y-41520568D01*
X143196869Y-41351438D01*
X143193290Y-41349754D01*
X143193283Y-41349750D01*
X142914856Y-41218733D01*
X142914852Y-41218731D01*
X142911266Y-41217044D01*
X142611072Y-41119505D01*
X142301020Y-41060359D01*
X142064838Y-41045500D01*
X139367403Y-41045500D01*
X139363445Y-41045438D01*
X139251009Y-41041904D01*
X139251003Y-41041904D01*
X139247051Y-41041780D01*
X139177394Y-41048364D01*
X139131110Y-41052739D01*
X139127165Y-41053049D01*
X139084885Y-41055709D01*
X139010980Y-41060359D01*
X138977998Y-41066651D01*
X138966252Y-41068323D01*
X138959644Y-41068947D01*
X138936750Y-41071111D01*
X138936743Y-41071112D01*
X138932809Y-41071484D01*
X138928940Y-41072349D01*
X138928939Y-41072349D01*
X138819167Y-41096886D01*
X138815291Y-41097689D01*
X138714850Y-41116849D01*
X138700928Y-41119505D01*
X138697161Y-41120729D01*
X138697153Y-41120731D01*
X138668984Y-41129883D01*
X138657539Y-41133014D01*
X138624767Y-41140340D01*
X138621040Y-41141682D01*
X138621029Y-41141685D01*
X138515207Y-41179783D01*
X138511464Y-41181065D01*
X138404491Y-41215823D01*
X138404487Y-41215824D01*
X138400734Y-41217044D01*
X138381804Y-41225952D01*
X138370351Y-41231341D01*
X138359387Y-41235883D01*
X138327785Y-41247260D01*
X138223997Y-41300142D01*
X138220495Y-41301857D01*
X138180856Y-41320510D01*
X138118713Y-41349752D01*
X138118708Y-41349755D01*
X138115131Y-41351438D01*
X138111792Y-41353557D01*
X138086773Y-41369435D01*
X138076469Y-41375313D01*
X138046545Y-41390559D01*
X138043266Y-41392788D01*
X138043260Y-41392791D01*
X137950237Y-41456009D01*
X137946929Y-41458182D01*
X137921371Y-41474402D01*
X137848625Y-41520568D01*
X137822747Y-41541976D01*
X137813256Y-41549102D01*
X137785483Y-41567977D01*
X137698134Y-41644986D01*
X137695172Y-41647516D01*
X137605418Y-41721767D01*
X137602707Y-41724654D01*
X137525684Y-41806675D01*
X137522929Y-41809517D01*
X133256517Y-46075929D01*
X133253676Y-46078683D01*
X133168767Y-46158418D01*
X133166243Y-46161469D01*
X133094544Y-46248139D01*
X133091972Y-46251150D01*
X133017601Y-46335505D01*
X133017596Y-46335511D01*
X133014977Y-46338482D01*
X133012751Y-46341758D01*
X132996107Y-46366249D01*
X132988980Y-46375741D01*
X132970099Y-46398565D01*
X132967568Y-46401625D01*
X132905176Y-46499939D01*
X132903008Y-46503239D01*
X132837559Y-46599545D01*
X132822312Y-46629469D01*
X132816436Y-46639770D01*
X132798438Y-46668131D01*
X132796751Y-46671715D01*
X132796751Y-46671716D01*
X132748867Y-46773476D01*
X132747130Y-46777023D01*
X132744916Y-46781368D01*
X132696053Y-46877266D01*
X132696050Y-46877273D01*
X132694261Y-46880784D01*
X132692924Y-46884499D01*
X132692920Y-46884507D01*
X132682885Y-46912379D01*
X132678344Y-46923343D01*
X132665729Y-46950152D01*
X132665726Y-46950159D01*
X132664044Y-46953734D01*
X132628056Y-47064493D01*
X132626803Y-47068155D01*
X132587340Y-47177767D01*
X132580014Y-47210543D01*
X132576881Y-47221993D01*
X132567730Y-47250157D01*
X132566505Y-47253928D01*
X132552839Y-47325569D01*
X132544685Y-47368312D01*
X132543894Y-47372136D01*
X132518485Y-47485808D01*
X132515438Y-47518044D01*
X132515325Y-47519238D01*
X132513652Y-47530990D01*
X132508102Y-47560082D01*
X132508101Y-47560091D01*
X132507359Y-47563980D01*
X132507110Y-47567941D01*
X132500050Y-47680169D01*
X132499743Y-47684085D01*
X132488780Y-47800051D01*
X132488904Y-47804002D01*
X132488904Y-47804008D01*
X132492438Y-47916445D01*
X132492500Y-47920403D01*
X132492500Y-66804754D01*
X132491941Y-66816611D01*
X132488780Y-66850051D01*
X132488904Y-66854002D01*
X132488904Y-66854008D01*
X132492438Y-66966445D01*
X132492500Y-66970403D01*
X132492500Y-90934754D01*
X132491941Y-90946611D01*
X132488780Y-90980051D01*
X132488904Y-90984002D01*
X132488904Y-90984008D01*
X132492438Y-91096445D01*
X132492500Y-91100403D01*
X132492500Y-105207756D01*
X132472498Y-105275877D01*
X132455595Y-105296851D01*
X130188851Y-107563595D01*
X130126539Y-107597621D01*
X130099756Y-107600500D01*
X120852244Y-107600500D01*
X120784123Y-107580498D01*
X120763149Y-107563595D01*
X115321405Y-102121851D01*
X115287379Y-102059539D01*
X115284500Y-102032756D01*
X115284500Y-96180403D01*
X115284562Y-96176445D01*
X115288096Y-96064009D01*
X115288096Y-96064003D01*
X115288220Y-96060051D01*
X115280047Y-95973582D01*
X115277261Y-95944110D01*
X115276951Y-95940165D01*
X115269890Y-95827943D01*
X115269641Y-95823980D01*
X115263349Y-95790998D01*
X115261677Y-95779249D01*
X115258889Y-95749750D01*
X115258888Y-95749743D01*
X115258516Y-95745809D01*
X115252577Y-95719239D01*
X115233114Y-95632167D01*
X115232311Y-95628291D01*
X115211237Y-95517818D01*
X115210495Y-95513928D01*
X115209271Y-95510161D01*
X115209269Y-95510153D01*
X115200117Y-95481984D01*
X115196985Y-95470536D01*
X115190526Y-95441641D01*
X115189660Y-95437767D01*
X115150198Y-95328159D01*
X115148934Y-95324464D01*
X115114184Y-95217511D01*
X115114180Y-95217500D01*
X115112956Y-95213734D01*
X115110461Y-95208431D01*
X115098658Y-95183348D01*
X115094117Y-95172385D01*
X115084082Y-95144514D01*
X115084079Y-95144508D01*
X115082739Y-95140785D01*
X115029865Y-95037013D01*
X115028143Y-95033497D01*
X114999039Y-94971646D01*
X114978562Y-94928131D01*
X114960564Y-94899770D01*
X114954688Y-94889469D01*
X114939441Y-94859545D01*
X114932801Y-94849775D01*
X114873991Y-94763237D01*
X114871818Y-94759929D01*
X114822064Y-94681530D01*
X114809432Y-94661625D01*
X114788024Y-94635746D01*
X114780897Y-94626255D01*
X114764252Y-94601763D01*
X114762023Y-94598483D01*
X114685014Y-94511134D01*
X114682484Y-94508172D01*
X114608233Y-94418418D01*
X114523324Y-94338683D01*
X114520483Y-94335929D01*
X111724071Y-91539517D01*
X111721316Y-91536675D01*
X111710822Y-91525500D01*
X111641582Y-91451767D01*
X111551847Y-91377532D01*
X111548850Y-91374972D01*
X111464495Y-91300601D01*
X111464489Y-91300596D01*
X111461518Y-91297977D01*
X111433746Y-91279103D01*
X111424259Y-91271980D01*
X111401435Y-91253099D01*
X111401427Y-91253093D01*
X111398375Y-91250568D01*
X111300053Y-91188171D01*
X111296753Y-91186003D01*
X111203737Y-91122789D01*
X111203732Y-91122786D01*
X111200455Y-91120559D01*
X111196929Y-91118763D01*
X111196925Y-91118760D01*
X111186032Y-91113210D01*
X111170531Y-91105312D01*
X111160226Y-91099434D01*
X111135213Y-91083560D01*
X111135211Y-91083559D01*
X111131869Y-91081438D01*
X111026515Y-91031863D01*
X111022969Y-91030126D01*
X110922734Y-90979053D01*
X110922727Y-90979050D01*
X110919216Y-90977261D01*
X110915501Y-90975924D01*
X110915493Y-90975920D01*
X110887621Y-90965885D01*
X110876657Y-90961344D01*
X110849848Y-90948729D01*
X110849841Y-90948726D01*
X110846266Y-90947044D01*
X110735507Y-90911056D01*
X110731845Y-90909803D01*
X110622233Y-90870340D01*
X110589456Y-90863014D01*
X110578007Y-90859881D01*
X110549843Y-90850730D01*
X110549839Y-90850729D01*
X110546072Y-90849505D01*
X110455532Y-90832234D01*
X110431688Y-90827685D01*
X110427864Y-90826894D01*
X110314192Y-90801485D01*
X110280762Y-90798325D01*
X110269010Y-90796652D01*
X110239918Y-90791102D01*
X110239909Y-90791101D01*
X110236020Y-90790359D01*
X110119807Y-90783048D01*
X110115915Y-90782743D01*
X109999949Y-90771780D01*
X109995998Y-90771904D01*
X109995992Y-90771904D01*
X109883555Y-90775438D01*
X109879597Y-90775500D01*
X103947162Y-90775500D01*
X103710980Y-90790359D01*
X103400928Y-90849505D01*
X103100734Y-90947044D01*
X103097148Y-90948731D01*
X103097144Y-90948733D01*
X102818717Y-91079750D01*
X102818710Y-91079754D01*
X102815131Y-91081438D01*
X102548625Y-91250568D01*
X102494008Y-91295751D01*
X102311512Y-91446726D01*
X102305418Y-91451767D01*
X102302707Y-91454654D01*
X102302703Y-91454658D01*
X102138915Y-91629074D01*
X102077702Y-91665040D01*
X102006762Y-91662201D01*
X101948618Y-91621461D01*
X101942299Y-91612822D01*
X101873528Y-91509897D01*
X101868512Y-91503361D01*
X101855853Y-91488926D01*
X101842614Y-91480528D01*
X101832849Y-91486362D01*
X100448020Y-92871190D01*
X100440408Y-92885131D01*
X99710357Y-92885131D01*
X99711592Y-92882869D01*
X99711461Y-92881034D01*
X99707210Y-92874420D01*
X98320905Y-91488116D01*
X98307144Y-91480601D01*
X98297784Y-91487059D01*
X98283488Y-91503361D01*
X98278470Y-91509901D01*
X98118613Y-91749145D01*
X98114492Y-91756282D01*
X97987228Y-92014349D01*
X97984078Y-92021953D01*
X97948215Y-92127603D01*
X97907378Y-92185679D01*
X97841625Y-92212458D01*
X97771833Y-92199437D01*
X97721183Y-92152467D01*
X97680394Y-92085248D01*
X97680389Y-92085241D01*
X97677623Y-92080683D01*
X97620062Y-92014349D01*
X97530023Y-91910588D01*
X97530021Y-91910586D01*
X97526523Y-91906555D01*
X97398390Y-91801492D01*
X97352373Y-91763760D01*
X97352367Y-91763756D01*
X97348245Y-91760376D01*
X97343609Y-91757737D01*
X97343606Y-91757735D01*
X97152529Y-91648968D01*
X97147886Y-91646325D01*
X96931175Y-91567663D01*
X96925926Y-91566714D01*
X96925923Y-91566713D01*
X96776000Y-91539603D01*
X96712526Y-91507799D01*
X96676323Y-91446726D01*
X96678885Y-91375776D01*
X96685415Y-91359885D01*
X96725414Y-91278777D01*
X96725417Y-91278769D01*
X96727240Y-91275073D01*
X96736280Y-91248442D01*
X96780767Y-91117386D01*
X98672528Y-91117386D01*
X98678362Y-91127151D01*
X100063190Y-92511980D01*
X100077131Y-92519592D01*
X100078966Y-92519461D01*
X100085580Y-92515210D01*
X101471884Y-91128905D01*
X101479399Y-91115144D01*
X101472941Y-91105784D01*
X101456639Y-91091488D01*
X101450099Y-91086470D01*
X101210856Y-90926613D01*
X101203719Y-90922492D01*
X100945651Y-90795228D01*
X100938047Y-90792078D01*
X100665580Y-90699588D01*
X100657617Y-90697454D01*
X100375400Y-90641317D01*
X100367249Y-90640244D01*
X100080119Y-90621425D01*
X100071881Y-90621425D01*
X99784751Y-90640244D01*
X99776600Y-90641317D01*
X99494383Y-90697454D01*
X99486420Y-90699588D01*
X99213953Y-90792078D01*
X99206349Y-90795228D01*
X98948282Y-90922492D01*
X98941145Y-90926613D01*
X98701901Y-91086470D01*
X98695361Y-91091488D01*
X98680926Y-91104147D01*
X98672528Y-91117386D01*
X96780767Y-91117386D01*
X96823818Y-90990563D01*
X96823819Y-90990560D01*
X96825144Y-90986656D01*
X96884564Y-90687928D01*
X96887690Y-90640244D01*
X96904215Y-90388119D01*
X96904485Y-90384000D01*
X96902954Y-90360640D01*
X96884834Y-90084187D01*
X96884833Y-90084183D01*
X96884564Y-90080072D01*
X96825144Y-89781344D01*
X96799221Y-89704975D01*
X96781529Y-89652856D01*
X98672601Y-89652856D01*
X98679059Y-89662216D01*
X98695361Y-89676512D01*
X98701901Y-89681530D01*
X98941144Y-89841387D01*
X98948281Y-89845508D01*
X99206349Y-89972772D01*
X99213953Y-89975922D01*
X99486420Y-90068412D01*
X99494383Y-90070546D01*
X99776600Y-90126683D01*
X99784751Y-90127756D01*
X100071881Y-90146575D01*
X100080119Y-90146575D01*
X100367249Y-90127756D01*
X100375400Y-90126683D01*
X100657617Y-90070546D01*
X100665580Y-90068412D01*
X100938047Y-89975922D01*
X100945651Y-89972772D01*
X101203719Y-89845508D01*
X101210856Y-89841387D01*
X101450099Y-89681530D01*
X101456639Y-89676512D01*
X101471074Y-89663853D01*
X101479472Y-89650614D01*
X101473638Y-89640849D01*
X100088810Y-88256020D01*
X100074869Y-88248408D01*
X100073034Y-88248539D01*
X100066420Y-88252790D01*
X98680116Y-89639095D01*
X98672601Y-89652856D01*
X96781529Y-89652856D01*
X96728569Y-89496842D01*
X96728569Y-89496841D01*
X96727240Y-89492927D01*
X96725417Y-89489231D01*
X96725414Y-89489223D01*
X96686649Y-89410617D01*
X96674459Y-89340674D01*
X96702018Y-89275245D01*
X96760576Y-89235101D01*
X96788999Y-89229339D01*
X96792015Y-89229083D01*
X96805720Y-89227920D01*
X96810875Y-89226582D01*
X96810881Y-89226581D01*
X97023703Y-89171343D01*
X97023707Y-89171342D01*
X97028872Y-89170001D01*
X97033738Y-89167809D01*
X97033741Y-89167808D01*
X97202704Y-89091696D01*
X97239075Y-89075312D01*
X97430319Y-88946559D01*
X97597135Y-88787424D01*
X97729236Y-88609874D01*
X97785945Y-88567162D01*
X97856746Y-88561889D01*
X97919158Y-88595731D01*
X97949637Y-88644587D01*
X97984078Y-88746047D01*
X97987228Y-88753651D01*
X98114492Y-89011718D01*
X98118613Y-89018855D01*
X98278470Y-89258099D01*
X98283488Y-89264639D01*
X98296147Y-89279074D01*
X98309386Y-89287472D01*
X98319151Y-89281638D01*
X99703980Y-87896810D01*
X99711592Y-87882869D01*
X99711461Y-87881034D01*
X99707210Y-87874420D01*
X98320905Y-86488116D01*
X98307144Y-86480601D01*
X98297784Y-86487059D01*
X98283488Y-86503361D01*
X98278470Y-86509901D01*
X98118613Y-86749145D01*
X98114492Y-86756282D01*
X97987228Y-87014349D01*
X97984078Y-87021953D01*
X97948215Y-87127603D01*
X97907378Y-87185679D01*
X97841625Y-87212458D01*
X97771833Y-87199437D01*
X97721183Y-87152467D01*
X97680394Y-87085248D01*
X97680389Y-87085241D01*
X97677623Y-87080683D01*
X97590755Y-86980576D01*
X97530023Y-86910588D01*
X97530021Y-86910586D01*
X97526523Y-86906555D01*
X97484970Y-86872484D01*
X97352373Y-86763760D01*
X97352367Y-86763756D01*
X97348245Y-86760376D01*
X97343609Y-86757737D01*
X97343606Y-86757735D01*
X97152529Y-86648968D01*
X97147886Y-86646325D01*
X96931175Y-86567663D01*
X96925926Y-86566714D01*
X96925923Y-86566713D01*
X96708392Y-86527377D01*
X96708385Y-86527376D01*
X96704308Y-86526639D01*
X96686586Y-86525803D01*
X96681644Y-86525570D01*
X96681637Y-86525570D01*
X96680156Y-86525500D01*
X96518110Y-86525500D01*
X96451191Y-86531178D01*
X96351591Y-86539629D01*
X96351587Y-86539630D01*
X96346280Y-86540080D01*
X96341125Y-86541418D01*
X96341119Y-86541419D01*
X96128297Y-86596657D01*
X96128293Y-86596658D01*
X96123128Y-86597999D01*
X96118262Y-86600191D01*
X96118259Y-86600192D01*
X96009980Y-86648968D01*
X95912925Y-86692688D01*
X95721681Y-86821441D01*
X95554865Y-86980576D01*
X95417246Y-87165542D01*
X95414830Y-87170293D01*
X95414828Y-87170297D01*
X95365003Y-87268296D01*
X95312760Y-87371051D01*
X95311178Y-87376145D01*
X95311177Y-87376148D01*
X95275139Y-87492209D01*
X95244393Y-87591227D01*
X95214102Y-87819774D01*
X95214302Y-87825103D01*
X95214302Y-87825105D01*
X95220301Y-87984899D01*
X95202869Y-88053722D01*
X95150995Y-88102195D01*
X95081150Y-88114928D01*
X95069809Y-88113205D01*
X94883971Y-88076240D01*
X94883968Y-88076240D01*
X94879928Y-88075436D01*
X94875817Y-88075167D01*
X94875813Y-88075166D01*
X94580119Y-88055785D01*
X94576000Y-88055515D01*
X94571881Y-88055785D01*
X94276187Y-88075166D01*
X94276183Y-88075167D01*
X94272072Y-88075436D01*
X94268032Y-88076240D01*
X94268029Y-88076240D01*
X94196406Y-88090487D01*
X93973344Y-88134856D01*
X93969440Y-88136181D01*
X93969437Y-88136182D01*
X93877192Y-88167495D01*
X93684927Y-88232760D01*
X93681231Y-88234583D01*
X93681223Y-88234586D01*
X93461446Y-88342969D01*
X93411758Y-88367473D01*
X93158508Y-88536689D01*
X92929512Y-88737512D01*
X92728689Y-88966508D01*
X92698481Y-89011718D01*
X92592720Y-89170001D01*
X92559473Y-89219758D01*
X92557647Y-89223461D01*
X92426586Y-89489223D01*
X92426583Y-89489231D01*
X92424760Y-89492927D01*
X92423431Y-89496841D01*
X92423431Y-89496842D01*
X92352780Y-89704975D01*
X92326856Y-89781344D01*
X92267436Y-90080072D01*
X92267167Y-90084183D01*
X92267166Y-90084187D01*
X92249046Y-90360640D01*
X92247515Y-90384000D01*
X91252500Y-90384000D01*
X91252500Y-86117386D01*
X98672528Y-86117386D01*
X98678362Y-86127151D01*
X100076000Y-87524790D01*
X101580595Y-89029384D01*
X101614621Y-89091696D01*
X101617500Y-89118479D01*
X101617500Y-89132134D01*
X101624255Y-89194316D01*
X101675385Y-89330705D01*
X101762739Y-89447261D01*
X101879295Y-89534615D01*
X102015684Y-89585745D01*
X102077866Y-89592500D01*
X105374134Y-89592500D01*
X105436316Y-89585745D01*
X105572705Y-89534615D01*
X105689261Y-89447261D01*
X105776615Y-89330705D01*
X105827745Y-89194316D01*
X105834500Y-89132134D01*
X105834500Y-85835866D01*
X105827745Y-85773684D01*
X105776615Y-85637295D01*
X105689261Y-85520739D01*
X105572705Y-85433385D01*
X105439520Y-85383456D01*
X105382756Y-85340814D01*
X105358056Y-85274253D01*
X105373263Y-85204904D01*
X105423549Y-85154786D01*
X105463060Y-85141185D01*
X105592831Y-85119585D01*
X105650638Y-85109963D01*
X105650640Y-85109962D01*
X105654380Y-85109340D01*
X105953577Y-85021565D01*
X105957044Y-85020075D01*
X105957048Y-85020074D01*
X106236579Y-84899978D01*
X106236581Y-84899977D01*
X106240063Y-84898481D01*
X106509686Y-84741872D01*
X106512708Y-84739591D01*
X106512712Y-84739588D01*
X106755519Y-84556287D01*
X106755520Y-84556286D01*
X106758543Y-84554004D01*
X106854576Y-84461428D01*
X106980293Y-84340237D01*
X106980296Y-84340233D01*
X106983027Y-84337601D01*
X107099548Y-84194478D01*
X107177496Y-84098733D01*
X107177497Y-84098732D01*
X107179887Y-84095796D01*
X107222054Y-84028965D01*
X107344248Y-83835299D01*
X107344251Y-83835293D01*
X107346271Y-83832092D01*
X107479770Y-83550310D01*
X107578450Y-83254529D01*
X107640881Y-82949037D01*
X107666159Y-82638256D01*
X107666727Y-82584000D01*
X107666578Y-82581519D01*
X107648191Y-82276536D01*
X107648191Y-82276532D01*
X107647963Y-82272758D01*
X107591944Y-81966025D01*
X107499480Y-81668243D01*
X107371912Y-81383726D01*
X107262381Y-81201796D01*
X107213045Y-81119849D01*
X107213041Y-81119843D01*
X107211086Y-81116596D01*
X107208759Y-81113612D01*
X107208754Y-81113605D01*
X107021669Y-80873716D01*
X107021667Y-80873713D01*
X107019333Y-80870721D01*
X106799430Y-80649664D01*
X106554563Y-80456627D01*
X106288278Y-80294405D01*
X106284831Y-80292838D01*
X106284824Y-80292834D01*
X106007880Y-80166915D01*
X106004434Y-80165348D01*
X105707140Y-80071326D01*
X105571603Y-80045839D01*
X105404428Y-80014402D01*
X105404423Y-80014401D01*
X105400704Y-80013702D01*
X105089565Y-79993309D01*
X105085785Y-79993517D01*
X105085784Y-79993517D01*
X104976486Y-79999532D01*
X104778229Y-80010442D01*
X104471207Y-80064855D01*
X104467591Y-80065957D01*
X104467583Y-80065959D01*
X104176569Y-80154653D01*
X104176562Y-80154656D01*
X104172945Y-80155758D01*
X103887764Y-80281835D01*
X103884510Y-80283771D01*
X103884504Y-80283774D01*
X103623054Y-80439321D01*
X103619795Y-80441260D01*
X103616794Y-80443575D01*
X103616790Y-80443578D01*
X103583953Y-80468912D01*
X103372920Y-80631723D01*
X103370219Y-80634382D01*
X103370212Y-80634388D01*
X103191729Y-80810090D01*
X103150715Y-80850465D01*
X103148351Y-80853432D01*
X103148348Y-80853435D01*
X102958762Y-81091350D01*
X102956397Y-81094318D01*
X102792783Y-81359750D01*
X102662242Y-81642915D01*
X102661083Y-81646515D01*
X102661080Y-81646522D01*
X102567827Y-81936103D01*
X102566665Y-81939712D01*
X102565946Y-81943428D01*
X102565944Y-81943436D01*
X102508156Y-82242123D01*
X102508155Y-82242132D01*
X102507437Y-82245842D01*
X102507170Y-82249618D01*
X102507169Y-82249623D01*
X102504581Y-82286176D01*
X102485415Y-82556870D01*
X102485604Y-82560662D01*
X102497107Y-82791715D01*
X102500919Y-82868292D01*
X102501560Y-82872023D01*
X102501561Y-82872031D01*
X102548985Y-83148021D01*
X102553723Y-83175595D01*
X102554811Y-83179234D01*
X102554812Y-83179237D01*
X102576222Y-83250825D01*
X102643063Y-83474328D01*
X102767645Y-83760165D01*
X102769568Y-83763436D01*
X102769570Y-83763440D01*
X102923742Y-84025695D01*
X102923747Y-84025703D01*
X102925665Y-84028965D01*
X103114832Y-84276834D01*
X103332408Y-84500182D01*
X103575241Y-84695774D01*
X103839812Y-84860775D01*
X104122290Y-84992797D01*
X104418582Y-85089927D01*
X104422296Y-85090666D01*
X104422297Y-85090666D01*
X104599538Y-85125921D01*
X104662448Y-85158828D01*
X104697580Y-85220523D01*
X104693780Y-85291418D01*
X104652255Y-85349004D01*
X104586188Y-85374998D01*
X104574957Y-85375500D01*
X102077866Y-85375500D01*
X102015684Y-85382255D01*
X101879295Y-85433385D01*
X101762739Y-85520739D01*
X101675385Y-85637295D01*
X101624255Y-85773684D01*
X101617500Y-85835866D01*
X101617500Y-85962594D01*
X101597498Y-86030715D01*
X101543842Y-86077208D01*
X101473568Y-86087312D01*
X101421498Y-86067359D01*
X101210856Y-85926613D01*
X101203719Y-85922492D01*
X100945651Y-85795228D01*
X100938047Y-85792078D01*
X100665580Y-85699588D01*
X100657617Y-85697454D01*
X100375400Y-85641317D01*
X100367249Y-85640244D01*
X100080119Y-85621425D01*
X100071881Y-85621425D01*
X99784751Y-85640244D01*
X99776600Y-85641317D01*
X99494383Y-85697454D01*
X99486420Y-85699588D01*
X99213953Y-85792078D01*
X99206349Y-85795228D01*
X98948282Y-85922492D01*
X98941145Y-85926613D01*
X98701901Y-86086470D01*
X98695361Y-86091488D01*
X98680926Y-86104147D01*
X98672528Y-86117386D01*
X91252500Y-86117386D01*
X91252500Y-82561344D01*
X94412575Y-82561344D01*
X94429516Y-82855164D01*
X94430341Y-82859371D01*
X94430342Y-82859376D01*
X94447190Y-82945250D01*
X94486177Y-83143966D01*
X94487564Y-83148016D01*
X94487565Y-83148021D01*
X94497006Y-83175595D01*
X94581509Y-83422407D01*
X94713747Y-83685334D01*
X94716173Y-83688863D01*
X94716176Y-83688869D01*
X94812255Y-83828664D01*
X94880445Y-83927881D01*
X95078518Y-84145560D01*
X95081807Y-84148310D01*
X95301009Y-84331592D01*
X95301014Y-84331596D01*
X95304301Y-84334344D01*
X95370051Y-84375589D01*
X95549976Y-84488456D01*
X95549980Y-84488458D01*
X95553616Y-84490739D01*
X95626293Y-84523554D01*
X95817937Y-84610085D01*
X95817941Y-84610087D01*
X95821849Y-84611851D01*
X95825968Y-84613071D01*
X96099924Y-84694221D01*
X96099929Y-84694222D01*
X96104037Y-84695439D01*
X96108271Y-84696087D01*
X96108276Y-84696088D01*
X96390717Y-84739307D01*
X96390719Y-84739307D01*
X96394959Y-84739956D01*
X96544772Y-84742310D01*
X96684940Y-84744512D01*
X96684946Y-84744512D01*
X96689231Y-84744579D01*
X96981408Y-84709222D01*
X97266082Y-84634539D01*
X97537988Y-84521912D01*
X97792092Y-84373425D01*
X98023694Y-84191827D01*
X98071605Y-84142387D01*
X98225523Y-83983554D01*
X98228506Y-83980476D01*
X98402741Y-83743285D01*
X98505655Y-83553740D01*
X98541122Y-83488418D01*
X98541123Y-83488416D01*
X98543172Y-83484642D01*
X98595188Y-83346987D01*
X98645685Y-83213351D01*
X98645686Y-83213347D01*
X98647203Y-83209333D01*
X98705967Y-82952754D01*
X98711949Y-82926637D01*
X98711950Y-82926633D01*
X98712907Y-82922453D01*
X98713814Y-82912297D01*
X98738849Y-82631776D01*
X98738849Y-82631774D01*
X98739069Y-82629310D01*
X98739544Y-82584000D01*
X98737953Y-82560662D01*
X98719819Y-82294650D01*
X98719818Y-82294644D01*
X98719527Y-82290373D01*
X98716662Y-82276536D01*
X98660714Y-82006377D01*
X98659845Y-82002180D01*
X98561603Y-81724753D01*
X98426618Y-81463226D01*
X98410589Y-81440418D01*
X98259856Y-81225948D01*
X98259855Y-81225947D01*
X98257389Y-81222438D01*
X98057048Y-81006844D01*
X98034936Y-80988745D01*
X97869618Y-80853435D01*
X97829300Y-80820435D01*
X97578361Y-80666660D01*
X97559706Y-80658471D01*
X97312802Y-80550087D01*
X97312798Y-80550086D01*
X97308874Y-80548363D01*
X97025826Y-80467735D01*
X97021584Y-80467131D01*
X97021578Y-80467130D01*
X96738705Y-80426871D01*
X96734454Y-80426266D01*
X96579306Y-80425454D01*
X96444436Y-80424747D01*
X96444430Y-80424747D01*
X96440150Y-80424725D01*
X96435906Y-80425284D01*
X96435902Y-80425284D01*
X96307341Y-80442210D01*
X96148360Y-80463140D01*
X96144220Y-80464273D01*
X96144218Y-80464273D01*
X96127261Y-80468912D01*
X95864483Y-80540800D01*
X95860533Y-80542485D01*
X95597714Y-80654586D01*
X95597707Y-80654590D01*
X95593772Y-80656268D01*
X95441386Y-80747469D01*
X95344918Y-80805204D01*
X95344914Y-80805207D01*
X95341236Y-80807408D01*
X95111549Y-80991422D01*
X95108605Y-80994524D01*
X95108601Y-80994528D01*
X94992763Y-81116596D01*
X94908961Y-81204905D01*
X94737220Y-81443908D01*
X94599504Y-81704007D01*
X94498362Y-81980390D01*
X94435666Y-82267943D01*
X94412575Y-82561344D01*
X91252500Y-82561344D01*
X91252500Y-41961526D01*
X98303050Y-41961526D01*
X98315947Y-42230019D01*
X98368388Y-42493656D01*
X98459220Y-42746646D01*
X98586450Y-42983431D01*
X98589241Y-42987168D01*
X98589245Y-42987175D01*
X98660820Y-43083025D01*
X98747281Y-43198810D01*
X98750590Y-43202090D01*
X98750595Y-43202096D01*
X98910374Y-43360486D01*
X98938180Y-43388050D01*
X98941942Y-43390808D01*
X98941945Y-43390811D01*
X99054299Y-43473192D01*
X99154954Y-43546995D01*
X99159089Y-43549171D01*
X99159093Y-43549173D01*
X99378718Y-43664724D01*
X99392840Y-43672154D01*
X99646613Y-43760775D01*
X99651206Y-43761647D01*
X99906109Y-43810042D01*
X99906112Y-43810042D01*
X99910698Y-43810913D01*
X100038370Y-43815929D01*
X100174625Y-43821283D01*
X100174630Y-43821283D01*
X100179293Y-43821466D01*
X100283607Y-43810042D01*
X100441844Y-43792713D01*
X100441850Y-43792712D01*
X100446497Y-43792203D01*
X100559985Y-43762324D01*
X100701918Y-43724956D01*
X100701920Y-43724955D01*
X100706441Y-43723765D01*
X100710738Y-43721919D01*
X100949120Y-43619502D01*
X100949122Y-43619501D01*
X100953414Y-43617657D01*
X101072071Y-43544230D01*
X101178017Y-43478669D01*
X101178021Y-43478666D01*
X101181990Y-43476210D01*
X101326741Y-43353669D01*
X103308001Y-43353669D01*
X103308371Y-43360490D01*
X103313895Y-43411352D01*
X103317521Y-43426604D01*
X103362676Y-43547054D01*
X103371214Y-43562649D01*
X103447715Y-43664724D01*
X103460276Y-43677285D01*
X103562351Y-43753786D01*
X103577946Y-43762324D01*
X103698394Y-43807478D01*
X103713649Y-43811105D01*
X103764514Y-43816631D01*
X103771328Y-43817000D01*
X104843885Y-43817000D01*
X104859124Y-43812525D01*
X104860329Y-43811135D01*
X104862000Y-43803452D01*
X104862000Y-43798884D01*
X105370000Y-43798884D01*
X105374475Y-43814123D01*
X105375865Y-43815328D01*
X105383548Y-43816999D01*
X106460669Y-43816999D01*
X106467490Y-43816629D01*
X106518352Y-43811105D01*
X106533604Y-43807479D01*
X106654054Y-43762324D01*
X106669649Y-43753786D01*
X106771724Y-43677285D01*
X106784285Y-43664724D01*
X106860786Y-43562649D01*
X106869324Y-43547054D01*
X106914478Y-43426606D01*
X106918105Y-43411351D01*
X106923631Y-43360486D01*
X106924000Y-43353672D01*
X106924000Y-42281115D01*
X106919525Y-42265876D01*
X106918135Y-42264671D01*
X106910452Y-42263000D01*
X105388115Y-42263000D01*
X105372876Y-42267475D01*
X105371671Y-42268865D01*
X105370000Y-42276548D01*
X105370000Y-43798884D01*
X104862000Y-43798884D01*
X104862000Y-42281115D01*
X104857525Y-42265876D01*
X104856135Y-42264671D01*
X104848452Y-42263000D01*
X103326116Y-42263000D01*
X103310877Y-42267475D01*
X103309672Y-42268865D01*
X103308001Y-42276548D01*
X103308001Y-43353669D01*
X101326741Y-43353669D01*
X101387149Y-43302530D01*
X101564382Y-43100434D01*
X101573049Y-43086961D01*
X101707269Y-42878291D01*
X101709797Y-42874361D01*
X101820199Y-42629278D01*
X101857209Y-42498051D01*
X101891893Y-42375072D01*
X101891894Y-42375069D01*
X101893163Y-42370568D01*
X101911043Y-42230019D01*
X101926688Y-42107045D01*
X101926688Y-42107041D01*
X101927086Y-42103915D01*
X101929571Y-42009000D01*
X101926043Y-41961526D01*
X111043050Y-41961526D01*
X111055947Y-42230019D01*
X111108388Y-42493656D01*
X111199220Y-42746646D01*
X111326450Y-42983431D01*
X111329241Y-42987168D01*
X111329245Y-42987175D01*
X111400820Y-43083025D01*
X111487281Y-43198810D01*
X111490590Y-43202090D01*
X111490595Y-43202096D01*
X111650374Y-43360486D01*
X111678180Y-43388050D01*
X111681942Y-43390808D01*
X111681945Y-43390811D01*
X111794299Y-43473192D01*
X111894954Y-43546995D01*
X111899089Y-43549171D01*
X111899093Y-43549173D01*
X112118718Y-43664724D01*
X112132840Y-43672154D01*
X112386613Y-43760775D01*
X112391206Y-43761647D01*
X112646109Y-43810042D01*
X112646112Y-43810042D01*
X112650698Y-43810913D01*
X112778370Y-43815929D01*
X112914625Y-43821283D01*
X112914630Y-43821283D01*
X112919293Y-43821466D01*
X113023607Y-43810042D01*
X113181844Y-43792713D01*
X113181850Y-43792712D01*
X113186497Y-43792203D01*
X113299985Y-43762324D01*
X113441918Y-43724956D01*
X113441920Y-43724955D01*
X113446441Y-43723765D01*
X113450738Y-43721919D01*
X113689120Y-43619502D01*
X113689122Y-43619501D01*
X113693414Y-43617657D01*
X113812071Y-43544230D01*
X113918017Y-43478669D01*
X113918021Y-43478666D01*
X113921990Y-43476210D01*
X114127149Y-43302530D01*
X114304382Y-43100434D01*
X114313049Y-43086961D01*
X114447269Y-42878291D01*
X114449797Y-42874361D01*
X114560199Y-42629278D01*
X114597209Y-42498051D01*
X114631893Y-42375072D01*
X114631894Y-42375069D01*
X114633163Y-42370568D01*
X114651043Y-42230019D01*
X114666688Y-42107045D01*
X114666688Y-42107041D01*
X114667086Y-42103915D01*
X114669571Y-42009000D01*
X114666043Y-41961526D01*
X116043050Y-41961526D01*
X116055947Y-42230019D01*
X116108388Y-42493656D01*
X116199220Y-42746646D01*
X116326450Y-42983431D01*
X116329241Y-42987168D01*
X116329245Y-42987175D01*
X116400820Y-43083025D01*
X116487281Y-43198810D01*
X116490590Y-43202090D01*
X116490595Y-43202096D01*
X116650374Y-43360486D01*
X116678180Y-43388050D01*
X116681942Y-43390808D01*
X116681945Y-43390811D01*
X116794299Y-43473192D01*
X116894954Y-43546995D01*
X116899089Y-43549171D01*
X116899093Y-43549173D01*
X117118718Y-43664724D01*
X117132840Y-43672154D01*
X117386613Y-43760775D01*
X117391206Y-43761647D01*
X117646109Y-43810042D01*
X117646112Y-43810042D01*
X117650698Y-43810913D01*
X117778370Y-43815929D01*
X117914625Y-43821283D01*
X117914630Y-43821283D01*
X117919293Y-43821466D01*
X118023607Y-43810042D01*
X118181844Y-43792713D01*
X118181850Y-43792712D01*
X118186497Y-43792203D01*
X118299985Y-43762324D01*
X118441918Y-43724956D01*
X118441920Y-43724955D01*
X118446441Y-43723765D01*
X118450738Y-43721919D01*
X118689120Y-43619502D01*
X118689122Y-43619501D01*
X118693414Y-43617657D01*
X118812071Y-43544230D01*
X118918017Y-43478669D01*
X118918021Y-43478666D01*
X118921990Y-43476210D01*
X119066741Y-43353669D01*
X121048001Y-43353669D01*
X121048371Y-43360490D01*
X121053895Y-43411352D01*
X121057521Y-43426604D01*
X121102676Y-43547054D01*
X121111214Y-43562649D01*
X121187715Y-43664724D01*
X121200276Y-43677285D01*
X121302351Y-43753786D01*
X121317946Y-43762324D01*
X121438394Y-43807478D01*
X121453649Y-43811105D01*
X121504514Y-43816631D01*
X121511328Y-43817000D01*
X122583885Y-43817000D01*
X122599124Y-43812525D01*
X122600329Y-43811135D01*
X122602000Y-43803452D01*
X122602000Y-43798884D01*
X123110000Y-43798884D01*
X123114475Y-43814123D01*
X123115865Y-43815328D01*
X123123548Y-43816999D01*
X124200669Y-43816999D01*
X124207490Y-43816629D01*
X124258352Y-43811105D01*
X124273604Y-43807479D01*
X124394054Y-43762324D01*
X124409649Y-43753786D01*
X124511724Y-43677285D01*
X124524285Y-43664724D01*
X124600786Y-43562649D01*
X124609324Y-43547054D01*
X124654478Y-43426606D01*
X124658105Y-43411351D01*
X124663631Y-43360486D01*
X124664000Y-43353672D01*
X124664000Y-42281115D01*
X124659525Y-42265876D01*
X124658135Y-42264671D01*
X124650452Y-42263000D01*
X123128115Y-42263000D01*
X123112876Y-42267475D01*
X123111671Y-42268865D01*
X123110000Y-42276548D01*
X123110000Y-43798884D01*
X122602000Y-43798884D01*
X122602000Y-42281115D01*
X122597525Y-42265876D01*
X122596135Y-42264671D01*
X122588452Y-42263000D01*
X121066116Y-42263000D01*
X121050877Y-42267475D01*
X121049672Y-42268865D01*
X121048001Y-42276548D01*
X121048001Y-43353669D01*
X119066741Y-43353669D01*
X119127149Y-43302530D01*
X119304382Y-43100434D01*
X119313049Y-43086961D01*
X119447269Y-42878291D01*
X119449797Y-42874361D01*
X119560199Y-42629278D01*
X119597209Y-42498051D01*
X119631893Y-42375072D01*
X119631894Y-42375069D01*
X119633163Y-42370568D01*
X119651043Y-42230019D01*
X119666688Y-42107045D01*
X119666688Y-42107041D01*
X119667086Y-42103915D01*
X119669571Y-42009000D01*
X119665110Y-41948974D01*
X119649996Y-41745592D01*
X119649996Y-41745591D01*
X119649650Y-41740937D01*
X119648733Y-41736885D01*
X121048000Y-41736885D01*
X121052475Y-41752124D01*
X121053865Y-41753329D01*
X121061548Y-41755000D01*
X122583885Y-41755000D01*
X122599124Y-41750525D01*
X122600329Y-41749135D01*
X122602000Y-41741452D01*
X122602000Y-41736885D01*
X123110000Y-41736885D01*
X123114475Y-41752124D01*
X123115865Y-41753329D01*
X123123548Y-41755000D01*
X124645884Y-41755000D01*
X124661123Y-41750525D01*
X124662328Y-41749135D01*
X124663999Y-41741452D01*
X124663999Y-40664331D01*
X124663629Y-40657510D01*
X124658105Y-40606648D01*
X124654479Y-40591396D01*
X124609324Y-40470946D01*
X124600786Y-40455351D01*
X124524285Y-40353276D01*
X124511724Y-40340715D01*
X124409649Y-40264214D01*
X124394054Y-40255676D01*
X124273606Y-40210522D01*
X124258351Y-40206895D01*
X124207486Y-40201369D01*
X124200672Y-40201000D01*
X123128115Y-40201000D01*
X123112876Y-40205475D01*
X123111671Y-40206865D01*
X123110000Y-40214548D01*
X123110000Y-41736885D01*
X122602000Y-41736885D01*
X122602000Y-40219116D01*
X122597525Y-40203877D01*
X122596135Y-40202672D01*
X122588452Y-40201001D01*
X121511331Y-40201001D01*
X121504510Y-40201371D01*
X121453648Y-40206895D01*
X121438396Y-40210521D01*
X121317946Y-40255676D01*
X121302351Y-40264214D01*
X121200276Y-40340715D01*
X121187715Y-40353276D01*
X121111214Y-40455351D01*
X121102676Y-40470946D01*
X121057522Y-40591394D01*
X121053895Y-40606649D01*
X121048369Y-40657514D01*
X121048000Y-40664328D01*
X121048000Y-41736885D01*
X119648733Y-41736885D01*
X119648619Y-41736379D01*
X119591361Y-41483331D01*
X119591360Y-41483326D01*
X119590327Y-41478763D01*
X119492902Y-41228238D01*
X119359518Y-40994864D01*
X119193105Y-40783769D01*
X118997317Y-40599591D01*
X118811877Y-40470946D01*
X118780299Y-40449039D01*
X118780296Y-40449037D01*
X118776457Y-40446374D01*
X118772264Y-40444306D01*
X118539564Y-40329551D01*
X118539561Y-40329550D01*
X118535376Y-40327486D01*
X118487745Y-40312239D01*
X118433621Y-40294914D01*
X118279370Y-40245538D01*
X118274763Y-40244788D01*
X118274760Y-40244787D01*
X118018674Y-40203081D01*
X118018675Y-40203081D01*
X118014063Y-40202330D01*
X117883719Y-40200624D01*
X117749961Y-40198873D01*
X117749958Y-40198873D01*
X117745284Y-40198812D01*
X117478937Y-40235060D01*
X117220874Y-40310278D01*
X116976763Y-40422815D01*
X116972854Y-40425378D01*
X116755881Y-40567631D01*
X116755876Y-40567635D01*
X116751968Y-40570197D01*
X116551426Y-40749188D01*
X116379544Y-40955854D01*
X116377121Y-40959847D01*
X116272040Y-41133015D01*
X116240096Y-41185656D01*
X116238287Y-41189970D01*
X116238285Y-41189974D01*
X116169687Y-41353562D01*
X116136148Y-41433545D01*
X116069981Y-41694077D01*
X116043050Y-41961526D01*
X114666043Y-41961526D01*
X114665110Y-41948974D01*
X114649996Y-41745592D01*
X114649996Y-41745591D01*
X114649650Y-41740937D01*
X114648619Y-41736379D01*
X114591361Y-41483331D01*
X114591360Y-41483326D01*
X114590327Y-41478763D01*
X114492902Y-41228238D01*
X114359518Y-40994864D01*
X114193105Y-40783769D01*
X113997317Y-40599591D01*
X113811877Y-40470946D01*
X113780299Y-40449039D01*
X113780296Y-40449037D01*
X113776457Y-40446374D01*
X113772264Y-40444306D01*
X113539564Y-40329551D01*
X113539561Y-40329550D01*
X113535376Y-40327486D01*
X113487745Y-40312239D01*
X113433621Y-40294914D01*
X113279370Y-40245538D01*
X113274763Y-40244788D01*
X113274760Y-40244787D01*
X113018674Y-40203081D01*
X113018675Y-40203081D01*
X113014063Y-40202330D01*
X112883719Y-40200624D01*
X112749961Y-40198873D01*
X112749958Y-40198873D01*
X112745284Y-40198812D01*
X112478937Y-40235060D01*
X112220874Y-40310278D01*
X111976763Y-40422815D01*
X111972854Y-40425378D01*
X111755881Y-40567631D01*
X111755876Y-40567635D01*
X111751968Y-40570197D01*
X111551426Y-40749188D01*
X111379544Y-40955854D01*
X111377121Y-40959847D01*
X111272040Y-41133015D01*
X111240096Y-41185656D01*
X111238287Y-41189970D01*
X111238285Y-41189974D01*
X111169687Y-41353562D01*
X111136148Y-41433545D01*
X111069981Y-41694077D01*
X111043050Y-41961526D01*
X101926043Y-41961526D01*
X101925110Y-41948974D01*
X101909996Y-41745592D01*
X101909996Y-41745591D01*
X101909650Y-41740937D01*
X101908733Y-41736885D01*
X103308000Y-41736885D01*
X103312475Y-41752124D01*
X103313865Y-41753329D01*
X103321548Y-41755000D01*
X104843885Y-41755000D01*
X104859124Y-41750525D01*
X104860329Y-41749135D01*
X104862000Y-41741452D01*
X104862000Y-41736885D01*
X105370000Y-41736885D01*
X105374475Y-41752124D01*
X105375865Y-41753329D01*
X105383548Y-41755000D01*
X106905884Y-41755000D01*
X106921123Y-41750525D01*
X106922328Y-41749135D01*
X106923999Y-41741452D01*
X106923999Y-40664331D01*
X106923629Y-40657510D01*
X106918105Y-40606648D01*
X106914479Y-40591396D01*
X106869324Y-40470946D01*
X106860786Y-40455351D01*
X106784285Y-40353276D01*
X106771724Y-40340715D01*
X106669649Y-40264214D01*
X106654054Y-40255676D01*
X106533606Y-40210522D01*
X106518351Y-40206895D01*
X106467486Y-40201369D01*
X106460672Y-40201000D01*
X105388115Y-40201000D01*
X105372876Y-40205475D01*
X105371671Y-40206865D01*
X105370000Y-40214548D01*
X105370000Y-41736885D01*
X104862000Y-41736885D01*
X104862000Y-40219116D01*
X104857525Y-40203877D01*
X104856135Y-40202672D01*
X104848452Y-40201001D01*
X103771331Y-40201001D01*
X103764510Y-40201371D01*
X103713648Y-40206895D01*
X103698396Y-40210521D01*
X103577946Y-40255676D01*
X103562351Y-40264214D01*
X103460276Y-40340715D01*
X103447715Y-40353276D01*
X103371214Y-40455351D01*
X103362676Y-40470946D01*
X103317522Y-40591394D01*
X103313895Y-40606649D01*
X103308369Y-40657514D01*
X103308000Y-40664328D01*
X103308000Y-41736885D01*
X101908733Y-41736885D01*
X101908619Y-41736379D01*
X101851361Y-41483331D01*
X101851360Y-41483326D01*
X101850327Y-41478763D01*
X101752902Y-41228238D01*
X101619518Y-40994864D01*
X101453105Y-40783769D01*
X101257317Y-40599591D01*
X101071877Y-40470946D01*
X101040299Y-40449039D01*
X101040296Y-40449037D01*
X101036457Y-40446374D01*
X101032264Y-40444306D01*
X100799564Y-40329551D01*
X100799561Y-40329550D01*
X100795376Y-40327486D01*
X100747745Y-40312239D01*
X100693621Y-40294914D01*
X100539370Y-40245538D01*
X100534763Y-40244788D01*
X100534760Y-40244787D01*
X100278674Y-40203081D01*
X100278675Y-40203081D01*
X100274063Y-40202330D01*
X100143719Y-40200624D01*
X100009961Y-40198873D01*
X100009958Y-40198873D01*
X100005284Y-40198812D01*
X99738937Y-40235060D01*
X99480874Y-40310278D01*
X99236763Y-40422815D01*
X99232854Y-40425378D01*
X99015881Y-40567631D01*
X99015876Y-40567635D01*
X99011968Y-40570197D01*
X98811426Y-40749188D01*
X98639544Y-40955854D01*
X98637121Y-40959847D01*
X98532040Y-41133015D01*
X98500096Y-41185656D01*
X98498287Y-41189970D01*
X98498285Y-41189974D01*
X98429687Y-41353562D01*
X98396148Y-41433545D01*
X98329981Y-41694077D01*
X98303050Y-41961526D01*
X91252500Y-41961526D01*
X91252500Y-35946703D01*
X91616743Y-35946703D01*
X91654268Y-36231734D01*
X91730129Y-36509036D01*
X91731813Y-36512984D01*
X91762694Y-36585382D01*
X91842923Y-36773476D01*
X91990561Y-37020161D01*
X92170313Y-37244528D01*
X92378851Y-37442423D01*
X92612317Y-37610186D01*
X92616112Y-37612195D01*
X92616113Y-37612196D01*
X92637869Y-37623715D01*
X92866392Y-37744712D01*
X93136373Y-37843511D01*
X93417264Y-37904755D01*
X93445841Y-37907004D01*
X93640282Y-37922307D01*
X93640291Y-37922307D01*
X93642739Y-37922500D01*
X93798271Y-37922500D01*
X93800407Y-37922354D01*
X93800418Y-37922354D01*
X94008548Y-37908165D01*
X94008554Y-37908164D01*
X94012825Y-37907873D01*
X94017020Y-37907004D01*
X94017022Y-37907004D01*
X94153584Y-37878723D01*
X94294342Y-37849574D01*
X94565343Y-37753607D01*
X94820812Y-37621750D01*
X94824313Y-37619289D01*
X94824317Y-37619287D01*
X94938417Y-37539096D01*
X95056023Y-37456441D01*
X95266622Y-37260740D01*
X95448713Y-37038268D01*
X95598927Y-36793142D01*
X95714483Y-36529898D01*
X95793244Y-36253406D01*
X95833751Y-35968784D01*
X95833845Y-35950951D01*
X95835235Y-35685583D01*
X95835235Y-35685576D01*
X95835257Y-35681297D01*
X95797732Y-35396266D01*
X95721871Y-35118964D01*
X95609077Y-34854524D01*
X95461439Y-34607839D01*
X95281687Y-34383472D01*
X95073149Y-34185577D01*
X94839683Y-34017814D01*
X94817843Y-34006250D01*
X94794654Y-33993972D01*
X94585608Y-33883288D01*
X94315627Y-33784489D01*
X94034736Y-33723245D01*
X94003685Y-33720801D01*
X93811718Y-33705693D01*
X93811709Y-33705693D01*
X93809261Y-33705500D01*
X93653729Y-33705500D01*
X93651593Y-33705646D01*
X93651582Y-33705646D01*
X93443452Y-33719835D01*
X93443446Y-33719836D01*
X93439175Y-33720127D01*
X93434980Y-33720996D01*
X93434978Y-33720996D01*
X93298417Y-33749276D01*
X93157658Y-33778426D01*
X92886657Y-33874393D01*
X92631188Y-34006250D01*
X92627687Y-34008711D01*
X92627683Y-34008713D01*
X92617594Y-34015804D01*
X92395977Y-34171559D01*
X92185378Y-34367260D01*
X92003287Y-34589732D01*
X91853073Y-34834858D01*
X91737517Y-35098102D01*
X91658756Y-35374594D01*
X91618249Y-35659216D01*
X91618227Y-35663505D01*
X91618226Y-35663512D01*
X91616765Y-35942417D01*
X91616743Y-35946703D01*
X91252500Y-35946703D01*
X91252500Y-33409500D01*
X91272502Y-33341379D01*
X91326158Y-33294886D01*
X91378500Y-33283500D01*
X147720500Y-33283500D01*
X147788621Y-33303502D01*
G37*
%TD.AperFunction*%
%TD*%
M02*
