%TF.GenerationSoftware,KiCad,Pcbnew,(6.0.6-0)*%
%TF.CreationDate,2024-07-06T11:12:15+02:00*%
%TF.ProjectId,10outputs,31306f75-7470-4757-9473-2e6b69636164,rev?*%
%TF.SameCoordinates,Original*%
%TF.FileFunction,Paste,Top*%
%TF.FilePolarity,Positive*%
%FSLAX46Y46*%
G04 Gerber Fmt 4.6, Leading zero omitted, Abs format (unit mm)*
G04 Created by KiCad (PCBNEW (6.0.6-0)) date 2024-07-06 11:12:15*
%MOMM*%
%LPD*%
G01*
G04 APERTURE LIST*
G04 Aperture macros list*
%AMRoundRect*
0 Rectangle with rounded corners*
0 $1 Rounding radius*
0 $2 $3 $4 $5 $6 $7 $8 $9 X,Y pos of 4 corners*
0 Add a 4 corners polygon primitive as box body*
4,1,4,$2,$3,$4,$5,$6,$7,$8,$9,$2,$3,0*
0 Add four circle primitives for the rounded corners*
1,1,$1+$1,$2,$3*
1,1,$1+$1,$4,$5*
1,1,$1+$1,$6,$7*
1,1,$1+$1,$8,$9*
0 Add four rect primitives between the rounded corners*
20,1,$1+$1,$2,$3,$4,$5,0*
20,1,$1+$1,$4,$5,$6,$7,0*
20,1,$1+$1,$6,$7,$8,$9,0*
20,1,$1+$1,$8,$9,$2,$3,0*%
G04 Aperture macros list end*
%ADD10R,2.000000X1.500000*%
%ADD11R,2.000000X3.800000*%
%ADD12RoundRect,0.250000X0.350000X0.450000X-0.350000X0.450000X-0.350000X-0.450000X0.350000X-0.450000X0*%
%ADD13RoundRect,0.800000X0.000000X-0.700000X0.000000X0.700000X0.000000X0.700000X0.000000X-0.700000X0*%
%ADD14RoundRect,0.250000X0.450000X-0.350000X0.450000X0.350000X-0.450000X0.350000X-0.450000X-0.350000X0*%
%ADD15RoundRect,0.250000X0.337500X0.475000X-0.337500X0.475000X-0.337500X-0.475000X0.337500X-0.475000X0*%
%ADD16R,5.250000X4.550000*%
%ADD17R,1.100000X4.600000*%
%ADD18RoundRect,0.250000X1.750000X1.000000X-1.750000X1.000000X-1.750000X-1.000000X1.750000X-1.000000X0*%
%ADD19R,1.200000X1.200000*%
G04 APERTURE END LIST*
D10*
%TO.C,Q7*%
X134976000Y-85104000D03*
X134976000Y-82804000D03*
X134976000Y-80504000D03*
D11*
X128676000Y-82804000D03*
%TD*%
D10*
%TO.C,Q9*%
X134976000Y-77484000D03*
X134976000Y-75184000D03*
X134976000Y-72884000D03*
D11*
X128676000Y-75184000D03*
%TD*%
D12*
%TO.C,R1*%
X95996000Y-99949000D03*
X93996000Y-99949000D03*
%TD*%
D13*
%TO.C,U4*%
X93373076Y-66690000D03*
X95913076Y-66690000D03*
X98453076Y-66690000D03*
X100993076Y-66690000D03*
X103533076Y-66690000D03*
X106073076Y-66690000D03*
X108613076Y-66690000D03*
X108613076Y-48910000D03*
X106073076Y-48910000D03*
X103533076Y-48910000D03*
X100993076Y-48910000D03*
X98453076Y-48910000D03*
X95913076Y-48910000D03*
X93373076Y-48910000D03*
%TD*%
D14*
%TO.C,1k1*%
X94361000Y-105394000D03*
X94361000Y-103394000D03*
%TD*%
D10*
%TO.C,Q5*%
X134976000Y-92724000D03*
X134976000Y-90424000D03*
X134976000Y-88124000D03*
D11*
X128676000Y-90424000D03*
%TD*%
D10*
%TO.C,Q3*%
X134976000Y-100344000D03*
X134976000Y-98044000D03*
X134976000Y-95744000D03*
D11*
X128676000Y-98044000D03*
%TD*%
D10*
%TO.C,Q10*%
X134976000Y-47004000D03*
X134976000Y-44704000D03*
X134976000Y-42404000D03*
D11*
X128676000Y-44704000D03*
%TD*%
D10*
%TO.C,Q2*%
X134976000Y-107964000D03*
X134976000Y-105664000D03*
X134976000Y-103364000D03*
D11*
X128676000Y-105664000D03*
%TD*%
D15*
%TO.C,10nF1*%
X96033500Y-96139000D03*
X93958500Y-96139000D03*
%TD*%
D16*
%TO.C,U1*%
X102908000Y-100814000D03*
X108458000Y-100814000D03*
X108458000Y-105664000D03*
X102908000Y-105664000D03*
D17*
X109083000Y-94089000D03*
X107383000Y-94089000D03*
X105683000Y-94089000D03*
X103983000Y-94089000D03*
X102283000Y-94089000D03*
%TD*%
D10*
%TO.C,Q1*%
X134976000Y-115584000D03*
X134976000Y-113284000D03*
X134976000Y-110984000D03*
D11*
X128676000Y-113284000D03*
%TD*%
D10*
%TO.C,Q4*%
X134976000Y-69864000D03*
X134976000Y-67564000D03*
X134976000Y-65264000D03*
D11*
X128676000Y-67564000D03*
%TD*%
D18*
%TO.C,L1*%
X110111000Y-82169000D03*
X104011000Y-82169000D03*
%TD*%
D19*
%TO.C,D1*%
X109731000Y-88519000D03*
X106931000Y-88519000D03*
%TD*%
D10*
%TO.C,Q6*%
X134976000Y-62244000D03*
X134976000Y-59944000D03*
X134976000Y-57644000D03*
D11*
X128676000Y-59944000D03*
%TD*%
D10*
%TO.C,Q8*%
X134976000Y-54624000D03*
X134976000Y-52324000D03*
X134976000Y-50024000D03*
D11*
X128676000Y-52324000D03*
%TD*%
M02*
