%TF.GenerationSoftware,KiCad,Pcbnew,(6.0.6-0)*%
%TF.CreationDate,2024-07-06T11:12:15+02:00*%
%TF.ProjectId,10outputs,31306f75-7470-4757-9473-2e6b69636164,rev?*%
%TF.SameCoordinates,Original*%
%TF.FileFunction,Legend,Top*%
%TF.FilePolarity,Positive*%
%FSLAX46Y46*%
G04 Gerber Fmt 4.6, Leading zero omitted, Abs format (unit mm)*
G04 Created by KiCad (PCBNEW (6.0.6-0)) date 2024-07-06 11:12:15*
%MOMM*%
%LPD*%
G01*
G04 APERTURE LIST*
%ADD10C,0.250000*%
%ADD11C,0.300000*%
%ADD12C,0.150000*%
%ADD13C,0.120000*%
%ADD14C,0.127000*%
G04 APERTURE END LIST*
D10*
X146244571Y-93964000D02*
X147744571Y-93725904D01*
X146673142Y-93535428D01*
X147744571Y-93344952D01*
X146244571Y-93106857D01*
X146244571Y-92821142D02*
X147744571Y-92583047D01*
X146673142Y-92392571D01*
X147744571Y-92202095D01*
X146244571Y-91964000D01*
D11*
X94480285Y-108795428D02*
X94551714Y-108724000D01*
X94694571Y-108652571D01*
X95051714Y-108652571D01*
X95194571Y-108724000D01*
X95266000Y-108795428D01*
X95337428Y-108938285D01*
X95337428Y-109081142D01*
X95266000Y-109295428D01*
X94408857Y-110152571D01*
X95337428Y-110152571D01*
X96623142Y-109152571D02*
X96623142Y-110152571D01*
X96266000Y-108581142D02*
X95908857Y-109652571D01*
X96837428Y-109652571D01*
X97194571Y-108652571D02*
X97694571Y-110152571D01*
X98194571Y-108652571D01*
X147744571Y-65829714D02*
X147030285Y-66329714D01*
X147744571Y-66686857D02*
X146244571Y-66686857D01*
X146244571Y-66115428D01*
X146316000Y-65972571D01*
X146387428Y-65901142D01*
X146530285Y-65829714D01*
X146744571Y-65829714D01*
X146887428Y-65901142D01*
X146958857Y-65972571D01*
X147030285Y-66115428D01*
X147030285Y-66686857D01*
X146387428Y-54109714D02*
X146316000Y-54038285D01*
X146244571Y-53895428D01*
X146244571Y-53538285D01*
X146316000Y-53395428D01*
X146387428Y-53324000D01*
X146530285Y-53252571D01*
X146673142Y-53252571D01*
X146887428Y-53324000D01*
X147744571Y-54181142D01*
X147744571Y-53252571D01*
X146744571Y-51966857D02*
X147744571Y-51966857D01*
X146173142Y-52324000D02*
X147244571Y-52681142D01*
X147244571Y-51752571D01*
X146244571Y-51395428D02*
X147744571Y-50895428D01*
X146244571Y-50395428D01*
X92269571Y-44354714D02*
X92269571Y-45069000D01*
X92983857Y-45140428D01*
X92912428Y-45069000D01*
X92841000Y-44926142D01*
X92841000Y-44569000D01*
X92912428Y-44426142D01*
X92983857Y-44354714D01*
X93126714Y-44283285D01*
X93483857Y-44283285D01*
X93626714Y-44354714D01*
X93698142Y-44426142D01*
X93769571Y-44569000D01*
X93769571Y-44926142D01*
X93698142Y-45069000D01*
X93626714Y-45140428D01*
X92269571Y-43854714D02*
X93769571Y-43354714D01*
X92269571Y-42854714D01*
X97349571Y-46283285D02*
X97349571Y-45354714D01*
X97921000Y-45854714D01*
X97921000Y-45640428D01*
X97992428Y-45497571D01*
X98063857Y-45426142D01*
X98206714Y-45354714D01*
X98563857Y-45354714D01*
X98706714Y-45426142D01*
X98778142Y-45497571D01*
X98849571Y-45640428D01*
X98849571Y-46069000D01*
X98778142Y-46211857D01*
X98706714Y-46283285D01*
X98706714Y-44711857D02*
X98778142Y-44640428D01*
X98849571Y-44711857D01*
X98778142Y-44783285D01*
X98706714Y-44711857D01*
X98849571Y-44711857D01*
X97349571Y-44140428D02*
X97349571Y-43211857D01*
X97921000Y-43711857D01*
X97921000Y-43497571D01*
X97992428Y-43354714D01*
X98063857Y-43283285D01*
X98206714Y-43211857D01*
X98563857Y-43211857D01*
X98706714Y-43283285D01*
X98778142Y-43354714D01*
X98849571Y-43497571D01*
X98849571Y-43926142D01*
X98778142Y-44069000D01*
X98706714Y-44140428D01*
X97349571Y-42783285D02*
X98849571Y-42283285D01*
X97349571Y-41783285D01*
X110021428Y-44533428D02*
X110021428Y-46033428D01*
X109307142Y-44533428D02*
X109307142Y-46033428D01*
X108450000Y-44533428D01*
X108450000Y-46033428D01*
X105807142Y-44533428D02*
X106664285Y-44533428D01*
X106235714Y-44533428D02*
X106235714Y-46033428D01*
X106378571Y-45819142D01*
X106521428Y-45676285D01*
X106664285Y-45604857D01*
X146161000Y-63361142D02*
X146089571Y-63504000D01*
X146089571Y-63718285D01*
X146161000Y-63932571D01*
X146303857Y-64075428D01*
X146446714Y-64146857D01*
X146732428Y-64218285D01*
X146946714Y-64218285D01*
X147232428Y-64146857D01*
X147375285Y-64075428D01*
X147518142Y-63932571D01*
X147589571Y-63718285D01*
X147589571Y-63575428D01*
X147518142Y-63361142D01*
X147446714Y-63289714D01*
X146946714Y-63289714D01*
X146946714Y-63575428D01*
X146244571Y-96781857D02*
X147744571Y-96424714D01*
X146673142Y-96139000D01*
X147744571Y-95853285D01*
X146244571Y-95496142D01*
X146244571Y-59316857D02*
X147744571Y-58959714D01*
X146673142Y-58674000D01*
X147744571Y-58388285D01*
X146244571Y-58031142D01*
X146232428Y-90939714D02*
X146161000Y-90868285D01*
X146089571Y-90725428D01*
X146089571Y-90368285D01*
X146161000Y-90225428D01*
X146232428Y-90154000D01*
X146375285Y-90082571D01*
X146518142Y-90082571D01*
X146732428Y-90154000D01*
X147589571Y-91011142D01*
X147589571Y-90082571D01*
X146589571Y-88796857D02*
X147589571Y-88796857D01*
X146018142Y-89154000D02*
X147089571Y-89511142D01*
X147089571Y-88582571D01*
X146089571Y-88225428D02*
X147589571Y-87725428D01*
X146089571Y-87225428D01*
X147744571Y-103929714D02*
X147030285Y-104429714D01*
X147744571Y-104786857D02*
X146244571Y-104786857D01*
X146244571Y-104215428D01*
X146316000Y-104072571D01*
X146387428Y-104001142D01*
X146530285Y-103929714D01*
X146744571Y-103929714D01*
X146887428Y-104001142D01*
X146958857Y-104072571D01*
X147030285Y-104215428D01*
X147030285Y-104786857D01*
X95631142Y-120154000D02*
X95488285Y-120082571D01*
X95274000Y-120082571D01*
X95059714Y-120154000D01*
X94916857Y-120296857D01*
X94845428Y-120439714D01*
X94774000Y-120725428D01*
X94774000Y-120939714D01*
X94845428Y-121225428D01*
X94916857Y-121368285D01*
X95059714Y-121511142D01*
X95274000Y-121582571D01*
X95416857Y-121582571D01*
X95631142Y-121511142D01*
X95702571Y-121439714D01*
X95702571Y-120939714D01*
X95416857Y-120939714D01*
X96345428Y-121582571D02*
X96345428Y-120082571D01*
X97202571Y-121582571D01*
X97202571Y-120082571D01*
X97916857Y-121582571D02*
X97916857Y-120082571D01*
X98274000Y-120082571D01*
X98488285Y-120154000D01*
X98631142Y-120296857D01*
X98702571Y-120439714D01*
X98774000Y-120725428D01*
X98774000Y-120939714D01*
X98702571Y-121225428D01*
X98631142Y-121368285D01*
X98488285Y-121511142D01*
X98274000Y-121582571D01*
X97916857Y-121582571D01*
X110156428Y-33738428D02*
X110156428Y-35238428D01*
X108370714Y-35309857D02*
X109656428Y-33381285D01*
X107585000Y-35238428D02*
X107299285Y-35238428D01*
X107156428Y-35167000D01*
X107013571Y-35024142D01*
X106942142Y-34738428D01*
X106942142Y-34238428D01*
X107013571Y-33952714D01*
X107156428Y-33809857D01*
X107299285Y-33738428D01*
X107585000Y-33738428D01*
X107727857Y-33809857D01*
X107870714Y-33952714D01*
X107942142Y-34238428D01*
X107942142Y-34738428D01*
X107870714Y-35024142D01*
X107727857Y-35167000D01*
X107585000Y-35238428D01*
X105719285Y-35238428D02*
X104790714Y-35238428D01*
X105290714Y-34667000D01*
X105076428Y-34667000D01*
X104933571Y-34595571D01*
X104862142Y-34524142D01*
X104790714Y-34381285D01*
X104790714Y-34024142D01*
X104862142Y-33881285D01*
X104933571Y-33809857D01*
X105076428Y-33738428D01*
X105505000Y-33738428D01*
X105647857Y-33809857D01*
X105719285Y-33881285D01*
X104147857Y-33881285D02*
X104076428Y-33809857D01*
X104147857Y-33738428D01*
X104219285Y-33809857D01*
X104147857Y-33881285D01*
X104147857Y-33738428D01*
X103576428Y-35238428D02*
X102647857Y-35238428D01*
X103147857Y-34667000D01*
X102933571Y-34667000D01*
X102790714Y-34595571D01*
X102719285Y-34524142D01*
X102647857Y-34381285D01*
X102647857Y-34024142D01*
X102719285Y-33881285D01*
X102790714Y-33809857D01*
X102933571Y-33738428D01*
X103362142Y-33738428D01*
X103505000Y-33809857D01*
X103576428Y-33881285D01*
X102219285Y-35238428D02*
X101719285Y-33738428D01*
X101219285Y-35238428D01*
X114807857Y-35167000D02*
X114950714Y-35238428D01*
X115165000Y-35238428D01*
X115379285Y-35167000D01*
X115522142Y-35024142D01*
X115593571Y-34881285D01*
X115665000Y-34595571D01*
X115665000Y-34381285D01*
X115593571Y-34095571D01*
X115522142Y-33952714D01*
X115379285Y-33809857D01*
X115165000Y-33738428D01*
X115022142Y-33738428D01*
X114807857Y-33809857D01*
X114736428Y-33881285D01*
X114736428Y-34381285D01*
X115022142Y-34381285D01*
X114093571Y-33738428D02*
X114093571Y-35238428D01*
X113236428Y-33738428D01*
X113236428Y-35238428D01*
X112522142Y-33738428D02*
X112522142Y-35238428D01*
X112165000Y-35238428D01*
X111950714Y-35167000D01*
X111807857Y-35024142D01*
X111736428Y-34881285D01*
X111665000Y-34595571D01*
X111665000Y-34381285D01*
X111736428Y-34095571D01*
X111807857Y-33952714D01*
X111950714Y-33809857D01*
X112165000Y-33738428D01*
X112522142Y-33738428D01*
D10*
X146244571Y-57134000D02*
X147744571Y-56895904D01*
X146673142Y-56705428D01*
X147744571Y-56514952D01*
X146244571Y-56276857D01*
X146244571Y-55991142D02*
X147744571Y-55753047D01*
X146673142Y-55562571D01*
X147744571Y-55372095D01*
X146244571Y-55134000D01*
D11*
X94881000Y-45211857D02*
X94809571Y-45354714D01*
X94809571Y-45569000D01*
X94881000Y-45783285D01*
X95023857Y-45926142D01*
X95166714Y-45997571D01*
X95452428Y-46069000D01*
X95666714Y-46069000D01*
X95952428Y-45997571D01*
X96095285Y-45926142D01*
X96238142Y-45783285D01*
X96309571Y-45569000D01*
X96309571Y-45426142D01*
X96238142Y-45211857D01*
X96166714Y-45140428D01*
X95666714Y-45140428D01*
X95666714Y-45426142D01*
X96309571Y-44497571D02*
X94809571Y-44497571D01*
X96309571Y-43640428D01*
X94809571Y-43640428D01*
X96309571Y-42926142D02*
X94809571Y-42926142D01*
X94809571Y-42569000D01*
X94881000Y-42354714D01*
X95023857Y-42211857D01*
X95166714Y-42140428D01*
X95452428Y-42069000D01*
X95666714Y-42069000D01*
X95952428Y-42140428D01*
X96095285Y-42211857D01*
X96238142Y-42354714D01*
X96309571Y-42569000D01*
X96309571Y-42926142D01*
X117138142Y-122129357D02*
X117638142Y-122129357D01*
X117852428Y-122915071D02*
X117138142Y-122915071D01*
X117138142Y-121415071D01*
X117852428Y-121415071D01*
X118423857Y-122843642D02*
X118638142Y-122915071D01*
X118995285Y-122915071D01*
X119138142Y-122843642D01*
X119209571Y-122772214D01*
X119281000Y-122629357D01*
X119281000Y-122486500D01*
X119209571Y-122343642D01*
X119138142Y-122272214D01*
X118995285Y-122200785D01*
X118709571Y-122129357D01*
X118566714Y-122057928D01*
X118495285Y-121986500D01*
X118423857Y-121843642D01*
X118423857Y-121700785D01*
X118495285Y-121557928D01*
X118566714Y-121486500D01*
X118709571Y-121415071D01*
X119066714Y-121415071D01*
X119281000Y-121486500D01*
X119923857Y-122915071D02*
X119923857Y-121415071D01*
X120495285Y-121415071D01*
X120638142Y-121486500D01*
X120709571Y-121557928D01*
X120781000Y-121700785D01*
X120781000Y-121915071D01*
X120709571Y-122057928D01*
X120638142Y-122129357D01*
X120495285Y-122200785D01*
X119923857Y-122200785D01*
X121281000Y-121415071D02*
X122209571Y-121415071D01*
X121709571Y-121986500D01*
X121923857Y-121986500D01*
X122066714Y-122057928D01*
X122138142Y-122129357D01*
X122209571Y-122272214D01*
X122209571Y-122629357D01*
X122138142Y-122772214D01*
X122066714Y-122843642D01*
X121923857Y-122915071D01*
X121495285Y-122915071D01*
X121352428Y-122843642D01*
X121281000Y-122772214D01*
X122781000Y-121557928D02*
X122852428Y-121486500D01*
X122995285Y-121415071D01*
X123352428Y-121415071D01*
X123495285Y-121486500D01*
X123566714Y-121557928D01*
X123638142Y-121700785D01*
X123638142Y-121843642D01*
X123566714Y-122057928D01*
X122709571Y-122915071D01*
X123638142Y-122915071D01*
X124281000Y-122343642D02*
X125423857Y-122343642D01*
X126995285Y-122772214D02*
X126923857Y-122843642D01*
X126709571Y-122915071D01*
X126566714Y-122915071D01*
X126352428Y-122843642D01*
X126209571Y-122700785D01*
X126138142Y-122557928D01*
X126066714Y-122272214D01*
X126066714Y-122057928D01*
X126138142Y-121772214D01*
X126209571Y-121629357D01*
X126352428Y-121486500D01*
X126566714Y-121415071D01*
X126709571Y-121415071D01*
X126923857Y-121486500D01*
X126995285Y-121557928D01*
X127495285Y-121415071D02*
X128423857Y-121415071D01*
X127923857Y-121986500D01*
X128138142Y-121986500D01*
X128281000Y-122057928D01*
X128352428Y-122129357D01*
X128423857Y-122272214D01*
X128423857Y-122629357D01*
X128352428Y-122772214D01*
X128281000Y-122843642D01*
X128138142Y-122915071D01*
X127709571Y-122915071D01*
X127566714Y-122843642D01*
X127495285Y-122772214D01*
X117923857Y-125330071D02*
X117066714Y-125330071D01*
X117495285Y-125330071D02*
X117495285Y-123830071D01*
X117352428Y-124044357D01*
X117209571Y-124187214D01*
X117066714Y-124258642D01*
X118852428Y-123830071D02*
X118995285Y-123830071D01*
X119138142Y-123901500D01*
X119209571Y-123972928D01*
X119281000Y-124115785D01*
X119352428Y-124401500D01*
X119352428Y-124758642D01*
X119281000Y-125044357D01*
X119209571Y-125187214D01*
X119138142Y-125258642D01*
X118995285Y-125330071D01*
X118852428Y-125330071D01*
X118709571Y-125258642D01*
X118638142Y-125187214D01*
X118566714Y-125044357D01*
X118495285Y-124758642D01*
X118495285Y-124401500D01*
X118566714Y-124115785D01*
X118638142Y-123972928D01*
X118709571Y-123901500D01*
X118852428Y-123830071D01*
X121352428Y-125330071D02*
X121209571Y-125258642D01*
X121138142Y-125187214D01*
X121066714Y-125044357D01*
X121066714Y-124615785D01*
X121138142Y-124472928D01*
X121209571Y-124401500D01*
X121352428Y-124330071D01*
X121566714Y-124330071D01*
X121709571Y-124401500D01*
X121781000Y-124472928D01*
X121852428Y-124615785D01*
X121852428Y-125044357D01*
X121781000Y-125187214D01*
X121709571Y-125258642D01*
X121566714Y-125330071D01*
X121352428Y-125330071D01*
X123138142Y-124330071D02*
X123138142Y-125330071D01*
X122495285Y-124330071D02*
X122495285Y-125115785D01*
X122566714Y-125258642D01*
X122709571Y-125330071D01*
X122923857Y-125330071D01*
X123066714Y-125258642D01*
X123138142Y-125187214D01*
X123638142Y-124330071D02*
X124209571Y-124330071D01*
X123852428Y-123830071D02*
X123852428Y-125115785D01*
X123923857Y-125258642D01*
X124066714Y-125330071D01*
X124209571Y-125330071D01*
X124709571Y-124330071D02*
X124709571Y-125830071D01*
X124709571Y-124401500D02*
X124852428Y-124330071D01*
X125138142Y-124330071D01*
X125281000Y-124401500D01*
X125352428Y-124472928D01*
X125423857Y-124615785D01*
X125423857Y-125044357D01*
X125352428Y-125187214D01*
X125281000Y-125258642D01*
X125138142Y-125330071D01*
X124852428Y-125330071D01*
X124709571Y-125258642D01*
X126709571Y-124330071D02*
X126709571Y-125330071D01*
X126066714Y-124330071D02*
X126066714Y-125115785D01*
X126138142Y-125258642D01*
X126281000Y-125330071D01*
X126495285Y-125330071D01*
X126638142Y-125258642D01*
X126709571Y-125187214D01*
X127209571Y-124330071D02*
X127781000Y-124330071D01*
X127423857Y-123830071D02*
X127423857Y-125115785D01*
X127495285Y-125258642D01*
X127638142Y-125330071D01*
X127781000Y-125330071D01*
X128209571Y-125258642D02*
X128352428Y-125330071D01*
X128638142Y-125330071D01*
X128781000Y-125258642D01*
X128852428Y-125115785D01*
X128852428Y-125044357D01*
X128781000Y-124901500D01*
X128638142Y-124830071D01*
X128423857Y-124830071D01*
X128281000Y-124758642D01*
X128209571Y-124615785D01*
X128209571Y-124544357D01*
X128281000Y-124401500D01*
X128423857Y-124330071D01*
X128638142Y-124330071D01*
X128781000Y-124401500D01*
X130638142Y-124758642D02*
X131781000Y-124758642D01*
X133495285Y-124330071D02*
X133852428Y-125330071D01*
X134209571Y-124330071D01*
X135566714Y-125330071D02*
X134709571Y-125330071D01*
X135138142Y-125330071D02*
X135138142Y-123830071D01*
X134995285Y-124044357D01*
X134852428Y-124187214D01*
X134709571Y-124258642D01*
X136209571Y-125187214D02*
X136281000Y-125258642D01*
X136209571Y-125330071D01*
X136138142Y-125258642D01*
X136209571Y-125187214D01*
X136209571Y-125330071D01*
X137209571Y-123830071D02*
X137352428Y-123830071D01*
X137495285Y-123901500D01*
X137566714Y-123972928D01*
X137638142Y-124115785D01*
X137709571Y-124401500D01*
X137709571Y-124758642D01*
X137638142Y-125044357D01*
X137566714Y-125187214D01*
X137495285Y-125258642D01*
X137352428Y-125330071D01*
X137209571Y-125330071D01*
X137066714Y-125258642D01*
X136995285Y-125187214D01*
X136923857Y-125044357D01*
X136852428Y-124758642D01*
X136852428Y-124401500D01*
X136923857Y-124115785D01*
X136995285Y-123972928D01*
X137066714Y-123901500D01*
X137209571Y-123830071D01*
X138352428Y-125187214D02*
X138423857Y-125258642D01*
X138352428Y-125330071D01*
X138281000Y-125258642D01*
X138352428Y-125187214D01*
X138352428Y-125330071D01*
X139352428Y-123830071D02*
X139495285Y-123830071D01*
X139638142Y-123901500D01*
X139709571Y-123972928D01*
X139781000Y-124115785D01*
X139852428Y-124401500D01*
X139852428Y-124758642D01*
X139781000Y-125044357D01*
X139709571Y-125187214D01*
X139638142Y-125258642D01*
X139495285Y-125330071D01*
X139352428Y-125330071D01*
X139209571Y-125258642D01*
X139138142Y-125187214D01*
X139066714Y-125044357D01*
X138995285Y-124758642D01*
X138995285Y-124401500D01*
X139066714Y-124115785D01*
X139138142Y-123972928D01*
X139209571Y-123901500D01*
X139352428Y-123830071D01*
X146958857Y-99206857D02*
X147030285Y-98992571D01*
X147101714Y-98921142D01*
X147244571Y-98849714D01*
X147458857Y-98849714D01*
X147601714Y-98921142D01*
X147673142Y-98992571D01*
X147744571Y-99135428D01*
X147744571Y-99706857D01*
X146244571Y-99706857D01*
X146244571Y-99206857D01*
X146316000Y-99064000D01*
X146387428Y-98992571D01*
X146530285Y-98921142D01*
X146673142Y-98921142D01*
X146816000Y-98992571D01*
X146887428Y-99064000D01*
X146958857Y-99206857D01*
X146958857Y-99706857D01*
X146161000Y-101461142D02*
X146089571Y-101604000D01*
X146089571Y-101818285D01*
X146161000Y-102032571D01*
X146303857Y-102175428D01*
X146446714Y-102246857D01*
X146732428Y-102318285D01*
X146946714Y-102318285D01*
X147232428Y-102246857D01*
X147375285Y-102175428D01*
X147518142Y-102032571D01*
X147589571Y-101818285D01*
X147589571Y-101675428D01*
X147518142Y-101461142D01*
X147446714Y-101389714D01*
X146946714Y-101389714D01*
X146946714Y-101675428D01*
X146803857Y-61106857D02*
X146875285Y-60892571D01*
X146946714Y-60821142D01*
X147089571Y-60749714D01*
X147303857Y-60749714D01*
X147446714Y-60821142D01*
X147518142Y-60892571D01*
X147589571Y-61035428D01*
X147589571Y-61606857D01*
X146089571Y-61606857D01*
X146089571Y-61106857D01*
X146161000Y-60964000D01*
X146232428Y-60892571D01*
X146375285Y-60821142D01*
X146518142Y-60821142D01*
X146661000Y-60892571D01*
X146732428Y-60964000D01*
X146803857Y-61106857D01*
X146803857Y-61606857D01*
D12*
%TO.C,J1*%
X107616666Y-42389380D02*
X107616666Y-43103666D01*
X107569047Y-43246523D01*
X107473809Y-43341761D01*
X107330952Y-43389380D01*
X107235714Y-43389380D01*
X108616666Y-43389380D02*
X108045238Y-43389380D01*
X108330952Y-43389380D02*
X108330952Y-42389380D01*
X108235714Y-42532238D01*
X108140476Y-42627476D01*
X108045238Y-42675095D01*
%TO.C,Q7*%
X131730761Y-87851619D02*
X131635523Y-87804000D01*
X131540285Y-87708761D01*
X131397428Y-87565904D01*
X131302190Y-87518285D01*
X131206952Y-87518285D01*
X131254571Y-87756380D02*
X131159333Y-87708761D01*
X131064095Y-87613523D01*
X131016476Y-87423047D01*
X131016476Y-87089714D01*
X131064095Y-86899238D01*
X131159333Y-86804000D01*
X131254571Y-86756380D01*
X131445047Y-86756380D01*
X131540285Y-86804000D01*
X131635523Y-86899238D01*
X131683142Y-87089714D01*
X131683142Y-87423047D01*
X131635523Y-87613523D01*
X131540285Y-87708761D01*
X131445047Y-87756380D01*
X131254571Y-87756380D01*
X132016476Y-86756380D02*
X132683142Y-86756380D01*
X132254571Y-87756380D01*
%TO.C,J6*%
X93392666Y-113894380D02*
X93392666Y-114608666D01*
X93345047Y-114751523D01*
X93249809Y-114846761D01*
X93106952Y-114894380D01*
X93011714Y-114894380D01*
X94297428Y-113894380D02*
X94106952Y-113894380D01*
X94011714Y-113942000D01*
X93964095Y-113989619D01*
X93868857Y-114132476D01*
X93821238Y-114322952D01*
X93821238Y-114703904D01*
X93868857Y-114799142D01*
X93916476Y-114846761D01*
X94011714Y-114894380D01*
X94202190Y-114894380D01*
X94297428Y-114846761D01*
X94345047Y-114799142D01*
X94392666Y-114703904D01*
X94392666Y-114465809D01*
X94345047Y-114370571D01*
X94297428Y-114322952D01*
X94202190Y-114275333D01*
X94011714Y-114275333D01*
X93916476Y-114322952D01*
X93868857Y-114370571D01*
X93821238Y-114465809D01*
%TO.C,Q9*%
X131730761Y-80231619D02*
X131635523Y-80184000D01*
X131540285Y-80088761D01*
X131397428Y-79945904D01*
X131302190Y-79898285D01*
X131206952Y-79898285D01*
X131254571Y-80136380D02*
X131159333Y-80088761D01*
X131064095Y-79993523D01*
X131016476Y-79803047D01*
X131016476Y-79469714D01*
X131064095Y-79279238D01*
X131159333Y-79184000D01*
X131254571Y-79136380D01*
X131445047Y-79136380D01*
X131540285Y-79184000D01*
X131635523Y-79279238D01*
X131683142Y-79469714D01*
X131683142Y-79803047D01*
X131635523Y-79993523D01*
X131540285Y-80088761D01*
X131445047Y-80136380D01*
X131254571Y-80136380D01*
X132159333Y-80136380D02*
X132349809Y-80136380D01*
X132445047Y-80088761D01*
X132492666Y-80041142D01*
X132587904Y-79898285D01*
X132635523Y-79707809D01*
X132635523Y-79326857D01*
X132587904Y-79231619D01*
X132540285Y-79184000D01*
X132445047Y-79136380D01*
X132254571Y-79136380D01*
X132159333Y-79184000D01*
X132111714Y-79231619D01*
X132064095Y-79326857D01*
X132064095Y-79564952D01*
X132111714Y-79660190D01*
X132159333Y-79707809D01*
X132254571Y-79755428D01*
X132445047Y-79755428D01*
X132540285Y-79707809D01*
X132587904Y-79660190D01*
X132635523Y-79564952D01*
%TO.C,R1*%
X94829333Y-102051380D02*
X94496000Y-101575190D01*
X94257904Y-102051380D02*
X94257904Y-101051380D01*
X94638857Y-101051380D01*
X94734095Y-101099000D01*
X94781714Y-101146619D01*
X94829333Y-101241857D01*
X94829333Y-101384714D01*
X94781714Y-101479952D01*
X94734095Y-101527571D01*
X94638857Y-101575190D01*
X94257904Y-101575190D01*
X95781714Y-102051380D02*
X95210285Y-102051380D01*
X95496000Y-102051380D02*
X95496000Y-101051380D01*
X95400761Y-101194238D01*
X95305523Y-101289476D01*
X95210285Y-101337095D01*
D10*
%TO.C,U4*%
X108168587Y-59089809D02*
X109787635Y-59089809D01*
X109978111Y-58994571D01*
X110073349Y-58899333D01*
X110168587Y-58708857D01*
X110168587Y-58327904D01*
X110073349Y-58137428D01*
X109978111Y-58042190D01*
X109787635Y-57946952D01*
X108168587Y-57946952D01*
X108835254Y-56137428D02*
X110168587Y-56137428D01*
X108073349Y-56613619D02*
X109501921Y-57089809D01*
X109501921Y-55851714D01*
D12*
%TO.C,J4*%
X89916380Y-115193333D02*
X90630666Y-115193333D01*
X90773523Y-115240952D01*
X90868761Y-115336190D01*
X90916380Y-115479047D01*
X90916380Y-115574285D01*
X90249714Y-114288571D02*
X90916380Y-114288571D01*
X89868761Y-114526666D02*
X90583047Y-114764761D01*
X90583047Y-114145714D01*
%TO.C,1k1*%
X93163380Y-104989238D02*
X93163380Y-105560666D01*
X93163380Y-105274952D02*
X92163380Y-105274952D01*
X92306238Y-105370190D01*
X92401476Y-105465428D01*
X92449095Y-105560666D01*
X93163380Y-104560666D02*
X92163380Y-104560666D01*
X92782428Y-104465428D02*
X93163380Y-104179714D01*
X92496714Y-104179714D02*
X92877666Y-104560666D01*
X93163380Y-103227333D02*
X93163380Y-103798761D01*
X93163380Y-103513047D02*
X92163380Y-103513047D01*
X92306238Y-103608285D01*
X92401476Y-103703523D01*
X92449095Y-103798761D01*
%TO.C,Q5*%
X131730761Y-95471619D02*
X131635523Y-95424000D01*
X131540285Y-95328761D01*
X131397428Y-95185904D01*
X131302190Y-95138285D01*
X131206952Y-95138285D01*
X131254571Y-95376380D02*
X131159333Y-95328761D01*
X131064095Y-95233523D01*
X131016476Y-95043047D01*
X131016476Y-94709714D01*
X131064095Y-94519238D01*
X131159333Y-94424000D01*
X131254571Y-94376380D01*
X131445047Y-94376380D01*
X131540285Y-94424000D01*
X131635523Y-94519238D01*
X131683142Y-94709714D01*
X131683142Y-95043047D01*
X131635523Y-95233523D01*
X131540285Y-95328761D01*
X131445047Y-95376380D01*
X131254571Y-95376380D01*
X132587904Y-94376380D02*
X132111714Y-94376380D01*
X132064095Y-94852571D01*
X132111714Y-94804952D01*
X132206952Y-94757333D01*
X132445047Y-94757333D01*
X132540285Y-94804952D01*
X132587904Y-94852571D01*
X132635523Y-94947809D01*
X132635523Y-95185904D01*
X132587904Y-95281142D01*
X132540285Y-95328761D01*
X132445047Y-95376380D01*
X132206952Y-95376380D01*
X132111714Y-95328761D01*
X132064095Y-95281142D01*
%TO.C,Q3*%
X129325619Y-94837238D02*
X129278000Y-94932476D01*
X129182761Y-95027714D01*
X129039904Y-95170571D01*
X128992285Y-95265809D01*
X128992285Y-95361047D01*
X129230380Y-95313428D02*
X129182761Y-95408666D01*
X129087523Y-95503904D01*
X128897047Y-95551523D01*
X128563714Y-95551523D01*
X128373238Y-95503904D01*
X128278000Y-95408666D01*
X128230380Y-95313428D01*
X128230380Y-95122952D01*
X128278000Y-95027714D01*
X128373238Y-94932476D01*
X128563714Y-94884857D01*
X128897047Y-94884857D01*
X129087523Y-94932476D01*
X129182761Y-95027714D01*
X129230380Y-95122952D01*
X129230380Y-95313428D01*
X128230380Y-94551523D02*
X128230380Y-93932476D01*
X128611333Y-94265809D01*
X128611333Y-94122952D01*
X128658952Y-94027714D01*
X128706571Y-93980095D01*
X128801809Y-93932476D01*
X129039904Y-93932476D01*
X129135142Y-93980095D01*
X129182761Y-94027714D01*
X129230380Y-94122952D01*
X129230380Y-94408666D01*
X129182761Y-94503904D01*
X129135142Y-94551523D01*
X131754571Y-100170952D02*
X131802190Y-100028095D01*
X131849809Y-99980476D01*
X131945047Y-99932857D01*
X132087904Y-99932857D01*
X132183142Y-99980476D01*
X132230761Y-100028095D01*
X132278380Y-100123333D01*
X132278380Y-100504285D01*
X131278380Y-100504285D01*
X131278380Y-100170952D01*
X131326000Y-100075714D01*
X131373619Y-100028095D01*
X131468857Y-99980476D01*
X131564095Y-99980476D01*
X131659333Y-100028095D01*
X131706952Y-100075714D01*
X131754571Y-100170952D01*
X131754571Y-100504285D01*
X132230761Y-99551904D02*
X132278380Y-99409047D01*
X132278380Y-99170952D01*
X132230761Y-99075714D01*
X132183142Y-99028095D01*
X132087904Y-98980476D01*
X131992666Y-98980476D01*
X131897428Y-99028095D01*
X131849809Y-99075714D01*
X131802190Y-99170952D01*
X131754571Y-99361428D01*
X131706952Y-99456666D01*
X131659333Y-99504285D01*
X131564095Y-99551904D01*
X131468857Y-99551904D01*
X131373619Y-99504285D01*
X131326000Y-99456666D01*
X131278380Y-99361428D01*
X131278380Y-99123333D01*
X131326000Y-98980476D01*
X132278380Y-98551904D02*
X131278380Y-98551904D01*
X131278380Y-98170952D01*
X131326000Y-98075714D01*
X131373619Y-98028095D01*
X131468857Y-97980476D01*
X131611714Y-97980476D01*
X131706952Y-98028095D01*
X131754571Y-98075714D01*
X131802190Y-98170952D01*
X131802190Y-98551904D01*
X131278380Y-97647142D02*
X131278380Y-96980476D01*
X132278380Y-97409047D01*
X131278380Y-96123333D02*
X131278380Y-96599523D01*
X131754571Y-96647142D01*
X131706952Y-96599523D01*
X131659333Y-96504285D01*
X131659333Y-96266190D01*
X131706952Y-96170952D01*
X131754571Y-96123333D01*
X131849809Y-96075714D01*
X132087904Y-96075714D01*
X132183142Y-96123333D01*
X132230761Y-96170952D01*
X132278380Y-96266190D01*
X132278380Y-96504285D01*
X132230761Y-96599523D01*
X132183142Y-96647142D01*
X132278380Y-95647142D02*
X131278380Y-95647142D01*
X132278380Y-95075714D01*
X131278380Y-95075714D01*
%TO.C,Q10*%
X131254571Y-49751619D02*
X131159333Y-49704000D01*
X131064095Y-49608761D01*
X130921238Y-49465904D01*
X130826000Y-49418285D01*
X130730761Y-49418285D01*
X130778380Y-49656380D02*
X130683142Y-49608761D01*
X130587904Y-49513523D01*
X130540285Y-49323047D01*
X130540285Y-48989714D01*
X130587904Y-48799238D01*
X130683142Y-48704000D01*
X130778380Y-48656380D01*
X130968857Y-48656380D01*
X131064095Y-48704000D01*
X131159333Y-48799238D01*
X131206952Y-48989714D01*
X131206952Y-49323047D01*
X131159333Y-49513523D01*
X131064095Y-49608761D01*
X130968857Y-49656380D01*
X130778380Y-49656380D01*
X132159333Y-49656380D02*
X131587904Y-49656380D01*
X131873619Y-49656380D02*
X131873619Y-48656380D01*
X131778380Y-48799238D01*
X131683142Y-48894476D01*
X131587904Y-48942095D01*
X132778380Y-48656380D02*
X132873619Y-48656380D01*
X132968857Y-48704000D01*
X133016476Y-48751619D01*
X133064095Y-48846857D01*
X133111714Y-49037333D01*
X133111714Y-49275428D01*
X133064095Y-49465904D01*
X133016476Y-49561142D01*
X132968857Y-49608761D01*
X132873619Y-49656380D01*
X132778380Y-49656380D01*
X132683142Y-49608761D01*
X132635523Y-49561142D01*
X132587904Y-49465904D01*
X132540285Y-49275428D01*
X132540285Y-49037333D01*
X132587904Y-48846857D01*
X132635523Y-48751619D01*
X132683142Y-48704000D01*
X132778380Y-48656380D01*
%TO.C,C1*%
X116589142Y-115106989D02*
X116636761Y-115154608D01*
X116684380Y-115297465D01*
X116684380Y-115392703D01*
X116636761Y-115535561D01*
X116541523Y-115630799D01*
X116446285Y-115678418D01*
X116255809Y-115726037D01*
X116112952Y-115726037D01*
X115922476Y-115678418D01*
X115827238Y-115630799D01*
X115732000Y-115535561D01*
X115684380Y-115392703D01*
X115684380Y-115297465D01*
X115732000Y-115154608D01*
X115779619Y-115106989D01*
X116684380Y-114154608D02*
X116684380Y-114726037D01*
X116684380Y-114440323D02*
X115684380Y-114440323D01*
X115827238Y-114535561D01*
X115922476Y-114630799D01*
X115970095Y-114726037D01*
%TO.C,J3*%
X142708380Y-48212333D02*
X143422666Y-48212333D01*
X143565523Y-48259952D01*
X143660761Y-48355190D01*
X143708380Y-48498047D01*
X143708380Y-48593285D01*
X142708380Y-47831380D02*
X142708380Y-47212333D01*
X143089333Y-47545666D01*
X143089333Y-47402809D01*
X143136952Y-47307571D01*
X143184571Y-47259952D01*
X143279809Y-47212333D01*
X143517904Y-47212333D01*
X143613142Y-47259952D01*
X143660761Y-47307571D01*
X143708380Y-47402809D01*
X143708380Y-47688523D01*
X143660761Y-47783761D01*
X143613142Y-47831380D01*
%TO.C,Q2*%
X129325619Y-102457238D02*
X129278000Y-102552476D01*
X129182761Y-102647714D01*
X129039904Y-102790571D01*
X128992285Y-102885809D01*
X128992285Y-102981047D01*
X129230380Y-102933428D02*
X129182761Y-103028666D01*
X129087523Y-103123904D01*
X128897047Y-103171523D01*
X128563714Y-103171523D01*
X128373238Y-103123904D01*
X128278000Y-103028666D01*
X128230380Y-102933428D01*
X128230380Y-102742952D01*
X128278000Y-102647714D01*
X128373238Y-102552476D01*
X128563714Y-102504857D01*
X128897047Y-102504857D01*
X129087523Y-102552476D01*
X129182761Y-102647714D01*
X129230380Y-102742952D01*
X129230380Y-102933428D01*
X128325619Y-102123904D02*
X128278000Y-102076285D01*
X128230380Y-101981047D01*
X128230380Y-101742952D01*
X128278000Y-101647714D01*
X128325619Y-101600095D01*
X128420857Y-101552476D01*
X128516095Y-101552476D01*
X128658952Y-101600095D01*
X129230380Y-102171523D01*
X129230380Y-101552476D01*
X131754571Y-108044952D02*
X131802190Y-107902095D01*
X131849809Y-107854476D01*
X131945047Y-107806857D01*
X132087904Y-107806857D01*
X132183142Y-107854476D01*
X132230761Y-107902095D01*
X132278380Y-107997333D01*
X132278380Y-108378285D01*
X131278380Y-108378285D01*
X131278380Y-108044952D01*
X131326000Y-107949714D01*
X131373619Y-107902095D01*
X131468857Y-107854476D01*
X131564095Y-107854476D01*
X131659333Y-107902095D01*
X131706952Y-107949714D01*
X131754571Y-108044952D01*
X131754571Y-108378285D01*
X132230761Y-107425904D02*
X132278380Y-107283047D01*
X132278380Y-107044952D01*
X132230761Y-106949714D01*
X132183142Y-106902095D01*
X132087904Y-106854476D01*
X131992666Y-106854476D01*
X131897428Y-106902095D01*
X131849809Y-106949714D01*
X131802190Y-107044952D01*
X131754571Y-107235428D01*
X131706952Y-107330666D01*
X131659333Y-107378285D01*
X131564095Y-107425904D01*
X131468857Y-107425904D01*
X131373619Y-107378285D01*
X131326000Y-107330666D01*
X131278380Y-107235428D01*
X131278380Y-106997333D01*
X131326000Y-106854476D01*
X132278380Y-106425904D02*
X131278380Y-106425904D01*
X131278380Y-106044952D01*
X131326000Y-105949714D01*
X131373619Y-105902095D01*
X131468857Y-105854476D01*
X131611714Y-105854476D01*
X131706952Y-105902095D01*
X131754571Y-105949714D01*
X131802190Y-106044952D01*
X131802190Y-106425904D01*
X131278380Y-105521142D02*
X131278380Y-104854476D01*
X132278380Y-105283047D01*
X131278380Y-103997333D02*
X131278380Y-104473523D01*
X131754571Y-104521142D01*
X131706952Y-104473523D01*
X131659333Y-104378285D01*
X131659333Y-104140190D01*
X131706952Y-104044952D01*
X131754571Y-103997333D01*
X131849809Y-103949714D01*
X132087904Y-103949714D01*
X132183142Y-103997333D01*
X132230761Y-104044952D01*
X132278380Y-104140190D01*
X132278380Y-104378285D01*
X132230761Y-104473523D01*
X132183142Y-104521142D01*
X132278380Y-103521142D02*
X131278380Y-103521142D01*
X132278380Y-102949714D01*
X131278380Y-102949714D01*
%TO.C,10nF1*%
X93448380Y-98271380D02*
X92876952Y-98271380D01*
X93162666Y-98271380D02*
X93162666Y-97271380D01*
X93067428Y-97414238D01*
X92972190Y-97509476D01*
X92876952Y-97557095D01*
X94067428Y-97271380D02*
X94162666Y-97271380D01*
X94257904Y-97319000D01*
X94305523Y-97366619D01*
X94353142Y-97461857D01*
X94400761Y-97652333D01*
X94400761Y-97890428D01*
X94353142Y-98080904D01*
X94305523Y-98176142D01*
X94257904Y-98223761D01*
X94162666Y-98271380D01*
X94067428Y-98271380D01*
X93972190Y-98223761D01*
X93924571Y-98176142D01*
X93876952Y-98080904D01*
X93829333Y-97890428D01*
X93829333Y-97652333D01*
X93876952Y-97461857D01*
X93924571Y-97366619D01*
X93972190Y-97319000D01*
X94067428Y-97271380D01*
X94829333Y-97604714D02*
X94829333Y-98271380D01*
X94829333Y-97699952D02*
X94876952Y-97652333D01*
X94972190Y-97604714D01*
X95115047Y-97604714D01*
X95210285Y-97652333D01*
X95257904Y-97747571D01*
X95257904Y-98271380D01*
X96067428Y-97747571D02*
X95734095Y-97747571D01*
X95734095Y-98271380D02*
X95734095Y-97271380D01*
X96210285Y-97271380D01*
X97115047Y-98271380D02*
X96543619Y-98271380D01*
X96829333Y-98271380D02*
X96829333Y-97271380D01*
X96734095Y-97414238D01*
X96638857Y-97509476D01*
X96543619Y-97557095D01*
%TO.C,U1*%
X111785380Y-100625904D02*
X112594904Y-100625904D01*
X112690142Y-100578285D01*
X112737761Y-100530666D01*
X112785380Y-100435428D01*
X112785380Y-100244952D01*
X112737761Y-100149714D01*
X112690142Y-100102095D01*
X112594904Y-100054476D01*
X111785380Y-100054476D01*
X112785380Y-99054476D02*
X112785380Y-99625904D01*
X112785380Y-99340190D02*
X111785380Y-99340190D01*
X111928238Y-99435428D01*
X112023476Y-99530666D01*
X112071095Y-99625904D01*
%TO.C,C2*%
X95332010Y-88776142D02*
X95284391Y-88823761D01*
X95141534Y-88871380D01*
X95046296Y-88871380D01*
X94903438Y-88823761D01*
X94808200Y-88728523D01*
X94760581Y-88633285D01*
X94712962Y-88442809D01*
X94712962Y-88299952D01*
X94760581Y-88109476D01*
X94808200Y-88014238D01*
X94903438Y-87919000D01*
X95046296Y-87871380D01*
X95141534Y-87871380D01*
X95284391Y-87919000D01*
X95332010Y-87966619D01*
X95712962Y-87966619D02*
X95760581Y-87919000D01*
X95855819Y-87871380D01*
X96093915Y-87871380D01*
X96189153Y-87919000D01*
X96236772Y-87966619D01*
X96284391Y-88061857D01*
X96284391Y-88157095D01*
X96236772Y-88299952D01*
X95665343Y-88871380D01*
X96284391Y-88871380D01*
%TO.C,Q1*%
X129325619Y-110077238D02*
X129278000Y-110172476D01*
X129182761Y-110267714D01*
X129039904Y-110410571D01*
X128992285Y-110505809D01*
X128992285Y-110601047D01*
X129230380Y-110553428D02*
X129182761Y-110648666D01*
X129087523Y-110743904D01*
X128897047Y-110791523D01*
X128563714Y-110791523D01*
X128373238Y-110743904D01*
X128278000Y-110648666D01*
X128230380Y-110553428D01*
X128230380Y-110362952D01*
X128278000Y-110267714D01*
X128373238Y-110172476D01*
X128563714Y-110124857D01*
X128897047Y-110124857D01*
X129087523Y-110172476D01*
X129182761Y-110267714D01*
X129230380Y-110362952D01*
X129230380Y-110553428D01*
X129230380Y-109172476D02*
X129230380Y-109743904D01*
X129230380Y-109458190D02*
X128230380Y-109458190D01*
X128373238Y-109553428D01*
X128468476Y-109648666D01*
X128516095Y-109743904D01*
X131754571Y-115664952D02*
X131802190Y-115522095D01*
X131849809Y-115474476D01*
X131945047Y-115426857D01*
X132087904Y-115426857D01*
X132183142Y-115474476D01*
X132230761Y-115522095D01*
X132278380Y-115617333D01*
X132278380Y-115998285D01*
X131278380Y-115998285D01*
X131278380Y-115664952D01*
X131326000Y-115569714D01*
X131373619Y-115522095D01*
X131468857Y-115474476D01*
X131564095Y-115474476D01*
X131659333Y-115522095D01*
X131706952Y-115569714D01*
X131754571Y-115664952D01*
X131754571Y-115998285D01*
X132230761Y-115045904D02*
X132278380Y-114903047D01*
X132278380Y-114664952D01*
X132230761Y-114569714D01*
X132183142Y-114522095D01*
X132087904Y-114474476D01*
X131992666Y-114474476D01*
X131897428Y-114522095D01*
X131849809Y-114569714D01*
X131802190Y-114664952D01*
X131754571Y-114855428D01*
X131706952Y-114950666D01*
X131659333Y-114998285D01*
X131564095Y-115045904D01*
X131468857Y-115045904D01*
X131373619Y-114998285D01*
X131326000Y-114950666D01*
X131278380Y-114855428D01*
X131278380Y-114617333D01*
X131326000Y-114474476D01*
X132278380Y-114045904D02*
X131278380Y-114045904D01*
X131278380Y-113664952D01*
X131326000Y-113569714D01*
X131373619Y-113522095D01*
X131468857Y-113474476D01*
X131611714Y-113474476D01*
X131706952Y-113522095D01*
X131754571Y-113569714D01*
X131802190Y-113664952D01*
X131802190Y-114045904D01*
X131278380Y-113141142D02*
X131278380Y-112474476D01*
X132278380Y-112903047D01*
X131278380Y-111617333D02*
X131278380Y-112093523D01*
X131754571Y-112141142D01*
X131706952Y-112093523D01*
X131659333Y-111998285D01*
X131659333Y-111760190D01*
X131706952Y-111664952D01*
X131754571Y-111617333D01*
X131849809Y-111569714D01*
X132087904Y-111569714D01*
X132183142Y-111617333D01*
X132230761Y-111664952D01*
X132278380Y-111760190D01*
X132278380Y-111998285D01*
X132230761Y-112093523D01*
X132183142Y-112141142D01*
X132278380Y-111141142D02*
X131278380Y-111141142D01*
X132278380Y-110569714D01*
X131278380Y-110569714D01*
%TO.C,Q4*%
X131730761Y-72611619D02*
X131635523Y-72564000D01*
X131540285Y-72468761D01*
X131397428Y-72325904D01*
X131302190Y-72278285D01*
X131206952Y-72278285D01*
X131254571Y-72516380D02*
X131159333Y-72468761D01*
X131064095Y-72373523D01*
X131016476Y-72183047D01*
X131016476Y-71849714D01*
X131064095Y-71659238D01*
X131159333Y-71564000D01*
X131254571Y-71516380D01*
X131445047Y-71516380D01*
X131540285Y-71564000D01*
X131635523Y-71659238D01*
X131683142Y-71849714D01*
X131683142Y-72183047D01*
X131635523Y-72373523D01*
X131540285Y-72468761D01*
X131445047Y-72516380D01*
X131254571Y-72516380D01*
X132540285Y-71849714D02*
X132540285Y-72516380D01*
X132302190Y-71468761D02*
X132064095Y-72183047D01*
X132683142Y-72183047D01*
%TO.C,J5*%
X93392666Y-109957380D02*
X93392666Y-110671666D01*
X93345047Y-110814523D01*
X93249809Y-110909761D01*
X93106952Y-110957380D01*
X93011714Y-110957380D01*
X94345047Y-109957380D02*
X93868857Y-109957380D01*
X93821238Y-110433571D01*
X93868857Y-110385952D01*
X93964095Y-110338333D01*
X94202190Y-110338333D01*
X94297428Y-110385952D01*
X94345047Y-110433571D01*
X94392666Y-110528809D01*
X94392666Y-110766904D01*
X94345047Y-110862142D01*
X94297428Y-110909761D01*
X94202190Y-110957380D01*
X93964095Y-110957380D01*
X93868857Y-110909761D01*
X93821238Y-110862142D01*
%TO.C,L1*%
X106894333Y-87821380D02*
X106418142Y-87821380D01*
X106418142Y-86821380D01*
X107751476Y-87821380D02*
X107180047Y-87821380D01*
X107465761Y-87821380D02*
X107465761Y-86821380D01*
X107370523Y-86964238D01*
X107275285Y-87059476D01*
X107180047Y-87107095D01*
%TO.C,D1*%
X107592904Y-90971380D02*
X107592904Y-89971380D01*
X107831000Y-89971380D01*
X107973857Y-90019000D01*
X108069095Y-90114238D01*
X108116714Y-90209476D01*
X108164333Y-90399952D01*
X108164333Y-90542809D01*
X108116714Y-90733285D01*
X108069095Y-90828523D01*
X107973857Y-90923761D01*
X107831000Y-90971380D01*
X107592904Y-90971380D01*
X109116714Y-90971380D02*
X108545285Y-90971380D01*
X108831000Y-90971380D02*
X108831000Y-89971380D01*
X108735761Y-90114238D01*
X108640523Y-90209476D01*
X108545285Y-90257095D01*
%TO.C,Q6*%
X131730761Y-64991619D02*
X131635523Y-64944000D01*
X131540285Y-64848761D01*
X131397428Y-64705904D01*
X131302190Y-64658285D01*
X131206952Y-64658285D01*
X131254571Y-64896380D02*
X131159333Y-64848761D01*
X131064095Y-64753523D01*
X131016476Y-64563047D01*
X131016476Y-64229714D01*
X131064095Y-64039238D01*
X131159333Y-63944000D01*
X131254571Y-63896380D01*
X131445047Y-63896380D01*
X131540285Y-63944000D01*
X131635523Y-64039238D01*
X131683142Y-64229714D01*
X131683142Y-64563047D01*
X131635523Y-64753523D01*
X131540285Y-64848761D01*
X131445047Y-64896380D01*
X131254571Y-64896380D01*
X132540285Y-63896380D02*
X132349809Y-63896380D01*
X132254571Y-63944000D01*
X132206952Y-63991619D01*
X132111714Y-64134476D01*
X132064095Y-64324952D01*
X132064095Y-64705904D01*
X132111714Y-64801142D01*
X132159333Y-64848761D01*
X132254571Y-64896380D01*
X132445047Y-64896380D01*
X132540285Y-64848761D01*
X132587904Y-64801142D01*
X132635523Y-64705904D01*
X132635523Y-64467809D01*
X132587904Y-64372571D01*
X132540285Y-64324952D01*
X132445047Y-64277333D01*
X132254571Y-64277333D01*
X132159333Y-64324952D01*
X132111714Y-64372571D01*
X132064095Y-64467809D01*
%TO.C,J2*%
X142708380Y-86312333D02*
X143422666Y-86312333D01*
X143565523Y-86359952D01*
X143660761Y-86455190D01*
X143708380Y-86598047D01*
X143708380Y-86693285D01*
X142803619Y-85883761D02*
X142756000Y-85836142D01*
X142708380Y-85740904D01*
X142708380Y-85502809D01*
X142756000Y-85407571D01*
X142803619Y-85359952D01*
X142898857Y-85312333D01*
X142994095Y-85312333D01*
X143136952Y-85359952D01*
X143708380Y-85931380D01*
X143708380Y-85312333D01*
%TO.C,Q8*%
X131730761Y-57371619D02*
X131635523Y-57324000D01*
X131540285Y-57228761D01*
X131397428Y-57085904D01*
X131302190Y-57038285D01*
X131206952Y-57038285D01*
X131254571Y-57276380D02*
X131159333Y-57228761D01*
X131064095Y-57133523D01*
X131016476Y-56943047D01*
X131016476Y-56609714D01*
X131064095Y-56419238D01*
X131159333Y-56324000D01*
X131254571Y-56276380D01*
X131445047Y-56276380D01*
X131540285Y-56324000D01*
X131635523Y-56419238D01*
X131683142Y-56609714D01*
X131683142Y-56943047D01*
X131635523Y-57133523D01*
X131540285Y-57228761D01*
X131445047Y-57276380D01*
X131254571Y-57276380D01*
X132254571Y-56704952D02*
X132159333Y-56657333D01*
X132111714Y-56609714D01*
X132064095Y-56514476D01*
X132064095Y-56466857D01*
X132111714Y-56371619D01*
X132159333Y-56324000D01*
X132254571Y-56276380D01*
X132445047Y-56276380D01*
X132540285Y-56324000D01*
X132587904Y-56371619D01*
X132635523Y-56466857D01*
X132635523Y-56514476D01*
X132587904Y-56609714D01*
X132540285Y-56657333D01*
X132445047Y-56704952D01*
X132254571Y-56704952D01*
X132159333Y-56752571D01*
X132111714Y-56800190D01*
X132064095Y-56895428D01*
X132064095Y-57085904D01*
X132111714Y-57181142D01*
X132159333Y-57228761D01*
X132254571Y-57276380D01*
X132445047Y-57276380D01*
X132540285Y-57228761D01*
X132587904Y-57181142D01*
X132635523Y-57085904D01*
X132635523Y-56895428D01*
X132587904Y-56800190D01*
X132540285Y-56752571D01*
X132445047Y-56704952D01*
D13*
%TO.C,J1*%
X102890000Y-35877000D02*
X102890000Y-41847000D01*
X111200000Y-41837000D02*
X113000000Y-41837000D01*
X113000000Y-41837000D02*
X113000000Y-41087000D01*
X113010000Y-41847000D02*
X113010000Y-35877000D01*
X102900000Y-41837000D02*
X104700000Y-41837000D01*
X113000000Y-41087000D02*
X111200000Y-41087000D01*
X112250000Y-39587000D02*
X112250000Y-36637000D01*
X102900000Y-41087000D02*
X102900000Y-41837000D01*
X112250000Y-36637000D02*
X107950000Y-36637000D01*
X112050000Y-42137000D02*
X113300000Y-42137000D01*
X103650000Y-36637000D02*
X107950000Y-36637000D01*
X106200000Y-41837000D02*
X109700000Y-41837000D01*
X106200000Y-41087000D02*
X106200000Y-41837000D01*
X104700000Y-41837000D02*
X104700000Y-41087000D01*
X102900000Y-39587000D02*
X103650000Y-39587000D01*
X109700000Y-41837000D02*
X109700000Y-41087000D01*
X104700000Y-41087000D02*
X102900000Y-41087000D01*
X111200000Y-41087000D02*
X111200000Y-41837000D01*
X113000000Y-39587000D02*
X112250000Y-39587000D01*
X113300000Y-42137000D02*
X113300000Y-40887000D01*
X109700000Y-41087000D02*
X106200000Y-41087000D01*
X103650000Y-39587000D02*
X103650000Y-36637000D01*
X102890000Y-41847000D02*
X113010000Y-41847000D01*
X113010000Y-35877000D02*
X102890000Y-35877000D01*
%TO.C,Q7*%
X129916000Y-86214000D02*
X129916000Y-84954000D01*
X135926000Y-86214000D02*
X129916000Y-86214000D01*
X129916000Y-79394000D02*
X129916000Y-80654000D01*
X133676000Y-79394000D02*
X129916000Y-79394000D01*
%TO.C,J6*%
X95426000Y-118540000D02*
X92026000Y-118540000D01*
X92026000Y-118540000D02*
X92026000Y-115140000D01*
X95426000Y-115140000D02*
X95426000Y-118540000D01*
X92026000Y-115140000D02*
X95426000Y-115140000D01*
%TO.C,Q9*%
X129916000Y-78594000D02*
X129916000Y-77334000D01*
X129916000Y-71774000D02*
X129916000Y-73034000D01*
X133676000Y-71774000D02*
X129916000Y-71774000D01*
X135926000Y-78594000D02*
X129916000Y-78594000D01*
%TO.C,R1*%
X95223064Y-100684000D02*
X94768936Y-100684000D01*
X95223064Y-99214000D02*
X94768936Y-99214000D01*
D14*
%TO.C,U4*%
X91164576Y-66690000D02*
X111493076Y-66690000D01*
X96421076Y-53295000D02*
X96421076Y-62294000D01*
X111493076Y-66690000D02*
X111493076Y-48890000D01*
X90493076Y-66018459D02*
X91164576Y-66690000D01*
X90493076Y-48890000D02*
X90493076Y-66018459D01*
X89742425Y-53295000D02*
X96421076Y-53295000D01*
X96421076Y-62294000D02*
X89742425Y-62294000D01*
X111493076Y-48890000D02*
X90493076Y-48890000D01*
X89742425Y-62294000D02*
X89742425Y-53295000D01*
D13*
%TO.C,J4*%
X100784000Y-112880000D02*
X101784000Y-112880000D01*
X91554000Y-113680000D02*
X92154000Y-113680000D01*
X100779000Y-112765000D02*
X101784000Y-112765000D01*
X101784000Y-116840000D02*
X100784000Y-116840000D01*
X91554000Y-118860000D02*
X91554000Y-110860000D01*
X101784000Y-112765000D02*
X101784000Y-116955000D01*
X100779000Y-116955000D02*
X100779000Y-118860000D01*
X99114000Y-116840000D02*
X99114000Y-112880000D01*
X100779000Y-118860000D02*
X91554000Y-118860000D01*
X100784000Y-116840000D02*
X100784000Y-112880000D01*
X92154000Y-113680000D02*
X92154000Y-112080000D01*
X92154000Y-117640000D02*
X92154000Y-116040000D01*
X91554000Y-110860000D02*
X100779000Y-110860000D01*
X100784000Y-116840000D02*
X99114000Y-116840000D01*
X101784000Y-116955000D02*
X100779000Y-116955000D01*
X100779000Y-110860000D02*
X100779000Y-112765000D01*
X92154000Y-116040000D02*
X91554000Y-116040000D01*
X92154000Y-112080000D02*
X91554000Y-112080000D01*
X91554000Y-117640000D02*
X92154000Y-117640000D01*
X94774000Y-119150000D02*
X98774000Y-119150000D01*
X99114000Y-112880000D02*
X100784000Y-112880000D01*
%TO.C,1k1*%
X93626000Y-104621064D02*
X93626000Y-104166936D01*
X95096000Y-104621064D02*
X95096000Y-104166936D01*
%TO.C,Q5*%
X129916000Y-93834000D02*
X129916000Y-92574000D01*
X129916000Y-87014000D02*
X129916000Y-88274000D01*
X135926000Y-93834000D02*
X129916000Y-93834000D01*
X133676000Y-87014000D02*
X129916000Y-87014000D01*
%TO.C,Q3*%
X129916000Y-101454000D02*
X129916000Y-100194000D01*
X133676000Y-94634000D02*
X129916000Y-94634000D01*
X135926000Y-101454000D02*
X129916000Y-101454000D01*
X129916000Y-94634000D02*
X129916000Y-95894000D01*
%TO.C,Q10*%
X129916000Y-41294000D02*
X129916000Y-42554000D01*
X129916000Y-48114000D02*
X129916000Y-46854000D01*
X135926000Y-48114000D02*
X129916000Y-48114000D01*
X133676000Y-41294000D02*
X129916000Y-41294000D01*
%TO.C,C1*%
X112347000Y-119461323D02*
X107617000Y-119461323D01*
X108741000Y-117981323D02*
X105902000Y-117981323D01*
X113622000Y-118501323D02*
X111223000Y-118501323D01*
X113188000Y-118901323D02*
X106776000Y-118901323D01*
X108741000Y-118221323D02*
X106090000Y-118221323D01*
X112561000Y-119341323D02*
X107403000Y-119341323D01*
X112982000Y-119061323D02*
X106982000Y-119061323D01*
X108741000Y-116301323D02*
X105085000Y-116301323D01*
X108741000Y-117381323D02*
X105520000Y-117381323D01*
X112857000Y-109460677D02*
X112857000Y-110460677D01*
X108741000Y-116421323D02*
X105120000Y-116421323D01*
X114120000Y-117901323D02*
X111223000Y-117901323D01*
X108741000Y-117301323D02*
X105478000Y-117301323D01*
X115032000Y-115500323D02*
X104932000Y-115500323D01*
X111926000Y-119661323D02*
X108038000Y-119661323D01*
X113543000Y-118581323D02*
X111223000Y-118581323D01*
X114353000Y-117541323D02*
X111223000Y-117541323D01*
X108741000Y-118341323D02*
X106193000Y-118341323D01*
X114806000Y-116541323D02*
X111223000Y-116541323D01*
X114585000Y-117101323D02*
X111223000Y-117101323D01*
X108741000Y-117541323D02*
X105611000Y-117541323D01*
X111724000Y-119741323D02*
X108240000Y-119741323D01*
X114305000Y-117621323D02*
X111223000Y-117621323D01*
X108741000Y-118541323D02*
X106381000Y-118541323D01*
X115062000Y-114980323D02*
X104902000Y-114980323D01*
X108741000Y-116261323D02*
X105075000Y-116261323D01*
X108741000Y-118101323D02*
X105993000Y-118101323D01*
X108741000Y-117781323D02*
X105761000Y-117781323D01*
X115052000Y-115260323D02*
X104912000Y-115260323D01*
X114566000Y-117141323D02*
X111223000Y-117141323D01*
X113806000Y-118301323D02*
X111223000Y-118301323D01*
X115027000Y-115540323D02*
X104937000Y-115540323D01*
X113036000Y-119021323D02*
X106928000Y-119021323D01*
X114546000Y-117181323D02*
X111223000Y-117181323D01*
X114993000Y-115781323D02*
X104971000Y-115781323D01*
X112927000Y-119101323D02*
X107037000Y-119101323D01*
X114867000Y-116341323D02*
X111223000Y-116341323D01*
X112812000Y-119181323D02*
X107152000Y-119181323D01*
X114507000Y-117261323D02*
X111223000Y-117261323D01*
X113771000Y-118341323D02*
X111223000Y-118341323D01*
X113971000Y-118101323D02*
X111223000Y-118101323D01*
X108741000Y-117581323D02*
X105635000Y-117581323D01*
X114705000Y-116821323D02*
X111223000Y-116821323D01*
X113088000Y-118981323D02*
X106876000Y-118981323D01*
X112492000Y-119381323D02*
X107472000Y-119381323D01*
X110844000Y-119981323D02*
X109120000Y-119981323D01*
X114329000Y-117581323D02*
X111223000Y-117581323D01*
X115062000Y-114940323D02*
X104902000Y-114940323D01*
X113661000Y-118461323D02*
X111223000Y-118461323D01*
X114062000Y-117981323D02*
X111223000Y-117981323D01*
X108741000Y-118621323D02*
X106462000Y-118621323D01*
X114377000Y-117501323D02*
X111223000Y-117501323D01*
X108741000Y-117941323D02*
X105872000Y-117941323D01*
X115050000Y-115300323D02*
X104914000Y-115300323D01*
X115044000Y-115380323D02*
X104920000Y-115380323D01*
X114964000Y-115941323D02*
X105000000Y-115941323D01*
X114486000Y-117301323D02*
X111223000Y-117301323D01*
X114889000Y-116261323D02*
X111223000Y-116261323D01*
X114621000Y-117021323D02*
X111223000Y-117021323D01*
X114986000Y-115821323D02*
X104978000Y-115821323D01*
X108741000Y-117261323D02*
X105457000Y-117261323D01*
X115006000Y-115701323D02*
X104958000Y-115701323D01*
X108741000Y-116941323D02*
X105308000Y-116941323D01*
X114176000Y-117821323D02*
X111223000Y-117821323D01*
X113357000Y-109960677D02*
X112357000Y-109960677D01*
X108741000Y-118181323D02*
X106057000Y-118181323D01*
X113874000Y-118221323D02*
X111223000Y-118221323D01*
X110581000Y-120021323D02*
X109383000Y-120021323D01*
X108741000Y-117341323D02*
X105499000Y-117341323D01*
X114856000Y-116381323D02*
X111223000Y-116381323D01*
X112871000Y-119141323D02*
X107093000Y-119141323D01*
X108741000Y-116381323D02*
X105108000Y-116381323D01*
X108741000Y-116901323D02*
X105292000Y-116901323D01*
X114793000Y-116581323D02*
X111223000Y-116581323D01*
X114956000Y-115981323D02*
X105008000Y-115981323D01*
X114920000Y-116141323D02*
X105044000Y-116141323D01*
X108741000Y-118061323D02*
X105962000Y-118061323D01*
X111044000Y-119941323D02*
X108920000Y-119941323D01*
X108741000Y-116861323D02*
X105275000Y-116861323D01*
X114203000Y-117781323D02*
X111223000Y-117781323D01*
X112107000Y-119581323D02*
X107857000Y-119581323D01*
X115057000Y-115180323D02*
X104907000Y-115180323D01*
X114938000Y-116061323D02*
X105026000Y-116061323D01*
X108741000Y-118261323D02*
X106124000Y-118261323D01*
X112421000Y-119421323D02*
X107543000Y-119421323D01*
X114280000Y-117661323D02*
X111223000Y-117661323D01*
X108741000Y-118581323D02*
X106421000Y-118581323D01*
X115062000Y-115020323D02*
X104902000Y-115020323D01*
X114910000Y-116181323D02*
X105054000Y-116181323D01*
X108741000Y-116221323D02*
X105064000Y-116221323D01*
X114750000Y-116701323D02*
X111223000Y-116701323D01*
X114689000Y-116861323D02*
X111223000Y-116861323D01*
X108741000Y-118501323D02*
X106342000Y-118501323D01*
X114527000Y-117221323D02*
X111223000Y-117221323D01*
X115040000Y-115420323D02*
X104924000Y-115420323D01*
X114765000Y-116661323D02*
X111223000Y-116661323D01*
X114092000Y-117941323D02*
X111223000Y-117941323D01*
X114639000Y-116981323D02*
X111223000Y-116981323D01*
X108741000Y-116701323D02*
X105214000Y-116701323D01*
X114979000Y-115861323D02*
X104985000Y-115861323D01*
X108741000Y-117141323D02*
X105398000Y-117141323D01*
X108741000Y-117501323D02*
X105587000Y-117501323D01*
X112019000Y-119621323D02*
X107945000Y-119621323D01*
X108741000Y-116341323D02*
X105097000Y-116341323D01*
X108741000Y-118021323D02*
X105932000Y-118021323D01*
X108741000Y-117021323D02*
X105343000Y-117021323D01*
X108741000Y-117861323D02*
X105816000Y-117861323D01*
X108741000Y-118141323D02*
X106025000Y-118141323D01*
X115022000Y-115580323D02*
X104942000Y-115580323D01*
X113460000Y-118661323D02*
X111223000Y-118661323D01*
X108741000Y-117621323D02*
X105659000Y-117621323D01*
X114832000Y-116461323D02*
X111223000Y-116461323D01*
X108741000Y-117421323D02*
X105542000Y-117421323D01*
X108741000Y-116541323D02*
X105158000Y-116541323D01*
X108741000Y-117181323D02*
X105418000Y-117181323D01*
X115000000Y-115741323D02*
X104964000Y-115741323D01*
X108741000Y-116661323D02*
X105199000Y-116661323D01*
X108741000Y-118661323D02*
X106504000Y-118661323D01*
X108741000Y-116621323D02*
X105185000Y-116621323D01*
X114720000Y-116781323D02*
X111223000Y-116781323D01*
X108741000Y-117221323D02*
X105437000Y-117221323D01*
X115012000Y-115661323D02*
X104952000Y-115661323D01*
X114736000Y-116741323D02*
X111223000Y-116741323D01*
X108741000Y-116981323D02*
X105325000Y-116981323D01*
X108741000Y-116461323D02*
X105132000Y-116461323D01*
X108741000Y-117701323D02*
X105709000Y-117701323D01*
X112271000Y-119501323D02*
X107693000Y-119501323D01*
X115055000Y-115220323D02*
X104909000Y-115220323D01*
X115017000Y-115620323D02*
X104947000Y-115620323D01*
X113374000Y-118741323D02*
X106590000Y-118741323D01*
X108741000Y-116741323D02*
X105228000Y-116741323D01*
X108741000Y-118381323D02*
X106229000Y-118381323D01*
X115036000Y-115460323D02*
X104928000Y-115460323D01*
X114900000Y-116221323D02*
X111223000Y-116221323D01*
X114444000Y-117381323D02*
X111223000Y-117381323D01*
X108741000Y-117661323D02*
X105684000Y-117661323D01*
X114656000Y-116941323D02*
X111223000Y-116941323D01*
X113283000Y-118821323D02*
X106681000Y-118821323D01*
X112691000Y-119261323D02*
X107273000Y-119261323D01*
X114603000Y-117061323D02*
X111223000Y-117061323D01*
X114879000Y-116301323D02*
X111223000Y-116301323D01*
X111492000Y-119821323D02*
X108472000Y-119821323D01*
X114255000Y-117701323D02*
X111223000Y-117701323D01*
X114844000Y-116421323D02*
X111223000Y-116421323D01*
X114819000Y-116501323D02*
X111223000Y-116501323D01*
X108741000Y-117901323D02*
X105844000Y-117901323D01*
X108741000Y-116781323D02*
X105244000Y-116781323D01*
X114229000Y-117741323D02*
X111223000Y-117741323D01*
X113698000Y-118421323D02*
X111223000Y-118421323D01*
X114972000Y-115901323D02*
X104992000Y-115901323D01*
X113236000Y-118861323D02*
X106728000Y-118861323D01*
X113939000Y-118141323D02*
X111223000Y-118141323D01*
X108741000Y-117741323D02*
X105735000Y-117741323D01*
X108741000Y-118421323D02*
X106266000Y-118421323D01*
X114399000Y-117461323D02*
X111223000Y-117461323D01*
X108741000Y-117101323D02*
X105379000Y-117101323D01*
X113502000Y-118621323D02*
X111223000Y-118621323D01*
X115060000Y-115100323D02*
X104904000Y-115100323D01*
X114002000Y-118061323D02*
X111223000Y-118061323D01*
X108741000Y-117461323D02*
X105565000Y-117461323D01*
X113138000Y-118941323D02*
X106826000Y-118941323D01*
X111828000Y-119701323D02*
X108136000Y-119701323D01*
X108741000Y-116581323D02*
X105171000Y-116581323D01*
X115061000Y-115060323D02*
X104903000Y-115060323D01*
X114779000Y-116621323D02*
X111223000Y-116621323D01*
X114032000Y-118021323D02*
X111223000Y-118021323D01*
X108741000Y-118301323D02*
X106158000Y-118301323D01*
X113907000Y-118181323D02*
X111223000Y-118181323D01*
X115059000Y-115140323D02*
X104905000Y-115140323D01*
X108741000Y-118461323D02*
X106303000Y-118461323D01*
X108741000Y-117061323D02*
X105361000Y-117061323D01*
X108741000Y-116501323D02*
X105145000Y-116501323D01*
X113329000Y-118781323D02*
X106635000Y-118781323D01*
X115047000Y-115340323D02*
X104917000Y-115340323D01*
X112752000Y-119221323D02*
X107212000Y-119221323D01*
X111212000Y-119901323D02*
X108752000Y-119901323D01*
X114422000Y-117421323D02*
X111223000Y-117421323D01*
X112191000Y-119541323D02*
X107773000Y-119541323D01*
X114148000Y-117861323D02*
X111223000Y-117861323D01*
X113583000Y-118541323D02*
X111223000Y-118541323D01*
X108741000Y-117821323D02*
X105788000Y-117821323D01*
X113418000Y-118701323D02*
X106546000Y-118701323D01*
X111360000Y-119861323D02*
X108604000Y-119861323D01*
X113735000Y-118381323D02*
X111223000Y-118381323D01*
X112627000Y-119301323D02*
X107337000Y-119301323D01*
X114465000Y-117341323D02*
X111223000Y-117341323D01*
X108741000Y-116821323D02*
X105259000Y-116821323D01*
X114929000Y-116101323D02*
X105035000Y-116101323D01*
X114947000Y-116021323D02*
X105017000Y-116021323D01*
X114672000Y-116901323D02*
X111223000Y-116901323D01*
X113840000Y-118261323D02*
X111223000Y-118261323D01*
X111612000Y-119781323D02*
X108352000Y-119781323D01*
X115102000Y-114940323D02*
G75*
G03*
X115102000Y-114940323I-5120000J0D01*
G01*
%TO.C,J3*%
X144846000Y-49874000D02*
X144846000Y-51674000D01*
X145606000Y-67484000D02*
X145606000Y-49864000D01*
X139636000Y-67484000D02*
X145606000Y-67484000D01*
X143346000Y-67474000D02*
X143346000Y-66724000D01*
X145896000Y-50824000D02*
X145896000Y-49574000D01*
X145596000Y-64174000D02*
X145596000Y-53174000D01*
X145896000Y-49574000D02*
X144646000Y-49574000D01*
X144846000Y-51674000D02*
X145596000Y-51674000D01*
X144846000Y-67474000D02*
X145596000Y-67474000D01*
X145596000Y-53174000D02*
X144846000Y-53174000D01*
X140396000Y-50624000D02*
X140396000Y-58674000D01*
X145596000Y-67474000D02*
X145596000Y-65674000D01*
X143346000Y-49874000D02*
X143346000Y-50624000D01*
X140396000Y-66724000D02*
X140396000Y-58674000D01*
X145596000Y-65674000D02*
X144846000Y-65674000D01*
X143346000Y-50624000D02*
X140396000Y-50624000D01*
X144846000Y-53174000D02*
X144846000Y-64174000D01*
X145596000Y-51674000D02*
X145596000Y-49874000D01*
X144846000Y-64174000D02*
X145596000Y-64174000D01*
X145596000Y-49874000D02*
X144846000Y-49874000D01*
X139636000Y-49864000D02*
X139636000Y-67484000D01*
X143346000Y-66724000D02*
X140396000Y-66724000D01*
X145606000Y-49864000D02*
X139636000Y-49864000D01*
X144846000Y-65674000D02*
X144846000Y-67474000D01*
%TO.C,Q2*%
X129916000Y-109074000D02*
X129916000Y-107814000D01*
X129916000Y-102254000D02*
X129916000Y-103514000D01*
X135926000Y-109074000D02*
X129916000Y-109074000D01*
X133676000Y-102254000D02*
X129916000Y-102254000D01*
%TO.C,10nF1*%
X95257252Y-95404000D02*
X94734748Y-95404000D01*
X95257252Y-96874000D02*
X94734748Y-96874000D01*
%TO.C,U1*%
X110883000Y-96914000D02*
X109933000Y-96914000D01*
X109933000Y-96914000D02*
X109933000Y-91789000D01*
X100483000Y-98414000D02*
X100483000Y-96914000D01*
X101433000Y-96914000D02*
X101433000Y-95814000D01*
X100483000Y-96914000D02*
X101433000Y-96914000D01*
X110883000Y-98414000D02*
X110883000Y-96914000D01*
%TO.C,C2*%
X93857677Y-86980000D02*
X93857677Y-83410000D01*
X92937677Y-80928000D02*
X92937677Y-77774000D01*
X91577677Y-85423000D02*
X91577677Y-78915000D01*
X92057677Y-80928000D02*
X92057677Y-78416000D01*
X92137677Y-80928000D02*
X92137677Y-78345000D01*
X94057677Y-80928000D02*
X94057677Y-77295000D01*
X91017677Y-84608000D02*
X91017677Y-79730000D01*
X92337677Y-86158000D02*
X92337677Y-83410000D01*
X93577677Y-86876000D02*
X93577677Y-83410000D01*
X93377677Y-80928000D02*
X93377677Y-77548000D01*
X92817677Y-86492000D02*
X92817677Y-83410000D01*
X94217677Y-87087000D02*
X94217677Y-83410000D01*
X92057677Y-85922000D02*
X92057677Y-83410000D01*
X93817677Y-80928000D02*
X93817677Y-77372000D01*
X93657677Y-86907000D02*
X93657677Y-83410000D01*
X90897677Y-84378000D02*
X90897677Y-79960000D01*
X93257677Y-86733000D02*
X93257677Y-83410000D01*
X92457677Y-80928000D02*
X92457677Y-78089000D01*
X93297677Y-80928000D02*
X93297677Y-77585000D01*
X92017677Y-80928000D02*
X92017677Y-78453000D01*
X91217677Y-84939000D02*
X91217677Y-79399000D01*
X93257677Y-80928000D02*
X93257677Y-77605000D01*
X94377677Y-87125000D02*
X94377677Y-77213000D01*
X94657677Y-87180000D02*
X94657677Y-77158000D01*
X93417677Y-86808000D02*
X93417677Y-83410000D01*
X93617677Y-86892000D02*
X93617677Y-83410000D01*
X95138677Y-87237000D02*
X95138677Y-77101000D01*
X92017677Y-85885000D02*
X92017677Y-83410000D01*
X95298677Y-87246000D02*
X95298677Y-77092000D01*
X94978677Y-87223000D02*
X94978677Y-77115000D01*
X94617677Y-87173000D02*
X94617677Y-77165000D01*
X93177677Y-86694000D02*
X93177677Y-83410000D01*
X91737677Y-85605000D02*
X91737677Y-78733000D01*
X93217677Y-80928000D02*
X93217677Y-77624000D01*
X92297677Y-80928000D02*
X92297677Y-78212000D01*
X94577677Y-87166000D02*
X94577677Y-77172000D01*
X93097677Y-86652000D02*
X93097677Y-83410000D01*
X92817677Y-80928000D02*
X92817677Y-77846000D01*
X93937677Y-87006000D02*
X93937677Y-83410000D01*
X94737677Y-87193000D02*
X94737677Y-77145000D01*
X94217677Y-80928000D02*
X94217677Y-77251000D01*
X92177677Y-80928000D02*
X92177677Y-78311000D01*
X91657677Y-85516000D02*
X91657677Y-78822000D01*
X92777677Y-80928000D02*
X92777677Y-77871000D01*
X91817677Y-80928000D02*
X91817677Y-78649000D01*
X91057677Y-84679000D02*
X91057677Y-79659000D01*
X95098677Y-87234000D02*
X95098677Y-77104000D01*
X93577677Y-80928000D02*
X93577677Y-77462000D01*
X94457677Y-87143000D02*
X94457677Y-77195000D01*
X92257677Y-86094000D02*
X92257677Y-83410000D01*
X92217677Y-80928000D02*
X92217677Y-78277000D01*
X94057677Y-87043000D02*
X94057677Y-83410000D01*
X92897677Y-86540000D02*
X92897677Y-83410000D01*
X92097677Y-80928000D02*
X92097677Y-78380000D01*
X91937677Y-80928000D02*
X91937677Y-78529000D01*
X94097677Y-80928000D02*
X94097677Y-77284000D01*
X95178677Y-87239000D02*
X95178677Y-77099000D01*
X92297677Y-86126000D02*
X92297677Y-83410000D01*
X93697677Y-86923000D02*
X93697677Y-83410000D01*
X94417677Y-87134000D02*
X94417677Y-77204000D01*
X91137677Y-84814000D02*
X91137677Y-79524000D01*
X93337677Y-86772000D02*
X93337677Y-83410000D01*
X93777677Y-80928000D02*
X93777677Y-77386000D01*
X91777677Y-80928000D02*
X91777677Y-78691000D01*
X92537677Y-86307000D02*
X92537677Y-83410000D01*
X93457677Y-86826000D02*
X93457677Y-83410000D01*
X91497677Y-85325000D02*
X91497677Y-79013000D01*
X94537677Y-87159000D02*
X94537677Y-77179000D01*
X91977677Y-80928000D02*
X91977677Y-78490000D01*
X93777677Y-86952000D02*
X93777677Y-83410000D01*
X93097677Y-80928000D02*
X93097677Y-77686000D01*
X93937677Y-80928000D02*
X93937677Y-77332000D01*
X93377677Y-86790000D02*
X93377677Y-83410000D01*
X91777677Y-85647000D02*
X91777677Y-83410000D01*
X93657677Y-80928000D02*
X93657677Y-77431000D01*
X93737677Y-86937000D02*
X93737677Y-83410000D01*
X92777677Y-86467000D02*
X92777677Y-83410000D01*
X92457677Y-86249000D02*
X92457677Y-83410000D01*
X93017677Y-80928000D02*
X93017677Y-77729000D01*
X90457677Y-83031000D02*
X90457677Y-81307000D01*
X93617677Y-80928000D02*
X93617677Y-77446000D01*
X94017677Y-87031000D02*
X94017677Y-83410000D01*
X93857677Y-80928000D02*
X93857677Y-77358000D01*
X92657677Y-80928000D02*
X92657677Y-77948000D01*
X91817677Y-85689000D02*
X91817677Y-83410000D01*
X92497677Y-80928000D02*
X92497677Y-78059000D01*
X90817677Y-84206000D02*
X90817677Y-80132000D01*
X93537677Y-80928000D02*
X93537677Y-77479000D01*
X91097677Y-84748000D02*
X91097677Y-79590000D01*
X94497677Y-87151000D02*
X94497677Y-77187000D01*
X92257677Y-80928000D02*
X92257677Y-78244000D01*
X95218677Y-87242000D02*
X95218677Y-77096000D01*
X93977677Y-87019000D02*
X93977677Y-83410000D01*
X93137677Y-80928000D02*
X93137677Y-77665000D01*
X93537677Y-86859000D02*
X93537677Y-83410000D01*
X93457677Y-80928000D02*
X93457677Y-77512000D01*
X91697677Y-85561000D02*
X91697677Y-78777000D01*
X91897677Y-85770000D02*
X91897677Y-83410000D01*
X92177677Y-86027000D02*
X92177677Y-83410000D01*
X95258677Y-87244000D02*
X95258677Y-77094000D01*
X91857677Y-85730000D02*
X91857677Y-83410000D01*
X91457677Y-85275000D02*
X91457677Y-79063000D01*
X92337677Y-80928000D02*
X92337677Y-78180000D01*
X93417677Y-80928000D02*
X93417677Y-77530000D01*
X93057677Y-80928000D02*
X93057677Y-77707000D01*
X90417677Y-82768000D02*
X90417677Y-81570000D01*
X95458677Y-87249000D02*
X95458677Y-77089000D01*
X94938677Y-87219000D02*
X94938677Y-77119000D01*
X94337677Y-87116000D02*
X94337677Y-77222000D01*
X93217677Y-86714000D02*
X93217677Y-83410000D01*
X91297677Y-85058000D02*
X91297677Y-79280000D01*
X90497677Y-83231000D02*
X90497677Y-81107000D01*
X93137677Y-86673000D02*
X93137677Y-83410000D01*
X95058677Y-87231000D02*
X95058677Y-77107000D01*
X93177677Y-80928000D02*
X93177677Y-77644000D01*
X91617677Y-85470000D02*
X91617677Y-78868000D01*
X94177677Y-87076000D02*
X94177677Y-83410000D01*
X95418677Y-87249000D02*
X95418677Y-77089000D01*
X91937677Y-85809000D02*
X91937677Y-83410000D01*
X94137677Y-87066000D02*
X94137677Y-83410000D01*
X93817677Y-86966000D02*
X93817677Y-83410000D01*
X92977677Y-80928000D02*
X92977677Y-77752000D01*
X91177677Y-84878000D02*
X91177677Y-79460000D01*
X91337677Y-85114000D02*
X91337677Y-79224000D01*
X93017677Y-86609000D02*
X93017677Y-83410000D01*
X92497677Y-86279000D02*
X92497677Y-83410000D01*
X90577677Y-83547000D02*
X90577677Y-80791000D01*
X90937677Y-84458000D02*
X90937677Y-79880000D01*
X90737677Y-84015000D02*
X90737677Y-80323000D01*
X92377677Y-86189000D02*
X92377677Y-83410000D01*
X92137677Y-85993000D02*
X92137677Y-83410000D01*
X92577677Y-80928000D02*
X92577677Y-78003000D01*
X94097677Y-87054000D02*
X94097677Y-83410000D01*
X90857677Y-84294000D02*
X90857677Y-80044000D01*
X92417677Y-80928000D02*
X92417677Y-78119000D01*
X92377677Y-80928000D02*
X92377677Y-78149000D01*
X90657677Y-83799000D02*
X90657677Y-80539000D01*
X100978323Y-85044000D02*
X99978323Y-85044000D01*
X90977677Y-84534000D02*
X90977677Y-79804000D01*
X92977677Y-86586000D02*
X92977677Y-83410000D01*
X92737677Y-80928000D02*
X92737677Y-77896000D01*
X92617677Y-86363000D02*
X92617677Y-83410000D01*
X95498677Y-87249000D02*
X95498677Y-77089000D01*
X100478323Y-85544000D02*
X100478323Y-84544000D01*
X90617677Y-83679000D02*
X90617677Y-80659000D01*
X91257677Y-84999000D02*
X91257677Y-79339000D01*
X91417677Y-85223000D02*
X91417677Y-79115000D01*
X94017677Y-80928000D02*
X94017677Y-77307000D01*
X93057677Y-86631000D02*
X93057677Y-83410000D01*
X94257677Y-87097000D02*
X94257677Y-77241000D01*
X93897677Y-86993000D02*
X93897677Y-83410000D01*
X90697677Y-83911000D02*
X90697677Y-80427000D01*
X92697677Y-80928000D02*
X92697677Y-77922000D01*
X92417677Y-86219000D02*
X92417677Y-83410000D01*
X92897677Y-80928000D02*
X92897677Y-77798000D01*
X94137677Y-80928000D02*
X94137677Y-77272000D01*
X90777677Y-84113000D02*
X90777677Y-80225000D01*
X92857677Y-86516000D02*
X92857677Y-83410000D01*
X93497677Y-80928000D02*
X93497677Y-77495000D01*
X92617677Y-80928000D02*
X92617677Y-77975000D01*
X92217677Y-86061000D02*
X92217677Y-83410000D01*
X92937677Y-86564000D02*
X92937677Y-83410000D01*
X93897677Y-80928000D02*
X93897677Y-77345000D01*
X93297677Y-86753000D02*
X93297677Y-83410000D01*
X92657677Y-86390000D02*
X92657677Y-83410000D01*
X94858677Y-87209000D02*
X94858677Y-77129000D01*
X94777677Y-87199000D02*
X94777677Y-77139000D01*
X93697677Y-80928000D02*
X93697677Y-77415000D01*
X94898677Y-87214000D02*
X94898677Y-77124000D01*
X91377677Y-85169000D02*
X91377677Y-79169000D01*
X93977677Y-80928000D02*
X93977677Y-77319000D01*
X90537677Y-83399000D02*
X90537677Y-80939000D01*
X91857677Y-80928000D02*
X91857677Y-78608000D01*
X92857677Y-80928000D02*
X92857677Y-77822000D01*
X93497677Y-86843000D02*
X93497677Y-83410000D01*
X92577677Y-86335000D02*
X92577677Y-83410000D01*
X91977677Y-85848000D02*
X91977677Y-83410000D01*
X95018677Y-87227000D02*
X95018677Y-77111000D01*
X92097677Y-85958000D02*
X92097677Y-83410000D01*
X91897677Y-80928000D02*
X91897677Y-78568000D01*
X95378677Y-87248000D02*
X95378677Y-77090000D01*
X92737677Y-86442000D02*
X92737677Y-83410000D01*
X95338677Y-87247000D02*
X95338677Y-77091000D01*
X92537677Y-80928000D02*
X92537677Y-78031000D01*
X91537677Y-85375000D02*
X91537677Y-78963000D01*
X94697677Y-87187000D02*
X94697677Y-77151000D01*
X94818677Y-87204000D02*
X94818677Y-77134000D01*
X94177677Y-80928000D02*
X94177677Y-77262000D01*
X93737677Y-80928000D02*
X93737677Y-77401000D01*
X93337677Y-80928000D02*
X93337677Y-77566000D01*
X94297677Y-87107000D02*
X94297677Y-77231000D01*
X92697677Y-86416000D02*
X92697677Y-83410000D01*
X100618677Y-82169000D02*
G75*
G03*
X100618677Y-82169000I-5120000J0D01*
G01*
%TO.C,Q1*%
X129916000Y-109874000D02*
X129916000Y-111134000D01*
X135926000Y-116694000D02*
X129916000Y-116694000D01*
X129916000Y-116694000D02*
X129916000Y-115434000D01*
X133676000Y-109874000D02*
X129916000Y-109874000D01*
%TO.C,Q4*%
X135926000Y-70974000D02*
X129916000Y-70974000D01*
X129916000Y-70974000D02*
X129916000Y-69714000D01*
X129916000Y-64154000D02*
X129916000Y-65414000D01*
X133676000Y-64154000D02*
X129916000Y-64154000D01*
%TO.C,J5*%
X95426000Y-111203000D02*
X95426000Y-114603000D01*
X95426000Y-114603000D02*
X92026000Y-114603000D01*
X92026000Y-114603000D02*
X92026000Y-111203000D01*
X92026000Y-111203000D02*
X95426000Y-111203000D01*
%TO.C,L1*%
X102801000Y-86429000D02*
X102801000Y-83679000D01*
X110256563Y-77909000D02*
X102801000Y-77909000D01*
X111321000Y-78973437D02*
X111321000Y-80659000D01*
X112561000Y-84679000D02*
X111561000Y-84679000D01*
X102801000Y-77909000D02*
X102801000Y-80659000D01*
X110256563Y-86429000D02*
X102801000Y-86429000D01*
X111321000Y-85364563D02*
X111321000Y-83679000D01*
X112061000Y-85179000D02*
X112061000Y-84179000D01*
X111321000Y-85364563D02*
X110256563Y-86429000D01*
X111321000Y-78973437D02*
X110256563Y-77909000D01*
%TO.C,D1*%
X110591000Y-87569000D02*
X106931000Y-87569000D01*
X110591000Y-89469000D02*
X106931000Y-89469000D01*
X110591000Y-89469000D02*
X110591000Y-87569000D01*
%TO.C,Q6*%
X129916000Y-56534000D02*
X129916000Y-57794000D01*
X133676000Y-56534000D02*
X129916000Y-56534000D01*
X135926000Y-63354000D02*
X129916000Y-63354000D01*
X129916000Y-63354000D02*
X129916000Y-62094000D01*
%TO.C,J2*%
X145596000Y-105574000D02*
X145596000Y-103774000D01*
X145596000Y-103774000D02*
X144846000Y-103774000D01*
X140396000Y-88724000D02*
X140396000Y-96774000D01*
X145896000Y-87674000D02*
X144646000Y-87674000D01*
X145596000Y-87974000D02*
X144846000Y-87974000D01*
X145596000Y-89774000D02*
X145596000Y-87974000D01*
X145596000Y-102274000D02*
X145596000Y-91274000D01*
X140396000Y-104824000D02*
X140396000Y-96774000D01*
X145896000Y-88924000D02*
X145896000Y-87674000D01*
X144846000Y-102274000D02*
X145596000Y-102274000D01*
X144846000Y-103774000D02*
X144846000Y-105574000D01*
X144846000Y-87974000D02*
X144846000Y-89774000D01*
X144846000Y-89774000D02*
X145596000Y-89774000D01*
X145606000Y-87964000D02*
X139636000Y-87964000D01*
X144846000Y-105574000D02*
X145596000Y-105574000D01*
X144846000Y-91274000D02*
X144846000Y-102274000D01*
X145596000Y-91274000D02*
X144846000Y-91274000D01*
X143346000Y-87974000D02*
X143346000Y-88724000D01*
X139636000Y-87964000D02*
X139636000Y-105584000D01*
X143346000Y-105574000D02*
X143346000Y-104824000D01*
X139636000Y-105584000D02*
X145606000Y-105584000D01*
X145606000Y-105584000D02*
X145606000Y-87964000D01*
X143346000Y-88724000D02*
X140396000Y-88724000D01*
X143346000Y-104824000D02*
X140396000Y-104824000D01*
%TO.C,Q8*%
X135926000Y-55734000D02*
X129916000Y-55734000D01*
X129916000Y-55734000D02*
X129916000Y-54474000D01*
X129916000Y-48914000D02*
X129916000Y-50174000D01*
X133676000Y-48914000D02*
X129916000Y-48914000D01*
%TD*%
M02*
