M48
; DRILL file {KiCad (6.0.6-0)} date 2024 July 06, Saturday 11:12:19
; FORMAT={-:-/ absolute / inch / decimal}
; #@! TF.CreationDate,2024-07-06T11:12:19+02:00
; #@! TF.GenerationSoftware,Kicad,Pcbnew,(6.0.6-0)
; #@! TF.FileFunction,Plated,1,2,PTH
FMAT,2
INCH
; #@! TA.AperFunction,Plated,PTH,ViaDrill
T1C0.0315
; #@! TA.AperFunction,Plated,PTH,ComponentDrill
T2C0.0374
; #@! TA.AperFunction,Plated,PTH,ComponentDrill
T3C0.0394
; #@! TA.AperFunction,Plated,PTH,ViaDrill
T4C0.0591
; #@! TA.AperFunction,Plated,PTH,ComponentDrill
T5C0.0669
%
G90
G05
T1
X3.89Y-3.685
X4.165Y-3.56
T2
X4.1516Y-1.5507
X4.25Y-1.5507
X4.3484Y-1.5507
X5.6357Y-2.0639
X5.6357Y-2.1624
X5.6357Y-2.2608
X5.6357Y-2.3592
X5.6357Y-2.4576
X5.6357Y-2.5561
X5.6357Y-3.5639
X5.6357Y-3.6624
X5.6357Y-3.7608
X5.6357Y-3.8592
X5.6357Y-3.9576
X5.6357Y-4.0561
T3
X3.6614Y-3.235
X3.8582Y-3.235
X4.33Y-4.4268
X4.33Y-4.6236
T4
X3.69Y-1.635
X3.865Y-4.135
X4.915Y-1.76
X4.915Y-2.06
X4.915Y-2.36
X4.915Y-2.66
X4.915Y-2.96
X4.915Y-3.26
X4.915Y-3.56
X4.915Y-3.86
X4.915Y-4.16
X4.915Y-4.46
T5
X3.81Y-4.4441
X3.81Y-4.6
T0
M30
