%TF.GenerationSoftware,KiCad,Pcbnew,(6.0.6-0)*%
%TF.CreationDate,2025-03-25T10:56:26+01:00*%
%TF.ProjectId,5outputs,356f7574-7075-4747-932e-6b696361645f,rev?*%
%TF.SameCoordinates,Original*%
%TF.FileFunction,Legend,Top*%
%TF.FilePolarity,Positive*%
%FSLAX46Y46*%
G04 Gerber Fmt 4.6, Leading zero omitted, Abs format (unit mm)*
G04 Created by KiCad (PCBNEW (6.0.6-0)) date 2025-03-25 10:56:26*
%MOMM*%
%LPD*%
G01*
G04 APERTURE LIST*
%ADD10C,0.300000*%
%ADD11C,0.150000*%
%ADD12C,0.120000*%
G04 APERTURE END LIST*
D10*
X194393428Y-64095428D02*
X194393428Y-63238285D01*
X194393428Y-63666857D02*
X195893428Y-63666857D01*
X195679142Y-63524000D01*
X195536285Y-63381142D01*
X195464857Y-63238285D01*
X195750571Y-64666857D02*
X195822000Y-64738285D01*
X195893428Y-64881142D01*
X195893428Y-65238285D01*
X195822000Y-65381142D01*
X195750571Y-65452571D01*
X195607714Y-65524000D01*
X195464857Y-65524000D01*
X195250571Y-65452571D01*
X194393428Y-64595428D01*
X194393428Y-65524000D01*
X195893428Y-65952571D02*
X194393428Y-66452571D01*
X195893428Y-66952571D01*
X230136000Y-77077142D02*
X230064571Y-77220000D01*
X230064571Y-77434285D01*
X230136000Y-77648571D01*
X230278857Y-77791428D01*
X230421714Y-77862857D01*
X230707428Y-77934285D01*
X230921714Y-77934285D01*
X231207428Y-77862857D01*
X231350285Y-77791428D01*
X231493142Y-77648571D01*
X231564571Y-77434285D01*
X231564571Y-77291428D01*
X231493142Y-77077142D01*
X231421714Y-77005714D01*
X230921714Y-77005714D01*
X230921714Y-77291428D01*
X195893428Y-71747142D02*
X194393428Y-72104285D01*
X195464857Y-72390000D01*
X194393428Y-72675714D01*
X195893428Y-73032857D01*
X231056571Y-45124571D02*
X231056571Y-45981714D01*
X231056571Y-45553142D02*
X229556571Y-45553142D01*
X229770857Y-45696000D01*
X229913714Y-45838857D01*
X229985142Y-45981714D01*
X229699428Y-44553142D02*
X229628000Y-44481714D01*
X229556571Y-44338857D01*
X229556571Y-43981714D01*
X229628000Y-43838857D01*
X229699428Y-43767428D01*
X229842285Y-43696000D01*
X229985142Y-43696000D01*
X230199428Y-43767428D01*
X231056571Y-44624571D01*
X231056571Y-43696000D01*
X229556571Y-43267428D02*
X231056571Y-42767428D01*
X229556571Y-42267428D01*
X231564571Y-79799714D02*
X230850285Y-80299714D01*
X231564571Y-80656857D02*
X230064571Y-80656857D01*
X230064571Y-80085428D01*
X230136000Y-79942571D01*
X230207428Y-79871142D01*
X230350285Y-79799714D01*
X230564571Y-79799714D01*
X230707428Y-79871142D01*
X230778857Y-79942571D01*
X230850285Y-80085428D01*
X230850285Y-80656857D01*
X230064571Y-72778857D02*
X231564571Y-72421714D01*
X230493142Y-72136000D01*
X231564571Y-71850285D01*
X230064571Y-71493142D01*
X231564571Y-65952571D02*
X231564571Y-66809714D01*
X231564571Y-66381142D02*
X230064571Y-66381142D01*
X230278857Y-66524000D01*
X230421714Y-66666857D01*
X230493142Y-66809714D01*
X230207428Y-65381142D02*
X230136000Y-65309714D01*
X230064571Y-65166857D01*
X230064571Y-64809714D01*
X230136000Y-64666857D01*
X230207428Y-64595428D01*
X230350285Y-64524000D01*
X230493142Y-64524000D01*
X230707428Y-64595428D01*
X231564571Y-65452571D01*
X231564571Y-64524000D01*
X230064571Y-64095428D02*
X231564571Y-63595428D01*
X230064571Y-63095428D01*
X230064571Y-70842000D02*
X231564571Y-70484857D01*
X230493142Y-70199142D01*
X231564571Y-69913428D01*
X230064571Y-69556285D01*
X230064571Y-69127714D02*
X231564571Y-68770571D01*
X230493142Y-68484857D01*
X231564571Y-68199142D01*
X230064571Y-67842000D01*
X194393428Y-80474285D02*
X195107714Y-79974285D01*
X194393428Y-79617142D02*
X195893428Y-79617142D01*
X195893428Y-80188571D01*
X195822000Y-80331428D01*
X195750571Y-80402857D01*
X195607714Y-80474285D01*
X195393428Y-80474285D01*
X195250571Y-80402857D01*
X195179142Y-80331428D01*
X195107714Y-80188571D01*
X195107714Y-79617142D01*
X230778857Y-74568857D02*
X230850285Y-74354571D01*
X230921714Y-74283142D01*
X231064571Y-74211714D01*
X231278857Y-74211714D01*
X231421714Y-74283142D01*
X231493142Y-74354571D01*
X231564571Y-74497428D01*
X231564571Y-75068857D01*
X230064571Y-75068857D01*
X230064571Y-74568857D01*
X230136000Y-74426000D01*
X230207428Y-74354571D01*
X230350285Y-74283142D01*
X230493142Y-74283142D01*
X230636000Y-74354571D01*
X230707428Y-74426000D01*
X230778857Y-74568857D01*
X230778857Y-75068857D01*
X195822000Y-77608857D02*
X195893428Y-77466000D01*
X195893428Y-77251714D01*
X195822000Y-77037428D01*
X195679142Y-76894571D01*
X195536285Y-76823142D01*
X195250571Y-76751714D01*
X195036285Y-76751714D01*
X194750571Y-76823142D01*
X194607714Y-76894571D01*
X194464857Y-77037428D01*
X194393428Y-77251714D01*
X194393428Y-77394571D01*
X194464857Y-77608857D01*
X194536285Y-77680285D01*
X195036285Y-77680285D01*
X195036285Y-77394571D01*
X195179142Y-74783142D02*
X195107714Y-74997428D01*
X195036285Y-75068857D01*
X194893428Y-75140285D01*
X194679142Y-75140285D01*
X194536285Y-75068857D01*
X194464857Y-74997428D01*
X194393428Y-74854571D01*
X194393428Y-74283142D01*
X195893428Y-74283142D01*
X195893428Y-74783142D01*
X195822000Y-74926000D01*
X195750571Y-74997428D01*
X195607714Y-75068857D01*
X195464857Y-75068857D01*
X195322000Y-74997428D01*
X195250571Y-74926000D01*
X195179142Y-74783142D01*
X195179142Y-74283142D01*
X229628000Y-50672857D02*
X229556571Y-50815714D01*
X229556571Y-51030000D01*
X229628000Y-51244285D01*
X229770857Y-51387142D01*
X229913714Y-51458571D01*
X230199428Y-51530000D01*
X230413714Y-51530000D01*
X230699428Y-51458571D01*
X230842285Y-51387142D01*
X230985142Y-51244285D01*
X231056571Y-51030000D01*
X231056571Y-50887142D01*
X230985142Y-50672857D01*
X230913714Y-50601428D01*
X230413714Y-50601428D01*
X230413714Y-50887142D01*
X231056571Y-49958571D02*
X229556571Y-49958571D01*
X231056571Y-49101428D01*
X229556571Y-49101428D01*
X231056571Y-48387142D02*
X229556571Y-48387142D01*
X229556571Y-48030000D01*
X229628000Y-47815714D01*
X229770857Y-47672857D01*
X229913714Y-47601428D01*
X230199428Y-47530000D01*
X230413714Y-47530000D01*
X230699428Y-47601428D01*
X230842285Y-47672857D01*
X230985142Y-47815714D01*
X231056571Y-48030000D01*
X231056571Y-48387142D01*
X203653142Y-33229357D02*
X204153142Y-33229357D01*
X204367428Y-34015071D02*
X203653142Y-34015071D01*
X203653142Y-32515071D01*
X204367428Y-32515071D01*
X204938857Y-33943642D02*
X205153142Y-34015071D01*
X205510285Y-34015071D01*
X205653142Y-33943642D01*
X205724571Y-33872214D01*
X205796000Y-33729357D01*
X205796000Y-33586500D01*
X205724571Y-33443642D01*
X205653142Y-33372214D01*
X205510285Y-33300785D01*
X205224571Y-33229357D01*
X205081714Y-33157928D01*
X205010285Y-33086500D01*
X204938857Y-32943642D01*
X204938857Y-32800785D01*
X205010285Y-32657928D01*
X205081714Y-32586500D01*
X205224571Y-32515071D01*
X205581714Y-32515071D01*
X205796000Y-32586500D01*
X206438857Y-34015071D02*
X206438857Y-32515071D01*
X207010285Y-32515071D01*
X207153142Y-32586500D01*
X207224571Y-32657928D01*
X207296000Y-32800785D01*
X207296000Y-33015071D01*
X207224571Y-33157928D01*
X207153142Y-33229357D01*
X207010285Y-33300785D01*
X206438857Y-33300785D01*
X207796000Y-32515071D02*
X208724571Y-32515071D01*
X208224571Y-33086500D01*
X208438857Y-33086500D01*
X208581714Y-33157928D01*
X208653142Y-33229357D01*
X208724571Y-33372214D01*
X208724571Y-33729357D01*
X208653142Y-33872214D01*
X208581714Y-33943642D01*
X208438857Y-34015071D01*
X208010285Y-34015071D01*
X207867428Y-33943642D01*
X207796000Y-33872214D01*
X209296000Y-32657928D02*
X209367428Y-32586500D01*
X209510285Y-32515071D01*
X209867428Y-32515071D01*
X210010285Y-32586500D01*
X210081714Y-32657928D01*
X210153142Y-32800785D01*
X210153142Y-32943642D01*
X210081714Y-33157928D01*
X209224571Y-34015071D01*
X210153142Y-34015071D01*
X210796000Y-33443642D02*
X211938857Y-33443642D01*
X213510285Y-33872214D02*
X213438857Y-33943642D01*
X213224571Y-34015071D01*
X213081714Y-34015071D01*
X212867428Y-33943642D01*
X212724571Y-33800785D01*
X212653142Y-33657928D01*
X212581714Y-33372214D01*
X212581714Y-33157928D01*
X212653142Y-32872214D01*
X212724571Y-32729357D01*
X212867428Y-32586500D01*
X213081714Y-32515071D01*
X213224571Y-32515071D01*
X213438857Y-32586500D01*
X213510285Y-32657928D01*
X214010285Y-32515071D02*
X214938857Y-32515071D01*
X214438857Y-33086500D01*
X214653142Y-33086500D01*
X214796000Y-33157928D01*
X214867428Y-33229357D01*
X214938857Y-33372214D01*
X214938857Y-33729357D01*
X214867428Y-33872214D01*
X214796000Y-33943642D01*
X214653142Y-34015071D01*
X214224571Y-34015071D01*
X214081714Y-33943642D01*
X214010285Y-33872214D01*
X216653142Y-32443642D02*
X215367428Y-34372214D01*
X217081714Y-33943642D02*
X217296000Y-34015071D01*
X217653142Y-34015071D01*
X217796000Y-33943642D01*
X217867428Y-33872214D01*
X217938857Y-33729357D01*
X217938857Y-33586500D01*
X217867428Y-33443642D01*
X217796000Y-33372214D01*
X217653142Y-33300785D01*
X217367428Y-33229357D01*
X217224571Y-33157928D01*
X217153142Y-33086500D01*
X217081714Y-32943642D01*
X217081714Y-32800785D01*
X217153142Y-32657928D01*
X217224571Y-32586500D01*
X217367428Y-32515071D01*
X217724571Y-32515071D01*
X217938857Y-32586500D01*
X218438857Y-32515071D02*
X219367428Y-32515071D01*
X218867428Y-33086500D01*
X219081714Y-33086500D01*
X219224571Y-33157928D01*
X219296000Y-33229357D01*
X219367428Y-33372214D01*
X219367428Y-33729357D01*
X219296000Y-33872214D01*
X219224571Y-33943642D01*
X219081714Y-34015071D01*
X218653142Y-34015071D01*
X218510285Y-33943642D01*
X218438857Y-33872214D01*
X221010285Y-32515071D02*
X222010285Y-34015071D01*
X222010285Y-32515071D02*
X221010285Y-34015071D01*
X222581714Y-34015071D02*
X222581714Y-32515071D01*
X223224571Y-33586500D02*
X223938857Y-33586500D01*
X223081714Y-34015071D02*
X223581714Y-32515071D01*
X224081714Y-34015071D01*
X224867428Y-32515071D02*
X225153142Y-32515071D01*
X225296000Y-32586500D01*
X225438857Y-32729357D01*
X225510285Y-33015071D01*
X225510285Y-33515071D01*
X225438857Y-33800785D01*
X225296000Y-33943642D01*
X225153142Y-34015071D01*
X224867428Y-34015071D01*
X224724571Y-33943642D01*
X224581714Y-33800785D01*
X224510285Y-33515071D01*
X224510285Y-33015071D01*
X224581714Y-32729357D01*
X224724571Y-32586500D01*
X224867428Y-32515071D01*
X204367428Y-34930071D02*
X203653142Y-34930071D01*
X203581714Y-35644357D01*
X203653142Y-35572928D01*
X203796000Y-35501500D01*
X204153142Y-35501500D01*
X204296000Y-35572928D01*
X204367428Y-35644357D01*
X204438857Y-35787214D01*
X204438857Y-36144357D01*
X204367428Y-36287214D01*
X204296000Y-36358642D01*
X204153142Y-36430071D01*
X203796000Y-36430071D01*
X203653142Y-36358642D01*
X203581714Y-36287214D01*
X206438857Y-36430071D02*
X206296000Y-36358642D01*
X206224571Y-36287214D01*
X206153142Y-36144357D01*
X206153142Y-35715785D01*
X206224571Y-35572928D01*
X206296000Y-35501500D01*
X206438857Y-35430071D01*
X206653142Y-35430071D01*
X206796000Y-35501500D01*
X206867428Y-35572928D01*
X206938857Y-35715785D01*
X206938857Y-36144357D01*
X206867428Y-36287214D01*
X206796000Y-36358642D01*
X206653142Y-36430071D01*
X206438857Y-36430071D01*
X208224571Y-35430071D02*
X208224571Y-36430071D01*
X207581714Y-35430071D02*
X207581714Y-36215785D01*
X207653142Y-36358642D01*
X207796000Y-36430071D01*
X208010285Y-36430071D01*
X208153142Y-36358642D01*
X208224571Y-36287214D01*
X208724571Y-35430071D02*
X209296000Y-35430071D01*
X208938857Y-34930071D02*
X208938857Y-36215785D01*
X209010285Y-36358642D01*
X209153142Y-36430071D01*
X209296000Y-36430071D01*
X209796000Y-35430071D02*
X209796000Y-36930071D01*
X209796000Y-35501500D02*
X209938857Y-35430071D01*
X210224571Y-35430071D01*
X210367428Y-35501500D01*
X210438857Y-35572928D01*
X210510285Y-35715785D01*
X210510285Y-36144357D01*
X210438857Y-36287214D01*
X210367428Y-36358642D01*
X210224571Y-36430071D01*
X209938857Y-36430071D01*
X209796000Y-36358642D01*
X211796000Y-35430071D02*
X211796000Y-36430071D01*
X211153142Y-35430071D02*
X211153142Y-36215785D01*
X211224571Y-36358642D01*
X211367428Y-36430071D01*
X211581714Y-36430071D01*
X211724571Y-36358642D01*
X211796000Y-36287214D01*
X212296000Y-35430071D02*
X212867428Y-35430071D01*
X212510285Y-34930071D02*
X212510285Y-36215785D01*
X212581714Y-36358642D01*
X212724571Y-36430071D01*
X212867428Y-36430071D01*
X213296000Y-36358642D02*
X213438857Y-36430071D01*
X213724571Y-36430071D01*
X213867428Y-36358642D01*
X213938857Y-36215785D01*
X213938857Y-36144357D01*
X213867428Y-36001500D01*
X213724571Y-35930071D01*
X213510285Y-35930071D01*
X213367428Y-35858642D01*
X213296000Y-35715785D01*
X213296000Y-35644357D01*
X213367428Y-35501500D01*
X213510285Y-35430071D01*
X213724571Y-35430071D01*
X213867428Y-35501500D01*
X215724571Y-35858642D02*
X216867428Y-35858642D01*
X218581714Y-35430071D02*
X218938857Y-36430071D01*
X219296000Y-35430071D01*
X220653142Y-36430071D02*
X219796000Y-36430071D01*
X220224571Y-36430071D02*
X220224571Y-34930071D01*
X220081714Y-35144357D01*
X219938857Y-35287214D01*
X219796000Y-35358642D01*
X221296000Y-36287214D02*
X221367428Y-36358642D01*
X221296000Y-36430071D01*
X221224571Y-36358642D01*
X221296000Y-36287214D01*
X221296000Y-36430071D01*
X222296000Y-34930071D02*
X222438857Y-34930071D01*
X222581714Y-35001500D01*
X222653142Y-35072928D01*
X222724571Y-35215785D01*
X222796000Y-35501500D01*
X222796000Y-35858642D01*
X222724571Y-36144357D01*
X222653142Y-36287214D01*
X222581714Y-36358642D01*
X222438857Y-36430071D01*
X222296000Y-36430071D01*
X222153142Y-36358642D01*
X222081714Y-36287214D01*
X222010285Y-36144357D01*
X221938857Y-35858642D01*
X221938857Y-35501500D01*
X222010285Y-35215785D01*
X222081714Y-35072928D01*
X222153142Y-35001500D01*
X222296000Y-34930071D01*
X223438857Y-36287214D02*
X223510285Y-36358642D01*
X223438857Y-36430071D01*
X223367428Y-36358642D01*
X223438857Y-36287214D01*
X223438857Y-36430071D01*
X224438857Y-34930071D02*
X224581714Y-34930071D01*
X224724571Y-35001500D01*
X224796000Y-35072928D01*
X224867428Y-35215785D01*
X224938857Y-35501500D01*
X224938857Y-35858642D01*
X224867428Y-36144357D01*
X224796000Y-36287214D01*
X224724571Y-36358642D01*
X224581714Y-36430071D01*
X224438857Y-36430071D01*
X224296000Y-36358642D01*
X224224571Y-36287214D01*
X224153142Y-36144357D01*
X224081714Y-35858642D01*
X224081714Y-35501500D01*
X224153142Y-35215785D01*
X224224571Y-35072928D01*
X224296000Y-35001500D01*
X224438857Y-34930071D01*
X195893428Y-67842000D02*
X194393428Y-68199142D01*
X195464857Y-68484857D01*
X194393428Y-68770571D01*
X195893428Y-69127714D01*
X195893428Y-69556285D02*
X194393428Y-69913428D01*
X195464857Y-70199142D01*
X194393428Y-70484857D01*
X195893428Y-70842000D01*
D11*
%TO.C,Q7*%
X213010761Y-62451619D02*
X212915523Y-62404000D01*
X212820285Y-62308761D01*
X212677428Y-62165904D01*
X212582190Y-62118285D01*
X212486952Y-62118285D01*
X212534571Y-62356380D02*
X212439333Y-62308761D01*
X212344095Y-62213523D01*
X212296476Y-62023047D01*
X212296476Y-61689714D01*
X212344095Y-61499238D01*
X212439333Y-61404000D01*
X212534571Y-61356380D01*
X212725047Y-61356380D01*
X212820285Y-61404000D01*
X212915523Y-61499238D01*
X212963142Y-61689714D01*
X212963142Y-62023047D01*
X212915523Y-62213523D01*
X212820285Y-62308761D01*
X212725047Y-62356380D01*
X212534571Y-62356380D01*
X213296476Y-61356380D02*
X213963142Y-61356380D01*
X213534571Y-62356380D01*
%TO.C,J4*%
X198842380Y-72723333D02*
X199556666Y-72723333D01*
X199699523Y-72770952D01*
X199794761Y-72866190D01*
X199842380Y-73009047D01*
X199842380Y-73104285D01*
X199175714Y-71818571D02*
X199842380Y-71818571D01*
X198794761Y-72056666D02*
X199509047Y-72294761D01*
X199509047Y-71675714D01*
%TO.C,Q5*%
X213010761Y-70071619D02*
X212915523Y-70024000D01*
X212820285Y-69928761D01*
X212677428Y-69785904D01*
X212582190Y-69738285D01*
X212486952Y-69738285D01*
X212534571Y-69976380D02*
X212439333Y-69928761D01*
X212344095Y-69833523D01*
X212296476Y-69643047D01*
X212296476Y-69309714D01*
X212344095Y-69119238D01*
X212439333Y-69024000D01*
X212534571Y-68976380D01*
X212725047Y-68976380D01*
X212820285Y-69024000D01*
X212915523Y-69119238D01*
X212963142Y-69309714D01*
X212963142Y-69643047D01*
X212915523Y-69833523D01*
X212820285Y-69928761D01*
X212725047Y-69976380D01*
X212534571Y-69976380D01*
X213867904Y-68976380D02*
X213391714Y-68976380D01*
X213344095Y-69452571D01*
X213391714Y-69404952D01*
X213486952Y-69357333D01*
X213725047Y-69357333D01*
X213820285Y-69404952D01*
X213867904Y-69452571D01*
X213915523Y-69547809D01*
X213915523Y-69785904D01*
X213867904Y-69881142D01*
X213820285Y-69928761D01*
X213725047Y-69976380D01*
X213486952Y-69976380D01*
X213391714Y-69928761D01*
X213344095Y-69881142D01*
%TO.C,Q3*%
X210605619Y-69437238D02*
X210558000Y-69532476D01*
X210462761Y-69627714D01*
X210319904Y-69770571D01*
X210272285Y-69865809D01*
X210272285Y-69961047D01*
X210510380Y-69913428D02*
X210462761Y-70008666D01*
X210367523Y-70103904D01*
X210177047Y-70151523D01*
X209843714Y-70151523D01*
X209653238Y-70103904D01*
X209558000Y-70008666D01*
X209510380Y-69913428D01*
X209510380Y-69722952D01*
X209558000Y-69627714D01*
X209653238Y-69532476D01*
X209843714Y-69484857D01*
X210177047Y-69484857D01*
X210367523Y-69532476D01*
X210462761Y-69627714D01*
X210510380Y-69722952D01*
X210510380Y-69913428D01*
X209510380Y-69151523D02*
X209510380Y-68532476D01*
X209891333Y-68865809D01*
X209891333Y-68722952D01*
X209938952Y-68627714D01*
X209986571Y-68580095D01*
X210081809Y-68532476D01*
X210319904Y-68532476D01*
X210415142Y-68580095D01*
X210462761Y-68627714D01*
X210510380Y-68722952D01*
X210510380Y-69008666D01*
X210462761Y-69103904D01*
X210415142Y-69151523D01*
X213034571Y-74770952D02*
X213082190Y-74628095D01*
X213129809Y-74580476D01*
X213225047Y-74532857D01*
X213367904Y-74532857D01*
X213463142Y-74580476D01*
X213510761Y-74628095D01*
X213558380Y-74723333D01*
X213558380Y-75104285D01*
X212558380Y-75104285D01*
X212558380Y-74770952D01*
X212606000Y-74675714D01*
X212653619Y-74628095D01*
X212748857Y-74580476D01*
X212844095Y-74580476D01*
X212939333Y-74628095D01*
X212986952Y-74675714D01*
X213034571Y-74770952D01*
X213034571Y-75104285D01*
X213510761Y-74151904D02*
X213558380Y-74009047D01*
X213558380Y-73770952D01*
X213510761Y-73675714D01*
X213463142Y-73628095D01*
X213367904Y-73580476D01*
X213272666Y-73580476D01*
X213177428Y-73628095D01*
X213129809Y-73675714D01*
X213082190Y-73770952D01*
X213034571Y-73961428D01*
X212986952Y-74056666D01*
X212939333Y-74104285D01*
X212844095Y-74151904D01*
X212748857Y-74151904D01*
X212653619Y-74104285D01*
X212606000Y-74056666D01*
X212558380Y-73961428D01*
X212558380Y-73723333D01*
X212606000Y-73580476D01*
X213558380Y-73151904D02*
X212558380Y-73151904D01*
X212558380Y-72770952D01*
X212606000Y-72675714D01*
X212653619Y-72628095D01*
X212748857Y-72580476D01*
X212891714Y-72580476D01*
X212986952Y-72628095D01*
X213034571Y-72675714D01*
X213082190Y-72770952D01*
X213082190Y-73151904D01*
X212558380Y-72247142D02*
X212558380Y-71580476D01*
X213558380Y-72009047D01*
X212558380Y-70723333D02*
X212558380Y-71199523D01*
X213034571Y-71247142D01*
X212986952Y-71199523D01*
X212939333Y-71104285D01*
X212939333Y-70866190D01*
X212986952Y-70770952D01*
X213034571Y-70723333D01*
X213129809Y-70675714D01*
X213367904Y-70675714D01*
X213463142Y-70723333D01*
X213510761Y-70770952D01*
X213558380Y-70866190D01*
X213558380Y-71104285D01*
X213510761Y-71199523D01*
X213463142Y-71247142D01*
X213558380Y-70247142D02*
X212558380Y-70247142D01*
X213558380Y-69675714D01*
X212558380Y-69675714D01*
%TO.C,Q2*%
X210605619Y-77057238D02*
X210558000Y-77152476D01*
X210462761Y-77247714D01*
X210319904Y-77390571D01*
X210272285Y-77485809D01*
X210272285Y-77581047D01*
X210510380Y-77533428D02*
X210462761Y-77628666D01*
X210367523Y-77723904D01*
X210177047Y-77771523D01*
X209843714Y-77771523D01*
X209653238Y-77723904D01*
X209558000Y-77628666D01*
X209510380Y-77533428D01*
X209510380Y-77342952D01*
X209558000Y-77247714D01*
X209653238Y-77152476D01*
X209843714Y-77104857D01*
X210177047Y-77104857D01*
X210367523Y-77152476D01*
X210462761Y-77247714D01*
X210510380Y-77342952D01*
X210510380Y-77533428D01*
X209605619Y-76723904D02*
X209558000Y-76676285D01*
X209510380Y-76581047D01*
X209510380Y-76342952D01*
X209558000Y-76247714D01*
X209605619Y-76200095D01*
X209700857Y-76152476D01*
X209796095Y-76152476D01*
X209938952Y-76200095D01*
X210510380Y-76771523D01*
X210510380Y-76152476D01*
X213034571Y-82644952D02*
X213082190Y-82502095D01*
X213129809Y-82454476D01*
X213225047Y-82406857D01*
X213367904Y-82406857D01*
X213463142Y-82454476D01*
X213510761Y-82502095D01*
X213558380Y-82597333D01*
X213558380Y-82978285D01*
X212558380Y-82978285D01*
X212558380Y-82644952D01*
X212606000Y-82549714D01*
X212653619Y-82502095D01*
X212748857Y-82454476D01*
X212844095Y-82454476D01*
X212939333Y-82502095D01*
X212986952Y-82549714D01*
X213034571Y-82644952D01*
X213034571Y-82978285D01*
X213510761Y-82025904D02*
X213558380Y-81883047D01*
X213558380Y-81644952D01*
X213510761Y-81549714D01*
X213463142Y-81502095D01*
X213367904Y-81454476D01*
X213272666Y-81454476D01*
X213177428Y-81502095D01*
X213129809Y-81549714D01*
X213082190Y-81644952D01*
X213034571Y-81835428D01*
X212986952Y-81930666D01*
X212939333Y-81978285D01*
X212844095Y-82025904D01*
X212748857Y-82025904D01*
X212653619Y-81978285D01*
X212606000Y-81930666D01*
X212558380Y-81835428D01*
X212558380Y-81597333D01*
X212606000Y-81454476D01*
X213558380Y-81025904D02*
X212558380Y-81025904D01*
X212558380Y-80644952D01*
X212606000Y-80549714D01*
X212653619Y-80502095D01*
X212748857Y-80454476D01*
X212891714Y-80454476D01*
X212986952Y-80502095D01*
X213034571Y-80549714D01*
X213082190Y-80644952D01*
X213082190Y-81025904D01*
X212558380Y-80121142D02*
X212558380Y-79454476D01*
X213558380Y-79883047D01*
X212558380Y-78597333D02*
X212558380Y-79073523D01*
X213034571Y-79121142D01*
X212986952Y-79073523D01*
X212939333Y-78978285D01*
X212939333Y-78740190D01*
X212986952Y-78644952D01*
X213034571Y-78597333D01*
X213129809Y-78549714D01*
X213367904Y-78549714D01*
X213463142Y-78597333D01*
X213510761Y-78644952D01*
X213558380Y-78740190D01*
X213558380Y-78978285D01*
X213510761Y-79073523D01*
X213463142Y-79121142D01*
X213558380Y-78121142D02*
X212558380Y-78121142D01*
X213558380Y-77549714D01*
X212558380Y-77549714D01*
%TO.C,J1*%
X215217333Y-53506619D02*
X215217333Y-52792333D01*
X215264952Y-52649476D01*
X215360190Y-52554238D01*
X215503047Y-52506619D01*
X215598285Y-52506619D01*
X214217333Y-52506619D02*
X214788761Y-52506619D01*
X214503047Y-52506619D02*
X214503047Y-53506619D01*
X214598285Y-53363761D01*
X214693523Y-53268523D01*
X214788761Y-53220904D01*
X204565047Y-42711619D02*
X204374571Y-42711619D01*
X204279333Y-42664000D01*
X204184095Y-42568761D01*
X204136476Y-42378285D01*
X204136476Y-42044952D01*
X204184095Y-41854476D01*
X204279333Y-41759238D01*
X204374571Y-41711619D01*
X204565047Y-41711619D01*
X204660285Y-41759238D01*
X204755523Y-41854476D01*
X204803142Y-42044952D01*
X204803142Y-42378285D01*
X204755523Y-42568761D01*
X204660285Y-42664000D01*
X204565047Y-42711619D01*
X203707904Y-42711619D02*
X203707904Y-41902095D01*
X203660285Y-41806857D01*
X203612666Y-41759238D01*
X203517428Y-41711619D01*
X203326952Y-41711619D01*
X203231714Y-41759238D01*
X203184095Y-41806857D01*
X203136476Y-41902095D01*
X203136476Y-42711619D01*
X202803142Y-42711619D02*
X202231714Y-42711619D01*
X202517428Y-41711619D02*
X202517428Y-42711619D01*
X201898380Y-42092571D02*
X201136476Y-42092571D01*
X201517428Y-41711619D02*
X201517428Y-42473523D01*
X214883857Y-41711619D02*
X214883857Y-42711619D01*
X214407666Y-41711619D02*
X214407666Y-42711619D01*
X213836238Y-41711619D01*
X213836238Y-42711619D01*
X213360047Y-42092571D02*
X212598142Y-42092571D01*
X212979095Y-41711619D02*
X212979095Y-42473523D01*
X204565047Y-50966619D02*
X204374571Y-50966619D01*
X204279333Y-50919000D01*
X204184095Y-50823761D01*
X204136476Y-50633285D01*
X204136476Y-50299952D01*
X204184095Y-50109476D01*
X204279333Y-50014238D01*
X204374571Y-49966619D01*
X204565047Y-49966619D01*
X204660285Y-50014238D01*
X204755523Y-50109476D01*
X204803142Y-50299952D01*
X204803142Y-50633285D01*
X204755523Y-50823761D01*
X204660285Y-50919000D01*
X204565047Y-50966619D01*
X203707904Y-50966619D02*
X203707904Y-50157095D01*
X203660285Y-50061857D01*
X203612666Y-50014238D01*
X203517428Y-49966619D01*
X203326952Y-49966619D01*
X203231714Y-50014238D01*
X203184095Y-50061857D01*
X203136476Y-50157095D01*
X203136476Y-50966619D01*
X202803142Y-50966619D02*
X202231714Y-50966619D01*
X202517428Y-49966619D02*
X202517428Y-50966619D01*
X201898380Y-50347571D02*
X201136476Y-50347571D01*
X214883857Y-49966619D02*
X214883857Y-50966619D01*
X214407666Y-49966619D02*
X214407666Y-50966619D01*
X213836238Y-49966619D01*
X213836238Y-50966619D01*
X213360047Y-50347571D02*
X212598142Y-50347571D01*
%TO.C,J6*%
X226020380Y-46561333D02*
X226734666Y-46561333D01*
X226877523Y-46608952D01*
X226972761Y-46704190D01*
X227020380Y-46847047D01*
X227020380Y-46942285D01*
X226020380Y-45656571D02*
X226020380Y-45847047D01*
X226068000Y-45942285D01*
X226115619Y-45989904D01*
X226258476Y-46085142D01*
X226448952Y-46132761D01*
X226829904Y-46132761D01*
X226925142Y-46085142D01*
X226972761Y-46037523D01*
X227020380Y-45942285D01*
X227020380Y-45751809D01*
X226972761Y-45656571D01*
X226925142Y-45608952D01*
X226829904Y-45561333D01*
X226591809Y-45561333D01*
X226496571Y-45608952D01*
X226448952Y-45656571D01*
X226401333Y-45751809D01*
X226401333Y-45942285D01*
X226448952Y-46037523D01*
X226496571Y-46085142D01*
X226591809Y-46132761D01*
%TO.C,Q1*%
X210605619Y-84677238D02*
X210558000Y-84772476D01*
X210462761Y-84867714D01*
X210319904Y-85010571D01*
X210272285Y-85105809D01*
X210272285Y-85201047D01*
X210510380Y-85153428D02*
X210462761Y-85248666D01*
X210367523Y-85343904D01*
X210177047Y-85391523D01*
X209843714Y-85391523D01*
X209653238Y-85343904D01*
X209558000Y-85248666D01*
X209510380Y-85153428D01*
X209510380Y-84962952D01*
X209558000Y-84867714D01*
X209653238Y-84772476D01*
X209843714Y-84724857D01*
X210177047Y-84724857D01*
X210367523Y-84772476D01*
X210462761Y-84867714D01*
X210510380Y-84962952D01*
X210510380Y-85153428D01*
X210510380Y-83772476D02*
X210510380Y-84343904D01*
X210510380Y-84058190D02*
X209510380Y-84058190D01*
X209653238Y-84153428D01*
X209748476Y-84248666D01*
X209796095Y-84343904D01*
X213034571Y-90264952D02*
X213082190Y-90122095D01*
X213129809Y-90074476D01*
X213225047Y-90026857D01*
X213367904Y-90026857D01*
X213463142Y-90074476D01*
X213510761Y-90122095D01*
X213558380Y-90217333D01*
X213558380Y-90598285D01*
X212558380Y-90598285D01*
X212558380Y-90264952D01*
X212606000Y-90169714D01*
X212653619Y-90122095D01*
X212748857Y-90074476D01*
X212844095Y-90074476D01*
X212939333Y-90122095D01*
X212986952Y-90169714D01*
X213034571Y-90264952D01*
X213034571Y-90598285D01*
X213510761Y-89645904D02*
X213558380Y-89503047D01*
X213558380Y-89264952D01*
X213510761Y-89169714D01*
X213463142Y-89122095D01*
X213367904Y-89074476D01*
X213272666Y-89074476D01*
X213177428Y-89122095D01*
X213129809Y-89169714D01*
X213082190Y-89264952D01*
X213034571Y-89455428D01*
X212986952Y-89550666D01*
X212939333Y-89598285D01*
X212844095Y-89645904D01*
X212748857Y-89645904D01*
X212653619Y-89598285D01*
X212606000Y-89550666D01*
X212558380Y-89455428D01*
X212558380Y-89217333D01*
X212606000Y-89074476D01*
X213558380Y-88645904D02*
X212558380Y-88645904D01*
X212558380Y-88264952D01*
X212606000Y-88169714D01*
X212653619Y-88122095D01*
X212748857Y-88074476D01*
X212891714Y-88074476D01*
X212986952Y-88122095D01*
X213034571Y-88169714D01*
X213082190Y-88264952D01*
X213082190Y-88645904D01*
X212558380Y-87741142D02*
X212558380Y-87074476D01*
X213558380Y-87503047D01*
X212558380Y-86217333D02*
X212558380Y-86693523D01*
X213034571Y-86741142D01*
X212986952Y-86693523D01*
X212939333Y-86598285D01*
X212939333Y-86360190D01*
X212986952Y-86264952D01*
X213034571Y-86217333D01*
X213129809Y-86169714D01*
X213367904Y-86169714D01*
X213463142Y-86217333D01*
X213510761Y-86264952D01*
X213558380Y-86360190D01*
X213558380Y-86598285D01*
X213510761Y-86693523D01*
X213463142Y-86741142D01*
X213558380Y-85741142D02*
X212558380Y-85741142D01*
X213558380Y-85169714D01*
X212558380Y-85169714D01*
%TO.C,J2*%
X227036380Y-72977333D02*
X227750666Y-72977333D01*
X227893523Y-73024952D01*
X227988761Y-73120190D01*
X228036380Y-73263047D01*
X228036380Y-73358285D01*
X227131619Y-72548761D02*
X227084000Y-72501142D01*
X227036380Y-72405904D01*
X227036380Y-72167809D01*
X227084000Y-72072571D01*
X227131619Y-72024952D01*
X227226857Y-71977333D01*
X227322095Y-71977333D01*
X227464952Y-72024952D01*
X228036380Y-72596380D01*
X228036380Y-71977333D01*
D12*
%TO.C,Q7*%
X211196000Y-60814000D02*
X211196000Y-59554000D01*
X217206000Y-60814000D02*
X211196000Y-60814000D01*
X211196000Y-53994000D02*
X211196000Y-55254000D01*
X214956000Y-53994000D02*
X211196000Y-53994000D01*
%TO.C,Q5*%
X211196000Y-68434000D02*
X211196000Y-67174000D01*
X211196000Y-61614000D02*
X211196000Y-62874000D01*
X217206000Y-68434000D02*
X211196000Y-68434000D01*
X214956000Y-61614000D02*
X211196000Y-61614000D01*
%TO.C,Q3*%
X211196000Y-76054000D02*
X211196000Y-74794000D01*
X214956000Y-69234000D02*
X211196000Y-69234000D01*
X217206000Y-76054000D02*
X211196000Y-76054000D01*
X211196000Y-69234000D02*
X211196000Y-70494000D01*
%TO.C,Q2*%
X211196000Y-83674000D02*
X211196000Y-82414000D01*
X211196000Y-76854000D02*
X211196000Y-78114000D01*
X217206000Y-83674000D02*
X211196000Y-83674000D01*
X214956000Y-76854000D02*
X211196000Y-76854000D01*
%TO.C,J1*%
X206756000Y-48514000D02*
X202311000Y-48514000D01*
X202311000Y-48514000D02*
X202311000Y-44069000D01*
X202311000Y-44069000D02*
X206756000Y-44069000D01*
X206756000Y-44069000D02*
X206756000Y-48514000D01*
%TO.C,Q1*%
X211196000Y-84474000D02*
X211196000Y-85734000D01*
X217206000Y-91294000D02*
X211196000Y-91294000D01*
X211196000Y-91294000D02*
X211196000Y-90034000D01*
X214956000Y-84474000D02*
X211196000Y-84474000D01*
%TD*%
M02*
