%TF.GenerationSoftware,KiCad,Pcbnew,(6.0.6-0)*%
%TF.CreationDate,2025-03-25T10:56:26+01:00*%
%TF.ProjectId,5outputs,356f7574-7075-4747-932e-6b696361645f,rev?*%
%TF.SameCoordinates,Original*%
%TF.FileFunction,Soldermask,Top*%
%TF.FilePolarity,Negative*%
%FSLAX46Y46*%
G04 Gerber Fmt 4.6, Leading zero omitted, Abs format (unit mm)*
G04 Created by KiCad (PCBNEW (6.0.6-0)) date 2025-03-25 10:56:26*
%MOMM*%
%LPD*%
G01*
G04 APERTURE LIST*
%ADD10R,2.000000X1.500000*%
%ADD11R,2.000000X3.800000*%
%ADD12C,3.200000*%
%ADD13R,5.080000X1.905000*%
%ADD14R,4.000000X1.500000*%
%ADD15R,5.080000X2.540000*%
G04 APERTURE END LIST*
D10*
%TO.C,Q7*%
X216256000Y-59704000D03*
X216256000Y-57404000D03*
X216256000Y-55104000D03*
D11*
X209956000Y-57404000D03*
%TD*%
D12*
%TO.C,H4*%
X228346000Y-89154000D03*
%TD*%
%TO.C,H2*%
X198021000Y-89154000D03*
%TD*%
%TO.C,H1*%
X198021000Y-34544000D03*
%TD*%
D13*
%TO.C,J4*%
X199136000Y-66294000D03*
X199136000Y-68834000D03*
X199136000Y-71374000D03*
X199136000Y-73914000D03*
X199136000Y-76454000D03*
X199136000Y-78994000D03*
%TD*%
D10*
%TO.C,Q5*%
X216256000Y-67324000D03*
X216256000Y-65024000D03*
X216256000Y-62724000D03*
D11*
X209956000Y-65024000D03*
%TD*%
D10*
%TO.C,Q3*%
X216256000Y-74944000D03*
X216256000Y-72644000D03*
X216256000Y-70344000D03*
D11*
X209956000Y-72644000D03*
%TD*%
D10*
%TO.C,Q2*%
X216256000Y-82564000D03*
X216256000Y-80264000D03*
X216256000Y-77964000D03*
D11*
X209956000Y-80264000D03*
%TD*%
D14*
%TO.C,J1*%
X217551000Y-42164000D03*
X217551000Y-50419000D03*
X198501000Y-42164000D03*
X198501000Y-50419000D03*
%TD*%
D15*
%TO.C,J6*%
X225806000Y-44450000D03*
X225806000Y-48514000D03*
%TD*%
D12*
%TO.C,H3*%
X228346000Y-34544000D03*
%TD*%
D10*
%TO.C,Q1*%
X216256000Y-90184000D03*
X216256000Y-87884000D03*
X216256000Y-85584000D03*
D11*
X209956000Y-87884000D03*
%TD*%
D13*
%TO.C,J2*%
X227076000Y-66294000D03*
X227076000Y-68834000D03*
X227076000Y-71374000D03*
X227076000Y-73914000D03*
X227076000Y-76454000D03*
X227076000Y-78994000D03*
%TD*%
M02*
