%TF.GenerationSoftware,KiCad,Pcbnew,(6.0.6-0)*%
%TF.CreationDate,2025-03-25T10:56:26+01:00*%
%TF.ProjectId,5outputs,356f7574-7075-4747-932e-6b696361645f,rev?*%
%TF.SameCoordinates,Original*%
%TF.FileFunction,Copper,L2,Bot*%
%TF.FilePolarity,Positive*%
%FSLAX46Y46*%
G04 Gerber Fmt 4.6, Leading zero omitted, Abs format (unit mm)*
G04 Created by KiCad (PCBNEW (6.0.6-0)) date 2025-03-25 10:56:26*
%MOMM*%
%LPD*%
G01*
G04 APERTURE LIST*
G04 Aperture macros list*
%AMRoundRect*
0 Rectangle with rounded corners*
0 $1 Rounding radius*
0 $2 $3 $4 $5 $6 $7 $8 $9 X,Y pos of 4 corners*
0 Add a 4 corners polygon primitive as box body*
4,1,4,$2,$3,$4,$5,$6,$7,$8,$9,$2,$3,0*
0 Add four circle primitives for the rounded corners*
1,1,$1+$1,$2,$3*
1,1,$1+$1,$4,$5*
1,1,$1+$1,$6,$7*
1,1,$1+$1,$8,$9*
0 Add four rect primitives between the rounded corners*
20,1,$1+$1,$2,$3,$4,$5,0*
20,1,$1+$1,$4,$5,$6,$7,0*
20,1,$1+$1,$6,$7,$8,$9,0*
20,1,$1+$1,$8,$9,$2,$3,0*%
G04 Aperture macros list end*
%TA.AperFunction,SMDPad,CuDef*%
%ADD10RoundRect,0.800000X0.700000X0.000000X-0.700000X0.000000X-0.700000X0.000000X0.700000X0.000000X0*%
%TD*%
%TA.AperFunction,SMDPad,CuDef*%
%ADD11R,5.080000X1.905000*%
%TD*%
%TA.AperFunction,ViaPad*%
%ADD12C,2.000000*%
%TD*%
%TA.AperFunction,ViaPad*%
%ADD13C,1.000000*%
%TD*%
%TA.AperFunction,Conductor*%
%ADD14C,1.000000*%
%TD*%
%TA.AperFunction,Conductor*%
%ADD15C,2.000000*%
%TD*%
G04 APERTURE END LIST*
D10*
%TO.P,U4,1,PA02_A0_D0*%
%TO.N,unconnected-(U4-Pad1)*%
X222392000Y-33556076D03*
%TO.P,U4,2,PA4_A1_D1*%
%TO.N,unconnected-(U4-Pad2)*%
X222392000Y-36096076D03*
%TO.P,U4,3,PA10_A2_D2*%
%TO.N,OUT5*%
X222392000Y-38636076D03*
%TO.P,U4,4,PA11_A3_D3*%
%TO.N,OUT4*%
X222392000Y-41176076D03*
%TO.P,U4,5,PA8_A4_D4_SDA*%
%TO.N,OUT3*%
X222392000Y-43716076D03*
%TO.P,U4,6,PA9_A5_D5_SCL*%
%TO.N,OUT2*%
X222392000Y-46256076D03*
%TO.P,U4,7,PB08_A6_D6_TX*%
%TO.N,OUT1*%
X222392000Y-48796076D03*
%TO.P,U4,8,PB09_A7_D7_RX*%
%TO.N,unconnected-(U4-Pad8)*%
X204612000Y-48796076D03*
%TO.P,U4,9,PA7_A8_D8_SCK*%
%TO.N,unconnected-(U4-Pad9)*%
X204612000Y-46256076D03*
%TO.P,U4,10,PA5_A9_D9_MISO*%
%TO.N,unconnected-(U4-Pad10)*%
X204612000Y-43716076D03*
%TO.P,U4,11,PA6_A10_D10_MOSI*%
%TO.N,unconnected-(U4-Pad11)*%
X204612000Y-41176076D03*
%TO.P,U4,12,3V3*%
%TO.N,unconnected-(U4-Pad12)*%
X204612000Y-38636076D03*
%TO.P,U4,13,GND*%
%TO.N,GND*%
X204612000Y-36096076D03*
%TO.P,U4,14,5V*%
%TO.N,+5V*%
X204612000Y-33556076D03*
%TD*%
D11*
%TO.P,J3,1,Pin_1*%
%TO.N,+12V*%
X199136000Y-66294000D03*
%TO.P,J3,2,Pin_2*%
%TO.N,GND_OUT5*%
X199136000Y-68834000D03*
%TO.P,J3,3,Pin_3*%
%TO.N,GND_OUT4*%
X199136000Y-71374000D03*
%TO.P,J3,4,Pin_4*%
%TO.N,GND_OUT3*%
X199136000Y-73914000D03*
%TO.P,J3,5,Pin_5*%
%TO.N,GND_OUT2*%
X199136000Y-76454000D03*
%TO.P,J3,6,Pin_6*%
%TO.N,GND_OUT1*%
X199136000Y-78994000D03*
%TD*%
%TO.P,J5,1,Pin_1*%
%TO.N,+12V*%
X227076000Y-66294000D03*
%TO.P,J5,2,Pin_2*%
%TO.N,GND_OUT5*%
X227076000Y-68834000D03*
%TO.P,J5,3,Pin_3*%
%TO.N,GND_OUT4*%
X227076000Y-71374000D03*
%TO.P,J5,4,Pin_4*%
%TO.N,GND_OUT3*%
X227076000Y-73914000D03*
%TO.P,J5,5,Pin_5*%
%TO.N,GND_OUT2*%
X227076000Y-76454000D03*
%TO.P,J5,6,Pin_6*%
%TO.N,GND_OUT1*%
X227076000Y-78994000D03*
%TD*%
D12*
%TO.N,GND*%
X198501000Y-47879000D03*
D13*
%TO.N,OUT1*%
X218186000Y-90170000D03*
%TO.N,OUT3*%
X218127272Y-74988728D03*
%TO.N,OUT2*%
X218186000Y-82550000D03*
%TO.N,OUT4*%
X214376000Y-68834000D03*
D12*
%TO.N,GND_OUT1*%
X227076000Y-80899000D03*
X202311000Y-80264000D03*
X213106000Y-84709000D03*
%TO.N,GND_OUT2*%
X223266000Y-76454000D03*
X213106000Y-77089000D03*
X203581000Y-77724000D03*
%TO.N,GND_OUT3*%
X223266000Y-73914000D03*
X213106000Y-73279000D03*
X202946000Y-73914000D03*
D13*
%TO.N,OUT5*%
X214376000Y-61468000D03*
D12*
%TO.N,+5V*%
X198501000Y-40259000D03*
%TO.N,+12V*%
X201041000Y-63754000D03*
X228346000Y-63754000D03*
%TO.N,GND_OUT4*%
X205486000Y-71374000D03*
X213106000Y-66294000D03*
X223266000Y-71374000D03*
%TO.N,GND_OUT5*%
X213106000Y-58674000D03*
X223266000Y-68834000D03*
X203581000Y-68199000D03*
%TD*%
D14*
%TO.N,GND*%
X201041000Y-43434000D02*
X201041000Y-44704000D01*
X201041000Y-44704000D02*
X198501000Y-47244000D01*
X201041000Y-38989000D02*
X201041000Y-43434000D01*
X198501000Y-47244000D02*
X198501000Y-47879000D01*
X204612000Y-36096076D02*
X203933924Y-36096076D01*
X203933924Y-36096076D02*
X201041000Y-38989000D01*
%TO.N,OUT1*%
X221488000Y-49700076D02*
X221488000Y-87884000D01*
X222392000Y-48796076D02*
X221488000Y-49700076D01*
X219202000Y-90170000D02*
X218186000Y-90170000D01*
X221488000Y-87884000D02*
X219202000Y-90170000D01*
%TO.N,OUT3*%
X218694000Y-46816944D02*
X218694000Y-75184000D01*
X218694000Y-75184000D02*
X218322544Y-75184000D01*
X221794868Y-43716076D02*
X218694000Y-46816944D01*
X218322544Y-75184000D02*
X218127272Y-74988728D01*
X222392000Y-43716076D02*
X221794868Y-43716076D01*
%TO.N,OUT2*%
X219964000Y-81026000D02*
X218440000Y-82550000D01*
X222363924Y-46228000D02*
X220980000Y-46228000D01*
X222392000Y-46256076D02*
X222363924Y-46228000D01*
X218440000Y-82550000D02*
X218186000Y-82550000D01*
X219964000Y-47244000D02*
X219964000Y-81026000D01*
X220980000Y-46228000D02*
X219964000Y-47244000D01*
%TO.N,OUT4*%
X222392000Y-41176076D02*
X222166076Y-41402000D01*
X217494000Y-66294000D02*
X214954000Y-68834000D01*
X220472000Y-41402000D02*
X217494000Y-44380000D01*
X222166076Y-41402000D02*
X220472000Y-41402000D01*
X214954000Y-68834000D02*
X214376000Y-68834000D01*
X217494000Y-44380000D02*
X217494000Y-66294000D01*
D15*
%TO.N,GND_OUT1*%
X213106000Y-84709000D02*
X204851000Y-84709000D01*
X199136000Y-78994000D02*
X201041000Y-78994000D01*
X201041000Y-78994000D02*
X202311000Y-80264000D01*
X204851000Y-84709000D02*
X199136000Y-78994000D01*
X227076000Y-80899000D02*
X227076000Y-78994000D01*
%TO.N,GND_OUT2*%
X212471000Y-76454000D02*
X199136000Y-76454000D01*
X202311000Y-76454000D02*
X203581000Y-77724000D01*
X199136000Y-76454000D02*
X202311000Y-76454000D01*
X227076000Y-76454000D02*
X223266000Y-76454000D01*
X213106000Y-77089000D02*
X212471000Y-76454000D01*
%TO.N,GND_OUT3*%
X212471000Y-73914000D02*
X199136000Y-73914000D01*
X227076000Y-73914000D02*
X223266000Y-73914000D01*
X213106000Y-73279000D02*
X212471000Y-73914000D01*
X202946000Y-73914000D02*
X199136000Y-73914000D01*
D14*
%TO.N,OUT5*%
X216154000Y-44022944D02*
X216154000Y-59690000D01*
X216154000Y-59690000D02*
X214376000Y-61468000D01*
X221540868Y-38636076D02*
X216154000Y-44022944D01*
X222392000Y-38636076D02*
X221540868Y-38636076D01*
%TO.N,+5V*%
X203298924Y-33556076D02*
X201676000Y-35179000D01*
X198501000Y-38354000D02*
X198501000Y-40259000D01*
X204612000Y-33556076D02*
X203298924Y-33556076D01*
X201676000Y-35179000D02*
X198501000Y-38354000D01*
D15*
%TO.N,+12V*%
X228346000Y-63754000D02*
X228346000Y-65024000D01*
X228346000Y-65024000D02*
X227076000Y-66294000D01*
X201041000Y-63754000D02*
X201041000Y-64389000D01*
X201041000Y-64389000D02*
X199136000Y-66294000D01*
%TO.N,GND_OUT4*%
X204851000Y-71374000D02*
X199136000Y-71374000D01*
X205486000Y-71374000D02*
X199136000Y-71374000D01*
X227076000Y-71374000D02*
X223266000Y-71374000D01*
X213106000Y-67564000D02*
X211201000Y-69469000D01*
X211201000Y-69469000D02*
X206756000Y-69469000D01*
X213106000Y-66294000D02*
X213106000Y-67564000D01*
X206756000Y-69469000D02*
X204851000Y-71374000D01*
%TO.N,GND_OUT5*%
X206756000Y-61214000D02*
X203581000Y-64389000D01*
X213106000Y-59944000D02*
X211836000Y-61214000D01*
X227076000Y-68834000D02*
X223266000Y-68834000D01*
X202946000Y-68834000D02*
X199136000Y-68834000D01*
X211836000Y-61214000D02*
X206756000Y-61214000D01*
X203581000Y-64389000D02*
X203581000Y-68199000D01*
X213106000Y-58674000D02*
X213106000Y-59944000D01*
X203581000Y-68199000D02*
X202946000Y-68834000D01*
%TD*%
M02*
