%TF.GenerationSoftware,KiCad,Pcbnew,(6.0.6-0)*%
%TF.CreationDate,2025-03-25T10:56:26+01:00*%
%TF.ProjectId,5outputs,356f7574-7075-4747-932e-6b696361645f,rev?*%
%TF.SameCoordinates,Original*%
%TF.FileFunction,Legend,Bot*%
%TF.FilePolarity,Positive*%
%FSLAX46Y46*%
G04 Gerber Fmt 4.6, Leading zero omitted, Abs format (unit mm)*
G04 Created by KiCad (PCBNEW (6.0.6-0)) date 2025-03-25 10:56:26*
%MOMM*%
%LPD*%
G01*
G04 APERTURE LIST*
%ADD10C,0.300000*%
%ADD11C,0.250000*%
%ADD12C,0.150000*%
%ADD13C,0.127000*%
G04 APERTURE END LIST*
D10*
X194393428Y-79672714D02*
X195107714Y-80172714D01*
X194393428Y-80529857D02*
X195893428Y-80529857D01*
X195893428Y-79958428D01*
X195822000Y-79815571D01*
X195750571Y-79744142D01*
X195607714Y-79672714D01*
X195393428Y-79672714D01*
X195250571Y-79744142D01*
X195179142Y-79815571D01*
X195107714Y-79958428D01*
X195107714Y-80529857D01*
X231691571Y-64349428D02*
X231691571Y-63492285D01*
X231691571Y-63920857D02*
X230191571Y-63920857D01*
X230405857Y-63778000D01*
X230548714Y-63635142D01*
X230620142Y-63492285D01*
X230334428Y-64920857D02*
X230263000Y-64992285D01*
X230191571Y-65135142D01*
X230191571Y-65492285D01*
X230263000Y-65635142D01*
X230334428Y-65706571D01*
X230477285Y-65778000D01*
X230620142Y-65778000D01*
X230834428Y-65706571D01*
X231691571Y-64849428D01*
X231691571Y-65778000D01*
X230191571Y-66206571D02*
X231691571Y-66706571D01*
X230191571Y-67206571D01*
X195179142Y-74441857D02*
X195107714Y-74227571D01*
X195036285Y-74156142D01*
X194893428Y-74084714D01*
X194679142Y-74084714D01*
X194536285Y-74156142D01*
X194464857Y-74227571D01*
X194393428Y-74370428D01*
X194393428Y-74941857D01*
X195893428Y-74941857D01*
X195893428Y-74441857D01*
X195822000Y-74299000D01*
X195750571Y-74227571D01*
X195607714Y-74156142D01*
X195464857Y-74156142D01*
X195322000Y-74227571D01*
X195250571Y-74299000D01*
X195179142Y-74441857D01*
X195179142Y-74941857D01*
X231691571Y-80728285D02*
X230977285Y-80228285D01*
X231691571Y-79871142D02*
X230191571Y-79871142D01*
X230191571Y-80442571D01*
X230263000Y-80585428D01*
X230334428Y-80656857D01*
X230477285Y-80728285D01*
X230691571Y-80728285D01*
X230834428Y-80656857D01*
X230905857Y-80585428D01*
X230977285Y-80442571D01*
X230977285Y-79871142D01*
X195822000Y-76950142D02*
X195893428Y-77093000D01*
X195893428Y-77307285D01*
X195822000Y-77521571D01*
X195679142Y-77664428D01*
X195536285Y-77735857D01*
X195250571Y-77807285D01*
X195036285Y-77807285D01*
X194750571Y-77735857D01*
X194607714Y-77664428D01*
X194464857Y-77521571D01*
X194393428Y-77307285D01*
X194393428Y-77164428D01*
X194464857Y-76950142D01*
X194536285Y-76878714D01*
X195036285Y-76878714D01*
X195036285Y-77164428D01*
X195893428Y-72651857D02*
X194393428Y-72294714D01*
X195464857Y-72009000D01*
X194393428Y-71723285D01*
X195893428Y-71366142D01*
X230191571Y-72001142D02*
X231691571Y-72358285D01*
X230620142Y-72644000D01*
X231691571Y-72929714D01*
X230191571Y-73286857D01*
X230191571Y-68096000D02*
X231691571Y-68453142D01*
X230620142Y-68738857D01*
X231691571Y-69024571D01*
X230191571Y-69381714D01*
X230191571Y-69810285D02*
X231691571Y-70167428D01*
X230620142Y-70453142D01*
X231691571Y-70738857D01*
X230191571Y-71096000D01*
X230263000Y-77862857D02*
X230191571Y-77720000D01*
X230191571Y-77505714D01*
X230263000Y-77291428D01*
X230405857Y-77148571D01*
X230548714Y-77077142D01*
X230834428Y-77005714D01*
X231048714Y-77005714D01*
X231334428Y-77077142D01*
X231477285Y-77148571D01*
X231620142Y-77291428D01*
X231691571Y-77505714D01*
X231691571Y-77648571D01*
X231620142Y-77862857D01*
X231548714Y-77934285D01*
X231048714Y-77934285D01*
X231048714Y-77648571D01*
X230905857Y-75037142D02*
X230977285Y-75251428D01*
X231048714Y-75322857D01*
X231191571Y-75394285D01*
X231405857Y-75394285D01*
X231548714Y-75322857D01*
X231620142Y-75251428D01*
X231691571Y-75108571D01*
X231691571Y-74537142D01*
X230191571Y-74537142D01*
X230191571Y-75037142D01*
X230263000Y-75180000D01*
X230334428Y-75251428D01*
X230477285Y-75322857D01*
X230620142Y-75322857D01*
X230763000Y-75251428D01*
X230834428Y-75180000D01*
X230905857Y-75037142D01*
X230905857Y-74537142D01*
X195893428Y-70715000D02*
X194393428Y-70357857D01*
X195464857Y-70072142D01*
X194393428Y-69786428D01*
X195893428Y-69429285D01*
X195893428Y-69000714D02*
X194393428Y-68643571D01*
X195464857Y-68357857D01*
X194393428Y-68072142D01*
X195893428Y-67715000D01*
X194393428Y-65825571D02*
X194393428Y-66682714D01*
X194393428Y-66254142D02*
X195893428Y-66254142D01*
X195679142Y-66397000D01*
X195536285Y-66539857D01*
X195464857Y-66682714D01*
X195750571Y-65254142D02*
X195822000Y-65182714D01*
X195893428Y-65039857D01*
X195893428Y-64682714D01*
X195822000Y-64539857D01*
X195750571Y-64468428D01*
X195607714Y-64397000D01*
X195464857Y-64397000D01*
X195250571Y-64468428D01*
X194393428Y-65325571D01*
X194393428Y-64397000D01*
X195893428Y-63968428D02*
X194393428Y-63468428D01*
X195893428Y-62968428D01*
D11*
%TO.C,U4*%
X214791809Y-48351587D02*
X214791809Y-49970635D01*
X214696571Y-50161111D01*
X214601333Y-50256349D01*
X214410857Y-50351587D01*
X214029904Y-50351587D01*
X213839428Y-50256349D01*
X213744190Y-50161111D01*
X213648952Y-49970635D01*
X213648952Y-48351587D01*
X211839428Y-49018254D02*
X211839428Y-50351587D01*
X212315619Y-48256349D02*
X212791809Y-49684921D01*
X211553714Y-49684921D01*
D12*
%TO.C,J3*%
X198199333Y-63841380D02*
X198199333Y-64555666D01*
X198246952Y-64698523D01*
X198342190Y-64793761D01*
X198485047Y-64841380D01*
X198580285Y-64841380D01*
X197818380Y-63841380D02*
X197199333Y-63841380D01*
X197532666Y-64222333D01*
X197389809Y-64222333D01*
X197294571Y-64269952D01*
X197246952Y-64317571D01*
X197199333Y-64412809D01*
X197199333Y-64650904D01*
X197246952Y-64746142D01*
X197294571Y-64793761D01*
X197389809Y-64841380D01*
X197675523Y-64841380D01*
X197770761Y-64793761D01*
X197818380Y-64746142D01*
%TO.C,J5*%
X225504333Y-63587380D02*
X225504333Y-64301666D01*
X225551952Y-64444523D01*
X225647190Y-64539761D01*
X225790047Y-64587380D01*
X225885285Y-64587380D01*
X224551952Y-63587380D02*
X225028142Y-63587380D01*
X225075761Y-64063571D01*
X225028142Y-64015952D01*
X224932904Y-63968333D01*
X224694809Y-63968333D01*
X224599571Y-64015952D01*
X224551952Y-64063571D01*
X224504333Y-64158809D01*
X224504333Y-64396904D01*
X224551952Y-64492142D01*
X224599571Y-64539761D01*
X224694809Y-64587380D01*
X224932904Y-64587380D01*
X225028142Y-64539761D01*
X225075761Y-64492142D01*
D13*
%TO.C,U4*%
X222392000Y-31347576D02*
X222392000Y-51676076D01*
X208997000Y-36604076D02*
X217996000Y-36604076D01*
X222392000Y-51676076D02*
X204592000Y-51676076D01*
X221720459Y-30676076D02*
X222392000Y-31347576D01*
X204592000Y-30676076D02*
X221720459Y-30676076D01*
X208997000Y-29925425D02*
X208997000Y-36604076D01*
X217996000Y-36604076D02*
X217996000Y-29925425D01*
X204592000Y-51676076D02*
X204592000Y-30676076D01*
X217996000Y-29925425D02*
X208997000Y-29925425D01*
%TD*%
M02*
