%TF.GenerationSoftware,KiCad,Pcbnew,(6.0.6-0)*%
%TF.CreationDate,2025-06-22T16:04:58+02:00*%
%TF.ProjectId,meteo,6d657465-6f2e-46b6-9963-61645f706362,rev?*%
%TF.SameCoordinates,Original*%
%TF.FileFunction,Copper,L2,Bot*%
%TF.FilePolarity,Positive*%
%FSLAX46Y46*%
G04 Gerber Fmt 4.6, Leading zero omitted, Abs format (unit mm)*
G04 Created by KiCad (PCBNEW (6.0.6-0)) date 2025-06-22 16:04:58*
%MOMM*%
%LPD*%
G01*
G04 APERTURE LIST*
G04 Aperture macros list*
%AMRoundRect*
0 Rectangle with rounded corners*
0 $1 Rounding radius*
0 $2 $3 $4 $5 $6 $7 $8 $9 X,Y pos of 4 corners*
0 Add a 4 corners polygon primitive as box body*
4,1,4,$2,$3,$4,$5,$6,$7,$8,$9,$2,$3,0*
0 Add four circle primitives for the rounded corners*
1,1,$1+$1,$2,$3*
1,1,$1+$1,$4,$5*
1,1,$1+$1,$6,$7*
1,1,$1+$1,$8,$9*
0 Add four rect primitives between the rounded corners*
20,1,$1+$1,$2,$3,$4,$5,0*
20,1,$1+$1,$4,$5,$6,$7,0*
20,1,$1+$1,$6,$7,$8,$9,0*
20,1,$1+$1,$8,$9,$2,$3,0*%
G04 Aperture macros list end*
%TA.AperFunction,ComponentPad*%
%ADD10R,1.500000X1.500000*%
%TD*%
%TA.AperFunction,ComponentPad*%
%ADD11C,1.500000*%
%TD*%
%TA.AperFunction,ComponentPad*%
%ADD12R,1.700000X1.700000*%
%TD*%
%TA.AperFunction,ComponentPad*%
%ADD13O,1.700000X1.700000*%
%TD*%
%TA.AperFunction,SMDPad,CuDef*%
%ADD14RoundRect,1.000000X0.375000X0.000000X-0.375000X0.000000X-0.375000X0.000000X0.375000X0.000000X0*%
%TD*%
%TA.AperFunction,ViaPad*%
%ADD15C,2.000000*%
%TD*%
%TA.AperFunction,ViaPad*%
%ADD16C,1.000000*%
%TD*%
%TA.AperFunction,Conductor*%
%ADD17C,1.000000*%
%TD*%
%TA.AperFunction,Conductor*%
%ADD18C,2.000000*%
%TD*%
G04 APERTURE END LIST*
D10*
%TO.P,U1,1,VCC*%
%TO.N,+3.3V*%
X209012500Y-88802500D03*
D11*
%TO.P,U1,2,IO*%
%TO.N,DHT*%
X211552500Y-88802500D03*
%TO.P,U1,3,NC*%
%TO.N,unconnected-(U1-Pad3)*%
X214092500Y-88802500D03*
%TO.P,U1,4,GND*%
%TO.N,GND*%
X216632500Y-88802500D03*
%TD*%
D12*
%TO.P,J2,1,Pin_1*%
%TO.N,+3.3V*%
X227330000Y-79375000D03*
D13*
%TO.P,J2,2,Pin_2*%
%TO.N,SDA*%
X224790000Y-79375000D03*
%TO.P,J2,3,Pin_3*%
%TO.N,GND*%
X222250000Y-79375000D03*
%TO.P,J2,4,Pin_4*%
%TO.N,SCL*%
X219710000Y-79375000D03*
%TD*%
D12*
%TO.P,U2,1,GND*%
%TO.N,GND*%
X196865000Y-83820000D03*
D13*
%TO.P,U2,2,DQ*%
%TO.N,ONE_WIRE*%
X199405000Y-83820000D03*
%TO.P,U2,3,VDD*%
%TO.N,+3.3V*%
X201945000Y-83820000D03*
%TD*%
D14*
%TO.P,U4,1,PA02_A0_D0*%
%TO.N,PROBE_SOLAR*%
X221557000Y-33556076D03*
%TO.P,U4,2,PA4_A1_D1*%
%TO.N,PROBE_BATT*%
X221557000Y-36096076D03*
%TO.P,U4,3,PA10_A2_D2*%
%TO.N,unconnected-(U4-Pad3)*%
X221557000Y-38636076D03*
%TO.P,U4,4,PA11_A3_D3*%
%TO.N,unconnected-(U4-Pad4)*%
X221557000Y-41176076D03*
%TO.P,U4,5,PA8_A4_D4_SDA*%
%TO.N,SDA*%
X221557000Y-43716076D03*
%TO.P,U4,6,PA9_A5_D5_SCL*%
%TO.N,SCL*%
X221557000Y-46256076D03*
%TO.P,U4,7,PB08_A6_D6_TX*%
%TO.N,unconnected-(U4-Pad7)*%
X221557000Y-48796076D03*
%TO.P,U4,8,PB09_A7_D7_RX*%
%TO.N,unconnected-(U4-Pad8)*%
X205392000Y-48796076D03*
%TO.P,U4,9,PA7_A8_D8_SCK*%
%TO.N,unconnected-(U4-Pad9)*%
X205392000Y-46256076D03*
%TO.P,U4,10,PA5_A9_D9_MISO*%
%TO.N,ONE_WIRE*%
X205392000Y-43716076D03*
%TO.P,U4,11,PA6_A10_D10_MOSI*%
%TO.N,DHT*%
X205392000Y-41176076D03*
%TO.P,U4,12,3V3*%
%TO.N,+3.3V*%
X205392000Y-38636076D03*
%TO.P,U4,13,GND*%
%TO.N,GND*%
X205392000Y-36096076D03*
%TO.P,U4,14,5V*%
%TO.N,+5V*%
X205392000Y-33556076D03*
%TD*%
D15*
%TO.N,GND*%
X198755000Y-45085000D03*
D16*
%TO.N,PROBE_SOLAR*%
X224028000Y-32004000D03*
%TO.N,PROBE_BATT*%
X224028000Y-35052000D03*
D15*
%TO.N,+5V*%
X201930000Y-32385000D03*
%TD*%
D17*
%TO.N,PROBE_SOLAR*%
X221557000Y-33556076D02*
X222475924Y-33556076D01*
X222475924Y-33556076D02*
X224028000Y-32004000D01*
%TO.N,PROBE_BATT*%
X222983924Y-36096076D02*
X224028000Y-35052000D01*
X221557000Y-36096076D02*
X222983924Y-36096076D01*
D18*
%TO.N,+3.3V*%
X200025000Y-80645000D02*
X200660000Y-80645000D01*
X200660000Y-80645000D02*
X201945000Y-81930000D01*
X205392000Y-38636076D02*
X199488924Y-38636076D01*
X195580000Y-76200000D02*
X200025000Y-80645000D01*
X209012500Y-90267500D02*
X209012500Y-88802500D01*
X195580000Y-42545000D02*
X195580000Y-76200000D01*
X210185000Y-91440000D02*
X209012500Y-90267500D01*
X227330000Y-83820000D02*
X219710000Y-91440000D01*
X219710000Y-91440000D02*
X210185000Y-91440000D01*
X201945000Y-81930000D02*
X201945000Y-83820000D01*
X227330000Y-79375000D02*
X227330000Y-83820000D01*
X199488924Y-38636076D02*
X195580000Y-42545000D01*
D17*
%TO.N,DHT*%
X206276076Y-41176076D02*
X209827000Y-44727000D01*
X209827000Y-83843000D02*
X211552500Y-85568500D01*
X211552500Y-85568500D02*
X211552500Y-88802500D01*
X209827000Y-44727000D02*
X209827000Y-83843000D01*
X205420076Y-41148000D02*
X205392000Y-41176076D01*
X205392000Y-41176076D02*
X206276076Y-41176076D01*
%TO.N,ONE_WIRE*%
X199405000Y-83820000D02*
X199405000Y-85105000D01*
X208280000Y-45212000D02*
X206784076Y-43716076D01*
X199405000Y-85105000D02*
X200660000Y-86360000D01*
X203200000Y-86360000D02*
X208280000Y-81280000D01*
X208280000Y-81280000D02*
X208280000Y-45212000D01*
X200660000Y-86360000D02*
X203200000Y-86360000D01*
X206784076Y-43716076D02*
X205392000Y-43716076D01*
%TO.N,SDA*%
X224790000Y-79375000D02*
X224790000Y-77470000D01*
X224790000Y-77470000D02*
X230505000Y-71755000D01*
X230505000Y-71755000D02*
X230505000Y-45085000D01*
X230505000Y-45085000D02*
X229136076Y-43716076D01*
X229136076Y-43716076D02*
X221557000Y-43716076D01*
D18*
%TO.N,+5V*%
X201930000Y-32385000D02*
X204220924Y-32385000D01*
X204220924Y-32385000D02*
X205392000Y-33556076D01*
D17*
%TO.N,SCL*%
X227965000Y-71120000D02*
X227965000Y-46990000D01*
X227965000Y-46990000D02*
X227231076Y-46256076D01*
X227231076Y-46256076D02*
X221557000Y-46256076D01*
X219710000Y-79375000D02*
X227965000Y-71120000D01*
%TD*%
%TA.AperFunction,Conductor*%
%TO.N,GND*%
G36*
X194486012Y-77241952D02*
G01*
X194498010Y-77253846D01*
X194528698Y-77288655D01*
X194532612Y-77291870D01*
X194532613Y-77291871D01*
X194560987Y-77315178D01*
X194570107Y-77323448D01*
X198941342Y-81694684D01*
X198943796Y-81697206D01*
X199012332Y-81769681D01*
X199016349Y-81772752D01*
X199016352Y-81772755D01*
X199074761Y-81817412D01*
X199079893Y-81821554D01*
X199114252Y-81850795D01*
X199139720Y-81872470D01*
X199144046Y-81875090D01*
X199144053Y-81875095D01*
X199167824Y-81889491D01*
X199179071Y-81897163D01*
X199205174Y-81917120D01*
X199274416Y-81954247D01*
X199280137Y-81957510D01*
X199347357Y-81998220D01*
X199377834Y-82010534D01*
X199390150Y-82016303D01*
X199419109Y-82031831D01*
X199493433Y-82057423D01*
X199499561Y-82059714D01*
X199531906Y-82072782D01*
X199567733Y-82087258D01*
X199567737Y-82087259D01*
X199572429Y-82089155D01*
X199577368Y-82090277D01*
X199577371Y-82090278D01*
X199604460Y-82096432D01*
X199617559Y-82100163D01*
X199648631Y-82110862D01*
X199726100Y-82124243D01*
X199732504Y-82125523D01*
X199809144Y-82142935D01*
X199841953Y-82144999D01*
X199855453Y-82146585D01*
X199887836Y-82152179D01*
X199891793Y-82152359D01*
X199891796Y-82152359D01*
X199915506Y-82153436D01*
X199915525Y-82153436D01*
X199916925Y-82153500D01*
X199973106Y-82153500D01*
X199980989Y-82153747D01*
X199991545Y-82154411D01*
X200058271Y-82178649D01*
X200072726Y-82191067D01*
X200399595Y-82517936D01*
X200433621Y-82580248D01*
X200436500Y-82607031D01*
X200436500Y-82643407D01*
X200416498Y-82711528D01*
X200362842Y-82758021D01*
X200292568Y-82768125D01*
X200232408Y-82742289D01*
X200163414Y-82687800D01*
X200163410Y-82687798D01*
X200159359Y-82684598D01*
X199963789Y-82576638D01*
X199958920Y-82574914D01*
X199958916Y-82574912D01*
X199758087Y-82503795D01*
X199758083Y-82503794D01*
X199753212Y-82502069D01*
X199748119Y-82501162D01*
X199748116Y-82501161D01*
X199538373Y-82463800D01*
X199538367Y-82463799D01*
X199533284Y-82462894D01*
X199459452Y-82461992D01*
X199315081Y-82460228D01*
X199315079Y-82460228D01*
X199309911Y-82460165D01*
X199089091Y-82493955D01*
X198876756Y-82563357D01*
X198846443Y-82579137D01*
X198722982Y-82643407D01*
X198678607Y-82666507D01*
X198674474Y-82669610D01*
X198674471Y-82669612D01*
X198543264Y-82768125D01*
X198499965Y-82800635D01*
X198496393Y-82804373D01*
X198418898Y-82885466D01*
X198357374Y-82920895D01*
X198286462Y-82917438D01*
X198228676Y-82876192D01*
X198209823Y-82842644D01*
X198168324Y-82731946D01*
X198159786Y-82716351D01*
X198083285Y-82614276D01*
X198070724Y-82601715D01*
X197968649Y-82525214D01*
X197953054Y-82516676D01*
X197832606Y-82471522D01*
X197817351Y-82467895D01*
X197766486Y-82462369D01*
X197759672Y-82462000D01*
X197137115Y-82462000D01*
X197121876Y-82466475D01*
X197120671Y-82467865D01*
X197119000Y-82475548D01*
X197119000Y-85159884D01*
X197123475Y-85175123D01*
X197124865Y-85176328D01*
X197132548Y-85177999D01*
X197759669Y-85177999D01*
X197766490Y-85177629D01*
X197817352Y-85172105D01*
X197832604Y-85168479D01*
X197953054Y-85123324D01*
X197968649Y-85114786D01*
X198070724Y-85038285D01*
X198083285Y-85025724D01*
X198159788Y-84923646D01*
X198159980Y-84923295D01*
X198160261Y-84923014D01*
X198165172Y-84916462D01*
X198166118Y-84917171D01*
X198210238Y-84873149D01*
X198279629Y-84858135D01*
X198346121Y-84883020D01*
X198388605Y-84939903D01*
X198396500Y-84983804D01*
X198396500Y-85043157D01*
X198395763Y-85056764D01*
X198395115Y-85062734D01*
X198391676Y-85094388D01*
X198392213Y-85100523D01*
X198396050Y-85144388D01*
X198396379Y-85149214D01*
X198396500Y-85151686D01*
X198396500Y-85154769D01*
X198397674Y-85166738D01*
X198400690Y-85197506D01*
X198400812Y-85198819D01*
X198408913Y-85291413D01*
X198410400Y-85296532D01*
X198410920Y-85301833D01*
X198437791Y-85390834D01*
X198438126Y-85391967D01*
X198462182Y-85474765D01*
X198464091Y-85481336D01*
X198466544Y-85486068D01*
X198468084Y-85491169D01*
X198470978Y-85496612D01*
X198511731Y-85573260D01*
X198512343Y-85574426D01*
X198555108Y-85656926D01*
X198558431Y-85661089D01*
X198560934Y-85665796D01*
X198619755Y-85737918D01*
X198620446Y-85738774D01*
X198651738Y-85777973D01*
X198654242Y-85780477D01*
X198654884Y-85781195D01*
X198658585Y-85785528D01*
X198685935Y-85819062D01*
X198690682Y-85822989D01*
X198690684Y-85822991D01*
X198721262Y-85848287D01*
X198730042Y-85856277D01*
X199903145Y-87029379D01*
X199912247Y-87039522D01*
X199929513Y-87060996D01*
X199935968Y-87069025D01*
X199940696Y-87072992D01*
X199974421Y-87101291D01*
X199978069Y-87104472D01*
X199979881Y-87106115D01*
X199982075Y-87108309D01*
X200015349Y-87135642D01*
X200016147Y-87136304D01*
X200087474Y-87196154D01*
X200092144Y-87198722D01*
X200096261Y-87202103D01*
X200139522Y-87225299D01*
X200178086Y-87245977D01*
X200179245Y-87246606D01*
X200255381Y-87288462D01*
X200255389Y-87288465D01*
X200260787Y-87291433D01*
X200265869Y-87293045D01*
X200270563Y-87295562D01*
X200359531Y-87322762D01*
X200360559Y-87323082D01*
X200449306Y-87351235D01*
X200454602Y-87351829D01*
X200459698Y-87353387D01*
X200552257Y-87362790D01*
X200553393Y-87362911D01*
X200587008Y-87366681D01*
X200599730Y-87368108D01*
X200599734Y-87368108D01*
X200603227Y-87368500D01*
X200606754Y-87368500D01*
X200607739Y-87368555D01*
X200613419Y-87369002D01*
X200642825Y-87371989D01*
X200650337Y-87372752D01*
X200650339Y-87372752D01*
X200656462Y-87373374D01*
X200702108Y-87369059D01*
X200713967Y-87368500D01*
X203138157Y-87368500D01*
X203151764Y-87369237D01*
X203183262Y-87372659D01*
X203183267Y-87372659D01*
X203189388Y-87373324D01*
X203215638Y-87371027D01*
X203239388Y-87368950D01*
X203244214Y-87368621D01*
X203246686Y-87368500D01*
X203249769Y-87368500D01*
X203261738Y-87367326D01*
X203292506Y-87364310D01*
X203293819Y-87364188D01*
X203338084Y-87360315D01*
X203386413Y-87356087D01*
X203391532Y-87354600D01*
X203396833Y-87354080D01*
X203485834Y-87327209D01*
X203486967Y-87326874D01*
X203570414Y-87302630D01*
X203570418Y-87302628D01*
X203576336Y-87300909D01*
X203581068Y-87298456D01*
X203586169Y-87296916D01*
X203593173Y-87293192D01*
X203668260Y-87253269D01*
X203669426Y-87252657D01*
X203746453Y-87212729D01*
X203751926Y-87209892D01*
X203756089Y-87206569D01*
X203760796Y-87204066D01*
X203832918Y-87145245D01*
X203833774Y-87144554D01*
X203872973Y-87113262D01*
X203875477Y-87110758D01*
X203876195Y-87110116D01*
X203880528Y-87106415D01*
X203914062Y-87079065D01*
X203927150Y-87063245D01*
X203943287Y-87043738D01*
X203951277Y-87034958D01*
X206277097Y-84709138D01*
X208603405Y-82382829D01*
X208665717Y-82348803D01*
X208736532Y-82353868D01*
X208793368Y-82396415D01*
X208818179Y-82462935D01*
X208818500Y-82471924D01*
X208818500Y-83781157D01*
X208817763Y-83794764D01*
X208813676Y-83832388D01*
X208814213Y-83838523D01*
X208818050Y-83882388D01*
X208818379Y-83887214D01*
X208818500Y-83889686D01*
X208818500Y-83892769D01*
X208818801Y-83895837D01*
X208822690Y-83935506D01*
X208822812Y-83936819D01*
X208824246Y-83953204D01*
X208830913Y-84029413D01*
X208832400Y-84034532D01*
X208832920Y-84039833D01*
X208859791Y-84128834D01*
X208860126Y-84129967D01*
X208880810Y-84201158D01*
X208886091Y-84219336D01*
X208888544Y-84224068D01*
X208890084Y-84229169D01*
X208892978Y-84234612D01*
X208933731Y-84311260D01*
X208934343Y-84312426D01*
X208977108Y-84394926D01*
X208980431Y-84399089D01*
X208982934Y-84403796D01*
X209041755Y-84475918D01*
X209042446Y-84476774D01*
X209073738Y-84515973D01*
X209076242Y-84518477D01*
X209076884Y-84519195D01*
X209080585Y-84523528D01*
X209107935Y-84557062D01*
X209112682Y-84560989D01*
X209112684Y-84560991D01*
X209143262Y-84586287D01*
X209152042Y-84594277D01*
X210507095Y-85949330D01*
X210541121Y-86011642D01*
X210544000Y-86038425D01*
X210544000Y-87967018D01*
X210523998Y-88035139D01*
X210470342Y-88081632D01*
X210400068Y-88091736D01*
X210335488Y-88062242D01*
X210311380Y-88034160D01*
X210283862Y-87990462D01*
X210280290Y-87984789D01*
X210264892Y-87948140D01*
X210264245Y-87942184D01*
X210213115Y-87805795D01*
X210125761Y-87689239D01*
X210009205Y-87601885D01*
X209872816Y-87550755D01*
X209869698Y-87550416D01*
X209839238Y-87538241D01*
X209813179Y-87523074D01*
X209666422Y-87437659D01*
X209661696Y-87435845D01*
X209661692Y-87435843D01*
X209444522Y-87352480D01*
X209444518Y-87352479D01*
X209439798Y-87350667D01*
X209434848Y-87349633D01*
X209434845Y-87349632D01*
X209207131Y-87302060D01*
X209207127Y-87302060D01*
X209202180Y-87301026D01*
X208959683Y-87290014D01*
X208954663Y-87290595D01*
X208954659Y-87290595D01*
X208723571Y-87317333D01*
X208723567Y-87317334D01*
X208718544Y-87317915D01*
X208713680Y-87319291D01*
X208713677Y-87319292D01*
X208597033Y-87352299D01*
X208484968Y-87384010D01*
X208480392Y-87386144D01*
X208480386Y-87386146D01*
X208269546Y-87484462D01*
X208269542Y-87484464D01*
X208264964Y-87486599D01*
X208260783Y-87489440D01*
X208260782Y-87489441D01*
X208197307Y-87532579D01*
X208157342Y-87550195D01*
X208152184Y-87550755D01*
X208144795Y-87553525D01*
X208144791Y-87553526D01*
X208029008Y-87596932D01*
X208015795Y-87601885D01*
X207899239Y-87689239D01*
X207811885Y-87805795D01*
X207760755Y-87942184D01*
X207760023Y-87941909D01*
X207744975Y-87973614D01*
X207746195Y-87974400D01*
X207743455Y-87978652D01*
X207740380Y-87982674D01*
X207625669Y-88196609D01*
X207546638Y-88426131D01*
X207505321Y-88665336D01*
X207504000Y-88694425D01*
X207504000Y-90243484D01*
X207503951Y-90247002D01*
X207501166Y-90346705D01*
X207505378Y-90378268D01*
X207511558Y-90424586D01*
X207512258Y-90431139D01*
X207518560Y-90509465D01*
X207526397Y-90541370D01*
X207528926Y-90554758D01*
X207533271Y-90587320D01*
X207534732Y-90592161D01*
X207534733Y-90592163D01*
X207555978Y-90662529D01*
X207557719Y-90668890D01*
X207576463Y-90745206D01*
X207578441Y-90749866D01*
X207589301Y-90775451D01*
X207593938Y-90788261D01*
X207603433Y-90819708D01*
X207605651Y-90824256D01*
X207605654Y-90824263D01*
X207637871Y-90890318D01*
X207640607Y-90896320D01*
X207671312Y-90968656D01*
X207674004Y-90972930D01*
X207688819Y-90996456D01*
X207695445Y-91008360D01*
X207709846Y-91037888D01*
X207743918Y-91086187D01*
X207755141Y-91102097D01*
X207758801Y-91107586D01*
X207800667Y-91174067D01*
X207804008Y-91177856D01*
X207804012Y-91177862D01*
X207822398Y-91198717D01*
X207830844Y-91209412D01*
X207849774Y-91236247D01*
X207852444Y-91239171D01*
X207860657Y-91248165D01*
X207869409Y-91257750D01*
X207909125Y-91297466D01*
X207914544Y-91303236D01*
X207957850Y-91352358D01*
X207957853Y-91352361D01*
X207961198Y-91356155D01*
X207965112Y-91359370D01*
X207965113Y-91359371D01*
X207993487Y-91382678D01*
X208002597Y-91390938D01*
X208852065Y-92240407D01*
X208886089Y-92302717D01*
X208881024Y-92373533D01*
X208838477Y-92430368D01*
X208771957Y-92455179D01*
X208762968Y-92455500D01*
X194403500Y-92455500D01*
X194335379Y-92435498D01*
X194288886Y-92381842D01*
X194277500Y-92329500D01*
X194277500Y-89286703D01*
X195911743Y-89286703D01*
X195912302Y-89290947D01*
X195912302Y-89290951D01*
X195913721Y-89301731D01*
X195949268Y-89571734D01*
X196025129Y-89849036D01*
X196137923Y-90113476D01*
X196149693Y-90133142D01*
X196280509Y-90351719D01*
X196285561Y-90360161D01*
X196465313Y-90584528D01*
X196673851Y-90782423D01*
X196907317Y-90950186D01*
X196911112Y-90952195D01*
X196911113Y-90952196D01*
X196942201Y-90968656D01*
X197161392Y-91084712D01*
X197185699Y-91093607D01*
X197393868Y-91169786D01*
X197431373Y-91183511D01*
X197712264Y-91244755D01*
X197740841Y-91247004D01*
X197935282Y-91262307D01*
X197935291Y-91262307D01*
X197937739Y-91262500D01*
X198093271Y-91262500D01*
X198095407Y-91262354D01*
X198095418Y-91262354D01*
X198303548Y-91248165D01*
X198303554Y-91248164D01*
X198307825Y-91247873D01*
X198312020Y-91247004D01*
X198312022Y-91247004D01*
X198493547Y-91209412D01*
X198589342Y-91189574D01*
X198860343Y-91093607D01*
X199115812Y-90961750D01*
X199119313Y-90959289D01*
X199119317Y-90959287D01*
X199317917Y-90819708D01*
X199351023Y-90796441D01*
X199561622Y-90600740D01*
X199743713Y-90378268D01*
X199893927Y-90133142D01*
X200009483Y-89869898D01*
X200015285Y-89849532D01*
X200087068Y-89597534D01*
X200088244Y-89593406D01*
X200128751Y-89308784D01*
X200128792Y-89301140D01*
X200130235Y-89025583D01*
X200130235Y-89025576D01*
X200130257Y-89021297D01*
X200092732Y-88736266D01*
X200081673Y-88695839D01*
X200070585Y-88655311D01*
X200016871Y-88458964D01*
X199950461Y-88303269D01*
X199905763Y-88198476D01*
X199905761Y-88198472D01*
X199904077Y-88194524D01*
X199784648Y-87994973D01*
X199758643Y-87951521D01*
X199758640Y-87951517D01*
X199756439Y-87947839D01*
X199576687Y-87723472D01*
X199404221Y-87559808D01*
X199371258Y-87528527D01*
X199371255Y-87528525D01*
X199368149Y-87525577D01*
X199150332Y-87369059D01*
X199138172Y-87360321D01*
X199138171Y-87360320D01*
X199134683Y-87357814D01*
X199128721Y-87354657D01*
X199058228Y-87317333D01*
X198880608Y-87223288D01*
X198667485Y-87145296D01*
X198614658Y-87125964D01*
X198614656Y-87125963D01*
X198610627Y-87124489D01*
X198329736Y-87063245D01*
X198298685Y-87060801D01*
X198106718Y-87045693D01*
X198106709Y-87045693D01*
X198104261Y-87045500D01*
X197948729Y-87045500D01*
X197946593Y-87045646D01*
X197946582Y-87045646D01*
X197738452Y-87059835D01*
X197738446Y-87059836D01*
X197734175Y-87060127D01*
X197729980Y-87060996D01*
X197729978Y-87060996D01*
X197593416Y-87089277D01*
X197452658Y-87118426D01*
X197181657Y-87214393D01*
X197177848Y-87216359D01*
X197038151Y-87288462D01*
X196926188Y-87346250D01*
X196922687Y-87348711D01*
X196922683Y-87348713D01*
X196808583Y-87428904D01*
X196690977Y-87511559D01*
X196675892Y-87525577D01*
X196505562Y-87683858D01*
X196480378Y-87707260D01*
X196298287Y-87929732D01*
X196148073Y-88174858D01*
X196146347Y-88178791D01*
X196146346Y-88178792D01*
X196091445Y-88303860D01*
X196032517Y-88438102D01*
X195953756Y-88714594D01*
X195913249Y-88999216D01*
X195913227Y-89003505D01*
X195913226Y-89003512D01*
X195911765Y-89282417D01*
X195911743Y-89286703D01*
X194277500Y-89286703D01*
X194277500Y-84714669D01*
X195507001Y-84714669D01*
X195507371Y-84721490D01*
X195512895Y-84772352D01*
X195516521Y-84787604D01*
X195561676Y-84908054D01*
X195570214Y-84923649D01*
X195646715Y-85025724D01*
X195659276Y-85038285D01*
X195761351Y-85114786D01*
X195776946Y-85123324D01*
X195897394Y-85168478D01*
X195912649Y-85172105D01*
X195963514Y-85177631D01*
X195970328Y-85178000D01*
X196592885Y-85178000D01*
X196608124Y-85173525D01*
X196609329Y-85172135D01*
X196611000Y-85164452D01*
X196611000Y-84092115D01*
X196606525Y-84076876D01*
X196605135Y-84075671D01*
X196597452Y-84074000D01*
X195525116Y-84074000D01*
X195509877Y-84078475D01*
X195508672Y-84079865D01*
X195507001Y-84087548D01*
X195507001Y-84714669D01*
X194277500Y-84714669D01*
X194277500Y-83547885D01*
X195507000Y-83547885D01*
X195511475Y-83563124D01*
X195512865Y-83564329D01*
X195520548Y-83566000D01*
X196592885Y-83566000D01*
X196608124Y-83561525D01*
X196609329Y-83560135D01*
X196611000Y-83552452D01*
X196611000Y-82480116D01*
X196606525Y-82464877D01*
X196605135Y-82463672D01*
X196597452Y-82462001D01*
X195970331Y-82462001D01*
X195963510Y-82462371D01*
X195912648Y-82467895D01*
X195897396Y-82471521D01*
X195776946Y-82516676D01*
X195761351Y-82525214D01*
X195659276Y-82601715D01*
X195646715Y-82614276D01*
X195570214Y-82716351D01*
X195561676Y-82731946D01*
X195516522Y-82852394D01*
X195512895Y-82867649D01*
X195507369Y-82918514D01*
X195507000Y-82925328D01*
X195507000Y-83547885D01*
X194277500Y-83547885D01*
X194277500Y-77337176D01*
X194297502Y-77269055D01*
X194351158Y-77222562D01*
X194421432Y-77212458D01*
X194486012Y-77241952D01*
G37*
%TD.AperFunction*%
%TA.AperFunction,Conductor*%
G36*
X201385147Y-30763502D02*
G01*
X201431640Y-30817158D01*
X201441744Y-30887432D01*
X201412250Y-30952012D01*
X201366261Y-30985482D01*
X201358834Y-30988635D01*
X201343565Y-30995116D01*
X201342717Y-30995472D01*
X201243037Y-31036760D01*
X201239163Y-31039134D01*
X201234592Y-31041266D01*
X201233512Y-31041831D01*
X201228844Y-31043812D01*
X201132227Y-31104655D01*
X201131042Y-31105391D01*
X201040584Y-31160824D01*
X201036816Y-31164042D01*
X201032990Y-31166822D01*
X201028813Y-31169650D01*
X201027721Y-31170467D01*
X201023433Y-31173167D01*
X200962707Y-31226704D01*
X200940422Y-31246350D01*
X200938928Y-31247646D01*
X200889411Y-31289938D01*
X200860031Y-31315031D01*
X200856822Y-31318788D01*
X200853317Y-31322293D01*
X200853236Y-31322212D01*
X200845764Y-31329802D01*
X200841345Y-31333698D01*
X200838130Y-31337612D01*
X200838129Y-31337613D01*
X200773189Y-31416672D01*
X200771637Y-31418526D01*
X200705824Y-31495584D01*
X200702886Y-31500379D01*
X200692821Y-31514514D01*
X200690480Y-31517364D01*
X200690475Y-31517372D01*
X200687266Y-31521278D01*
X200680860Y-31532285D01*
X200634792Y-31611437D01*
X200633361Y-31613832D01*
X200581760Y-31698037D01*
X200579868Y-31702606D01*
X200579867Y-31702607D01*
X200578514Y-31705874D01*
X200571006Y-31721033D01*
X200565159Y-31731078D01*
X200534619Y-31810638D01*
X200528881Y-31825586D01*
X200527659Y-31828648D01*
X200490895Y-31917406D01*
X200489739Y-31922220D01*
X200489739Y-31922221D01*
X200488248Y-31928432D01*
X200483360Y-31944174D01*
X200478167Y-31957702D01*
X200477133Y-31962652D01*
X200458085Y-32053829D01*
X200457267Y-32057476D01*
X200442636Y-32118420D01*
X200435465Y-32148289D01*
X200435077Y-32153222D01*
X200434351Y-32162440D01*
X200432078Y-32178315D01*
X200428526Y-32195320D01*
X200428297Y-32200370D01*
X200428296Y-32200375D01*
X200424206Y-32290455D01*
X200423949Y-32294608D01*
X200416835Y-32385000D01*
X200417223Y-32389931D01*
X200417223Y-32389935D01*
X200418173Y-32402012D01*
X200418431Y-32417604D01*
X200417743Y-32432759D01*
X200417743Y-32432766D01*
X200417514Y-32437817D01*
X200418095Y-32442837D01*
X200418095Y-32442843D01*
X200428122Y-32529504D01*
X200428569Y-32534098D01*
X200434257Y-32606359D01*
X200435465Y-32621711D01*
X200436619Y-32626517D01*
X200440113Y-32641072D01*
X200442759Y-32656002D01*
X200444025Y-32666939D01*
X200445415Y-32678956D01*
X200446791Y-32683818D01*
X200469755Y-32764975D01*
X200471033Y-32769866D01*
X200490895Y-32852594D01*
X200499610Y-32873634D01*
X200504436Y-32887532D01*
X200511510Y-32912532D01*
X200513646Y-32917113D01*
X200513648Y-32917118D01*
X200548047Y-32990887D01*
X200550261Y-32995918D01*
X200581760Y-33071963D01*
X200595142Y-33093800D01*
X200601904Y-33106384D01*
X200614099Y-33132536D01*
X200616941Y-33136717D01*
X200616945Y-33136725D01*
X200661070Y-33201653D01*
X200664285Y-33206632D01*
X200705824Y-33274416D01*
X200709038Y-33278179D01*
X200724318Y-33296070D01*
X200732717Y-33307076D01*
X200743802Y-33323386D01*
X200750544Y-33333307D01*
X200754023Y-33336985D01*
X200754023Y-33336986D01*
X200805946Y-33391893D01*
X200810209Y-33396636D01*
X200856817Y-33451207D01*
X200856824Y-33451214D01*
X200860031Y-33454969D01*
X200883855Y-33475317D01*
X200893556Y-33484539D01*
X200917332Y-33509681D01*
X200921358Y-33512759D01*
X200921359Y-33512760D01*
X200979092Y-33556900D01*
X200984394Y-33561185D01*
X201040584Y-33609176D01*
X201044798Y-33611758D01*
X201044803Y-33611762D01*
X201069720Y-33627031D01*
X201080416Y-33634368D01*
X201106158Y-33654050D01*
X201106162Y-33654053D01*
X201110174Y-33657120D01*
X201114624Y-33659506D01*
X201114627Y-33659508D01*
X201176151Y-33692496D01*
X201182446Y-33696109D01*
X201243037Y-33733240D01*
X201277253Y-33747413D01*
X201288547Y-33752763D01*
X201324109Y-33771831D01*
X201392188Y-33795272D01*
X201399333Y-33797979D01*
X201462406Y-33824105D01*
X201501182Y-33833415D01*
X201512767Y-33836792D01*
X201548842Y-33849214D01*
X201548853Y-33849217D01*
X201553631Y-33850862D01*
X201621739Y-33862626D01*
X201629673Y-33864262D01*
X201688476Y-33878380D01*
X201688482Y-33878381D01*
X201693289Y-33879535D01*
X201735884Y-33882887D01*
X201747435Y-33884337D01*
X201792836Y-33892179D01*
X201796797Y-33892359D01*
X201796798Y-33892359D01*
X201820506Y-33893436D01*
X201820525Y-33893436D01*
X201821925Y-33893500D01*
X201865771Y-33893500D01*
X201875657Y-33893888D01*
X201930000Y-33898165D01*
X201984343Y-33893888D01*
X201994229Y-33893500D01*
X203446100Y-33893500D01*
X203514221Y-33913502D01*
X203560714Y-33967158D01*
X203568969Y-33991588D01*
X203571722Y-34003707D01*
X203571724Y-34003714D01*
X203572845Y-34008647D01*
X203574739Y-34013335D01*
X203574740Y-34013338D01*
X203657275Y-34217617D01*
X203663780Y-34233718D01*
X203666403Y-34238049D01*
X203774067Y-34415823D01*
X203789530Y-34441356D01*
X203946859Y-34626217D01*
X203950706Y-34629491D01*
X204069333Y-34730451D01*
X204108246Y-34789834D01*
X204108877Y-34860828D01*
X204069333Y-34922359D01*
X203951061Y-35023016D01*
X203943940Y-35030137D01*
X203793220Y-35207233D01*
X203787312Y-35215424D01*
X203666852Y-35414327D01*
X203662332Y-35423353D01*
X203575219Y-35638964D01*
X203572203Y-35648588D01*
X203532257Y-35824412D01*
X203533134Y-35838485D01*
X203542496Y-35842076D01*
X207237641Y-35842076D01*
X207251172Y-35838103D01*
X207252599Y-35828179D01*
X207211797Y-35648588D01*
X207208781Y-35638964D01*
X207121668Y-35423353D01*
X207117148Y-35414327D01*
X206996688Y-35215424D01*
X206990780Y-35207233D01*
X206840060Y-35030137D01*
X206832939Y-35023016D01*
X206714667Y-34922359D01*
X206675754Y-34862976D01*
X206675123Y-34791983D01*
X206714667Y-34730451D01*
X206833294Y-34629491D01*
X206837141Y-34626217D01*
X206994470Y-34441356D01*
X207009934Y-34415823D01*
X207117597Y-34238049D01*
X207120220Y-34233718D01*
X207126726Y-34217617D01*
X207209260Y-34013338D01*
X207209261Y-34013335D01*
X207211155Y-34008647D01*
X207212278Y-34003707D01*
X207244173Y-33863315D01*
X207264935Y-33771932D01*
X207270370Y-33696109D01*
X207275339Y-33626795D01*
X207275339Y-33626787D01*
X207275500Y-33624545D01*
X207275499Y-33487608D01*
X207273390Y-33458175D01*
X207265277Y-33344988D01*
X207265277Y-33344985D01*
X207264935Y-33340220D01*
X207263876Y-33335556D01*
X207212276Y-33108438D01*
X207212275Y-33108435D01*
X207211155Y-33103505D01*
X207167687Y-32995918D01*
X207122117Y-32883128D01*
X207122114Y-32883123D01*
X207120220Y-32878434D01*
X207054469Y-32769866D01*
X206997095Y-32675130D01*
X206997094Y-32675128D01*
X206994470Y-32670796D01*
X206837141Y-32485935D01*
X206652280Y-32328606D01*
X206444642Y-32202856D01*
X206439953Y-32200962D01*
X206439948Y-32200959D01*
X206224262Y-32113816D01*
X206224259Y-32113815D01*
X206219571Y-32111921D01*
X206214641Y-32110801D01*
X206214638Y-32110800D01*
X206075966Y-32079295D01*
X206014786Y-32045521D01*
X205304599Y-31335334D01*
X205302145Y-31332812D01*
X205237062Y-31263988D01*
X205237059Y-31263986D01*
X205233592Y-31260319D01*
X205171163Y-31212589D01*
X205166032Y-31208448D01*
X205110057Y-31160809D01*
X205110056Y-31160808D01*
X205106204Y-31157530D01*
X205101879Y-31154911D01*
X205101874Y-31154907D01*
X205078100Y-31140509D01*
X205066853Y-31132837D01*
X205040750Y-31112880D01*
X205025301Y-31104596D01*
X204971523Y-31075761D01*
X204965792Y-31072493D01*
X204963223Y-31070937D01*
X204898566Y-31031779D01*
X204868105Y-31019472D01*
X204855765Y-31013692D01*
X204844031Y-31007400D01*
X204826815Y-30998169D01*
X204822031Y-30996522D01*
X204822027Y-30996520D01*
X204799127Y-30988635D01*
X204741229Y-30947545D01*
X204714738Y-30881676D01*
X204728063Y-30811942D01*
X204776975Y-30760481D01*
X204840148Y-30743500D01*
X208169000Y-30743500D01*
X208237121Y-30763502D01*
X208283614Y-30817158D01*
X208295000Y-30869500D01*
X208295000Y-33261076D01*
X210073000Y-33261076D01*
X210073000Y-30869500D01*
X210093002Y-30801379D01*
X210146658Y-30754886D01*
X210199000Y-30743500D01*
X216805000Y-30743500D01*
X216873121Y-30763502D01*
X216919614Y-30817158D01*
X216931000Y-30869500D01*
X216931000Y-33261076D01*
X218709000Y-33261076D01*
X218709000Y-30869500D01*
X218729002Y-30801379D01*
X218782658Y-30754886D01*
X218835000Y-30743500D01*
X223976009Y-30743500D01*
X224036177Y-30761167D01*
X224067608Y-30745477D01*
X224089842Y-30743500D01*
X231521500Y-30743500D01*
X231589621Y-30763502D01*
X231636114Y-30817158D01*
X231647500Y-30869500D01*
X231647500Y-44580119D01*
X231627498Y-44648240D01*
X231573842Y-44694733D01*
X231503568Y-44704837D01*
X231438988Y-44675343D01*
X231410247Y-44639269D01*
X231398268Y-44616738D01*
X231397657Y-44615574D01*
X231357729Y-44538547D01*
X231354892Y-44533074D01*
X231351569Y-44528911D01*
X231349066Y-44524204D01*
X231290245Y-44452082D01*
X231289554Y-44451226D01*
X231258262Y-44412027D01*
X231255758Y-44409523D01*
X231255116Y-44408805D01*
X231251415Y-44404472D01*
X231224065Y-44370938D01*
X231206717Y-44356586D01*
X231188738Y-44341713D01*
X231179958Y-44333723D01*
X229892931Y-43046697D01*
X229883829Y-43036554D01*
X229863973Y-43011858D01*
X229860108Y-43007051D01*
X229821654Y-42974784D01*
X229818007Y-42971604D01*
X229816195Y-42969961D01*
X229814001Y-42967767D01*
X229780727Y-42940434D01*
X229779929Y-42939772D01*
X229708602Y-42879922D01*
X229703932Y-42877354D01*
X229699815Y-42873973D01*
X229641931Y-42842936D01*
X229617990Y-42830099D01*
X229616831Y-42829470D01*
X229540695Y-42787614D01*
X229540687Y-42787611D01*
X229535289Y-42784643D01*
X229530207Y-42783031D01*
X229525513Y-42780514D01*
X229436545Y-42753314D01*
X229435517Y-42752994D01*
X229346770Y-42724841D01*
X229341474Y-42724247D01*
X229336378Y-42722689D01*
X229243819Y-42713286D01*
X229242683Y-42713165D01*
X229209068Y-42709395D01*
X229196346Y-42707968D01*
X229196342Y-42707968D01*
X229192849Y-42707576D01*
X229189322Y-42707576D01*
X229188337Y-42707521D01*
X229182657Y-42707074D01*
X229153251Y-42704087D01*
X229145739Y-42703324D01*
X229145737Y-42703324D01*
X229139614Y-42702702D01*
X229097335Y-42706699D01*
X229093967Y-42707017D01*
X229082109Y-42707576D01*
X223112822Y-42707576D01*
X223044701Y-42687574D01*
X223016869Y-42663240D01*
X223005417Y-42649784D01*
X223005415Y-42649782D01*
X223002141Y-42645935D01*
X222880053Y-42542030D01*
X222841140Y-42482647D01*
X222840509Y-42411653D01*
X222880053Y-42350122D01*
X222998294Y-42249491D01*
X223002141Y-42246217D01*
X223159470Y-42061356D01*
X223285220Y-41853718D01*
X223337156Y-41725174D01*
X223374260Y-41633338D01*
X223374261Y-41633335D01*
X223376155Y-41628647D01*
X223429935Y-41391932D01*
X223440500Y-41244545D01*
X223440499Y-41107608D01*
X223429935Y-40960220D01*
X223428876Y-40955556D01*
X223377276Y-40728438D01*
X223377275Y-40728435D01*
X223376155Y-40723505D01*
X223285220Y-40498434D01*
X223220271Y-40391191D01*
X223162095Y-40295130D01*
X223162094Y-40295128D01*
X223159470Y-40290796D01*
X223002141Y-40105935D01*
X222880053Y-40002030D01*
X222841140Y-39942647D01*
X222840509Y-39871653D01*
X222880053Y-39810122D01*
X222998294Y-39709491D01*
X223002141Y-39706217D01*
X223159470Y-39521356D01*
X223285220Y-39313718D01*
X223376155Y-39088647D01*
X223429935Y-38851932D01*
X223440500Y-38704545D01*
X223440499Y-38567608D01*
X223433294Y-38467076D01*
X223430277Y-38424988D01*
X223430277Y-38424985D01*
X223429935Y-38420220D01*
X223416499Y-38361078D01*
X223377276Y-38188438D01*
X223377275Y-38188435D01*
X223376155Y-38183505D01*
X223285220Y-37958434D01*
X223159470Y-37750796D01*
X223002141Y-37565935D01*
X222880053Y-37462030D01*
X222841140Y-37402647D01*
X222840509Y-37331653D01*
X222880053Y-37270122D01*
X222998294Y-37169491D01*
X223002141Y-37166217D01*
X223023212Y-37141458D01*
X223082593Y-37102546D01*
X223108183Y-37097601D01*
X223128013Y-37095866D01*
X223164205Y-37092700D01*
X223164210Y-37092699D01*
X223170337Y-37092163D01*
X223175456Y-37090676D01*
X223180757Y-37090156D01*
X223269758Y-37063285D01*
X223270891Y-37062950D01*
X223354338Y-37038706D01*
X223354342Y-37038704D01*
X223360260Y-37036985D01*
X223364992Y-37034532D01*
X223370093Y-37032992D01*
X223422862Y-37004935D01*
X223452184Y-36989345D01*
X223453350Y-36988733D01*
X223530377Y-36948805D01*
X223535850Y-36945968D01*
X223540013Y-36942645D01*
X223544720Y-36940142D01*
X223616842Y-36881321D01*
X223617698Y-36880630D01*
X223656897Y-36849338D01*
X223659401Y-36846834D01*
X223660119Y-36846192D01*
X223664452Y-36842491D01*
X223697986Y-36815141D01*
X223727212Y-36779813D01*
X223735201Y-36771034D01*
X224691801Y-35814434D01*
X224703323Y-35804240D01*
X224721986Y-35789659D01*
X224721987Y-35789658D01*
X224726847Y-35785861D01*
X224764673Y-35742039D01*
X224770960Y-35735275D01*
X224776309Y-35729926D01*
X224778264Y-35727546D01*
X224778273Y-35727536D01*
X224798539Y-35702864D01*
X224800521Y-35700509D01*
X224809537Y-35690063D01*
X224856078Y-35636145D01*
X224859121Y-35630787D01*
X224862672Y-35625754D01*
X224862929Y-35625935D01*
X224863024Y-35625798D01*
X224862762Y-35625623D01*
X224866194Y-35620497D01*
X224870102Y-35615739D01*
X224910269Y-35540829D01*
X224911757Y-35538133D01*
X224922508Y-35519208D01*
X224953769Y-35464179D01*
X224955714Y-35458332D01*
X224958221Y-35452701D01*
X224958506Y-35452828D01*
X224958569Y-35452681D01*
X224958280Y-35452561D01*
X224960649Y-35446870D01*
X224963562Y-35441437D01*
X224988419Y-35360133D01*
X224989347Y-35357226D01*
X225014251Y-35282362D01*
X225016197Y-35276513D01*
X225016970Y-35270398D01*
X225018335Y-35264390D01*
X225018638Y-35264459D01*
X225018674Y-35264292D01*
X225018368Y-35264230D01*
X225019584Y-35258200D01*
X225021387Y-35252302D01*
X225029978Y-35167732D01*
X225030326Y-35164675D01*
X225040545Y-35083776D01*
X225040985Y-35080295D01*
X225041324Y-35056033D01*
X225041374Y-35055538D01*
X225041336Y-35055138D01*
X225041380Y-35052000D01*
X225034238Y-34979159D01*
X225031920Y-34955517D01*
X225031878Y-34955080D01*
X225023318Y-34864526D01*
X225023317Y-34864522D01*
X225022761Y-34858638D01*
X225022253Y-34856935D01*
X225022080Y-34855167D01*
X225020375Y-34849521D01*
X225020374Y-34849514D01*
X224994154Y-34762669D01*
X224994027Y-34762249D01*
X224968525Y-34676703D01*
X226236743Y-34676703D01*
X226274268Y-34961734D01*
X226275401Y-34965874D01*
X226275401Y-34965876D01*
X226290936Y-35022661D01*
X226350129Y-35239036D01*
X226351813Y-35242984D01*
X226441320Y-35452828D01*
X226462923Y-35503476D01*
X226526861Y-35610309D01*
X226603614Y-35738553D01*
X226610561Y-35750161D01*
X226790313Y-35974528D01*
X226875720Y-36055576D01*
X226987419Y-36161574D01*
X226998851Y-36172423D01*
X227232317Y-36340186D01*
X227236112Y-36342195D01*
X227236113Y-36342196D01*
X227257778Y-36353667D01*
X227486392Y-36474712D01*
X227756373Y-36573511D01*
X228037264Y-36634755D01*
X228065841Y-36637004D01*
X228260282Y-36652307D01*
X228260291Y-36652307D01*
X228262739Y-36652500D01*
X228418271Y-36652500D01*
X228420407Y-36652354D01*
X228420418Y-36652354D01*
X228628548Y-36638165D01*
X228628554Y-36638164D01*
X228632825Y-36637873D01*
X228637020Y-36637004D01*
X228637022Y-36637004D01*
X228773583Y-36608724D01*
X228914342Y-36579574D01*
X229185343Y-36483607D01*
X229440812Y-36351750D01*
X229444313Y-36349289D01*
X229444317Y-36349287D01*
X229558417Y-36269096D01*
X229676023Y-36186441D01*
X229816850Y-36055576D01*
X229883479Y-35993661D01*
X229883481Y-35993658D01*
X229886622Y-35990740D01*
X230068713Y-35768268D01*
X230218927Y-35523142D01*
X230249849Y-35452701D01*
X230332757Y-35263830D01*
X230334483Y-35259898D01*
X230413244Y-34983406D01*
X230453751Y-34698784D01*
X230453845Y-34680951D01*
X230455235Y-34415583D01*
X230455235Y-34415576D01*
X230455257Y-34411297D01*
X230449870Y-34370374D01*
X230431260Y-34229024D01*
X230417732Y-34126266D01*
X230413942Y-34112410D01*
X230362731Y-33925215D01*
X230341871Y-33848964D01*
X230306980Y-33767164D01*
X230230763Y-33588476D01*
X230230761Y-33588472D01*
X230229077Y-33584524D01*
X230116628Y-33396636D01*
X230083643Y-33341521D01*
X230083640Y-33341517D01*
X230081439Y-33337839D01*
X229901687Y-33113472D01*
X229693149Y-32915577D01*
X229503064Y-32778987D01*
X229463172Y-32750321D01*
X229463171Y-32750320D01*
X229459683Y-32747814D01*
X229448040Y-32741649D01*
X229345345Y-32687275D01*
X229205608Y-32613288D01*
X228982959Y-32531810D01*
X228939658Y-32515964D01*
X228939656Y-32515963D01*
X228935627Y-32514489D01*
X228654736Y-32453245D01*
X228623685Y-32450801D01*
X228431718Y-32435693D01*
X228431709Y-32435693D01*
X228429261Y-32435500D01*
X228273729Y-32435500D01*
X228271593Y-32435646D01*
X228271582Y-32435646D01*
X228063452Y-32449835D01*
X228063446Y-32449836D01*
X228059175Y-32450127D01*
X228054980Y-32450996D01*
X228054978Y-32450996D01*
X227918417Y-32479276D01*
X227777658Y-32508426D01*
X227506657Y-32604393D01*
X227502848Y-32606359D01*
X227332971Y-32694039D01*
X227251188Y-32736250D01*
X227247687Y-32738711D01*
X227247683Y-32738713D01*
X227210316Y-32764975D01*
X227015977Y-32901559D01*
X227000892Y-32915577D01*
X226828061Y-33076182D01*
X226805378Y-33097260D01*
X226623287Y-33319732D01*
X226473073Y-33564858D01*
X226471347Y-33568791D01*
X226471346Y-33568792D01*
X226417044Y-33692496D01*
X226357517Y-33828102D01*
X226356342Y-33832229D01*
X226356341Y-33832230D01*
X226337559Y-33898165D01*
X226278756Y-34104594D01*
X226270091Y-34165480D01*
X226240931Y-34370374D01*
X226238249Y-34389216D01*
X226238227Y-34393505D01*
X226238226Y-34393512D01*
X226236765Y-34672417D01*
X226236743Y-34676703D01*
X224968525Y-34676703D01*
X224967937Y-34674732D01*
X224967936Y-34674730D01*
X224966259Y-34669104D01*
X224965429Y-34667529D01*
X224964916Y-34665831D01*
X224919323Y-34580083D01*
X224874018Y-34494154D01*
X224872901Y-34492775D01*
X224872066Y-34491204D01*
X224810587Y-34415823D01*
X224773783Y-34370374D01*
X224753253Y-34345021D01*
X224753248Y-34345016D01*
X224749553Y-34340453D01*
X224748190Y-34339317D01*
X224747065Y-34337938D01*
X224672080Y-34275905D01*
X224597604Y-34213854D01*
X224596047Y-34213005D01*
X224594675Y-34211870D01*
X224589493Y-34209068D01*
X224589487Y-34209064D01*
X224509269Y-34165691D01*
X224508881Y-34165480D01*
X224429142Y-34122004D01*
X224429135Y-34122001D01*
X224423959Y-34119179D01*
X224422267Y-34118649D01*
X224420701Y-34117802D01*
X224415066Y-34116058D01*
X224415062Y-34116056D01*
X224327860Y-34089063D01*
X224327441Y-34088932D01*
X224240875Y-34061804D01*
X224240869Y-34061803D01*
X224235231Y-34060036D01*
X224233469Y-34059845D01*
X224231768Y-34059318D01*
X224184447Y-34054344D01*
X224135161Y-34049164D01*
X224134724Y-34049117D01*
X224118955Y-34047404D01*
X224038611Y-34038676D01*
X224036842Y-34038831D01*
X224035075Y-34038645D01*
X224029196Y-34039180D01*
X223938824Y-34047404D01*
X223938387Y-34047444D01*
X223847448Y-34055400D01*
X223847446Y-34055400D01*
X223841587Y-34055913D01*
X223839879Y-34056409D01*
X223838112Y-34056570D01*
X223785313Y-34072110D01*
X223744923Y-34083997D01*
X223744501Y-34084120D01*
X223693694Y-34098881D01*
X223622698Y-34098678D01*
X223563082Y-34060125D01*
X223533773Y-33995460D01*
X223544077Y-33925215D01*
X223569446Y-33888789D01*
X224691797Y-32766437D01*
X224703309Y-32756251D01*
X224726847Y-32737861D01*
X224764687Y-32694023D01*
X224770959Y-32687275D01*
X224776309Y-32681925D01*
X224798559Y-32654838D01*
X224800477Y-32652559D01*
X224856078Y-32588145D01*
X224859124Y-32582783D01*
X224862674Y-32577751D01*
X224862930Y-32577932D01*
X224863024Y-32577794D01*
X224862764Y-32577620D01*
X224866189Y-32572504D01*
X224870103Y-32567739D01*
X224901140Y-32509856D01*
X224910272Y-32492825D01*
X224911760Y-32490129D01*
X224950721Y-32421545D01*
X224950722Y-32421543D01*
X224953769Y-32416179D01*
X224955716Y-32410324D01*
X224958219Y-32404703D01*
X224958505Y-32404830D01*
X224958569Y-32404681D01*
X224958280Y-32404561D01*
X224960649Y-32398870D01*
X224963562Y-32393437D01*
X224988419Y-32312133D01*
X224989347Y-32309226D01*
X224995592Y-32290455D01*
X225016197Y-32228513D01*
X225016970Y-32222398D01*
X225018335Y-32216390D01*
X225018638Y-32216459D01*
X225018674Y-32216292D01*
X225018368Y-32216230D01*
X225019584Y-32210200D01*
X225021387Y-32204302D01*
X225024825Y-32170456D01*
X225029978Y-32119732D01*
X225030326Y-32116675D01*
X225039054Y-32047577D01*
X225040985Y-32032295D01*
X225041324Y-32008033D01*
X225041374Y-32007538D01*
X225041336Y-32007138D01*
X225041380Y-32004000D01*
X225036840Y-31957702D01*
X225031920Y-31907517D01*
X225031878Y-31907080D01*
X225023318Y-31816526D01*
X225023317Y-31816522D01*
X225022761Y-31810638D01*
X225022253Y-31808935D01*
X225022080Y-31807167D01*
X225020375Y-31801521D01*
X225020374Y-31801514D01*
X224994154Y-31714669D01*
X224994027Y-31714249D01*
X224967937Y-31626732D01*
X224967936Y-31626730D01*
X224966259Y-31621104D01*
X224965429Y-31619529D01*
X224964916Y-31617831D01*
X224919323Y-31532083D01*
X224874018Y-31446154D01*
X224872901Y-31444775D01*
X224872066Y-31443204D01*
X224810587Y-31367823D01*
X224805824Y-31361941D01*
X224753253Y-31297021D01*
X224753248Y-31297016D01*
X224749553Y-31292453D01*
X224748190Y-31291317D01*
X224747065Y-31289938D01*
X224672080Y-31227905D01*
X224597604Y-31165854D01*
X224596047Y-31165005D01*
X224594675Y-31163870D01*
X224509160Y-31117632D01*
X224423959Y-31071178D01*
X224422263Y-31070646D01*
X224420701Y-31069802D01*
X224412079Y-31067133D01*
X224328163Y-31041157D01*
X224327743Y-31041026D01*
X224292188Y-31029884D01*
X224235232Y-31012035D01*
X224233464Y-31011843D01*
X224231768Y-31011318D01*
X224225915Y-31010703D01*
X224225911Y-31010702D01*
X224148499Y-31002566D01*
X224135270Y-31001176D01*
X224135076Y-31001155D01*
X224076234Y-30994763D01*
X224032796Y-30976714D01*
X224011507Y-30990396D01*
X223987438Y-30994980D01*
X223938375Y-30999445D01*
X223847448Y-31007400D01*
X223847446Y-31007400D01*
X223841587Y-31007913D01*
X223839879Y-31008409D01*
X223838112Y-31008570D01*
X223832481Y-31010227D01*
X223832472Y-31010229D01*
X223744943Y-31035991D01*
X223744796Y-31036034D01*
X223651664Y-31063091D01*
X223650089Y-31063907D01*
X223648381Y-31064410D01*
X223643174Y-31067132D01*
X223643172Y-31067133D01*
X223562386Y-31109367D01*
X223562092Y-31109520D01*
X223476074Y-31154108D01*
X223474686Y-31155216D01*
X223473110Y-31156040D01*
X223397447Y-31216875D01*
X223355027Y-31250738D01*
X223354104Y-31251661D01*
X223352688Y-31252862D01*
X223318975Y-31279968D01*
X223286928Y-31318160D01*
X223279513Y-31326252D01*
X222874688Y-31731078D01*
X222521371Y-32084395D01*
X222459058Y-32118420D01*
X222394839Y-32112935D01*
X222394089Y-32115329D01*
X222389261Y-32113816D01*
X222384571Y-32111921D01*
X222147856Y-32058141D01*
X222143091Y-32057799D01*
X222143088Y-32057799D01*
X222002719Y-32047737D01*
X222002711Y-32047737D01*
X222000469Y-32047576D01*
X221998206Y-32047576D01*
X221557001Y-32047577D01*
X221113532Y-32047577D01*
X221111290Y-32047738D01*
X221111281Y-32047738D01*
X220970912Y-32057799D01*
X220970909Y-32057799D01*
X220966144Y-32058141D01*
X220961486Y-32059199D01*
X220961481Y-32059200D01*
X220734362Y-32110800D01*
X220734359Y-32110801D01*
X220729429Y-32111921D01*
X220724741Y-32113815D01*
X220724738Y-32113816D01*
X220509052Y-32200959D01*
X220509047Y-32200962D01*
X220504358Y-32202856D01*
X220296720Y-32328606D01*
X220111859Y-32485935D01*
X219954530Y-32670796D01*
X219951906Y-32675128D01*
X219951905Y-32675130D01*
X219894531Y-32769866D01*
X219828780Y-32878434D01*
X219826886Y-32883123D01*
X219826883Y-32883128D01*
X219781313Y-32995918D01*
X219737845Y-33103505D01*
X219736725Y-33108435D01*
X219736724Y-33108438D01*
X219715643Y-33201229D01*
X219684065Y-33340220D01*
X219683723Y-33344985D01*
X219683723Y-33344988D01*
X219675610Y-33458175D01*
X219673500Y-33487607D01*
X219673501Y-33624544D01*
X219673662Y-33626785D01*
X219673662Y-33626796D01*
X219683723Y-33767164D01*
X219684065Y-33771932D01*
X219685123Y-33776590D01*
X219685124Y-33776595D01*
X219736724Y-34003714D01*
X219737845Y-34008647D01*
X219739739Y-34013335D01*
X219739740Y-34013338D01*
X219822275Y-34217617D01*
X219828780Y-34233718D01*
X219831403Y-34238049D01*
X219939067Y-34415823D01*
X219954530Y-34441356D01*
X220111859Y-34626217D01*
X220154551Y-34662551D01*
X220233947Y-34730122D01*
X220272860Y-34789505D01*
X220273491Y-34860499D01*
X220233947Y-34922030D01*
X220111859Y-35025935D01*
X219954530Y-35210796D01*
X219951906Y-35215128D01*
X219951905Y-35215130D01*
X219914730Y-35276513D01*
X219828780Y-35418434D01*
X219826886Y-35423123D01*
X219826883Y-35423128D01*
X219739740Y-35638814D01*
X219737845Y-35643505D01*
X219684065Y-35880220D01*
X219683723Y-35884985D01*
X219683723Y-35884988D01*
X219676143Y-35990740D01*
X219673500Y-36027607D01*
X219673500Y-36055576D01*
X219653498Y-36123697D01*
X219599842Y-36170190D01*
X219547500Y-36181576D01*
X218835000Y-36181576D01*
X218766879Y-36161574D01*
X218720386Y-36107918D01*
X218709000Y-36055576D01*
X218709000Y-34658076D01*
X216931000Y-34658076D01*
X216931000Y-36055576D01*
X216910998Y-36123697D01*
X216857342Y-36170190D01*
X216805000Y-36181576D01*
X216168000Y-36181576D01*
X216099879Y-36161574D01*
X216053386Y-36107918D01*
X216042000Y-36055576D01*
X216042000Y-31356076D01*
X210835000Y-31356076D01*
X210835000Y-38341076D01*
X214137500Y-38341076D01*
X214205621Y-38361078D01*
X214252114Y-38414734D01*
X214263500Y-38467076D01*
X214263500Y-44301453D01*
X214263498Y-44302223D01*
X214263024Y-44379797D01*
X214265491Y-44388428D01*
X214271150Y-44408229D01*
X214274728Y-44424991D01*
X214278920Y-44454263D01*
X214282634Y-44462431D01*
X214282634Y-44462432D01*
X214289548Y-44477638D01*
X214295996Y-44495162D01*
X214303051Y-44519847D01*
X214307843Y-44527441D01*
X214307844Y-44527444D01*
X214318830Y-44544856D01*
X214326969Y-44559939D01*
X214339208Y-44586858D01*
X214345069Y-44593660D01*
X214355970Y-44606311D01*
X214367073Y-44621315D01*
X214380776Y-44643034D01*
X214387501Y-44648973D01*
X214387504Y-44648977D01*
X214402938Y-44662608D01*
X214414982Y-44674800D01*
X214428427Y-44690403D01*
X214428430Y-44690405D01*
X214434287Y-44697203D01*
X214441816Y-44702083D01*
X214441817Y-44702084D01*
X214455835Y-44711170D01*
X214470709Y-44722461D01*
X214483217Y-44733507D01*
X214489951Y-44739454D01*
X214516711Y-44752018D01*
X214531691Y-44760339D01*
X214548983Y-44771547D01*
X214548988Y-44771549D01*
X214556515Y-44776428D01*
X214565108Y-44778998D01*
X214565113Y-44779000D01*
X214581120Y-44783787D01*
X214598564Y-44790448D01*
X214613676Y-44797543D01*
X214613678Y-44797544D01*
X214621800Y-44801357D01*
X214630667Y-44802738D01*
X214630668Y-44802738D01*
X214633353Y-44803156D01*
X214651017Y-44805906D01*
X214667732Y-44809689D01*
X214687466Y-44815591D01*
X214687472Y-44815592D01*
X214696066Y-44818162D01*
X214705037Y-44818217D01*
X214705038Y-44818217D01*
X214715097Y-44818278D01*
X214730506Y-44818372D01*
X214731289Y-44818405D01*
X214732386Y-44818576D01*
X214763377Y-44818576D01*
X214764147Y-44818578D01*
X214837785Y-44819028D01*
X214837786Y-44819028D01*
X214841721Y-44819052D01*
X214843065Y-44818668D01*
X214844410Y-44818576D01*
X219970377Y-44818576D01*
X219971148Y-44818578D01*
X220048721Y-44819052D01*
X220059973Y-44815836D01*
X220062679Y-44815855D01*
X220066244Y-44815367D01*
X220066314Y-44815882D01*
X220130968Y-44816346D01*
X220176264Y-44841030D01*
X220233947Y-44890122D01*
X220272860Y-44949505D01*
X220273491Y-45020499D01*
X220233947Y-45082030D01*
X220111859Y-45185935D01*
X219954530Y-45370796D01*
X219951906Y-45375128D01*
X219951905Y-45375130D01*
X219872762Y-45505811D01*
X219828780Y-45578434D01*
X219737845Y-45803505D01*
X219684065Y-46040220D01*
X219673500Y-46187607D01*
X219673501Y-46324544D01*
X219673662Y-46326785D01*
X219673662Y-46326796D01*
X219681301Y-46433375D01*
X219684065Y-46471932D01*
X219685123Y-46476590D01*
X219685124Y-46476595D01*
X219736699Y-46703602D01*
X219737845Y-46708647D01*
X219739739Y-46713335D01*
X219739740Y-46713338D01*
X219774421Y-46799175D01*
X219828780Y-46933718D01*
X219954530Y-47141356D01*
X220111859Y-47326217D01*
X220115706Y-47329491D01*
X220233947Y-47430122D01*
X220272860Y-47489505D01*
X220273491Y-47560499D01*
X220233947Y-47622030D01*
X220111859Y-47725935D01*
X219954530Y-47910796D01*
X219951906Y-47915128D01*
X219951905Y-47915130D01*
X219853768Y-48077174D01*
X219828780Y-48118434D01*
X219737845Y-48343505D01*
X219684065Y-48580220D01*
X219673500Y-48727607D01*
X219673501Y-48864544D01*
X219673662Y-48866785D01*
X219673662Y-48866796D01*
X219683723Y-49007164D01*
X219684065Y-49011932D01*
X219685123Y-49016590D01*
X219685124Y-49016595D01*
X219736724Y-49243714D01*
X219737845Y-49248647D01*
X219828780Y-49473718D01*
X219954530Y-49681356D01*
X220111859Y-49866217D01*
X220296720Y-50023546D01*
X220504358Y-50149296D01*
X220509047Y-50151190D01*
X220509052Y-50151193D01*
X220724738Y-50238336D01*
X220724741Y-50238337D01*
X220729429Y-50240231D01*
X220734359Y-50241351D01*
X220734362Y-50241352D01*
X220827153Y-50262433D01*
X220966144Y-50294011D01*
X220970909Y-50294353D01*
X220970912Y-50294353D01*
X221111281Y-50304415D01*
X221111289Y-50304415D01*
X221113531Y-50304576D01*
X221557000Y-50304576D01*
X222000468Y-50304575D01*
X222002710Y-50304414D01*
X222002719Y-50304414D01*
X222143088Y-50294353D01*
X222143091Y-50294353D01*
X222147856Y-50294011D01*
X222152514Y-50292953D01*
X222152519Y-50292952D01*
X222379638Y-50241352D01*
X222379641Y-50241351D01*
X222384571Y-50240231D01*
X222389259Y-50238337D01*
X222389262Y-50238336D01*
X222604948Y-50151193D01*
X222604953Y-50151190D01*
X222609642Y-50149296D01*
X222817280Y-50023546D01*
X223002141Y-49866217D01*
X223159470Y-49681356D01*
X223285220Y-49473718D01*
X223376155Y-49248647D01*
X223429935Y-49011932D01*
X223440500Y-48864545D01*
X223440499Y-48727608D01*
X223429935Y-48580220D01*
X223428876Y-48575556D01*
X223377276Y-48348438D01*
X223377275Y-48348435D01*
X223376155Y-48343505D01*
X223285220Y-48118434D01*
X223260232Y-48077174D01*
X223162095Y-47915130D01*
X223162094Y-47915128D01*
X223159470Y-47910796D01*
X223002141Y-47725935D01*
X222880053Y-47622030D01*
X222841140Y-47562647D01*
X222840509Y-47491653D01*
X222880053Y-47430122D01*
X222998294Y-47329491D01*
X223002141Y-47326217D01*
X223016869Y-47308912D01*
X223076251Y-47270000D01*
X223112822Y-47264576D01*
X226761150Y-47264576D01*
X226829271Y-47284578D01*
X226850245Y-47301480D01*
X226919595Y-47370829D01*
X226953620Y-47433141D01*
X226956500Y-47459925D01*
X226956500Y-70650075D01*
X226936498Y-70718196D01*
X226919595Y-70739170D01*
X219677992Y-77980774D01*
X219615680Y-78014800D01*
X219607956Y-78016229D01*
X219562042Y-78023255D01*
X219394091Y-78048955D01*
X219181756Y-78118357D01*
X218983607Y-78221507D01*
X218979474Y-78224610D01*
X218979471Y-78224612D01*
X218831365Y-78335813D01*
X218804965Y-78355635D01*
X218801393Y-78359373D01*
X218684684Y-78481502D01*
X218650629Y-78517138D01*
X218524743Y-78701680D01*
X218507780Y-78738224D01*
X218436104Y-78892638D01*
X218430688Y-78904305D01*
X218370989Y-79119570D01*
X218347251Y-79341695D01*
X218347548Y-79346848D01*
X218347548Y-79346851D01*
X218352899Y-79439659D01*
X218360110Y-79564715D01*
X218361247Y-79569761D01*
X218361248Y-79569767D01*
X218366442Y-79592812D01*
X218409222Y-79782639D01*
X218493266Y-79989616D01*
X218495965Y-79994020D01*
X218607291Y-80175688D01*
X218609987Y-80180088D01*
X218756250Y-80348938D01*
X218928126Y-80491632D01*
X219121000Y-80604338D01*
X219329692Y-80684030D01*
X219334760Y-80685061D01*
X219334763Y-80685062D01*
X219429862Y-80704410D01*
X219548597Y-80728567D01*
X219553772Y-80728757D01*
X219553774Y-80728757D01*
X219766673Y-80736564D01*
X219766677Y-80736564D01*
X219771837Y-80736753D01*
X219776957Y-80736097D01*
X219776959Y-80736097D01*
X219988288Y-80709025D01*
X219988289Y-80709025D01*
X219993416Y-80708368D01*
X219998366Y-80706883D01*
X220202429Y-80645661D01*
X220202434Y-80645659D01*
X220207384Y-80644174D01*
X220407994Y-80545896D01*
X220589860Y-80416173D01*
X220748096Y-80258489D01*
X220807594Y-80175689D01*
X220878453Y-80077077D01*
X220879640Y-80077930D01*
X220926960Y-80034362D01*
X220996897Y-80022145D01*
X221062338Y-80049678D01*
X221090166Y-80081511D01*
X221147694Y-80175388D01*
X221153777Y-80183699D01*
X221293213Y-80344667D01*
X221300580Y-80351883D01*
X221464434Y-80487916D01*
X221472881Y-80493831D01*
X221656756Y-80601279D01*
X221666042Y-80605729D01*
X221865001Y-80681703D01*
X221874899Y-80684579D01*
X221978250Y-80705606D01*
X221992299Y-80704410D01*
X221996000Y-80694065D01*
X221996000Y-79247000D01*
X222016002Y-79178879D01*
X222069658Y-79132386D01*
X222122000Y-79121000D01*
X222378000Y-79121000D01*
X222446121Y-79141002D01*
X222492614Y-79194658D01*
X222504000Y-79247000D01*
X222504000Y-80693517D01*
X222508064Y-80707359D01*
X222521478Y-80709393D01*
X222528184Y-80708534D01*
X222538262Y-80706392D01*
X222742255Y-80645191D01*
X222751842Y-80641433D01*
X222943095Y-80547739D01*
X222951945Y-80542464D01*
X223125328Y-80418792D01*
X223133200Y-80412139D01*
X223284052Y-80261812D01*
X223290730Y-80253965D01*
X223418022Y-80076819D01*
X223419279Y-80077722D01*
X223466373Y-80034362D01*
X223536311Y-80022145D01*
X223601751Y-80049678D01*
X223629579Y-80081511D01*
X223689987Y-80180088D01*
X223836250Y-80348938D01*
X224008126Y-80491632D01*
X224201000Y-80604338D01*
X224409692Y-80684030D01*
X224414760Y-80685061D01*
X224414763Y-80685062D01*
X224509862Y-80704410D01*
X224628597Y-80728567D01*
X224633772Y-80728757D01*
X224633774Y-80728757D01*
X224846673Y-80736564D01*
X224846677Y-80736564D01*
X224851837Y-80736753D01*
X224856957Y-80736097D01*
X224856959Y-80736097D01*
X225068288Y-80709025D01*
X225068289Y-80709025D01*
X225073416Y-80708368D01*
X225078366Y-80706883D01*
X225282429Y-80645661D01*
X225282434Y-80645659D01*
X225287384Y-80644174D01*
X225487994Y-80545896D01*
X225492199Y-80542896D01*
X225492205Y-80542893D01*
X225622332Y-80450074D01*
X225689405Y-80426801D01*
X225758414Y-80443484D01*
X225807448Y-80494828D01*
X225821500Y-80552653D01*
X225821500Y-83142969D01*
X225801498Y-83211090D01*
X225784595Y-83232064D01*
X219122064Y-89894595D01*
X219059752Y-89928621D01*
X219032969Y-89931500D01*
X217435079Y-89931500D01*
X217366958Y-89911498D01*
X217323546Y-89864122D01*
X217310954Y-89840165D01*
X216645311Y-89174521D01*
X216631368Y-89166908D01*
X216629534Y-89167039D01*
X216622920Y-89171290D01*
X215953321Y-89840890D01*
X215939672Y-89865886D01*
X215889470Y-89916088D01*
X215829085Y-89931500D01*
X215047477Y-89931500D01*
X214979356Y-89911498D01*
X214932863Y-89857842D01*
X214922759Y-89787568D01*
X214952253Y-89722988D01*
X214958382Y-89716405D01*
X215060249Y-89614538D01*
X215072156Y-89597534D01*
X215183399Y-89438662D01*
X215183400Y-89438660D01*
X215186556Y-89434153D01*
X215188879Y-89429171D01*
X215188882Y-89429166D01*
X215248581Y-89301140D01*
X215295498Y-89247855D01*
X215363776Y-89228394D01*
X215431736Y-89248936D01*
X215476971Y-89301140D01*
X215536554Y-89428917D01*
X215542034Y-89438407D01*
X215570911Y-89479649D01*
X215581387Y-89488023D01*
X215594834Y-89480955D01*
X216260479Y-88815311D01*
X216266856Y-88803632D01*
X216996908Y-88803632D01*
X216997039Y-88805466D01*
X217001290Y-88812080D01*
X217670891Y-89481680D01*
X217682661Y-89488107D01*
X217694676Y-89478811D01*
X217722966Y-89438407D01*
X217728446Y-89428917D01*
X217816826Y-89239387D01*
X217820572Y-89229095D01*
X217874696Y-89027099D01*
X217876599Y-89016304D01*
X217894826Y-88807975D01*
X217894826Y-88797025D01*
X217876599Y-88588696D01*
X217874696Y-88577901D01*
X217820572Y-88375905D01*
X217816826Y-88365613D01*
X217728446Y-88176083D01*
X217722966Y-88166593D01*
X217694089Y-88125351D01*
X217683613Y-88116977D01*
X217670166Y-88124045D01*
X217004521Y-88789689D01*
X216996908Y-88803632D01*
X216266856Y-88803632D01*
X216268092Y-88801368D01*
X216267961Y-88799534D01*
X216263710Y-88792920D01*
X215594109Y-88123320D01*
X215582339Y-88116893D01*
X215570324Y-88126189D01*
X215542034Y-88166593D01*
X215536554Y-88176083D01*
X215476971Y-88303860D01*
X215430054Y-88357145D01*
X215361776Y-88376606D01*
X215293816Y-88356064D01*
X215248581Y-88303860D01*
X215188882Y-88175834D01*
X215188879Y-88175828D01*
X215186556Y-88170847D01*
X215155286Y-88126189D01*
X215063408Y-87994973D01*
X215063406Y-87994970D01*
X215060249Y-87990462D01*
X214904538Y-87834751D01*
X214785483Y-87751387D01*
X215946977Y-87751387D01*
X215954045Y-87764834D01*
X216619689Y-88430479D01*
X216633632Y-88438092D01*
X216635466Y-88437961D01*
X216642080Y-88433710D01*
X217311680Y-87764109D01*
X217318107Y-87752339D01*
X217308813Y-87740325D01*
X217268412Y-87712036D01*
X217258916Y-87706553D01*
X217069387Y-87618174D01*
X217059095Y-87614428D01*
X216857099Y-87560304D01*
X216846304Y-87558401D01*
X216637975Y-87540174D01*
X216627025Y-87540174D01*
X216418696Y-87558401D01*
X216407901Y-87560304D01*
X216205905Y-87614428D01*
X216195613Y-87618174D01*
X216006083Y-87706554D01*
X215996593Y-87712034D01*
X215955351Y-87740911D01*
X215946977Y-87751387D01*
X214785483Y-87751387D01*
X214724154Y-87708444D01*
X214524576Y-87615380D01*
X214311871Y-87558385D01*
X214092500Y-87539193D01*
X213873129Y-87558385D01*
X213660424Y-87615380D01*
X213567062Y-87658915D01*
X213465834Y-87706118D01*
X213465829Y-87706121D01*
X213460847Y-87708444D01*
X213456340Y-87711600D01*
X213456338Y-87711601D01*
X213284973Y-87831592D01*
X213284970Y-87831594D01*
X213280462Y-87834751D01*
X213124751Y-87990462D01*
X213121594Y-87994970D01*
X213121592Y-87994973D01*
X213029714Y-88126189D01*
X212998444Y-88170847D01*
X212996121Y-88175828D01*
X212996118Y-88175834D01*
X212936695Y-88303269D01*
X212889778Y-88356554D01*
X212821501Y-88376015D01*
X212753541Y-88355473D01*
X212708305Y-88303269D01*
X212648879Y-88175828D01*
X212648877Y-88175825D01*
X212646556Y-88170847D01*
X212583787Y-88081203D01*
X212561000Y-88008933D01*
X212561000Y-85630350D01*
X212561737Y-85616742D01*
X212565160Y-85585237D01*
X212565160Y-85585233D01*
X212565825Y-85579112D01*
X212561449Y-85529089D01*
X212561119Y-85524252D01*
X212561000Y-85521814D01*
X212561000Y-85518731D01*
X212558831Y-85496612D01*
X212556818Y-85476080D01*
X212556696Y-85474765D01*
X212549125Y-85388223D01*
X212549125Y-85388221D01*
X212548588Y-85382087D01*
X212547099Y-85376963D01*
X212546580Y-85371667D01*
X212519711Y-85282672D01*
X212519370Y-85281522D01*
X212495128Y-85198082D01*
X212493409Y-85192164D01*
X212490956Y-85187432D01*
X212489416Y-85182331D01*
X212486528Y-85176900D01*
X212486525Y-85176892D01*
X212445737Y-85100180D01*
X212445125Y-85099014D01*
X212405229Y-85022048D01*
X212402392Y-85016575D01*
X212399070Y-85012414D01*
X212396566Y-85007704D01*
X212377074Y-84983804D01*
X212337814Y-84935668D01*
X212336983Y-84934639D01*
X212312251Y-84903657D01*
X212305762Y-84895528D01*
X212303271Y-84893037D01*
X212302621Y-84892310D01*
X212298906Y-84887961D01*
X212286825Y-84873149D01*
X212271565Y-84854438D01*
X212266823Y-84850515D01*
X212266821Y-84850513D01*
X212236227Y-84825203D01*
X212227447Y-84817213D01*
X210872405Y-83462171D01*
X210838379Y-83399859D01*
X210835500Y-83373076D01*
X210835500Y-51167076D01*
X210855502Y-51098955D01*
X210909158Y-51052462D01*
X210961500Y-51041076D01*
X216042000Y-51041076D01*
X216042000Y-48501076D01*
X210961500Y-48501076D01*
X210893379Y-48481074D01*
X210846886Y-48427418D01*
X210835500Y-48375076D01*
X210835500Y-44788843D01*
X210836237Y-44775236D01*
X210839659Y-44743738D01*
X210839659Y-44743733D01*
X210840324Y-44737612D01*
X210837457Y-44704837D01*
X210835950Y-44687612D01*
X210835621Y-44682786D01*
X210835500Y-44680314D01*
X210835500Y-44677231D01*
X210832730Y-44648977D01*
X210831310Y-44634494D01*
X210831188Y-44633181D01*
X210824780Y-44559941D01*
X210823087Y-44540587D01*
X210821600Y-44535468D01*
X210821080Y-44530167D01*
X210794209Y-44441166D01*
X210793874Y-44440033D01*
X210769630Y-44356586D01*
X210769628Y-44356582D01*
X210767909Y-44350664D01*
X210765456Y-44345932D01*
X210763916Y-44340831D01*
X210743388Y-44302223D01*
X210720269Y-44258740D01*
X210719657Y-44257574D01*
X210679729Y-44180547D01*
X210676892Y-44175074D01*
X210673569Y-44170911D01*
X210671066Y-44166204D01*
X210612245Y-44094082D01*
X210611554Y-44093226D01*
X210580262Y-44054027D01*
X210577758Y-44051523D01*
X210577116Y-44050805D01*
X210573415Y-44046472D01*
X210546065Y-44012938D01*
X210510737Y-43983712D01*
X210501958Y-43975723D01*
X210162406Y-43636171D01*
X210128380Y-43573859D01*
X210133445Y-43503044D01*
X210175992Y-43446208D01*
X210242512Y-43421397D01*
X210251501Y-43421076D01*
X212613000Y-43421076D01*
X212613000Y-40373076D01*
X209565000Y-40373076D01*
X209565000Y-42734575D01*
X209544998Y-42802696D01*
X209491342Y-42849189D01*
X209421068Y-42859293D01*
X209356488Y-42829799D01*
X209349905Y-42823670D01*
X207203126Y-40676892D01*
X207175396Y-40634998D01*
X207122117Y-40503128D01*
X207122114Y-40503123D01*
X207120220Y-40498434D01*
X207055271Y-40391191D01*
X206997095Y-40295130D01*
X206997094Y-40295128D01*
X206994470Y-40290796D01*
X206837141Y-40105935D01*
X206715053Y-40002030D01*
X206676140Y-39942647D01*
X206675509Y-39871653D01*
X206715053Y-39810122D01*
X206833294Y-39709491D01*
X206837141Y-39706217D01*
X206994470Y-39521356D01*
X207120220Y-39313718D01*
X207211155Y-39088647D01*
X207264935Y-38851932D01*
X207275500Y-38704545D01*
X207275499Y-38567608D01*
X207268294Y-38467076D01*
X207265277Y-38424988D01*
X207265277Y-38424985D01*
X207264935Y-38420220D01*
X207251499Y-38361078D01*
X207212276Y-38188438D01*
X207212275Y-38188435D01*
X207211155Y-38183505D01*
X207120220Y-37958434D01*
X206994470Y-37750796D01*
X206837141Y-37565935D01*
X206821645Y-37552747D01*
X206714667Y-37461701D01*
X206675754Y-37402318D01*
X206675123Y-37331324D01*
X206679138Y-37325076D01*
X208295000Y-37325076D01*
X210073000Y-37325076D01*
X210073000Y-34658076D01*
X208295000Y-34658076D01*
X208295000Y-37325076D01*
X206679138Y-37325076D01*
X206714667Y-37269793D01*
X206832939Y-37169136D01*
X206840060Y-37162015D01*
X206990780Y-36984919D01*
X206996688Y-36976728D01*
X207117148Y-36777825D01*
X207121668Y-36768799D01*
X207208781Y-36553188D01*
X207211797Y-36543564D01*
X207251743Y-36367740D01*
X207250866Y-36353667D01*
X207241504Y-36350076D01*
X203546359Y-36350076D01*
X203532828Y-36354049D01*
X203531401Y-36363973D01*
X203572203Y-36543564D01*
X203575219Y-36553188D01*
X203662332Y-36768799D01*
X203666852Y-36777825D01*
X203762831Y-36936305D01*
X203781010Y-37004935D01*
X203759200Y-37072498D01*
X203704324Y-37117544D01*
X203655055Y-37127576D01*
X199512926Y-37127576D01*
X199509407Y-37127527D01*
X199414774Y-37124883D01*
X199414771Y-37124883D01*
X199409719Y-37124742D01*
X199331826Y-37135135D01*
X199325285Y-37135834D01*
X199296613Y-37138141D01*
X199252001Y-37141730D01*
X199251997Y-37141731D01*
X199246959Y-37142136D01*
X199215046Y-37149975D01*
X199201666Y-37152502D01*
X199169104Y-37156847D01*
X199164263Y-37158308D01*
X199164261Y-37158309D01*
X199093895Y-37179554D01*
X199087534Y-37181295D01*
X199011218Y-37200039D01*
X199006558Y-37202017D01*
X198980973Y-37212877D01*
X198968163Y-37217514D01*
X198936716Y-37227009D01*
X198932168Y-37229227D01*
X198932161Y-37229230D01*
X198866106Y-37261447D01*
X198860104Y-37264183D01*
X198846113Y-37270122D01*
X198787768Y-37294888D01*
X198768597Y-37306961D01*
X198759968Y-37312395D01*
X198748064Y-37319021D01*
X198718536Y-37333422D01*
X198672247Y-37366076D01*
X198654327Y-37378717D01*
X198648838Y-37382377D01*
X198607188Y-37408606D01*
X198582357Y-37424243D01*
X198578568Y-37427584D01*
X198578562Y-37427588D01*
X198557707Y-37445974D01*
X198547012Y-37454420D01*
X198520177Y-37473350D01*
X198498674Y-37492985D01*
X198458958Y-37532701D01*
X198453188Y-37538120D01*
X198404066Y-37581426D01*
X198404063Y-37581429D01*
X198400269Y-37584774D01*
X198397059Y-37588682D01*
X198397058Y-37588683D01*
X198373745Y-37617065D01*
X198365475Y-37626184D01*
X194530334Y-41461325D01*
X194527812Y-41463778D01*
X194490073Y-41499466D01*
X194426835Y-41531738D01*
X194356188Y-41524698D01*
X194300563Y-41480581D01*
X194277500Y-41407918D01*
X194277500Y-34676703D01*
X195911743Y-34676703D01*
X195949268Y-34961734D01*
X195950401Y-34965874D01*
X195950401Y-34965876D01*
X195965936Y-35022661D01*
X196025129Y-35239036D01*
X196026813Y-35242984D01*
X196116320Y-35452828D01*
X196137923Y-35503476D01*
X196201861Y-35610309D01*
X196278614Y-35738553D01*
X196285561Y-35750161D01*
X196465313Y-35974528D01*
X196550720Y-36055576D01*
X196662419Y-36161574D01*
X196673851Y-36172423D01*
X196907317Y-36340186D01*
X196911112Y-36342195D01*
X196911113Y-36342196D01*
X196932778Y-36353667D01*
X197161392Y-36474712D01*
X197431373Y-36573511D01*
X197712264Y-36634755D01*
X197740841Y-36637004D01*
X197935282Y-36652307D01*
X197935291Y-36652307D01*
X197937739Y-36652500D01*
X198093271Y-36652500D01*
X198095407Y-36652354D01*
X198095418Y-36652354D01*
X198303548Y-36638165D01*
X198303554Y-36638164D01*
X198307825Y-36637873D01*
X198312020Y-36637004D01*
X198312022Y-36637004D01*
X198448583Y-36608724D01*
X198589342Y-36579574D01*
X198860343Y-36483607D01*
X199115812Y-36351750D01*
X199119313Y-36349289D01*
X199119317Y-36349287D01*
X199233418Y-36269095D01*
X199351023Y-36186441D01*
X199491850Y-36055576D01*
X199558479Y-35993661D01*
X199558481Y-35993658D01*
X199561622Y-35990740D01*
X199743713Y-35768268D01*
X199893927Y-35523142D01*
X199924849Y-35452701D01*
X200007757Y-35263830D01*
X200009483Y-35259898D01*
X200088244Y-34983406D01*
X200128751Y-34698784D01*
X200128845Y-34680951D01*
X200130235Y-34415583D01*
X200130235Y-34415576D01*
X200130257Y-34411297D01*
X200124870Y-34370374D01*
X200106260Y-34229024D01*
X200092732Y-34126266D01*
X200088942Y-34112410D01*
X200037731Y-33925215D01*
X200016871Y-33848964D01*
X199981980Y-33767164D01*
X199905763Y-33588476D01*
X199905761Y-33588472D01*
X199904077Y-33584524D01*
X199791628Y-33396636D01*
X199758643Y-33341521D01*
X199758640Y-33341517D01*
X199756439Y-33337839D01*
X199576687Y-33113472D01*
X199368149Y-32915577D01*
X199178064Y-32778987D01*
X199138172Y-32750321D01*
X199138171Y-32750320D01*
X199134683Y-32747814D01*
X199123040Y-32741649D01*
X199020345Y-32687275D01*
X198880608Y-32613288D01*
X198657959Y-32531810D01*
X198614658Y-32515964D01*
X198614656Y-32515963D01*
X198610627Y-32514489D01*
X198329736Y-32453245D01*
X198298685Y-32450801D01*
X198106718Y-32435693D01*
X198106709Y-32435693D01*
X198104261Y-32435500D01*
X197948729Y-32435500D01*
X197946593Y-32435646D01*
X197946582Y-32435646D01*
X197738452Y-32449835D01*
X197738446Y-32449836D01*
X197734175Y-32450127D01*
X197729980Y-32450996D01*
X197729978Y-32450996D01*
X197593417Y-32479276D01*
X197452658Y-32508426D01*
X197181657Y-32604393D01*
X197177848Y-32606359D01*
X197007971Y-32694039D01*
X196926188Y-32736250D01*
X196922687Y-32738711D01*
X196922683Y-32738713D01*
X196885316Y-32764975D01*
X196690977Y-32901559D01*
X196675892Y-32915577D01*
X196503061Y-33076182D01*
X196480378Y-33097260D01*
X196298287Y-33319732D01*
X196148073Y-33564858D01*
X196146347Y-33568791D01*
X196146346Y-33568792D01*
X196092044Y-33692496D01*
X196032517Y-33828102D01*
X196031342Y-33832229D01*
X196031341Y-33832230D01*
X196012559Y-33898165D01*
X195953756Y-34104594D01*
X195945091Y-34165480D01*
X195915931Y-34370374D01*
X195913249Y-34389216D01*
X195913227Y-34393505D01*
X195913226Y-34393512D01*
X195911765Y-34672417D01*
X195911743Y-34676703D01*
X194277500Y-34676703D01*
X194277500Y-30869500D01*
X194297502Y-30801379D01*
X194351158Y-30754886D01*
X194403500Y-30743500D01*
X201317026Y-30743500D01*
X201385147Y-30763502D01*
G37*
%TD.AperFunction*%
%TA.AperFunction,Conductor*%
G36*
X203722591Y-40164578D02*
G01*
X203769084Y-40218234D01*
X203779188Y-40288508D01*
X203762246Y-40335847D01*
X203666403Y-40494102D01*
X203666400Y-40494107D01*
X203663780Y-40498434D01*
X203572845Y-40723505D01*
X203519065Y-40960220D01*
X203508500Y-41107607D01*
X203508501Y-41244544D01*
X203519065Y-41391932D01*
X203520123Y-41396590D01*
X203520124Y-41396595D01*
X203550828Y-41531738D01*
X203572845Y-41628647D01*
X203574739Y-41633335D01*
X203574740Y-41633338D01*
X203611845Y-41725174D01*
X203663780Y-41853718D01*
X203789530Y-42061356D01*
X203946859Y-42246217D01*
X203950706Y-42249491D01*
X204068947Y-42350122D01*
X204107860Y-42409505D01*
X204108491Y-42480499D01*
X204068947Y-42542030D01*
X203946859Y-42645935D01*
X203789530Y-42830796D01*
X203786906Y-42835128D01*
X203786905Y-42835130D01*
X203707762Y-42965811D01*
X203663780Y-43038434D01*
X203661886Y-43043123D01*
X203661883Y-43043128D01*
X203574740Y-43258814D01*
X203572845Y-43263505D01*
X203519065Y-43500220D01*
X203518723Y-43504985D01*
X203518723Y-43504988D01*
X203509320Y-43636171D01*
X203508500Y-43647607D01*
X203508501Y-43784544D01*
X203508662Y-43786785D01*
X203508662Y-43786796D01*
X203518723Y-43927164D01*
X203519065Y-43931932D01*
X203520123Y-43936590D01*
X203520124Y-43936595D01*
X203571724Y-44163714D01*
X203572845Y-44168647D01*
X203574739Y-44173335D01*
X203574740Y-44173338D01*
X203661643Y-44388428D01*
X203663780Y-44393718D01*
X203666403Y-44398049D01*
X203780750Y-44586858D01*
X203789530Y-44601356D01*
X203946859Y-44786217D01*
X203982541Y-44816585D01*
X204068947Y-44890122D01*
X204107860Y-44949505D01*
X204108491Y-45020499D01*
X204068947Y-45082030D01*
X203946859Y-45185935D01*
X203789530Y-45370796D01*
X203786906Y-45375128D01*
X203786905Y-45375130D01*
X203707762Y-45505811D01*
X203663780Y-45578434D01*
X203572845Y-45803505D01*
X203519065Y-46040220D01*
X203508500Y-46187607D01*
X203508501Y-46324544D01*
X203508662Y-46326785D01*
X203508662Y-46326796D01*
X203516301Y-46433375D01*
X203519065Y-46471932D01*
X203520123Y-46476590D01*
X203520124Y-46476595D01*
X203571699Y-46703602D01*
X203572845Y-46708647D01*
X203574739Y-46713335D01*
X203574740Y-46713338D01*
X203609421Y-46799175D01*
X203663780Y-46933718D01*
X203789530Y-47141356D01*
X203946859Y-47326217D01*
X203950706Y-47329491D01*
X204068947Y-47430122D01*
X204107860Y-47489505D01*
X204108491Y-47560499D01*
X204068947Y-47622030D01*
X203946859Y-47725935D01*
X203789530Y-47910796D01*
X203786906Y-47915128D01*
X203786905Y-47915130D01*
X203688768Y-48077174D01*
X203663780Y-48118434D01*
X203572845Y-48343505D01*
X203519065Y-48580220D01*
X203508500Y-48727607D01*
X203508501Y-48864544D01*
X203508662Y-48866785D01*
X203508662Y-48866796D01*
X203518723Y-49007164D01*
X203519065Y-49011932D01*
X203520123Y-49016590D01*
X203520124Y-49016595D01*
X203571724Y-49243714D01*
X203572845Y-49248647D01*
X203663780Y-49473718D01*
X203789530Y-49681356D01*
X203946859Y-49866217D01*
X204131720Y-50023546D01*
X204339358Y-50149296D01*
X204344047Y-50151190D01*
X204344052Y-50151193D01*
X204559738Y-50238336D01*
X204559741Y-50238337D01*
X204564429Y-50240231D01*
X204569359Y-50241351D01*
X204569362Y-50241352D01*
X204662153Y-50262433D01*
X204801144Y-50294011D01*
X204805909Y-50294353D01*
X204805912Y-50294353D01*
X204946281Y-50304415D01*
X204946289Y-50304415D01*
X204948531Y-50304576D01*
X205392000Y-50304576D01*
X205835468Y-50304575D01*
X205837710Y-50304414D01*
X205837719Y-50304414D01*
X205978088Y-50294353D01*
X205978091Y-50294353D01*
X205982856Y-50294011D01*
X205987514Y-50292953D01*
X205987519Y-50292952D01*
X206214638Y-50241352D01*
X206214641Y-50241351D01*
X206219571Y-50240231D01*
X206224259Y-50238337D01*
X206224262Y-50238336D01*
X206439948Y-50151193D01*
X206439953Y-50151190D01*
X206444642Y-50149296D01*
X206652280Y-50023546D01*
X206837141Y-49866217D01*
X206994470Y-49681356D01*
X207037724Y-49609935D01*
X207090121Y-49562028D01*
X207160101Y-49550055D01*
X207225445Y-49577816D01*
X207265407Y-49636498D01*
X207271500Y-49675206D01*
X207271500Y-80810075D01*
X207251498Y-80878196D01*
X207234595Y-80899170D01*
X205171628Y-82962138D01*
X203500445Y-84633321D01*
X203438133Y-84667347D01*
X203367318Y-84662282D01*
X203310482Y-84619735D01*
X203285671Y-84553215D01*
X203300306Y-84484685D01*
X203329439Y-84430352D01*
X203331831Y-84425891D01*
X203410862Y-84196369D01*
X203439700Y-84029413D01*
X203451504Y-83961074D01*
X203451505Y-83961064D01*
X203452179Y-83957164D01*
X203453500Y-83928075D01*
X203453500Y-81954002D01*
X203453549Y-81950483D01*
X203456193Y-81855850D01*
X203456193Y-81855847D01*
X203456334Y-81850795D01*
X203445941Y-81772902D01*
X203445241Y-81766353D01*
X203439346Y-81693077D01*
X203439345Y-81693073D01*
X203438940Y-81688035D01*
X203431101Y-81656122D01*
X203428573Y-81642738D01*
X203424898Y-81615194D01*
X203424229Y-81610180D01*
X203401522Y-81534971D01*
X203399781Y-81528608D01*
X203382244Y-81457209D01*
X203381037Y-81452294D01*
X203368199Y-81422048D01*
X203363561Y-81409237D01*
X203355530Y-81382638D01*
X203354067Y-81377792D01*
X203351849Y-81373244D01*
X203351846Y-81373237D01*
X203319629Y-81307182D01*
X203316893Y-81301180D01*
X203288162Y-81233495D01*
X203286188Y-81228844D01*
X203268681Y-81201044D01*
X203262052Y-81189134D01*
X203247654Y-81159612D01*
X203202357Y-81095400D01*
X203198699Y-81089914D01*
X203159529Y-81027714D01*
X203159528Y-81027713D01*
X203156833Y-81023433D01*
X203153492Y-81019644D01*
X203153488Y-81019638D01*
X203135102Y-80998783D01*
X203126656Y-80988088D01*
X203110009Y-80964490D01*
X203107726Y-80961253D01*
X203088091Y-80939750D01*
X203048375Y-80900034D01*
X203042956Y-80894264D01*
X202999650Y-80845142D01*
X202999647Y-80845139D01*
X202996302Y-80841345D01*
X202964011Y-80814821D01*
X202954892Y-80806551D01*
X201743675Y-79595334D01*
X201741221Y-79592812D01*
X201676138Y-79523988D01*
X201676135Y-79523986D01*
X201672668Y-79520319D01*
X201610239Y-79472589D01*
X201605108Y-79468448D01*
X201549133Y-79420809D01*
X201549132Y-79420808D01*
X201545280Y-79417530D01*
X201540955Y-79414911D01*
X201540950Y-79414907D01*
X201517176Y-79400509D01*
X201505929Y-79392837D01*
X201479826Y-79372880D01*
X201410592Y-79335757D01*
X201404868Y-79332493D01*
X201337642Y-79291779D01*
X201307181Y-79279472D01*
X201294841Y-79273692D01*
X201270350Y-79260560D01*
X201270351Y-79260560D01*
X201265891Y-79258169D01*
X201261110Y-79256523D01*
X201261106Y-79256521D01*
X201191599Y-79232588D01*
X201185421Y-79230278D01*
X201117266Y-79202742D01*
X201117267Y-79202742D01*
X201112571Y-79200845D01*
X201080539Y-79193568D01*
X201067441Y-79189837D01*
X201036369Y-79179138D01*
X200958900Y-79165757D01*
X200952496Y-79164477D01*
X200875856Y-79147065D01*
X200843047Y-79145001D01*
X200829547Y-79143415D01*
X200797164Y-79137821D01*
X200793207Y-79137641D01*
X200793204Y-79137641D01*
X200769494Y-79136564D01*
X200769475Y-79136564D01*
X200768075Y-79136500D01*
X200711893Y-79136500D01*
X200703983Y-79136251D01*
X200695666Y-79135728D01*
X200693459Y-79135589D01*
X200626728Y-79111350D01*
X200612274Y-79098933D01*
X197125405Y-75612064D01*
X197091379Y-75549752D01*
X197088500Y-75522969D01*
X197088500Y-43222031D01*
X197108502Y-43153910D01*
X197125405Y-43132936D01*
X200076861Y-40181481D01*
X200139173Y-40147455D01*
X200165956Y-40144576D01*
X203654470Y-40144576D01*
X203722591Y-40164578D01*
G37*
%TD.AperFunction*%
%TD*%
M02*
