%TF.GenerationSoftware,KiCad,Pcbnew,(6.0.6-0)*%
%TF.CreationDate,2025-06-22T16:04:58+02:00*%
%TF.ProjectId,meteo,6d657465-6f2e-46b6-9963-61645f706362,rev?*%
%TF.SameCoordinates,Original*%
%TF.FileFunction,Legend,Top*%
%TF.FilePolarity,Positive*%
%FSLAX46Y46*%
G04 Gerber Fmt 4.6, Leading zero omitted, Abs format (unit mm)*
G04 Created by KiCad (PCBNEW (6.0.6-0)) date 2025-06-22 16:04:58*
%MOMM*%
%LPD*%
G01*
G04 APERTURE LIST*
%ADD10C,0.300000*%
%ADD11C,0.250000*%
%ADD12C,0.150000*%
%ADD13C,0.120000*%
G04 APERTURE END LIST*
D10*
X227850000Y-40512857D02*
X227778571Y-40655714D01*
X227778571Y-40870000D01*
X227850000Y-41084285D01*
X227992857Y-41227142D01*
X228135714Y-41298571D01*
X228421428Y-41370000D01*
X228635714Y-41370000D01*
X228921428Y-41298571D01*
X229064285Y-41227142D01*
X229207142Y-41084285D01*
X229278571Y-40870000D01*
X229278571Y-40727142D01*
X229207142Y-40512857D01*
X229135714Y-40441428D01*
X228635714Y-40441428D01*
X228635714Y-40727142D01*
X229278571Y-39798571D02*
X227778571Y-39798571D01*
X229278571Y-38941428D01*
X227778571Y-38941428D01*
X229278571Y-38227142D02*
X227778571Y-38227142D01*
X227778571Y-37870000D01*
X227850000Y-37655714D01*
X227992857Y-37512857D01*
X228135714Y-37441428D01*
X228421428Y-37370000D01*
X228635714Y-37370000D01*
X228921428Y-37441428D01*
X229064285Y-37512857D01*
X229207142Y-37655714D01*
X229278571Y-37870000D01*
X229278571Y-38227142D01*
X227778571Y-47299285D02*
X227778571Y-46370714D01*
X228350000Y-46870714D01*
X228350000Y-46656428D01*
X228421428Y-46513571D01*
X228492857Y-46442142D01*
X228635714Y-46370714D01*
X228992857Y-46370714D01*
X229135714Y-46442142D01*
X229207142Y-46513571D01*
X229278571Y-46656428D01*
X229278571Y-47085000D01*
X229207142Y-47227857D01*
X229135714Y-47299285D01*
X229135714Y-45727857D02*
X229207142Y-45656428D01*
X229278571Y-45727857D01*
X229207142Y-45799285D01*
X229135714Y-45727857D01*
X229278571Y-45727857D01*
X227778571Y-45156428D02*
X227778571Y-44156428D01*
X229278571Y-44799285D01*
X227778571Y-43799285D02*
X229278571Y-43299285D01*
X227778571Y-42799285D01*
X217824857Y-62678000D02*
X217896285Y-62463714D01*
X217967714Y-62392285D01*
X218110571Y-62320857D01*
X218324857Y-62320857D01*
X218467714Y-62392285D01*
X218539142Y-62463714D01*
X218610571Y-62606571D01*
X218610571Y-63178000D01*
X217110571Y-63178000D01*
X217110571Y-62678000D01*
X217182000Y-62535142D01*
X217253428Y-62463714D01*
X217396285Y-62392285D01*
X217539142Y-62392285D01*
X217682000Y-62463714D01*
X217753428Y-62535142D01*
X217824857Y-62678000D01*
X217824857Y-63178000D01*
X218182000Y-61749428D02*
X218182000Y-61035142D01*
X218610571Y-61892285D02*
X217110571Y-61392285D01*
X218610571Y-60892285D01*
X217110571Y-60606571D02*
X217110571Y-59749428D01*
X218610571Y-60178000D02*
X217110571Y-60178000D01*
X217110571Y-59463714D02*
X217110571Y-58606571D01*
X218610571Y-59035142D02*
X217110571Y-59035142D01*
X217824857Y-58106571D02*
X217824857Y-57606571D01*
X218610571Y-57392285D02*
X218610571Y-58106571D01*
X217110571Y-58106571D01*
X217110571Y-57392285D01*
X218610571Y-55892285D02*
X217896285Y-56392285D01*
X218610571Y-56749428D02*
X217110571Y-56749428D01*
X217110571Y-56178000D01*
X217182000Y-56035142D01*
X217253428Y-55963714D01*
X217396285Y-55892285D01*
X217610571Y-55892285D01*
X217753428Y-55963714D01*
X217824857Y-56035142D01*
X217896285Y-56178000D01*
X217896285Y-56749428D01*
X217896285Y-54963714D02*
X218610571Y-54963714D01*
X217110571Y-55463714D02*
X217896285Y-54963714D01*
X217110571Y-54463714D01*
D11*
X204263809Y-83272380D02*
X204882857Y-83272380D01*
X204549523Y-83653333D01*
X204692380Y-83653333D01*
X204787619Y-83700952D01*
X204835238Y-83748571D01*
X204882857Y-83843809D01*
X204882857Y-84081904D01*
X204835238Y-84177142D01*
X204787619Y-84224761D01*
X204692380Y-84272380D01*
X204406666Y-84272380D01*
X204311428Y-84224761D01*
X204263809Y-84177142D01*
X205311428Y-84177142D02*
X205359047Y-84224761D01*
X205311428Y-84272380D01*
X205263809Y-84224761D01*
X205311428Y-84177142D01*
X205311428Y-84272380D01*
X205692380Y-83272380D02*
X206311428Y-83272380D01*
X205978095Y-83653333D01*
X206120952Y-83653333D01*
X206216190Y-83700952D01*
X206263809Y-83748571D01*
X206311428Y-83843809D01*
X206311428Y-84081904D01*
X206263809Y-84177142D01*
X206216190Y-84224761D01*
X206120952Y-84272380D01*
X205835238Y-84272380D01*
X205740000Y-84224761D01*
X205692380Y-84177142D01*
X206597142Y-83272380D02*
X206930476Y-84272380D01*
X207263809Y-83272380D01*
D10*
X229810571Y-58602285D02*
X229810571Y-57673714D01*
X230382000Y-58173714D01*
X230382000Y-57959428D01*
X230453428Y-57816571D01*
X230524857Y-57745142D01*
X230667714Y-57673714D01*
X231024857Y-57673714D01*
X231167714Y-57745142D01*
X231239142Y-57816571D01*
X231310571Y-57959428D01*
X231310571Y-58388000D01*
X231239142Y-58530857D01*
X231167714Y-58602285D01*
X231167714Y-57030857D02*
X231239142Y-56959428D01*
X231310571Y-57030857D01*
X231239142Y-57102285D01*
X231167714Y-57030857D01*
X231310571Y-57030857D01*
X229810571Y-56459428D02*
X229810571Y-55459428D01*
X231310571Y-56102285D01*
X229810571Y-55102285D02*
X231310571Y-54602285D01*
X229810571Y-54102285D01*
D11*
X211177333Y-91892380D02*
X211177333Y-90892380D01*
X211415428Y-90892380D01*
X211558285Y-90940000D01*
X211653523Y-91035238D01*
X211701142Y-91130476D01*
X211748761Y-91320952D01*
X211748761Y-91463809D01*
X211701142Y-91654285D01*
X211653523Y-91749523D01*
X211558285Y-91844761D01*
X211415428Y-91892380D01*
X211177333Y-91892380D01*
X212177333Y-91892380D02*
X212177333Y-90892380D01*
X212177333Y-91368571D02*
X212748761Y-91368571D01*
X212748761Y-91892380D02*
X212748761Y-90892380D01*
X213082095Y-90892380D02*
X213653523Y-90892380D01*
X213367809Y-91892380D02*
X213367809Y-90892380D01*
X215646095Y-90940000D02*
X215550857Y-90892380D01*
X215408000Y-90892380D01*
X215265142Y-90940000D01*
X215169904Y-91035238D01*
X215122285Y-91130476D01*
X215074666Y-91320952D01*
X215074666Y-91463809D01*
X215122285Y-91654285D01*
X215169904Y-91749523D01*
X215265142Y-91844761D01*
X215408000Y-91892380D01*
X215503238Y-91892380D01*
X215646095Y-91844761D01*
X215693714Y-91797142D01*
X215693714Y-91463809D01*
X215503238Y-91463809D01*
X216122285Y-91892380D02*
X216122285Y-90892380D01*
X216693714Y-91892380D01*
X216693714Y-90892380D01*
X217169904Y-91892380D02*
X217169904Y-90892380D01*
X217408000Y-90892380D01*
X217550857Y-90940000D01*
X217646095Y-91035238D01*
X217693714Y-91130476D01*
X217741333Y-91320952D01*
X217741333Y-91463809D01*
X217693714Y-91654285D01*
X217646095Y-91749523D01*
X217550857Y-91844761D01*
X217408000Y-91892380D01*
X217169904Y-91892380D01*
X221234095Y-76208000D02*
X221138857Y-76160380D01*
X220996000Y-76160380D01*
X220853142Y-76208000D01*
X220757904Y-76303238D01*
X220710285Y-76398476D01*
X220662666Y-76588952D01*
X220662666Y-76731809D01*
X220710285Y-76922285D01*
X220757904Y-77017523D01*
X220853142Y-77112761D01*
X220996000Y-77160380D01*
X221091238Y-77160380D01*
X221234095Y-77112761D01*
X221281714Y-77065142D01*
X221281714Y-76731809D01*
X221091238Y-76731809D01*
X221710285Y-77160380D02*
X221710285Y-76160380D01*
X222281714Y-77160380D01*
X222281714Y-76160380D01*
X222757904Y-77160380D02*
X222757904Y-76160380D01*
X222996000Y-76160380D01*
X223138857Y-76208000D01*
X223234095Y-76303238D01*
X223281714Y-76398476D01*
X223329333Y-76588952D01*
X223329333Y-76731809D01*
X223281714Y-76922285D01*
X223234095Y-77017523D01*
X223138857Y-77112761D01*
X222996000Y-77160380D01*
X222757904Y-77160380D01*
X223829714Y-77112761D02*
X223972571Y-77160380D01*
X224210666Y-77160380D01*
X224305904Y-77112761D01*
X224353523Y-77065142D01*
X224401142Y-76969904D01*
X224401142Y-76874666D01*
X224353523Y-76779428D01*
X224305904Y-76731809D01*
X224210666Y-76684190D01*
X224020190Y-76636571D01*
X223924952Y-76588952D01*
X223877333Y-76541333D01*
X223829714Y-76446095D01*
X223829714Y-76350857D01*
X223877333Y-76255619D01*
X223924952Y-76208000D01*
X224020190Y-76160380D01*
X224258285Y-76160380D01*
X224401142Y-76208000D01*
X224829714Y-77160380D02*
X224829714Y-76160380D01*
X225067809Y-76160380D01*
X225210666Y-76208000D01*
X225305904Y-76303238D01*
X225353523Y-76398476D01*
X225401142Y-76588952D01*
X225401142Y-76731809D01*
X225353523Y-76922285D01*
X225305904Y-77017523D01*
X225210666Y-77112761D01*
X225067809Y-77160380D01*
X224829714Y-77160380D01*
X225782095Y-76874666D02*
X226258285Y-76874666D01*
X225686857Y-77160380D02*
X226020190Y-76160380D01*
X226353523Y-77160380D01*
X207311809Y-90892380D02*
X207930857Y-90892380D01*
X207597523Y-91273333D01*
X207740380Y-91273333D01*
X207835619Y-91320952D01*
X207883238Y-91368571D01*
X207930857Y-91463809D01*
X207930857Y-91701904D01*
X207883238Y-91797142D01*
X207835619Y-91844761D01*
X207740380Y-91892380D01*
X207454666Y-91892380D01*
X207359428Y-91844761D01*
X207311809Y-91797142D01*
X208359428Y-91797142D02*
X208407047Y-91844761D01*
X208359428Y-91892380D01*
X208311809Y-91844761D01*
X208359428Y-91797142D01*
X208359428Y-91892380D01*
X208740380Y-90892380D02*
X209359428Y-90892380D01*
X209026095Y-91273333D01*
X209168952Y-91273333D01*
X209264190Y-91320952D01*
X209311809Y-91368571D01*
X209359428Y-91463809D01*
X209359428Y-91701904D01*
X209311809Y-91797142D01*
X209264190Y-91844761D01*
X209168952Y-91892380D01*
X208883238Y-91892380D01*
X208788000Y-91844761D01*
X208740380Y-91797142D01*
X209645142Y-90892380D02*
X209978476Y-91892380D01*
X210311809Y-90892380D01*
D10*
X196330000Y-73025142D02*
X196401428Y-72882285D01*
X196401428Y-72668000D01*
X196330000Y-72453714D01*
X196187142Y-72310857D01*
X196044285Y-72239428D01*
X195758571Y-72168000D01*
X195544285Y-72168000D01*
X195258571Y-72239428D01*
X195115714Y-72310857D01*
X194972857Y-72453714D01*
X194901428Y-72668000D01*
X194901428Y-72810857D01*
X194972857Y-73025142D01*
X195044285Y-73096571D01*
X195544285Y-73096571D01*
X195544285Y-72810857D01*
X194901428Y-73739428D02*
X196401428Y-73739428D01*
X194901428Y-74596571D01*
X196401428Y-74596571D01*
X194901428Y-75310857D02*
X196401428Y-75310857D01*
X196401428Y-75668000D01*
X196330000Y-75882285D01*
X196187142Y-76025142D01*
X196044285Y-76096571D01*
X195758571Y-76168000D01*
X195544285Y-76168000D01*
X195258571Y-76096571D01*
X195115714Y-76025142D01*
X194972857Y-75882285D01*
X194901428Y-75668000D01*
X194901428Y-75310857D01*
D11*
X227123809Y-76160380D02*
X227742857Y-76160380D01*
X227409523Y-76541333D01*
X227552380Y-76541333D01*
X227647619Y-76588952D01*
X227695238Y-76636571D01*
X227742857Y-76731809D01*
X227742857Y-76969904D01*
X227695238Y-77065142D01*
X227647619Y-77112761D01*
X227552380Y-77160380D01*
X227266666Y-77160380D01*
X227171428Y-77112761D01*
X227123809Y-77065142D01*
X228171428Y-77065142D02*
X228219047Y-77112761D01*
X228171428Y-77160380D01*
X228123809Y-77112761D01*
X228171428Y-77065142D01*
X228171428Y-77160380D01*
X228552380Y-76160380D02*
X229171428Y-76160380D01*
X228838095Y-76541333D01*
X228980952Y-76541333D01*
X229076190Y-76588952D01*
X229123809Y-76636571D01*
X229171428Y-76731809D01*
X229171428Y-76969904D01*
X229123809Y-77065142D01*
X229076190Y-77112761D01*
X228980952Y-77160380D01*
X228695238Y-77160380D01*
X228600000Y-77112761D01*
X228552380Y-77065142D01*
X229457142Y-76160380D02*
X229790476Y-77160380D01*
X230123809Y-76160380D01*
D10*
X209196857Y-69458000D02*
X209125428Y-69672285D01*
X209125428Y-70029428D01*
X209196857Y-70172285D01*
X209268285Y-70243714D01*
X209411142Y-70315142D01*
X209554000Y-70315142D01*
X209696857Y-70243714D01*
X209768285Y-70172285D01*
X209839714Y-70029428D01*
X209911142Y-69743714D01*
X209982571Y-69600857D01*
X210054000Y-69529428D01*
X210196857Y-69458000D01*
X210339714Y-69458000D01*
X210482571Y-69529428D01*
X210554000Y-69600857D01*
X210625428Y-69743714D01*
X210625428Y-70100857D01*
X210554000Y-70315142D01*
X210625428Y-71243714D02*
X210625428Y-71529428D01*
X210554000Y-71672285D01*
X210411142Y-71815142D01*
X210125428Y-71886571D01*
X209625428Y-71886571D01*
X209339714Y-71815142D01*
X209196857Y-71672285D01*
X209125428Y-71529428D01*
X209125428Y-71243714D01*
X209196857Y-71100857D01*
X209339714Y-70958000D01*
X209625428Y-70886571D01*
X210125428Y-70886571D01*
X210411142Y-70958000D01*
X210554000Y-71100857D01*
X210625428Y-71243714D01*
X209125428Y-73243714D02*
X209125428Y-72529428D01*
X210625428Y-72529428D01*
X209554000Y-73672285D02*
X209554000Y-74386571D01*
X209125428Y-73529428D02*
X210625428Y-74029428D01*
X209125428Y-74529428D01*
X209125428Y-75886571D02*
X209839714Y-75386571D01*
X209125428Y-75029428D02*
X210625428Y-75029428D01*
X210625428Y-75600857D01*
X210554000Y-75743714D01*
X210482571Y-75815142D01*
X210339714Y-75886571D01*
X210125428Y-75886571D01*
X209982571Y-75815142D01*
X209911142Y-75743714D01*
X209839714Y-75600857D01*
X209839714Y-75029428D01*
X209125428Y-77672285D02*
X210625428Y-77672285D01*
X210625428Y-78243714D01*
X210554000Y-78386571D01*
X210482571Y-78458000D01*
X210339714Y-78529428D01*
X210125428Y-78529428D01*
X209982571Y-78458000D01*
X209911142Y-78386571D01*
X209839714Y-78243714D01*
X209839714Y-77672285D01*
X209554000Y-79100857D02*
X209554000Y-79815142D01*
X209125428Y-78958000D02*
X210625428Y-79458000D01*
X209125428Y-79958000D01*
X209125428Y-80458000D02*
X210625428Y-80458000D01*
X209125428Y-81315142D01*
X210625428Y-81315142D01*
X209911142Y-82029428D02*
X209911142Y-82529428D01*
X209125428Y-82743714D02*
X209125428Y-82029428D01*
X210625428Y-82029428D01*
X210625428Y-82743714D01*
X209125428Y-84100857D02*
X209125428Y-83386571D01*
X210625428Y-83386571D01*
X194901428Y-78319428D02*
X194901428Y-77462285D01*
X194901428Y-77890857D02*
X196401428Y-77890857D01*
X196187142Y-77748000D01*
X196044285Y-77605142D01*
X195972857Y-77462285D01*
X196258571Y-78890857D02*
X196330000Y-78962285D01*
X196401428Y-79105142D01*
X196401428Y-79462285D01*
X196330000Y-79605142D01*
X196258571Y-79676571D01*
X196115714Y-79748000D01*
X195972857Y-79748000D01*
X195758571Y-79676571D01*
X194901428Y-78819428D01*
X194901428Y-79748000D01*
X196401428Y-80176571D02*
X194901428Y-80676571D01*
X196401428Y-81176571D01*
X229882000Y-63118857D02*
X229810571Y-63261714D01*
X229810571Y-63476000D01*
X229882000Y-63690285D01*
X230024857Y-63833142D01*
X230167714Y-63904571D01*
X230453428Y-63976000D01*
X230667714Y-63976000D01*
X230953428Y-63904571D01*
X231096285Y-63833142D01*
X231239142Y-63690285D01*
X231310571Y-63476000D01*
X231310571Y-63333142D01*
X231239142Y-63118857D01*
X231167714Y-63047428D01*
X230667714Y-63047428D01*
X230667714Y-63333142D01*
X231310571Y-62404571D02*
X229810571Y-62404571D01*
X231310571Y-61547428D01*
X229810571Y-61547428D01*
X231310571Y-60833142D02*
X229810571Y-60833142D01*
X229810571Y-60476000D01*
X229882000Y-60261714D01*
X230024857Y-60118857D01*
X230167714Y-60047428D01*
X230453428Y-59976000D01*
X230667714Y-59976000D01*
X230953428Y-60047428D01*
X231096285Y-60118857D01*
X231239142Y-60261714D01*
X231310571Y-60476000D01*
X231310571Y-60833142D01*
X203653142Y-33229357D02*
X204153142Y-33229357D01*
X204367428Y-34015071D02*
X203653142Y-34015071D01*
X203653142Y-32515071D01*
X204367428Y-32515071D01*
X204938857Y-33943642D02*
X205153142Y-34015071D01*
X205510285Y-34015071D01*
X205653142Y-33943642D01*
X205724571Y-33872214D01*
X205796000Y-33729357D01*
X205796000Y-33586500D01*
X205724571Y-33443642D01*
X205653142Y-33372214D01*
X205510285Y-33300785D01*
X205224571Y-33229357D01*
X205081714Y-33157928D01*
X205010285Y-33086500D01*
X204938857Y-32943642D01*
X204938857Y-32800785D01*
X205010285Y-32657928D01*
X205081714Y-32586500D01*
X205224571Y-32515071D01*
X205581714Y-32515071D01*
X205796000Y-32586500D01*
X206438857Y-34015071D02*
X206438857Y-32515071D01*
X207010285Y-32515071D01*
X207153142Y-32586500D01*
X207224571Y-32657928D01*
X207296000Y-32800785D01*
X207296000Y-33015071D01*
X207224571Y-33157928D01*
X207153142Y-33229357D01*
X207010285Y-33300785D01*
X206438857Y-33300785D01*
X207796000Y-32515071D02*
X208724571Y-32515071D01*
X208224571Y-33086500D01*
X208438857Y-33086500D01*
X208581714Y-33157928D01*
X208653142Y-33229357D01*
X208724571Y-33372214D01*
X208724571Y-33729357D01*
X208653142Y-33872214D01*
X208581714Y-33943642D01*
X208438857Y-34015071D01*
X208010285Y-34015071D01*
X207867428Y-33943642D01*
X207796000Y-33872214D01*
X209296000Y-32657928D02*
X209367428Y-32586500D01*
X209510285Y-32515071D01*
X209867428Y-32515071D01*
X210010285Y-32586500D01*
X210081714Y-32657928D01*
X210153142Y-32800785D01*
X210153142Y-32943642D01*
X210081714Y-33157928D01*
X209224571Y-34015071D01*
X210153142Y-34015071D01*
X210796000Y-33443642D02*
X211938857Y-33443642D01*
X213510285Y-33872214D02*
X213438857Y-33943642D01*
X213224571Y-34015071D01*
X213081714Y-34015071D01*
X212867428Y-33943642D01*
X212724571Y-33800785D01*
X212653142Y-33657928D01*
X212581714Y-33372214D01*
X212581714Y-33157928D01*
X212653142Y-32872214D01*
X212724571Y-32729357D01*
X212867428Y-32586500D01*
X213081714Y-32515071D01*
X213224571Y-32515071D01*
X213438857Y-32586500D01*
X213510285Y-32657928D01*
X214010285Y-32515071D02*
X214938857Y-32515071D01*
X214438857Y-33086500D01*
X214653142Y-33086500D01*
X214796000Y-33157928D01*
X214867428Y-33229357D01*
X214938857Y-33372214D01*
X214938857Y-33729357D01*
X214867428Y-33872214D01*
X214796000Y-33943642D01*
X214653142Y-34015071D01*
X214224571Y-34015071D01*
X214081714Y-33943642D01*
X214010285Y-33872214D01*
X216653142Y-32443642D02*
X215367428Y-34372214D01*
X217081714Y-33943642D02*
X217296000Y-34015071D01*
X217653142Y-34015071D01*
X217796000Y-33943642D01*
X217867428Y-33872214D01*
X217938857Y-33729357D01*
X217938857Y-33586500D01*
X217867428Y-33443642D01*
X217796000Y-33372214D01*
X217653142Y-33300785D01*
X217367428Y-33229357D01*
X217224571Y-33157928D01*
X217153142Y-33086500D01*
X217081714Y-32943642D01*
X217081714Y-32800785D01*
X217153142Y-32657928D01*
X217224571Y-32586500D01*
X217367428Y-32515071D01*
X217724571Y-32515071D01*
X217938857Y-32586500D01*
X218438857Y-32515071D02*
X219367428Y-32515071D01*
X218867428Y-33086500D01*
X219081714Y-33086500D01*
X219224571Y-33157928D01*
X219296000Y-33229357D01*
X219367428Y-33372214D01*
X219367428Y-33729357D01*
X219296000Y-33872214D01*
X219224571Y-33943642D01*
X219081714Y-34015071D01*
X218653142Y-34015071D01*
X218510285Y-33943642D01*
X218438857Y-33872214D01*
X221010285Y-32515071D02*
X222010285Y-34015071D01*
X222010285Y-32515071D02*
X221010285Y-34015071D01*
X222581714Y-34015071D02*
X222581714Y-32515071D01*
X223224571Y-33586500D02*
X223938857Y-33586500D01*
X223081714Y-34015071D02*
X223581714Y-32515071D01*
X224081714Y-34015071D01*
X224867428Y-32515071D02*
X225153142Y-32515071D01*
X225296000Y-32586500D01*
X225438857Y-32729357D01*
X225510285Y-33015071D01*
X225510285Y-33515071D01*
X225438857Y-33800785D01*
X225296000Y-33943642D01*
X225153142Y-34015071D01*
X224867428Y-34015071D01*
X224724571Y-33943642D01*
X224581714Y-33800785D01*
X224510285Y-33515071D01*
X224510285Y-33015071D01*
X224581714Y-32729357D01*
X224724571Y-32586500D01*
X224867428Y-32515071D01*
X203653142Y-36430071D02*
X203653142Y-34930071D01*
X204153142Y-36001500D01*
X204653142Y-34930071D01*
X204653142Y-36430071D01*
X205938857Y-36358642D02*
X205796000Y-36430071D01*
X205510285Y-36430071D01*
X205367428Y-36358642D01*
X205296000Y-36215785D01*
X205296000Y-35644357D01*
X205367428Y-35501500D01*
X205510285Y-35430071D01*
X205796000Y-35430071D01*
X205938857Y-35501500D01*
X206010285Y-35644357D01*
X206010285Y-35787214D01*
X205296000Y-35930071D01*
X206438857Y-35430071D02*
X207010285Y-35430071D01*
X206653142Y-34930071D02*
X206653142Y-36215785D01*
X206724571Y-36358642D01*
X206867428Y-36430071D01*
X207010285Y-36430071D01*
X208081714Y-36358642D02*
X207938857Y-36430071D01*
X207653142Y-36430071D01*
X207510285Y-36358642D01*
X207438857Y-36215785D01*
X207438857Y-35644357D01*
X207510285Y-35501500D01*
X207653142Y-35430071D01*
X207938857Y-35430071D01*
X208081714Y-35501500D01*
X208153142Y-35644357D01*
X208153142Y-35787214D01*
X207438857Y-35930071D01*
X209010285Y-36430071D02*
X208867428Y-36358642D01*
X208796000Y-36287214D01*
X208724571Y-36144357D01*
X208724571Y-35715785D01*
X208796000Y-35572928D01*
X208867428Y-35501500D01*
X209010285Y-35430071D01*
X209224571Y-35430071D01*
X209367428Y-35501500D01*
X209438857Y-35572928D01*
X209510285Y-35715785D01*
X209510285Y-36144357D01*
X209438857Y-36287214D01*
X209367428Y-36358642D01*
X209224571Y-36430071D01*
X209010285Y-36430071D01*
X211296000Y-35858642D02*
X212438857Y-35858642D01*
X214153142Y-35430071D02*
X214510285Y-36430071D01*
X214867428Y-35430071D01*
X216224571Y-36430071D02*
X215367428Y-36430071D01*
X215796000Y-36430071D02*
X215796000Y-34930071D01*
X215653142Y-35144357D01*
X215510285Y-35287214D01*
X215367428Y-35358642D01*
X216867428Y-36287214D02*
X216938857Y-36358642D01*
X216867428Y-36430071D01*
X216796000Y-36358642D01*
X216867428Y-36287214D01*
X216867428Y-36430071D01*
X217867428Y-34930071D02*
X218010285Y-34930071D01*
X218153142Y-35001500D01*
X218224571Y-35072928D01*
X218296000Y-35215785D01*
X218367428Y-35501500D01*
X218367428Y-35858642D01*
X218296000Y-36144357D01*
X218224571Y-36287214D01*
X218153142Y-36358642D01*
X218010285Y-36430071D01*
X217867428Y-36430071D01*
X217724571Y-36358642D01*
X217653142Y-36287214D01*
X217581714Y-36144357D01*
X217510285Y-35858642D01*
X217510285Y-35501500D01*
X217581714Y-35215785D01*
X217653142Y-35072928D01*
X217724571Y-35001500D01*
X217867428Y-34930071D01*
X219010285Y-36287214D02*
X219081714Y-36358642D01*
X219010285Y-36430071D01*
X218938857Y-36358642D01*
X219010285Y-36287214D01*
X219010285Y-36430071D01*
X220010285Y-34930071D02*
X220153142Y-34930071D01*
X220296000Y-35001500D01*
X220367428Y-35072928D01*
X220438857Y-35215785D01*
X220510285Y-35501500D01*
X220510285Y-35858642D01*
X220438857Y-36144357D01*
X220367428Y-36287214D01*
X220296000Y-36358642D01*
X220153142Y-36430071D01*
X220010285Y-36430071D01*
X219867428Y-36358642D01*
X219796000Y-36287214D01*
X219724571Y-36144357D01*
X219653142Y-35858642D01*
X219653142Y-35501500D01*
X219724571Y-35215785D01*
X219796000Y-35072928D01*
X219867428Y-35001500D01*
X220010285Y-34930071D01*
D11*
X217757523Y-77112761D02*
X217900380Y-77160380D01*
X218138476Y-77160380D01*
X218233714Y-77112761D01*
X218281333Y-77065142D01*
X218328952Y-76969904D01*
X218328952Y-76874666D01*
X218281333Y-76779428D01*
X218233714Y-76731809D01*
X218138476Y-76684190D01*
X217948000Y-76636571D01*
X217852761Y-76588952D01*
X217805142Y-76541333D01*
X217757523Y-76446095D01*
X217757523Y-76350857D01*
X217805142Y-76255619D01*
X217852761Y-76208000D01*
X217948000Y-76160380D01*
X218186095Y-76160380D01*
X218328952Y-76208000D01*
X219328952Y-77065142D02*
X219281333Y-77112761D01*
X219138476Y-77160380D01*
X219043238Y-77160380D01*
X218900380Y-77112761D01*
X218805142Y-77017523D01*
X218757523Y-76922285D01*
X218709904Y-76731809D01*
X218709904Y-76588952D01*
X218757523Y-76398476D01*
X218805142Y-76303238D01*
X218900380Y-76208000D01*
X219043238Y-76160380D01*
X219138476Y-76160380D01*
X219281333Y-76208000D01*
X219328952Y-76255619D01*
X220233714Y-77160380D02*
X219757523Y-77160380D01*
X219757523Y-76160380D01*
D12*
%TO.C,R1*%
X214532380Y-74842666D02*
X214056190Y-75176000D01*
X214532380Y-75414095D02*
X213532380Y-75414095D01*
X213532380Y-75033142D01*
X213580000Y-74937904D01*
X213627619Y-74890285D01*
X213722857Y-74842666D01*
X213865714Y-74842666D01*
X213960952Y-74890285D01*
X214008571Y-74937904D01*
X214056190Y-75033142D01*
X214056190Y-75414095D01*
X214532380Y-73890285D02*
X214532380Y-74461714D01*
X214532380Y-74176000D02*
X213532380Y-74176000D01*
X213675238Y-74271238D01*
X213770476Y-74366476D01*
X213818095Y-74461714D01*
%TO.C,J3*%
X203668380Y-77041333D02*
X204382666Y-77041333D01*
X204525523Y-77088952D01*
X204620761Y-77184190D01*
X204668380Y-77327047D01*
X204668380Y-77422285D01*
X203668380Y-76660380D02*
X203668380Y-76041333D01*
X204049333Y-76374666D01*
X204049333Y-76231809D01*
X204096952Y-76136571D01*
X204144571Y-76088952D01*
X204239809Y-76041333D01*
X204477904Y-76041333D01*
X204573142Y-76088952D01*
X204620761Y-76136571D01*
X204668380Y-76231809D01*
X204668380Y-76517523D01*
X204620761Y-76612761D01*
X204573142Y-76660380D01*
%TO.C,R3*%
X216648380Y-56655666D02*
X216172190Y-56989000D01*
X216648380Y-57227095D02*
X215648380Y-57227095D01*
X215648380Y-56846142D01*
X215696000Y-56750904D01*
X215743619Y-56703285D01*
X215838857Y-56655666D01*
X215981714Y-56655666D01*
X216076952Y-56703285D01*
X216124571Y-56750904D01*
X216172190Y-56846142D01*
X216172190Y-57227095D01*
X215648380Y-56322333D02*
X215648380Y-55703285D01*
X216029333Y-56036619D01*
X216029333Y-55893761D01*
X216076952Y-55798523D01*
X216124571Y-55750904D01*
X216219809Y-55703285D01*
X216457904Y-55703285D01*
X216553142Y-55750904D01*
X216600761Y-55798523D01*
X216648380Y-55893761D01*
X216648380Y-56179476D01*
X216600761Y-56274714D01*
X216553142Y-56322333D01*
%TO.C,J4*%
X223480380Y-65357333D02*
X224194666Y-65357333D01*
X224337523Y-65404952D01*
X224432761Y-65500190D01*
X224480380Y-65643047D01*
X224480380Y-65738285D01*
X223813714Y-64452571D02*
X224480380Y-64452571D01*
X223432761Y-64690666D02*
X224147047Y-64928761D01*
X224147047Y-64309714D01*
%TO.C,R2*%
X214532380Y-69127666D02*
X214056190Y-69461000D01*
X214532380Y-69699095D02*
X213532380Y-69699095D01*
X213532380Y-69318142D01*
X213580000Y-69222904D01*
X213627619Y-69175285D01*
X213722857Y-69127666D01*
X213865714Y-69127666D01*
X213960952Y-69175285D01*
X214008571Y-69222904D01*
X214056190Y-69318142D01*
X214056190Y-69699095D01*
X213627619Y-68746714D02*
X213580000Y-68699095D01*
X213532380Y-68603857D01*
X213532380Y-68365761D01*
X213580000Y-68270523D01*
X213627619Y-68222904D01*
X213722857Y-68175285D01*
X213818095Y-68175285D01*
X213960952Y-68222904D01*
X214532380Y-68794333D01*
X214532380Y-68175285D01*
%TO.C,J1*%
X195667380Y-66246333D02*
X196381666Y-66246333D01*
X196524523Y-66293952D01*
X196619761Y-66389190D01*
X196667380Y-66532047D01*
X196667380Y-66627285D01*
X196667380Y-65246333D02*
X196667380Y-65817761D01*
X196667380Y-65532047D02*
X195667380Y-65532047D01*
X195810238Y-65627285D01*
X195905476Y-65722523D01*
X195953095Y-65817761D01*
X199207380Y-65912857D02*
X198207380Y-65912857D01*
X199207380Y-65436666D02*
X198207380Y-65436666D01*
X199207380Y-64865238D01*
X198207380Y-64865238D01*
X198826428Y-64389047D02*
X198826428Y-63627142D01*
X206462380Y-55594047D02*
X206462380Y-55403571D01*
X206510000Y-55308333D01*
X206605238Y-55213095D01*
X206795714Y-55165476D01*
X207129047Y-55165476D01*
X207319523Y-55213095D01*
X207414761Y-55308333D01*
X207462380Y-55403571D01*
X207462380Y-55594047D01*
X207414761Y-55689285D01*
X207319523Y-55784523D01*
X207129047Y-55832142D01*
X206795714Y-55832142D01*
X206605238Y-55784523D01*
X206510000Y-55689285D01*
X206462380Y-55594047D01*
X206462380Y-54736904D02*
X207271904Y-54736904D01*
X207367142Y-54689285D01*
X207414761Y-54641666D01*
X207462380Y-54546428D01*
X207462380Y-54355952D01*
X207414761Y-54260714D01*
X207367142Y-54213095D01*
X207271904Y-54165476D01*
X206462380Y-54165476D01*
X206462380Y-53832142D02*
X206462380Y-53260714D01*
X207462380Y-53546428D02*
X206462380Y-53546428D01*
X207081428Y-52927380D02*
X207081428Y-52165476D01*
X207462380Y-52546428D02*
X206700476Y-52546428D01*
X207462380Y-65912857D02*
X206462380Y-65912857D01*
X207462380Y-65436666D02*
X206462380Y-65436666D01*
X207462380Y-64865238D01*
X206462380Y-64865238D01*
X207081428Y-64389047D02*
X207081428Y-63627142D01*
X207462380Y-64008095D02*
X206700476Y-64008095D01*
X198207380Y-55594047D02*
X198207380Y-55403571D01*
X198255000Y-55308333D01*
X198350238Y-55213095D01*
X198540714Y-55165476D01*
X198874047Y-55165476D01*
X199064523Y-55213095D01*
X199159761Y-55308333D01*
X199207380Y-55403571D01*
X199207380Y-55594047D01*
X199159761Y-55689285D01*
X199064523Y-55784523D01*
X198874047Y-55832142D01*
X198540714Y-55832142D01*
X198350238Y-55784523D01*
X198255000Y-55689285D01*
X198207380Y-55594047D01*
X198207380Y-54736904D02*
X199016904Y-54736904D01*
X199112142Y-54689285D01*
X199159761Y-54641666D01*
X199207380Y-54546428D01*
X199207380Y-54355952D01*
X199159761Y-54260714D01*
X199112142Y-54213095D01*
X199016904Y-54165476D01*
X198207380Y-54165476D01*
X198207380Y-53832142D02*
X198207380Y-53260714D01*
X199207380Y-53546428D02*
X198207380Y-53546428D01*
X198826428Y-52927380D02*
X198826428Y-52165476D01*
%TO.C,J5*%
X219416380Y-42243333D02*
X220130666Y-42243333D01*
X220273523Y-42290952D01*
X220368761Y-42386190D01*
X220416380Y-42529047D01*
X220416380Y-42624285D01*
X219416380Y-41290952D02*
X219416380Y-41767142D01*
X219892571Y-41814761D01*
X219844952Y-41767142D01*
X219797333Y-41671904D01*
X219797333Y-41433809D01*
X219844952Y-41338571D01*
X219892571Y-41290952D01*
X219987809Y-41243333D01*
X220225904Y-41243333D01*
X220321142Y-41290952D01*
X220368761Y-41338571D01*
X220416380Y-41433809D01*
X220416380Y-41671904D01*
X220368761Y-41767142D01*
X220321142Y-41814761D01*
%TO.C,U1*%
X204964880Y-90564404D02*
X205774404Y-90564404D01*
X205869642Y-90516785D01*
X205917261Y-90469166D01*
X205964880Y-90373928D01*
X205964880Y-90183452D01*
X205917261Y-90088214D01*
X205869642Y-90040595D01*
X205774404Y-89992976D01*
X204964880Y-89992976D01*
X205964880Y-88992976D02*
X205964880Y-89564404D01*
X205964880Y-89278690D02*
X204964880Y-89278690D01*
X205107738Y-89373928D01*
X205202976Y-89469166D01*
X205250595Y-89564404D01*
%TO.C,J2*%
X229112380Y-79708333D02*
X229826666Y-79708333D01*
X229969523Y-79755952D01*
X230064761Y-79851190D01*
X230112380Y-79994047D01*
X230112380Y-80089285D01*
X229207619Y-79279761D02*
X229160000Y-79232142D01*
X229112380Y-79136904D01*
X229112380Y-78898809D01*
X229160000Y-78803571D01*
X229207619Y-78755952D01*
X229302857Y-78708333D01*
X229398095Y-78708333D01*
X229540952Y-78755952D01*
X230112380Y-79327380D01*
X230112380Y-78708333D01*
%TO.C,R4*%
X216648380Y-62116666D02*
X216172190Y-62450000D01*
X216648380Y-62688095D02*
X215648380Y-62688095D01*
X215648380Y-62307142D01*
X215696000Y-62211904D01*
X215743619Y-62164285D01*
X215838857Y-62116666D01*
X215981714Y-62116666D01*
X216076952Y-62164285D01*
X216124571Y-62211904D01*
X216172190Y-62307142D01*
X216172190Y-62688095D01*
X215981714Y-61259523D02*
X216648380Y-61259523D01*
X215600761Y-61497619D02*
X216315047Y-61735714D01*
X216315047Y-61116666D01*
%TO.C,U2*%
X193987380Y-84581904D02*
X194796904Y-84581904D01*
X194892142Y-84534285D01*
X194939761Y-84486666D01*
X194987380Y-84391428D01*
X194987380Y-84200952D01*
X194939761Y-84105714D01*
X194892142Y-84058095D01*
X194796904Y-84010476D01*
X193987380Y-84010476D01*
X194082619Y-83581904D02*
X194035000Y-83534285D01*
X193987380Y-83439047D01*
X193987380Y-83200952D01*
X194035000Y-83105714D01*
X194082619Y-83058095D01*
X194177857Y-83010476D01*
X194273095Y-83010476D01*
X194415952Y-83058095D01*
X194987380Y-83629523D01*
X194987380Y-83010476D01*
D13*
%TO.C,R1*%
X216810000Y-75403064D02*
X216810000Y-73948936D01*
X214990000Y-75403064D02*
X214990000Y-73948936D01*
%TO.C,R3*%
X213466000Y-55761936D02*
X213466000Y-57216064D01*
X215286000Y-55761936D02*
X215286000Y-57216064D01*
%TO.C,R2*%
X214990000Y-69688064D02*
X214990000Y-68233936D01*
X216810000Y-69688064D02*
X216810000Y-68233936D01*
%TO.C,J1*%
X200660000Y-57785000D02*
X205105000Y-57785000D01*
X205105000Y-57785000D02*
X205105000Y-53340000D01*
X205105000Y-53340000D02*
X200660000Y-53340000D01*
X200660000Y-53340000D02*
X200660000Y-57785000D01*
%TO.C,U1*%
X218952500Y-91682500D02*
X206702500Y-91682500D01*
X206412500Y-91962500D02*
X206412500Y-90352500D01*
X206412500Y-91962500D02*
X208412500Y-91962500D01*
X206692500Y-85922500D02*
X218952500Y-85922500D01*
X218952500Y-85922500D02*
X218952500Y-91682500D01*
X206692500Y-91672500D02*
X206692500Y-85932500D01*
%TO.C,J2*%
X227330000Y-78045000D02*
X228660000Y-78045000D01*
X226060000Y-80705000D02*
X218380000Y-80705000D01*
X228660000Y-78045000D02*
X228660000Y-79375000D01*
X218380000Y-78045000D02*
X218380000Y-80705000D01*
X226060000Y-78045000D02*
X226060000Y-80705000D01*
X226060000Y-78045000D02*
X218380000Y-78045000D01*
%TO.C,R4*%
X215286000Y-61222936D02*
X215286000Y-62677064D01*
X213466000Y-61222936D02*
X213466000Y-62677064D01*
%TO.C,U2*%
X196865000Y-85150000D02*
X195535000Y-85150000D01*
X198135000Y-85150000D02*
X198135000Y-82490000D01*
X195535000Y-85150000D02*
X195535000Y-83820000D01*
X203275000Y-85150000D02*
X203275000Y-82490000D01*
X198135000Y-85150000D02*
X203275000Y-85150000D01*
X198135000Y-82490000D02*
X203275000Y-82490000D01*
%TD*%
M02*
