%TF.GenerationSoftware,KiCad,Pcbnew,(6.0.6-0)*%
%TF.CreationDate,2023-07-30T17:28:14+02:00*%
%TF.ProjectId,SR23_T04_Avionics_V1-0-0,53523233-5f54-4303-945f-4176696f6e69,rev?*%
%TF.SameCoordinates,Original*%
%TF.FileFunction,Legend,Bot*%
%TF.FilePolarity,Positive*%
%FSLAX46Y46*%
G04 Gerber Fmt 4.6, Leading zero omitted, Abs format (unit mm)*
G04 Created by KiCad (PCBNEW (6.0.6-0)) date 2023-07-30 17:28:14*
%MOMM*%
%LPD*%
G01*
G04 APERTURE LIST*
%ADD10C,0.010000*%
%ADD11C,0.150000*%
%ADD12C,0.120000*%
%ADD13C,0.200000*%
%ADD14C,0.127000*%
G04 APERTURE END LIST*
D10*
G36*
X122213362Y-89854211D02*
G01*
X122238821Y-89857063D01*
X122264081Y-89861649D01*
X122289050Y-89867971D01*
X122313634Y-89876026D01*
X122337743Y-89885814D01*
X122361284Y-89897334D01*
X122384165Y-89910586D01*
X122406295Y-89925570D01*
X122427580Y-89942284D01*
X122447929Y-89960728D01*
X122467251Y-89980901D01*
X122485452Y-90002802D01*
X122502441Y-90026432D01*
X122518126Y-90051789D01*
X122532415Y-90078872D01*
X122538102Y-90090651D01*
X122543274Y-90102244D01*
X122547949Y-90113754D01*
X122552148Y-90125285D01*
X122555893Y-90136940D01*
X122559204Y-90148822D01*
X122562101Y-90161035D01*
X122564606Y-90173681D01*
X122566738Y-90186866D01*
X122568519Y-90200691D01*
X122569970Y-90215260D01*
X122571110Y-90230677D01*
X122571961Y-90247045D01*
X122572543Y-90264467D01*
X122572877Y-90283046D01*
X122572984Y-90302886D01*
X122572979Y-90332773D01*
X122572281Y-90360991D01*
X122570860Y-90387649D01*
X122568685Y-90412854D01*
X122565724Y-90436715D01*
X122561946Y-90459342D01*
X122557321Y-90480842D01*
X122551817Y-90501324D01*
X122545404Y-90520896D01*
X122538051Y-90539668D01*
X122529726Y-90557747D01*
X122520398Y-90575242D01*
X122510037Y-90592261D01*
X122498611Y-90608914D01*
X122486090Y-90625308D01*
X122472442Y-90641553D01*
X122461605Y-90653360D01*
X122450275Y-90664636D01*
X122438477Y-90675374D01*
X122426237Y-90685571D01*
X122413578Y-90695221D01*
X122400524Y-90704320D01*
X122387102Y-90712863D01*
X122373334Y-90720845D01*
X122359246Y-90728261D01*
X122344862Y-90735107D01*
X122330207Y-90741376D01*
X122315305Y-90747066D01*
X122284859Y-90756684D01*
X122253720Y-90763923D01*
X122222086Y-90768743D01*
X122190151Y-90771106D01*
X122174133Y-90771354D01*
X122158114Y-90770973D01*
X122142117Y-90769958D01*
X122126169Y-90768305D01*
X122110293Y-90766008D01*
X122094514Y-90763064D01*
X122078856Y-90759466D01*
X122063344Y-90755210D01*
X122048003Y-90750292D01*
X122032857Y-90744706D01*
X122017930Y-90738447D01*
X122003248Y-90731511D01*
X121986573Y-90722652D01*
X121970309Y-90712642D01*
X121954495Y-90701532D01*
X121939169Y-90689371D01*
X121924370Y-90676207D01*
X121910137Y-90662089D01*
X121896509Y-90647067D01*
X121883524Y-90631190D01*
X121871221Y-90614507D01*
X121859639Y-90597066D01*
X121848817Y-90578918D01*
X121838793Y-90560111D01*
X121829606Y-90540694D01*
X121821295Y-90520716D01*
X121813899Y-90500227D01*
X121807456Y-90479275D01*
X121802057Y-90457394D01*
X121797752Y-90433624D01*
X121794515Y-90408268D01*
X121792326Y-90381627D01*
X121791159Y-90354005D01*
X121790992Y-90325703D01*
X121791802Y-90297024D01*
X121793566Y-90268270D01*
X121796259Y-90239743D01*
X121799860Y-90211746D01*
X121804344Y-90184581D01*
X121809689Y-90158551D01*
X121815871Y-90133956D01*
X121822866Y-90111101D01*
X121830653Y-90090287D01*
X121839206Y-90071817D01*
X121853976Y-90045074D01*
X121870110Y-90020077D01*
X121887518Y-89996826D01*
X121906107Y-89975320D01*
X121925785Y-89955557D01*
X121946460Y-89937538D01*
X121968039Y-89921262D01*
X121990432Y-89906728D01*
X122013546Y-89893935D01*
X122037289Y-89882883D01*
X122061568Y-89873572D01*
X122086292Y-89866000D01*
X122111369Y-89860167D01*
X122136706Y-89856072D01*
X122162212Y-89853715D01*
X122187795Y-89853095D01*
X122213362Y-89854211D01*
G37*
X122213362Y-89854211D02*
X122238821Y-89857063D01*
X122264081Y-89861649D01*
X122289050Y-89867971D01*
X122313634Y-89876026D01*
X122337743Y-89885814D01*
X122361284Y-89897334D01*
X122384165Y-89910586D01*
X122406295Y-89925570D01*
X122427580Y-89942284D01*
X122447929Y-89960728D01*
X122467251Y-89980901D01*
X122485452Y-90002802D01*
X122502441Y-90026432D01*
X122518126Y-90051789D01*
X122532415Y-90078872D01*
X122538102Y-90090651D01*
X122543274Y-90102244D01*
X122547949Y-90113754D01*
X122552148Y-90125285D01*
X122555893Y-90136940D01*
X122559204Y-90148822D01*
X122562101Y-90161035D01*
X122564606Y-90173681D01*
X122566738Y-90186866D01*
X122568519Y-90200691D01*
X122569970Y-90215260D01*
X122571110Y-90230677D01*
X122571961Y-90247045D01*
X122572543Y-90264467D01*
X122572877Y-90283046D01*
X122572984Y-90302886D01*
X122572979Y-90332773D01*
X122572281Y-90360991D01*
X122570860Y-90387649D01*
X122568685Y-90412854D01*
X122565724Y-90436715D01*
X122561946Y-90459342D01*
X122557321Y-90480842D01*
X122551817Y-90501324D01*
X122545404Y-90520896D01*
X122538051Y-90539668D01*
X122529726Y-90557747D01*
X122520398Y-90575242D01*
X122510037Y-90592261D01*
X122498611Y-90608914D01*
X122486090Y-90625308D01*
X122472442Y-90641553D01*
X122461605Y-90653360D01*
X122450275Y-90664636D01*
X122438477Y-90675374D01*
X122426237Y-90685571D01*
X122413578Y-90695221D01*
X122400524Y-90704320D01*
X122387102Y-90712863D01*
X122373334Y-90720845D01*
X122359246Y-90728261D01*
X122344862Y-90735107D01*
X122330207Y-90741376D01*
X122315305Y-90747066D01*
X122284859Y-90756684D01*
X122253720Y-90763923D01*
X122222086Y-90768743D01*
X122190151Y-90771106D01*
X122174133Y-90771354D01*
X122158114Y-90770973D01*
X122142117Y-90769958D01*
X122126169Y-90768305D01*
X122110293Y-90766008D01*
X122094514Y-90763064D01*
X122078856Y-90759466D01*
X122063344Y-90755210D01*
X122048003Y-90750292D01*
X122032857Y-90744706D01*
X122017930Y-90738447D01*
X122003248Y-90731511D01*
X121986573Y-90722652D01*
X121970309Y-90712642D01*
X121954495Y-90701532D01*
X121939169Y-90689371D01*
X121924370Y-90676207D01*
X121910137Y-90662089D01*
X121896509Y-90647067D01*
X121883524Y-90631190D01*
X121871221Y-90614507D01*
X121859639Y-90597066D01*
X121848817Y-90578918D01*
X121838793Y-90560111D01*
X121829606Y-90540694D01*
X121821295Y-90520716D01*
X121813899Y-90500227D01*
X121807456Y-90479275D01*
X121802057Y-90457394D01*
X121797752Y-90433624D01*
X121794515Y-90408268D01*
X121792326Y-90381627D01*
X121791159Y-90354005D01*
X121790992Y-90325703D01*
X121791802Y-90297024D01*
X121793566Y-90268270D01*
X121796259Y-90239743D01*
X121799860Y-90211746D01*
X121804344Y-90184581D01*
X121809689Y-90158551D01*
X121815871Y-90133956D01*
X121822866Y-90111101D01*
X121830653Y-90090287D01*
X121839206Y-90071817D01*
X121853976Y-90045074D01*
X121870110Y-90020077D01*
X121887518Y-89996826D01*
X121906107Y-89975320D01*
X121925785Y-89955557D01*
X121946460Y-89937538D01*
X121968039Y-89921262D01*
X121990432Y-89906728D01*
X122013546Y-89893935D01*
X122037289Y-89882883D01*
X122061568Y-89873572D01*
X122086292Y-89866000D01*
X122111369Y-89860167D01*
X122136706Y-89856072D01*
X122162212Y-89853715D01*
X122187795Y-89853095D01*
X122213362Y-89854211D01*
G36*
X130239052Y-89003841D02*
G01*
X130239837Y-88968863D01*
X130240524Y-88954747D01*
X130241449Y-88942690D01*
X130242643Y-88932551D01*
X130244136Y-88924187D01*
X130245961Y-88917455D01*
X130248147Y-88912215D01*
X130250725Y-88908323D01*
X130253728Y-88905638D01*
X130257185Y-88904018D01*
X130261128Y-88903320D01*
X130265587Y-88903402D01*
X130270595Y-88904122D01*
X130272082Y-88904499D01*
X130273568Y-88904967D01*
X130275049Y-88905523D01*
X130276524Y-88906165D01*
X130277989Y-88906892D01*
X130279443Y-88907700D01*
X130280883Y-88908587D01*
X130282308Y-88909552D01*
X130283715Y-88910592D01*
X130285101Y-88911704D01*
X130286464Y-88912886D01*
X130287803Y-88914137D01*
X130289115Y-88915454D01*
X130290397Y-88916834D01*
X130291647Y-88918276D01*
X130292864Y-88919777D01*
X130295186Y-88922947D01*
X130297346Y-88926326D01*
X130298359Y-88928089D01*
X130299325Y-88929896D01*
X130300241Y-88931748D01*
X130301104Y-88933640D01*
X130301914Y-88935571D01*
X130302667Y-88937539D01*
X130303361Y-88939540D01*
X130303995Y-88941574D01*
X130304565Y-88943638D01*
X130305069Y-88945728D01*
X130305506Y-88947845D01*
X130305872Y-88949984D01*
X130306831Y-88954779D01*
X130308045Y-88959245D01*
X130309499Y-88963382D01*
X130311181Y-88967192D01*
X130313076Y-88970674D01*
X130315170Y-88973831D01*
X130317450Y-88976663D01*
X130319901Y-88979170D01*
X130322509Y-88981355D01*
X130325262Y-88983218D01*
X130328144Y-88984760D01*
X130331142Y-88985981D01*
X130334242Y-88986884D01*
X130337431Y-88987468D01*
X130340694Y-88987736D01*
X130344017Y-88987687D01*
X130347386Y-88987323D01*
X130350788Y-88986644D01*
X130354209Y-88985653D01*
X130357635Y-88984348D01*
X130361052Y-88982733D01*
X130364446Y-88980807D01*
X130367803Y-88978572D01*
X130371109Y-88976029D01*
X130374350Y-88973178D01*
X130377514Y-88970020D01*
X130380584Y-88966557D01*
X130383549Y-88962789D01*
X130386393Y-88958718D01*
X130389103Y-88954344D01*
X130391666Y-88949668D01*
X130394066Y-88944692D01*
X130396503Y-88939837D01*
X130399169Y-88935201D01*
X130402047Y-88930797D01*
X130405118Y-88926640D01*
X130408366Y-88922740D01*
X130411771Y-88919112D01*
X130415315Y-88915768D01*
X130418981Y-88912721D01*
X130422751Y-88909985D01*
X130426605Y-88907571D01*
X130430527Y-88905493D01*
X130434498Y-88903764D01*
X130436496Y-88903034D01*
X130438500Y-88902397D01*
X130440507Y-88901853D01*
X130442515Y-88901404D01*
X130444521Y-88901052D01*
X130446524Y-88900799D01*
X130448522Y-88900646D01*
X130450511Y-88900595D01*
X130454361Y-88900636D01*
X130457974Y-88900763D01*
X130461349Y-88900977D01*
X130464488Y-88901280D01*
X130467390Y-88901675D01*
X130470056Y-88902164D01*
X130472487Y-88902750D01*
X130474682Y-88903433D01*
X130476642Y-88904218D01*
X130478367Y-88905106D01*
X130479858Y-88906098D01*
X130481114Y-88907199D01*
X130482137Y-88908409D01*
X130482926Y-88909731D01*
X130483482Y-88911168D01*
X130483805Y-88912721D01*
X130483895Y-88914394D01*
X130483753Y-88916187D01*
X130483380Y-88918103D01*
X130482775Y-88920146D01*
X130481938Y-88922316D01*
X130480871Y-88924616D01*
X130479573Y-88927049D01*
X130478045Y-88929616D01*
X130476286Y-88932321D01*
X130474299Y-88935164D01*
X130472081Y-88938149D01*
X130469635Y-88941278D01*
X130464057Y-88947976D01*
X130457567Y-88955275D01*
X130452916Y-88960331D01*
X130448886Y-88964966D01*
X130447103Y-88967149D01*
X130445475Y-88969255D01*
X130444002Y-88971293D01*
X130442684Y-88973272D01*
X130441522Y-88975203D01*
X130440514Y-88977093D01*
X130439661Y-88978954D01*
X130438964Y-88980793D01*
X130438421Y-88982621D01*
X130438033Y-88984446D01*
X130437801Y-88986279D01*
X130437723Y-88988128D01*
X130437801Y-88990002D01*
X130438033Y-88991913D01*
X130438421Y-88993867D01*
X130438964Y-88995876D01*
X130439661Y-88997948D01*
X130440514Y-89000092D01*
X130441522Y-89002319D01*
X130442684Y-89004637D01*
X130444002Y-89007055D01*
X130445475Y-89009584D01*
X130448886Y-89015010D01*
X130452916Y-89020988D01*
X130457567Y-89027595D01*
X130463320Y-89036316D01*
X130468349Y-89044942D01*
X130472661Y-89053462D01*
X130476267Y-89061863D01*
X130479176Y-89070134D01*
X130481395Y-89078262D01*
X130482936Y-89086236D01*
X130483805Y-89094044D01*
X130484013Y-89101673D01*
X130483569Y-89109112D01*
X130482482Y-89116349D01*
X130480760Y-89123372D01*
X130478412Y-89130168D01*
X130475449Y-89136727D01*
X130471878Y-89143036D01*
X130467709Y-89149083D01*
X130462952Y-89154855D01*
X130457614Y-89160342D01*
X130451705Y-89165532D01*
X130445234Y-89170411D01*
X130438210Y-89174969D01*
X130430642Y-89179193D01*
X130422539Y-89183072D01*
X130413911Y-89186593D01*
X130404765Y-89189744D01*
X130395112Y-89192514D01*
X130384961Y-89194891D01*
X130374320Y-89196863D01*
X130363198Y-89198417D01*
X130351604Y-89199542D01*
X130339548Y-89200225D01*
X130327039Y-89200456D01*
X130238845Y-89200456D01*
X130238845Y-89094622D01*
X130309400Y-89094622D01*
X130309470Y-89103374D01*
X130309713Y-89111142D01*
X130310179Y-89117974D01*
X130310916Y-89123920D01*
X130311401Y-89126575D01*
X130311973Y-89129028D01*
X130312637Y-89131284D01*
X130313400Y-89133349D01*
X130314267Y-89135229D01*
X130315245Y-89136930D01*
X130316340Y-89138460D01*
X130317558Y-89139822D01*
X130318905Y-89141025D01*
X130320388Y-89142073D01*
X130322012Y-89142974D01*
X130323783Y-89143732D01*
X130325709Y-89144355D01*
X130327794Y-89144849D01*
X130330045Y-89145219D01*
X130332468Y-89145472D01*
X130335070Y-89145614D01*
X130337856Y-89145651D01*
X130344006Y-89145434D01*
X130350967Y-89144871D01*
X130358789Y-89144011D01*
X130365428Y-89143263D01*
X130371470Y-89142323D01*
X130376939Y-89141167D01*
X130379466Y-89140499D01*
X130381857Y-89139767D01*
X130384117Y-89138968D01*
X130386249Y-89138099D01*
X130388254Y-89137156D01*
X130390136Y-89136136D01*
X130391898Y-89135036D01*
X130393543Y-89133853D01*
X130395073Y-89132583D01*
X130396492Y-89131223D01*
X130397803Y-89129771D01*
X130399007Y-89128222D01*
X130400110Y-89126573D01*
X130401112Y-89124822D01*
X130402017Y-89122965D01*
X130402829Y-89120999D01*
X130403549Y-89118920D01*
X130404181Y-89116726D01*
X130404728Y-89114413D01*
X130405193Y-89111978D01*
X130405887Y-89106728D01*
X130406286Y-89100952D01*
X130406414Y-89094622D01*
X130406286Y-89088293D01*
X130405887Y-89082516D01*
X130405578Y-89079827D01*
X130405193Y-89077267D01*
X130404728Y-89074832D01*
X130404181Y-89072519D01*
X130403549Y-89070324D01*
X130402829Y-89068246D01*
X130402017Y-89066280D01*
X130401112Y-89064423D01*
X130400110Y-89062672D01*
X130399007Y-89061023D01*
X130397803Y-89059474D01*
X130396492Y-89058022D01*
X130395073Y-89056662D01*
X130393543Y-89055392D01*
X130391898Y-89054209D01*
X130390136Y-89053109D01*
X130388254Y-89052089D01*
X130386249Y-89051146D01*
X130384117Y-89050277D01*
X130381857Y-89049478D01*
X130379466Y-89048746D01*
X130376939Y-89048078D01*
X130371470Y-89046922D01*
X130365428Y-89045982D01*
X130358789Y-89045233D01*
X130350967Y-89044373D01*
X130344006Y-89043811D01*
X130337856Y-89043594D01*
X130335070Y-89043631D01*
X130332468Y-89043773D01*
X130330045Y-89044026D01*
X130327794Y-89044396D01*
X130325709Y-89044889D01*
X130323783Y-89045512D01*
X130322012Y-89046271D01*
X130320388Y-89047172D01*
X130318905Y-89048220D01*
X130317558Y-89049423D01*
X130316340Y-89050785D01*
X130315245Y-89052314D01*
X130314267Y-89054016D01*
X130313400Y-89055896D01*
X130312637Y-89057961D01*
X130311973Y-89060217D01*
X130311401Y-89062669D01*
X130310916Y-89065325D01*
X130310510Y-89068190D01*
X130310179Y-89071271D01*
X130309713Y-89078103D01*
X130309470Y-89085871D01*
X130309400Y-89094622D01*
X130238845Y-89094622D01*
X130238845Y-89048761D01*
X130239052Y-89003841D01*
G37*
X130239052Y-89003841D02*
X130239837Y-88968863D01*
X130240524Y-88954747D01*
X130241449Y-88942690D01*
X130242643Y-88932551D01*
X130244136Y-88924187D01*
X130245961Y-88917455D01*
X130248147Y-88912215D01*
X130250725Y-88908323D01*
X130253728Y-88905638D01*
X130257185Y-88904018D01*
X130261128Y-88903320D01*
X130265587Y-88903402D01*
X130270595Y-88904122D01*
X130272082Y-88904499D01*
X130273568Y-88904967D01*
X130275049Y-88905523D01*
X130276524Y-88906165D01*
X130277989Y-88906892D01*
X130279443Y-88907700D01*
X130280883Y-88908587D01*
X130282308Y-88909552D01*
X130283715Y-88910592D01*
X130285101Y-88911704D01*
X130286464Y-88912886D01*
X130287803Y-88914137D01*
X130289115Y-88915454D01*
X130290397Y-88916834D01*
X130291647Y-88918276D01*
X130292864Y-88919777D01*
X130295186Y-88922947D01*
X130297346Y-88926326D01*
X130298359Y-88928089D01*
X130299325Y-88929896D01*
X130300241Y-88931748D01*
X130301104Y-88933640D01*
X130301914Y-88935571D01*
X130302667Y-88937539D01*
X130303361Y-88939540D01*
X130303995Y-88941574D01*
X130304565Y-88943638D01*
X130305069Y-88945728D01*
X130305506Y-88947845D01*
X130305872Y-88949984D01*
X130306831Y-88954779D01*
X130308045Y-88959245D01*
X130309499Y-88963382D01*
X130311181Y-88967192D01*
X130313076Y-88970674D01*
X130315170Y-88973831D01*
X130317450Y-88976663D01*
X130319901Y-88979170D01*
X130322509Y-88981355D01*
X130325262Y-88983218D01*
X130328144Y-88984760D01*
X130331142Y-88985981D01*
X130334242Y-88986884D01*
X130337431Y-88987468D01*
X130340694Y-88987736D01*
X130344017Y-88987687D01*
X130347386Y-88987323D01*
X130350788Y-88986644D01*
X130354209Y-88985653D01*
X130357635Y-88984348D01*
X130361052Y-88982733D01*
X130364446Y-88980807D01*
X130367803Y-88978572D01*
X130371109Y-88976029D01*
X130374350Y-88973178D01*
X130377514Y-88970020D01*
X130380584Y-88966557D01*
X130383549Y-88962789D01*
X130386393Y-88958718D01*
X130389103Y-88954344D01*
X130391666Y-88949668D01*
X130394066Y-88944692D01*
X130396503Y-88939837D01*
X130399169Y-88935201D01*
X130402047Y-88930797D01*
X130405118Y-88926640D01*
X130408366Y-88922740D01*
X130411771Y-88919112D01*
X130415315Y-88915768D01*
X130418981Y-88912721D01*
X130422751Y-88909985D01*
X130426605Y-88907571D01*
X130430527Y-88905493D01*
X130434498Y-88903764D01*
X130436496Y-88903034D01*
X130438500Y-88902397D01*
X130440507Y-88901853D01*
X130442515Y-88901404D01*
X130444521Y-88901052D01*
X130446524Y-88900799D01*
X130448522Y-88900646D01*
X130450511Y-88900595D01*
X130454361Y-88900636D01*
X130457974Y-88900763D01*
X130461349Y-88900977D01*
X130464488Y-88901280D01*
X130467390Y-88901675D01*
X130470056Y-88902164D01*
X130472487Y-88902750D01*
X130474682Y-88903433D01*
X130476642Y-88904218D01*
X130478367Y-88905106D01*
X130479858Y-88906098D01*
X130481114Y-88907199D01*
X130482137Y-88908409D01*
X130482926Y-88909731D01*
X130483482Y-88911168D01*
X130483805Y-88912721D01*
X130483895Y-88914394D01*
X130483753Y-88916187D01*
X130483380Y-88918103D01*
X130482775Y-88920146D01*
X130481938Y-88922316D01*
X130480871Y-88924616D01*
X130479573Y-88927049D01*
X130478045Y-88929616D01*
X130476286Y-88932321D01*
X130474299Y-88935164D01*
X130472081Y-88938149D01*
X130469635Y-88941278D01*
X130464057Y-88947976D01*
X130457567Y-88955275D01*
X130452916Y-88960331D01*
X130448886Y-88964966D01*
X130447103Y-88967149D01*
X130445475Y-88969255D01*
X130444002Y-88971293D01*
X130442684Y-88973272D01*
X130441522Y-88975203D01*
X130440514Y-88977093D01*
X130439661Y-88978954D01*
X130438964Y-88980793D01*
X130438421Y-88982621D01*
X130438033Y-88984446D01*
X130437801Y-88986279D01*
X130437723Y-88988128D01*
X130437801Y-88990002D01*
X130438033Y-88991913D01*
X130438421Y-88993867D01*
X130438964Y-88995876D01*
X130439661Y-88997948D01*
X130440514Y-89000092D01*
X130441522Y-89002319D01*
X130442684Y-89004637D01*
X130444002Y-89007055D01*
X130445475Y-89009584D01*
X130448886Y-89015010D01*
X130452916Y-89020988D01*
X130457567Y-89027595D01*
X130463320Y-89036316D01*
X130468349Y-89044942D01*
X130472661Y-89053462D01*
X130476267Y-89061863D01*
X130479176Y-89070134D01*
X130481395Y-89078262D01*
X130482936Y-89086236D01*
X130483805Y-89094044D01*
X130484013Y-89101673D01*
X130483569Y-89109112D01*
X130482482Y-89116349D01*
X130480760Y-89123372D01*
X130478412Y-89130168D01*
X130475449Y-89136727D01*
X130471878Y-89143036D01*
X130467709Y-89149083D01*
X130462952Y-89154855D01*
X130457614Y-89160342D01*
X130451705Y-89165532D01*
X130445234Y-89170411D01*
X130438210Y-89174969D01*
X130430642Y-89179193D01*
X130422539Y-89183072D01*
X130413911Y-89186593D01*
X130404765Y-89189744D01*
X130395112Y-89192514D01*
X130384961Y-89194891D01*
X130374320Y-89196863D01*
X130363198Y-89198417D01*
X130351604Y-89199542D01*
X130339548Y-89200225D01*
X130327039Y-89200456D01*
X130238845Y-89200456D01*
X130238845Y-89094622D01*
X130309400Y-89094622D01*
X130309470Y-89103374D01*
X130309713Y-89111142D01*
X130310179Y-89117974D01*
X130310916Y-89123920D01*
X130311401Y-89126575D01*
X130311973Y-89129028D01*
X130312637Y-89131284D01*
X130313400Y-89133349D01*
X130314267Y-89135229D01*
X130315245Y-89136930D01*
X130316340Y-89138460D01*
X130317558Y-89139822D01*
X130318905Y-89141025D01*
X130320388Y-89142073D01*
X130322012Y-89142974D01*
X130323783Y-89143732D01*
X130325709Y-89144355D01*
X130327794Y-89144849D01*
X130330045Y-89145219D01*
X130332468Y-89145472D01*
X130335070Y-89145614D01*
X130337856Y-89145651D01*
X130344006Y-89145434D01*
X130350967Y-89144871D01*
X130358789Y-89144011D01*
X130365428Y-89143263D01*
X130371470Y-89142323D01*
X130376939Y-89141167D01*
X130379466Y-89140499D01*
X130381857Y-89139767D01*
X130384117Y-89138968D01*
X130386249Y-89138099D01*
X130388254Y-89137156D01*
X130390136Y-89136136D01*
X130391898Y-89135036D01*
X130393543Y-89133853D01*
X130395073Y-89132583D01*
X130396492Y-89131223D01*
X130397803Y-89129771D01*
X130399007Y-89128222D01*
X130400110Y-89126573D01*
X130401112Y-89124822D01*
X130402017Y-89122965D01*
X130402829Y-89120999D01*
X130403549Y-89118920D01*
X130404181Y-89116726D01*
X130404728Y-89114413D01*
X130405193Y-89111978D01*
X130405887Y-89106728D01*
X130406286Y-89100952D01*
X130406414Y-89094622D01*
X130406286Y-89088293D01*
X130405887Y-89082516D01*
X130405578Y-89079827D01*
X130405193Y-89077267D01*
X130404728Y-89074832D01*
X130404181Y-89072519D01*
X130403549Y-89070324D01*
X130402829Y-89068246D01*
X130402017Y-89066280D01*
X130401112Y-89064423D01*
X130400110Y-89062672D01*
X130399007Y-89061023D01*
X130397803Y-89059474D01*
X130396492Y-89058022D01*
X130395073Y-89056662D01*
X130393543Y-89055392D01*
X130391898Y-89054209D01*
X130390136Y-89053109D01*
X130388254Y-89052089D01*
X130386249Y-89051146D01*
X130384117Y-89050277D01*
X130381857Y-89049478D01*
X130379466Y-89048746D01*
X130376939Y-89048078D01*
X130371470Y-89046922D01*
X130365428Y-89045982D01*
X130358789Y-89045233D01*
X130350967Y-89044373D01*
X130344006Y-89043811D01*
X130337856Y-89043594D01*
X130335070Y-89043631D01*
X130332468Y-89043773D01*
X130330045Y-89044026D01*
X130327794Y-89044396D01*
X130325709Y-89044889D01*
X130323783Y-89045512D01*
X130322012Y-89046271D01*
X130320388Y-89047172D01*
X130318905Y-89048220D01*
X130317558Y-89049423D01*
X130316340Y-89050785D01*
X130315245Y-89052314D01*
X130314267Y-89054016D01*
X130313400Y-89055896D01*
X130312637Y-89057961D01*
X130311973Y-89060217D01*
X130311401Y-89062669D01*
X130310916Y-89065325D01*
X130310510Y-89068190D01*
X130310179Y-89071271D01*
X130309713Y-89078103D01*
X130309470Y-89085871D01*
X130309400Y-89094622D01*
X130238845Y-89094622D01*
X130238845Y-89048761D01*
X130239052Y-89003841D01*
G36*
X130052449Y-89005797D02*
G01*
X130054803Y-88989647D01*
X130058129Y-88973631D01*
X130062433Y-88957785D01*
X130067726Y-88942147D01*
X130074013Y-88926753D01*
X130081304Y-88911640D01*
X130089606Y-88896844D01*
X130098928Y-88882404D01*
X130109278Y-88868354D01*
X130120664Y-88854733D01*
X130133528Y-88840385D01*
X130146351Y-88827093D01*
X130159173Y-88814841D01*
X130172037Y-88803608D01*
X130184984Y-88793379D01*
X130198055Y-88784133D01*
X130211291Y-88775854D01*
X130224734Y-88768524D01*
X130238424Y-88762123D01*
X130252405Y-88756635D01*
X130266716Y-88752040D01*
X130281398Y-88748322D01*
X130296495Y-88745461D01*
X130312046Y-88743440D01*
X130328093Y-88742241D01*
X130344677Y-88741845D01*
X130362369Y-88742257D01*
X130379714Y-88743492D01*
X130396698Y-88745542D01*
X130413304Y-88748404D01*
X130429518Y-88752072D01*
X130445323Y-88756542D01*
X130460704Y-88761807D01*
X130475647Y-88767862D01*
X130490134Y-88774703D01*
X130504151Y-88782325D01*
X130517683Y-88790721D01*
X130530713Y-88799888D01*
X130543227Y-88809819D01*
X130555208Y-88820510D01*
X130566641Y-88831956D01*
X130577511Y-88844150D01*
X130592983Y-88863895D01*
X130606679Y-88884056D01*
X130618630Y-88904566D01*
X130628868Y-88925355D01*
X130637425Y-88946354D01*
X130644333Y-88967495D01*
X130649625Y-88988710D01*
X130653331Y-89009928D01*
X130655485Y-89031082D01*
X130656118Y-89052103D01*
X130655262Y-89072921D01*
X130652949Y-89093468D01*
X130649211Y-89113676D01*
X130644080Y-89133475D01*
X130637588Y-89152797D01*
X130629767Y-89171572D01*
X130620648Y-89189733D01*
X130610265Y-89207210D01*
X130598649Y-89223934D01*
X130585831Y-89239837D01*
X130571844Y-89254850D01*
X130556721Y-89268903D01*
X130540491Y-89281930D01*
X130523189Y-89293859D01*
X130504845Y-89304624D01*
X130485492Y-89314154D01*
X130465162Y-89322381D01*
X130443886Y-89329237D01*
X130421697Y-89334652D01*
X130398627Y-89338558D01*
X130374707Y-89340886D01*
X130349969Y-89341567D01*
X130341278Y-89341445D01*
X130332444Y-89341091D01*
X130314609Y-89339748D01*
X130296981Y-89337660D01*
X130280076Y-89334952D01*
X130264411Y-89331748D01*
X130250503Y-89328172D01*
X130244369Y-89326284D01*
X130238869Y-89324348D01*
X130234066Y-89322382D01*
X130230025Y-89320400D01*
X130213056Y-89310624D01*
X130196880Y-89300171D01*
X130181506Y-89289079D01*
X130166942Y-89277385D01*
X130153196Y-89265124D01*
X130140275Y-89252335D01*
X130128188Y-89239053D01*
X130116944Y-89225316D01*
X130106549Y-89211160D01*
X130097012Y-89196622D01*
X130088342Y-89181740D01*
X130080546Y-89166549D01*
X130073633Y-89151087D01*
X130067609Y-89135391D01*
X130062485Y-89119497D01*
X130058267Y-89103442D01*
X130054963Y-89087263D01*
X130052583Y-89070997D01*
X130051133Y-89054680D01*
X130050622Y-89038350D01*
X130050627Y-89038178D01*
X130124192Y-89038178D01*
X130124567Y-89068502D01*
X130125087Y-89081765D01*
X130125873Y-89093906D01*
X130126959Y-89105034D01*
X130128378Y-89115259D01*
X130130163Y-89124687D01*
X130132350Y-89133428D01*
X130134970Y-89141590D01*
X130138058Y-89149282D01*
X130141648Y-89156613D01*
X130145772Y-89163690D01*
X130150465Y-89170622D01*
X130155759Y-89177518D01*
X130161689Y-89184487D01*
X130168289Y-89191636D01*
X130177596Y-89201136D01*
X130187599Y-89210419D01*
X130198206Y-89219433D01*
X130209327Y-89228127D01*
X130220872Y-89236448D01*
X130232750Y-89244346D01*
X130244871Y-89251769D01*
X130257145Y-89258664D01*
X130269480Y-89264981D01*
X130281787Y-89270667D01*
X130293976Y-89275671D01*
X130305955Y-89279941D01*
X130317634Y-89283426D01*
X130328923Y-89286073D01*
X130339732Y-89287832D01*
X130349969Y-89288650D01*
X130353518Y-89288528D01*
X130357521Y-89288168D01*
X130361938Y-89287581D01*
X130366726Y-89286776D01*
X130371846Y-89285765D01*
X130377255Y-89284557D01*
X130382911Y-89283164D01*
X130388775Y-89281595D01*
X130394804Y-89279860D01*
X130400957Y-89277970D01*
X130407192Y-89275936D01*
X130413469Y-89273767D01*
X130419746Y-89271475D01*
X130425982Y-89269068D01*
X130432135Y-89266559D01*
X130438164Y-89263956D01*
X130454575Y-89256364D01*
X130470072Y-89247846D01*
X130484648Y-89238458D01*
X130498298Y-89228258D01*
X130511016Y-89217300D01*
X130522798Y-89205642D01*
X130533637Y-89193338D01*
X130543529Y-89180447D01*
X130552466Y-89167023D01*
X130560445Y-89153123D01*
X130567460Y-89138803D01*
X130573505Y-89124119D01*
X130578574Y-89109128D01*
X130582662Y-89093886D01*
X130585764Y-89078449D01*
X130587874Y-89062873D01*
X130588987Y-89047214D01*
X130589097Y-89031528D01*
X130588198Y-89015873D01*
X130586286Y-89000303D01*
X130583354Y-88984875D01*
X130579398Y-88969646D01*
X130574411Y-88954671D01*
X130568389Y-88940007D01*
X130561325Y-88925709D01*
X130553214Y-88911835D01*
X130544051Y-88898440D01*
X130533831Y-88885581D01*
X130522547Y-88873313D01*
X130510194Y-88861694D01*
X130496767Y-88850778D01*
X130482261Y-88840623D01*
X130473891Y-88835693D01*
X130465330Y-88831154D01*
X130447686Y-88823249D01*
X130429442Y-88816899D01*
X130410713Y-88812097D01*
X130391612Y-88808835D01*
X130372252Y-88807105D01*
X130352748Y-88806900D01*
X130333212Y-88808211D01*
X130313760Y-88811031D01*
X130294503Y-88815353D01*
X130275557Y-88821168D01*
X130257035Y-88828468D01*
X130239050Y-88837247D01*
X130221716Y-88847495D01*
X130205147Y-88859207D01*
X130197184Y-88865608D01*
X130189456Y-88872372D01*
X130178549Y-88882451D01*
X130168927Y-88891651D01*
X130160508Y-88900169D01*
X130156725Y-88904234D01*
X130153213Y-88908201D01*
X130149963Y-88912097D01*
X130146963Y-88915944D01*
X130144204Y-88919769D01*
X130141676Y-88923594D01*
X130139369Y-88927446D01*
X130137272Y-88931347D01*
X130135377Y-88935324D01*
X130133673Y-88939400D01*
X130132149Y-88943600D01*
X130130797Y-88947949D01*
X130129605Y-88952471D01*
X130128564Y-88957191D01*
X130127663Y-88962132D01*
X130126894Y-88967321D01*
X130126245Y-88972781D01*
X130125708Y-88978537D01*
X130124924Y-88991034D01*
X130124464Y-89005009D01*
X130124247Y-89020658D01*
X130124192Y-89038178D01*
X130050627Y-89038178D01*
X130051058Y-89022043D01*
X130052449Y-89005797D01*
G37*
X130052449Y-89005797D02*
X130054803Y-88989647D01*
X130058129Y-88973631D01*
X130062433Y-88957785D01*
X130067726Y-88942147D01*
X130074013Y-88926753D01*
X130081304Y-88911640D01*
X130089606Y-88896844D01*
X130098928Y-88882404D01*
X130109278Y-88868354D01*
X130120664Y-88854733D01*
X130133528Y-88840385D01*
X130146351Y-88827093D01*
X130159173Y-88814841D01*
X130172037Y-88803608D01*
X130184984Y-88793379D01*
X130198055Y-88784133D01*
X130211291Y-88775854D01*
X130224734Y-88768524D01*
X130238424Y-88762123D01*
X130252405Y-88756635D01*
X130266716Y-88752040D01*
X130281398Y-88748322D01*
X130296495Y-88745461D01*
X130312046Y-88743440D01*
X130328093Y-88742241D01*
X130344677Y-88741845D01*
X130362369Y-88742257D01*
X130379714Y-88743492D01*
X130396698Y-88745542D01*
X130413304Y-88748404D01*
X130429518Y-88752072D01*
X130445323Y-88756542D01*
X130460704Y-88761807D01*
X130475647Y-88767862D01*
X130490134Y-88774703D01*
X130504151Y-88782325D01*
X130517683Y-88790721D01*
X130530713Y-88799888D01*
X130543227Y-88809819D01*
X130555208Y-88820510D01*
X130566641Y-88831956D01*
X130577511Y-88844150D01*
X130592983Y-88863895D01*
X130606679Y-88884056D01*
X130618630Y-88904566D01*
X130628868Y-88925355D01*
X130637425Y-88946354D01*
X130644333Y-88967495D01*
X130649625Y-88988710D01*
X130653331Y-89009928D01*
X130655485Y-89031082D01*
X130656118Y-89052103D01*
X130655262Y-89072921D01*
X130652949Y-89093468D01*
X130649211Y-89113676D01*
X130644080Y-89133475D01*
X130637588Y-89152797D01*
X130629767Y-89171572D01*
X130620648Y-89189733D01*
X130610265Y-89207210D01*
X130598649Y-89223934D01*
X130585831Y-89239837D01*
X130571844Y-89254850D01*
X130556721Y-89268903D01*
X130540491Y-89281930D01*
X130523189Y-89293859D01*
X130504845Y-89304624D01*
X130485492Y-89314154D01*
X130465162Y-89322381D01*
X130443886Y-89329237D01*
X130421697Y-89334652D01*
X130398627Y-89338558D01*
X130374707Y-89340886D01*
X130349969Y-89341567D01*
X130341278Y-89341445D01*
X130332444Y-89341091D01*
X130314609Y-89339748D01*
X130296981Y-89337660D01*
X130280076Y-89334952D01*
X130264411Y-89331748D01*
X130250503Y-89328172D01*
X130244369Y-89326284D01*
X130238869Y-89324348D01*
X130234066Y-89322382D01*
X130230025Y-89320400D01*
X130213056Y-89310624D01*
X130196880Y-89300171D01*
X130181506Y-89289079D01*
X130166942Y-89277385D01*
X130153196Y-89265124D01*
X130140275Y-89252335D01*
X130128188Y-89239053D01*
X130116944Y-89225316D01*
X130106549Y-89211160D01*
X130097012Y-89196622D01*
X130088342Y-89181740D01*
X130080546Y-89166549D01*
X130073633Y-89151087D01*
X130067609Y-89135391D01*
X130062485Y-89119497D01*
X130058267Y-89103442D01*
X130054963Y-89087263D01*
X130052583Y-89070997D01*
X130051133Y-89054680D01*
X130050622Y-89038350D01*
X130050627Y-89038178D01*
X130124192Y-89038178D01*
X130124567Y-89068502D01*
X130125087Y-89081765D01*
X130125873Y-89093906D01*
X130126959Y-89105034D01*
X130128378Y-89115259D01*
X130130163Y-89124687D01*
X130132350Y-89133428D01*
X130134970Y-89141590D01*
X130138058Y-89149282D01*
X130141648Y-89156613D01*
X130145772Y-89163690D01*
X130150465Y-89170622D01*
X130155759Y-89177518D01*
X130161689Y-89184487D01*
X130168289Y-89191636D01*
X130177596Y-89201136D01*
X130187599Y-89210419D01*
X130198206Y-89219433D01*
X130209327Y-89228127D01*
X130220872Y-89236448D01*
X130232750Y-89244346D01*
X130244871Y-89251769D01*
X130257145Y-89258664D01*
X130269480Y-89264981D01*
X130281787Y-89270667D01*
X130293976Y-89275671D01*
X130305955Y-89279941D01*
X130317634Y-89283426D01*
X130328923Y-89286073D01*
X130339732Y-89287832D01*
X130349969Y-89288650D01*
X130353518Y-89288528D01*
X130357521Y-89288168D01*
X130361938Y-89287581D01*
X130366726Y-89286776D01*
X130371846Y-89285765D01*
X130377255Y-89284557D01*
X130382911Y-89283164D01*
X130388775Y-89281595D01*
X130394804Y-89279860D01*
X130400957Y-89277970D01*
X130407192Y-89275936D01*
X130413469Y-89273767D01*
X130419746Y-89271475D01*
X130425982Y-89269068D01*
X130432135Y-89266559D01*
X130438164Y-89263956D01*
X130454575Y-89256364D01*
X130470072Y-89247846D01*
X130484648Y-89238458D01*
X130498298Y-89228258D01*
X130511016Y-89217300D01*
X130522798Y-89205642D01*
X130533637Y-89193338D01*
X130543529Y-89180447D01*
X130552466Y-89167023D01*
X130560445Y-89153123D01*
X130567460Y-89138803D01*
X130573505Y-89124119D01*
X130578574Y-89109128D01*
X130582662Y-89093886D01*
X130585764Y-89078449D01*
X130587874Y-89062873D01*
X130588987Y-89047214D01*
X130589097Y-89031528D01*
X130588198Y-89015873D01*
X130586286Y-89000303D01*
X130583354Y-88984875D01*
X130579398Y-88969646D01*
X130574411Y-88954671D01*
X130568389Y-88940007D01*
X130561325Y-88925709D01*
X130553214Y-88911835D01*
X130544051Y-88898440D01*
X130533831Y-88885581D01*
X130522547Y-88873313D01*
X130510194Y-88861694D01*
X130496767Y-88850778D01*
X130482261Y-88840623D01*
X130473891Y-88835693D01*
X130465330Y-88831154D01*
X130447686Y-88823249D01*
X130429442Y-88816899D01*
X130410713Y-88812097D01*
X130391612Y-88808835D01*
X130372252Y-88807105D01*
X130352748Y-88806900D01*
X130333212Y-88808211D01*
X130313760Y-88811031D01*
X130294503Y-88815353D01*
X130275557Y-88821168D01*
X130257035Y-88828468D01*
X130239050Y-88837247D01*
X130221716Y-88847495D01*
X130205147Y-88859207D01*
X130197184Y-88865608D01*
X130189456Y-88872372D01*
X130178549Y-88882451D01*
X130168927Y-88891651D01*
X130160508Y-88900169D01*
X130156725Y-88904234D01*
X130153213Y-88908201D01*
X130149963Y-88912097D01*
X130146963Y-88915944D01*
X130144204Y-88919769D01*
X130141676Y-88923594D01*
X130139369Y-88927446D01*
X130137272Y-88931347D01*
X130135377Y-88935324D01*
X130133673Y-88939400D01*
X130132149Y-88943600D01*
X130130797Y-88947949D01*
X130129605Y-88952471D01*
X130128564Y-88957191D01*
X130127663Y-88962132D01*
X130126894Y-88967321D01*
X130126245Y-88972781D01*
X130125708Y-88978537D01*
X130124924Y-88991034D01*
X130124464Y-89005009D01*
X130124247Y-89020658D01*
X130124192Y-89038178D01*
X130050627Y-89038178D01*
X130051058Y-89022043D01*
X130052449Y-89005797D01*
G36*
X122583567Y-89623789D02*
G01*
X122511248Y-89553233D01*
X122488721Y-89532476D01*
X122466055Y-89513177D01*
X122443151Y-89495311D01*
X122419912Y-89478847D01*
X122396238Y-89463758D01*
X122372032Y-89450015D01*
X122347195Y-89437590D01*
X122321630Y-89426454D01*
X122295238Y-89416579D01*
X122267921Y-89407937D01*
X122239581Y-89400498D01*
X122210119Y-89394236D01*
X122179438Y-89389120D01*
X122147439Y-89385123D01*
X122114024Y-89382217D01*
X122079095Y-89380372D01*
X122027779Y-89379012D01*
X121978292Y-89379580D01*
X121930562Y-89382101D01*
X121884516Y-89386601D01*
X121840083Y-89393106D01*
X121797190Y-89401642D01*
X121755764Y-89412235D01*
X121715734Y-89424911D01*
X121677027Y-89439694D01*
X121639570Y-89456612D01*
X121603291Y-89475690D01*
X121568119Y-89496954D01*
X121533980Y-89520430D01*
X121500802Y-89546143D01*
X121468512Y-89574120D01*
X121437040Y-89604386D01*
X121404419Y-89639077D01*
X121374015Y-89675038D01*
X121345813Y-89712302D01*
X121319796Y-89750899D01*
X121295950Y-89790861D01*
X121274259Y-89832217D01*
X121254707Y-89875000D01*
X121237279Y-89919240D01*
X121221960Y-89964969D01*
X121208733Y-90012217D01*
X121197584Y-90061015D01*
X121188497Y-90111394D01*
X121181456Y-90163386D01*
X121176446Y-90217021D01*
X121173451Y-90272330D01*
X121172456Y-90329344D01*
X121174248Y-90402259D01*
X121179598Y-90472788D01*
X121188467Y-90540863D01*
X121200816Y-90606413D01*
X121216607Y-90669369D01*
X121235801Y-90729661D01*
X121258359Y-90787220D01*
X121284243Y-90841975D01*
X121313413Y-90893857D01*
X121345831Y-90942795D01*
X121381458Y-90988722D01*
X121420255Y-91031565D01*
X121462184Y-91071257D01*
X121507206Y-91107726D01*
X121555282Y-91140903D01*
X121606373Y-91170719D01*
X121632304Y-91184018D01*
X121657305Y-91196158D01*
X121681562Y-91207182D01*
X121705261Y-91217132D01*
X121728588Y-91226048D01*
X121751728Y-91233971D01*
X121774869Y-91240944D01*
X121798196Y-91247008D01*
X121821895Y-91252203D01*
X121846152Y-91256571D01*
X121871153Y-91260154D01*
X121897084Y-91262993D01*
X121924131Y-91265129D01*
X121952481Y-91266603D01*
X121982319Y-91267458D01*
X122013831Y-91267733D01*
X122052769Y-91266971D01*
X122090843Y-91264695D01*
X122128018Y-91260920D01*
X122164258Y-91255662D01*
X122199526Y-91248936D01*
X122233787Y-91240758D01*
X122267004Y-91231144D01*
X122299140Y-91220108D01*
X122330161Y-91207667D01*
X122360029Y-91193836D01*
X122388708Y-91178630D01*
X122416163Y-91162065D01*
X122442357Y-91144157D01*
X122467254Y-91124920D01*
X122490818Y-91104371D01*
X122513012Y-91082525D01*
X122522241Y-91072882D01*
X122531285Y-91063921D01*
X122539956Y-91055829D01*
X122544094Y-91052166D01*
X122548069Y-91048791D01*
X122551858Y-91045725D01*
X122555438Y-91042993D01*
X122558786Y-91040617D01*
X122561877Y-91038621D01*
X122564690Y-91037028D01*
X122567200Y-91035861D01*
X122569384Y-91035144D01*
X122570347Y-91034962D01*
X122571220Y-91034900D01*
X122571876Y-91035038D01*
X122572522Y-91035449D01*
X122573155Y-91036125D01*
X122573776Y-91037060D01*
X122574385Y-91038247D01*
X122574980Y-91039679D01*
X122576126Y-91043251D01*
X122577210Y-91047722D01*
X122578228Y-91053038D01*
X122579172Y-91059145D01*
X122580040Y-91065989D01*
X122580824Y-91073514D01*
X122581521Y-91081667D01*
X122582125Y-91090394D01*
X122582630Y-91099640D01*
X122583033Y-91109352D01*
X122583326Y-91119474D01*
X122583506Y-91129952D01*
X122583567Y-91140733D01*
X122583567Y-91246567D01*
X123200928Y-91246567D01*
X123289123Y-91246567D01*
X123917067Y-91246567D01*
X124082873Y-90687414D01*
X124204581Y-90273782D01*
X124246584Y-90134270D01*
X124268081Y-90066525D01*
X124287484Y-90006553D01*
X124315706Y-90101803D01*
X124631442Y-91190122D01*
X124650845Y-91246567D01*
X125239984Y-91246567D01*
X125414609Y-90638025D01*
X125483731Y-90401554D01*
X125541609Y-90208077D01*
X125582289Y-90077439D01*
X125594319Y-90041886D01*
X125599817Y-90029484D01*
X125601703Y-90032534D01*
X125605312Y-90041486D01*
X125617318Y-90075896D01*
X125635071Y-90130315D01*
X125657805Y-90202345D01*
X125715159Y-90389648D01*
X125783262Y-90618622D01*
X125910482Y-91040633D01*
X125951685Y-91173255D01*
X125970234Y-91227164D01*
X125971164Y-91228461D01*
X125972633Y-91229707D01*
X125974642Y-91230900D01*
X125977193Y-91232042D01*
X125980286Y-91233133D01*
X125983923Y-91234171D01*
X125992834Y-91236094D01*
X126003935Y-91237809D01*
X126017239Y-91239318D01*
X126032754Y-91240621D01*
X126050491Y-91241716D01*
X126070460Y-91242605D01*
X126092673Y-91243287D01*
X126117138Y-91243762D01*
X126143867Y-91244031D01*
X126204156Y-91243948D01*
X126273623Y-91243039D01*
X126566429Y-91237747D01*
X126229526Y-90316997D01*
X125892623Y-89394484D01*
X126640511Y-89394484D01*
X126640511Y-91246567D01*
X127257873Y-91246567D01*
X127363706Y-91246567D01*
X127981067Y-91246567D01*
X127981067Y-90329887D01*
X128092504Y-90329887D01*
X128095430Y-90396948D01*
X128102305Y-90463838D01*
X128113138Y-90530235D01*
X128127940Y-90595815D01*
X128146721Y-90660256D01*
X128169491Y-90723235D01*
X128196261Y-90784428D01*
X128215053Y-90821142D01*
X128236293Y-90857133D01*
X128259870Y-90892297D01*
X128285668Y-90926531D01*
X128313575Y-90959732D01*
X128343477Y-90991795D01*
X128375260Y-91022618D01*
X128408810Y-91052098D01*
X128444014Y-91080131D01*
X128480757Y-91106613D01*
X128518927Y-91131442D01*
X128558410Y-91154514D01*
X128599091Y-91175725D01*
X128640858Y-91194973D01*
X128683596Y-91212154D01*
X128727192Y-91227164D01*
X128743534Y-91232116D01*
X128762508Y-91237017D01*
X128806650Y-91246457D01*
X128856208Y-91255069D01*
X128907770Y-91262442D01*
X128957927Y-91268161D01*
X129003268Y-91271813D01*
X129023067Y-91272734D01*
X129040382Y-91272984D01*
X129054788Y-91272510D01*
X129065858Y-91271261D01*
X129073748Y-91269945D01*
X129082670Y-91268670D01*
X129092337Y-91267478D01*
X129102459Y-91266410D01*
X129112746Y-91265508D01*
X129122909Y-91264812D01*
X129132659Y-91264364D01*
X129141706Y-91264206D01*
X129148846Y-91264144D01*
X129152075Y-91263999D01*
X129155087Y-91263716D01*
X129157886Y-91263250D01*
X129160480Y-91262555D01*
X129161702Y-91262106D01*
X129162875Y-91261584D01*
X129164000Y-91260981D01*
X129165077Y-91260292D01*
X129166108Y-91259511D01*
X129167094Y-91258633D01*
X129168034Y-91257652D01*
X129168931Y-91256562D01*
X129169784Y-91255357D01*
X129170594Y-91254032D01*
X129171363Y-91252580D01*
X129172092Y-91250997D01*
X129172780Y-91249276D01*
X129173428Y-91247412D01*
X129174612Y-91243231D01*
X129175648Y-91238408D01*
X129176543Y-91232897D01*
X129177303Y-91226652D01*
X129177936Y-91219627D01*
X129178448Y-91211777D01*
X129178844Y-91203055D01*
X129179132Y-91193416D01*
X129179318Y-91182814D01*
X129179408Y-91171203D01*
X129179409Y-91158538D01*
X129179170Y-91129858D01*
X129178651Y-91096409D01*
X129176984Y-91013733D01*
X129171692Y-90761497D01*
X129115248Y-90766789D01*
X129101159Y-90767763D01*
X129087020Y-90768048D01*
X129072850Y-90767659D01*
X129058672Y-90766610D01*
X129044508Y-90764915D01*
X129030377Y-90762588D01*
X129002304Y-90756095D01*
X128974623Y-90747247D01*
X128947506Y-90736155D01*
X128921123Y-90722935D01*
X128895644Y-90707699D01*
X128871239Y-90690561D01*
X128848081Y-90671635D01*
X128826338Y-90651036D01*
X128806181Y-90628875D01*
X128787782Y-90605267D01*
X128771310Y-90580327D01*
X128756936Y-90554166D01*
X128750589Y-90540664D01*
X128744831Y-90526900D01*
X128735941Y-90501424D01*
X128728446Y-90474728D01*
X128722336Y-90446998D01*
X128717601Y-90418421D01*
X128714230Y-90389183D01*
X128712213Y-90359469D01*
X128711539Y-90329465D01*
X128712199Y-90299359D01*
X128714182Y-90269335D01*
X128717477Y-90239579D01*
X128722074Y-90210279D01*
X128727964Y-90181619D01*
X128735134Y-90153786D01*
X128743577Y-90126966D01*
X128753280Y-90101345D01*
X128764233Y-90077109D01*
X128776670Y-90052603D01*
X128789565Y-90029976D01*
X128803002Y-90009163D01*
X128809951Y-89999417D01*
X128817067Y-89990099D01*
X128824362Y-89981203D01*
X128831846Y-89972720D01*
X128839529Y-89964642D01*
X128847422Y-89956961D01*
X128855537Y-89949669D01*
X128863882Y-89942757D01*
X128872471Y-89936218D01*
X128881312Y-89930044D01*
X128890416Y-89924227D01*
X128899795Y-89918758D01*
X128909459Y-89913629D01*
X128919418Y-89908833D01*
X128929683Y-89904361D01*
X128940265Y-89900205D01*
X128951175Y-89896357D01*
X128962423Y-89892810D01*
X128985976Y-89886582D01*
X129011009Y-89881458D01*
X129037608Y-89877373D01*
X129065858Y-89874261D01*
X129182275Y-89865442D01*
X129176984Y-89625553D01*
X129171692Y-89385664D01*
X129035872Y-89380372D01*
X128974713Y-89379925D01*
X128914371Y-89383163D01*
X128855000Y-89390007D01*
X128796755Y-89400381D01*
X128739793Y-89414208D01*
X128684266Y-89431408D01*
X128630332Y-89451905D01*
X128578144Y-89475622D01*
X128527857Y-89502481D01*
X128479628Y-89532404D01*
X128433610Y-89565315D01*
X128389959Y-89601134D01*
X128348830Y-89639786D01*
X128310377Y-89681191D01*
X128274757Y-89725274D01*
X128242123Y-89771956D01*
X128209982Y-89826018D01*
X128181696Y-89882816D01*
X128157275Y-89942027D01*
X128136730Y-90003328D01*
X128120072Y-90066397D01*
X128107309Y-90130911D01*
X128098454Y-90196545D01*
X128093515Y-90262978D01*
X128092504Y-90329887D01*
X127981067Y-90329887D01*
X127981067Y-89394484D01*
X127363706Y-89394484D01*
X127363706Y-91246567D01*
X127257873Y-91246567D01*
X127257873Y-89394484D01*
X126640511Y-89394484D01*
X125892623Y-89394484D01*
X125284081Y-89394484D01*
X125232929Y-89556761D01*
X125162373Y-89790036D01*
X125060067Y-90121206D01*
X125012111Y-90275849D01*
X124971432Y-90400562D01*
X124955061Y-90447715D01*
X124941997Y-90482610D01*
X124932737Y-90503656D01*
X124929688Y-90508488D01*
X124928586Y-90509395D01*
X124927776Y-90509261D01*
X124926317Y-90506414D01*
X124923959Y-90500621D01*
X124916751Y-90480819D01*
X124906568Y-90451094D01*
X124893821Y-90412688D01*
X124862291Y-90314793D01*
X124825470Y-90197053D01*
X124736614Y-89911744D01*
X124654373Y-89644956D01*
X124574998Y-89394484D01*
X123968220Y-89394484D01*
X123661303Y-90237622D01*
X123322637Y-91163664D01*
X123289123Y-91246567D01*
X123200928Y-91246567D01*
X123200928Y-88724206D01*
X126125456Y-88729497D01*
X129048220Y-88733025D01*
X129194623Y-88773595D01*
X129308415Y-88807969D01*
X129418120Y-88849404D01*
X129523494Y-88897645D01*
X129624295Y-88952437D01*
X129720279Y-89013522D01*
X129811205Y-89080646D01*
X129896828Y-89153552D01*
X129976907Y-89231985D01*
X130051198Y-89315690D01*
X130119458Y-89404409D01*
X130181445Y-89497888D01*
X130236915Y-89595870D01*
X130285626Y-89698100D01*
X130327335Y-89804322D01*
X130361799Y-89914281D01*
X130388775Y-90027720D01*
X130395186Y-90063919D01*
X130400537Y-90103998D01*
X130404844Y-90147367D01*
X130408123Y-90193443D01*
X130411658Y-90291362D01*
X130411265Y-90393065D01*
X130407069Y-90493858D01*
X130399194Y-90589050D01*
X130393915Y-90633078D01*
X130387763Y-90673947D01*
X130380753Y-90711069D01*
X130372901Y-90743858D01*
X130346312Y-90830388D01*
X130315554Y-90914621D01*
X130280713Y-90996452D01*
X130241877Y-91075773D01*
X130199134Y-91152479D01*
X130152573Y-91226465D01*
X130102280Y-91297623D01*
X130048345Y-91365850D01*
X129990854Y-91431037D01*
X129929896Y-91493080D01*
X129865557Y-91551873D01*
X129797928Y-91607310D01*
X129727094Y-91659284D01*
X129653144Y-91707689D01*
X129576166Y-91752421D01*
X129496248Y-91793372D01*
X129463705Y-91808345D01*
X129427732Y-91823854D01*
X129389526Y-91839447D01*
X129350286Y-91854667D01*
X129311212Y-91869061D01*
X129273502Y-91882173D01*
X129238355Y-91893549D01*
X129206970Y-91902733D01*
X129065858Y-91943303D01*
X125511623Y-91945067D01*
X122970521Y-91942862D01*
X121851554Y-91932720D01*
X121788645Y-91922262D01*
X121726619Y-91909440D01*
X121665520Y-91894295D01*
X121605395Y-91876871D01*
X121546287Y-91857211D01*
X121488242Y-91835357D01*
X121375524Y-91785242D01*
X121267601Y-91726869D01*
X121164836Y-91660581D01*
X121067589Y-91586723D01*
X120976224Y-91505638D01*
X120891101Y-91417670D01*
X120812582Y-91323162D01*
X120741029Y-91222458D01*
X120676804Y-91115901D01*
X120620268Y-91003836D01*
X120571783Y-90886606D01*
X120531712Y-90764554D01*
X120514944Y-90701828D01*
X120500415Y-90638025D01*
X120493735Y-90602682D01*
X120488236Y-90564386D01*
X120483900Y-90523532D01*
X120480709Y-90480515D01*
X120478644Y-90435731D01*
X120477687Y-90389575D01*
X120477821Y-90342442D01*
X120479028Y-90294728D01*
X120481288Y-90246828D01*
X120484585Y-90199137D01*
X120488899Y-90152051D01*
X120494214Y-90105965D01*
X120500510Y-90061274D01*
X120507770Y-90018373D01*
X120515976Y-89977658D01*
X120525109Y-89939525D01*
X120544723Y-89870911D01*
X120567756Y-89802786D01*
X120594070Y-89735348D01*
X120623529Y-89668796D01*
X120655995Y-89603329D01*
X120691332Y-89539147D01*
X120729402Y-89476447D01*
X120770069Y-89415430D01*
X120813196Y-89356293D01*
X120858646Y-89299237D01*
X120906282Y-89244460D01*
X120955967Y-89192160D01*
X121007563Y-89142537D01*
X121060935Y-89095790D01*
X121115945Y-89052118D01*
X121172456Y-89011720D01*
X121230848Y-88973609D01*
X121289180Y-88938594D01*
X121347806Y-88906587D01*
X121407081Y-88877499D01*
X121467359Y-88851243D01*
X121528993Y-88827731D01*
X121592337Y-88806875D01*
X121657746Y-88788588D01*
X121725574Y-88772781D01*
X121796174Y-88759366D01*
X121869900Y-88748257D01*
X121947107Y-88739364D01*
X122028148Y-88732601D01*
X122113377Y-88727878D01*
X122203149Y-88725109D01*
X122297817Y-88724206D01*
X122583567Y-88724206D01*
X122583567Y-89623789D01*
G37*
X122583567Y-89623789D02*
X122511248Y-89553233D01*
X122488721Y-89532476D01*
X122466055Y-89513177D01*
X122443151Y-89495311D01*
X122419912Y-89478847D01*
X122396238Y-89463758D01*
X122372032Y-89450015D01*
X122347195Y-89437590D01*
X122321630Y-89426454D01*
X122295238Y-89416579D01*
X122267921Y-89407937D01*
X122239581Y-89400498D01*
X122210119Y-89394236D01*
X122179438Y-89389120D01*
X122147439Y-89385123D01*
X122114024Y-89382217D01*
X122079095Y-89380372D01*
X122027779Y-89379012D01*
X121978292Y-89379580D01*
X121930562Y-89382101D01*
X121884516Y-89386601D01*
X121840083Y-89393106D01*
X121797190Y-89401642D01*
X121755764Y-89412235D01*
X121715734Y-89424911D01*
X121677027Y-89439694D01*
X121639570Y-89456612D01*
X121603291Y-89475690D01*
X121568119Y-89496954D01*
X121533980Y-89520430D01*
X121500802Y-89546143D01*
X121468512Y-89574120D01*
X121437040Y-89604386D01*
X121404419Y-89639077D01*
X121374015Y-89675038D01*
X121345813Y-89712302D01*
X121319796Y-89750899D01*
X121295950Y-89790861D01*
X121274259Y-89832217D01*
X121254707Y-89875000D01*
X121237279Y-89919240D01*
X121221960Y-89964969D01*
X121208733Y-90012217D01*
X121197584Y-90061015D01*
X121188497Y-90111394D01*
X121181456Y-90163386D01*
X121176446Y-90217021D01*
X121173451Y-90272330D01*
X121172456Y-90329344D01*
X121174248Y-90402259D01*
X121179598Y-90472788D01*
X121188467Y-90540863D01*
X121200816Y-90606413D01*
X121216607Y-90669369D01*
X121235801Y-90729661D01*
X121258359Y-90787220D01*
X121284243Y-90841975D01*
X121313413Y-90893857D01*
X121345831Y-90942795D01*
X121381458Y-90988722D01*
X121420255Y-91031565D01*
X121462184Y-91071257D01*
X121507206Y-91107726D01*
X121555282Y-91140903D01*
X121606373Y-91170719D01*
X121632304Y-91184018D01*
X121657305Y-91196158D01*
X121681562Y-91207182D01*
X121705261Y-91217132D01*
X121728588Y-91226048D01*
X121751728Y-91233971D01*
X121774869Y-91240944D01*
X121798196Y-91247008D01*
X121821895Y-91252203D01*
X121846152Y-91256571D01*
X121871153Y-91260154D01*
X121897084Y-91262993D01*
X121924131Y-91265129D01*
X121952481Y-91266603D01*
X121982319Y-91267458D01*
X122013831Y-91267733D01*
X122052769Y-91266971D01*
X122090843Y-91264695D01*
X122128018Y-91260920D01*
X122164258Y-91255662D01*
X122199526Y-91248936D01*
X122233787Y-91240758D01*
X122267004Y-91231144D01*
X122299140Y-91220108D01*
X122330161Y-91207667D01*
X122360029Y-91193836D01*
X122388708Y-91178630D01*
X122416163Y-91162065D01*
X122442357Y-91144157D01*
X122467254Y-91124920D01*
X122490818Y-91104371D01*
X122513012Y-91082525D01*
X122522241Y-91072882D01*
X122531285Y-91063921D01*
X122539956Y-91055829D01*
X122544094Y-91052166D01*
X122548069Y-91048791D01*
X122551858Y-91045725D01*
X122555438Y-91042993D01*
X122558786Y-91040617D01*
X122561877Y-91038621D01*
X122564690Y-91037028D01*
X122567200Y-91035861D01*
X122569384Y-91035144D01*
X122570347Y-91034962D01*
X122571220Y-91034900D01*
X122571876Y-91035038D01*
X122572522Y-91035449D01*
X122573155Y-91036125D01*
X122573776Y-91037060D01*
X122574385Y-91038247D01*
X122574980Y-91039679D01*
X122576126Y-91043251D01*
X122577210Y-91047722D01*
X122578228Y-91053038D01*
X122579172Y-91059145D01*
X122580040Y-91065989D01*
X122580824Y-91073514D01*
X122581521Y-91081667D01*
X122582125Y-91090394D01*
X122582630Y-91099640D01*
X122583033Y-91109352D01*
X122583326Y-91119474D01*
X122583506Y-91129952D01*
X122583567Y-91140733D01*
X122583567Y-91246567D01*
X123200928Y-91246567D01*
X123289123Y-91246567D01*
X123917067Y-91246567D01*
X124082873Y-90687414D01*
X124204581Y-90273782D01*
X124246584Y-90134270D01*
X124268081Y-90066525D01*
X124287484Y-90006553D01*
X124315706Y-90101803D01*
X124631442Y-91190122D01*
X124650845Y-91246567D01*
X125239984Y-91246567D01*
X125414609Y-90638025D01*
X125483731Y-90401554D01*
X125541609Y-90208077D01*
X125582289Y-90077439D01*
X125594319Y-90041886D01*
X125599817Y-90029484D01*
X125601703Y-90032534D01*
X125605312Y-90041486D01*
X125617318Y-90075896D01*
X125635071Y-90130315D01*
X125657805Y-90202345D01*
X125715159Y-90389648D01*
X125783262Y-90618622D01*
X125910482Y-91040633D01*
X125951685Y-91173255D01*
X125970234Y-91227164D01*
X125971164Y-91228461D01*
X125972633Y-91229707D01*
X125974642Y-91230900D01*
X125977193Y-91232042D01*
X125980286Y-91233133D01*
X125983923Y-91234171D01*
X125992834Y-91236094D01*
X126003935Y-91237809D01*
X126017239Y-91239318D01*
X126032754Y-91240621D01*
X126050491Y-91241716D01*
X126070460Y-91242605D01*
X126092673Y-91243287D01*
X126117138Y-91243762D01*
X126143867Y-91244031D01*
X126204156Y-91243948D01*
X126273623Y-91243039D01*
X126566429Y-91237747D01*
X126229526Y-90316997D01*
X125892623Y-89394484D01*
X126640511Y-89394484D01*
X126640511Y-91246567D01*
X127257873Y-91246567D01*
X127363706Y-91246567D01*
X127981067Y-91246567D01*
X127981067Y-90329887D01*
X128092504Y-90329887D01*
X128095430Y-90396948D01*
X128102305Y-90463838D01*
X128113138Y-90530235D01*
X128127940Y-90595815D01*
X128146721Y-90660256D01*
X128169491Y-90723235D01*
X128196261Y-90784428D01*
X128215053Y-90821142D01*
X128236293Y-90857133D01*
X128259870Y-90892297D01*
X128285668Y-90926531D01*
X128313575Y-90959732D01*
X128343477Y-90991795D01*
X128375260Y-91022618D01*
X128408810Y-91052098D01*
X128444014Y-91080131D01*
X128480757Y-91106613D01*
X128518927Y-91131442D01*
X128558410Y-91154514D01*
X128599091Y-91175725D01*
X128640858Y-91194973D01*
X128683596Y-91212154D01*
X128727192Y-91227164D01*
X128743534Y-91232116D01*
X128762508Y-91237017D01*
X128806650Y-91246457D01*
X128856208Y-91255069D01*
X128907770Y-91262442D01*
X128957927Y-91268161D01*
X129003268Y-91271813D01*
X129023067Y-91272734D01*
X129040382Y-91272984D01*
X129054788Y-91272510D01*
X129065858Y-91271261D01*
X129073748Y-91269945D01*
X129082670Y-91268670D01*
X129092337Y-91267478D01*
X129102459Y-91266410D01*
X129112746Y-91265508D01*
X129122909Y-91264812D01*
X129132659Y-91264364D01*
X129141706Y-91264206D01*
X129148846Y-91264144D01*
X129152075Y-91263999D01*
X129155087Y-91263716D01*
X129157886Y-91263250D01*
X129160480Y-91262555D01*
X129161702Y-91262106D01*
X129162875Y-91261584D01*
X129164000Y-91260981D01*
X129165077Y-91260292D01*
X129166108Y-91259511D01*
X129167094Y-91258633D01*
X129168034Y-91257652D01*
X129168931Y-91256562D01*
X129169784Y-91255357D01*
X129170594Y-91254032D01*
X129171363Y-91252580D01*
X129172092Y-91250997D01*
X129172780Y-91249276D01*
X129173428Y-91247412D01*
X129174612Y-91243231D01*
X129175648Y-91238408D01*
X129176543Y-91232897D01*
X129177303Y-91226652D01*
X129177936Y-91219627D01*
X129178448Y-91211777D01*
X129178844Y-91203055D01*
X129179132Y-91193416D01*
X129179318Y-91182814D01*
X129179408Y-91171203D01*
X129179409Y-91158538D01*
X129179170Y-91129858D01*
X129178651Y-91096409D01*
X129176984Y-91013733D01*
X129171692Y-90761497D01*
X129115248Y-90766789D01*
X129101159Y-90767763D01*
X129087020Y-90768048D01*
X129072850Y-90767659D01*
X129058672Y-90766610D01*
X129044508Y-90764915D01*
X129030377Y-90762588D01*
X129002304Y-90756095D01*
X128974623Y-90747247D01*
X128947506Y-90736155D01*
X128921123Y-90722935D01*
X128895644Y-90707699D01*
X128871239Y-90690561D01*
X128848081Y-90671635D01*
X128826338Y-90651036D01*
X128806181Y-90628875D01*
X128787782Y-90605267D01*
X128771310Y-90580327D01*
X128756936Y-90554166D01*
X128750589Y-90540664D01*
X128744831Y-90526900D01*
X128735941Y-90501424D01*
X128728446Y-90474728D01*
X128722336Y-90446998D01*
X128717601Y-90418421D01*
X128714230Y-90389183D01*
X128712213Y-90359469D01*
X128711539Y-90329465D01*
X128712199Y-90299359D01*
X128714182Y-90269335D01*
X128717477Y-90239579D01*
X128722074Y-90210279D01*
X128727964Y-90181619D01*
X128735134Y-90153786D01*
X128743577Y-90126966D01*
X128753280Y-90101345D01*
X128764233Y-90077109D01*
X128776670Y-90052603D01*
X128789565Y-90029976D01*
X128803002Y-90009163D01*
X128809951Y-89999417D01*
X128817067Y-89990099D01*
X128824362Y-89981203D01*
X128831846Y-89972720D01*
X128839529Y-89964642D01*
X128847422Y-89956961D01*
X128855537Y-89949669D01*
X128863882Y-89942757D01*
X128872471Y-89936218D01*
X128881312Y-89930044D01*
X128890416Y-89924227D01*
X128899795Y-89918758D01*
X128909459Y-89913629D01*
X128919418Y-89908833D01*
X128929683Y-89904361D01*
X128940265Y-89900205D01*
X128951175Y-89896357D01*
X128962423Y-89892810D01*
X128985976Y-89886582D01*
X129011009Y-89881458D01*
X129037608Y-89877373D01*
X129065858Y-89874261D01*
X129182275Y-89865442D01*
X129176984Y-89625553D01*
X129171692Y-89385664D01*
X129035872Y-89380372D01*
X128974713Y-89379925D01*
X128914371Y-89383163D01*
X128855000Y-89390007D01*
X128796755Y-89400381D01*
X128739793Y-89414208D01*
X128684266Y-89431408D01*
X128630332Y-89451905D01*
X128578144Y-89475622D01*
X128527857Y-89502481D01*
X128479628Y-89532404D01*
X128433610Y-89565315D01*
X128389959Y-89601134D01*
X128348830Y-89639786D01*
X128310377Y-89681191D01*
X128274757Y-89725274D01*
X128242123Y-89771956D01*
X128209982Y-89826018D01*
X128181696Y-89882816D01*
X128157275Y-89942027D01*
X128136730Y-90003328D01*
X128120072Y-90066397D01*
X128107309Y-90130911D01*
X128098454Y-90196545D01*
X128093515Y-90262978D01*
X128092504Y-90329887D01*
X127981067Y-90329887D01*
X127981067Y-89394484D01*
X127363706Y-89394484D01*
X127363706Y-91246567D01*
X127257873Y-91246567D01*
X127257873Y-89394484D01*
X126640511Y-89394484D01*
X125892623Y-89394484D01*
X125284081Y-89394484D01*
X125232929Y-89556761D01*
X125162373Y-89790036D01*
X125060067Y-90121206D01*
X125012111Y-90275849D01*
X124971432Y-90400562D01*
X124955061Y-90447715D01*
X124941997Y-90482610D01*
X124932737Y-90503656D01*
X124929688Y-90508488D01*
X124928586Y-90509395D01*
X124927776Y-90509261D01*
X124926317Y-90506414D01*
X124923959Y-90500621D01*
X124916751Y-90480819D01*
X124906568Y-90451094D01*
X124893821Y-90412688D01*
X124862291Y-90314793D01*
X124825470Y-90197053D01*
X124736614Y-89911744D01*
X124654373Y-89644956D01*
X124574998Y-89394484D01*
X123968220Y-89394484D01*
X123661303Y-90237622D01*
X123322637Y-91163664D01*
X123289123Y-91246567D01*
X123200928Y-91246567D01*
X123200928Y-88724206D01*
X126125456Y-88729497D01*
X129048220Y-88733025D01*
X129194623Y-88773595D01*
X129308415Y-88807969D01*
X129418120Y-88849404D01*
X129523494Y-88897645D01*
X129624295Y-88952437D01*
X129720279Y-89013522D01*
X129811205Y-89080646D01*
X129896828Y-89153552D01*
X129976907Y-89231985D01*
X130051198Y-89315690D01*
X130119458Y-89404409D01*
X130181445Y-89497888D01*
X130236915Y-89595870D01*
X130285626Y-89698100D01*
X130327335Y-89804322D01*
X130361799Y-89914281D01*
X130388775Y-90027720D01*
X130395186Y-90063919D01*
X130400537Y-90103998D01*
X130404844Y-90147367D01*
X130408123Y-90193443D01*
X130411658Y-90291362D01*
X130411265Y-90393065D01*
X130407069Y-90493858D01*
X130399194Y-90589050D01*
X130393915Y-90633078D01*
X130387763Y-90673947D01*
X130380753Y-90711069D01*
X130372901Y-90743858D01*
X130346312Y-90830388D01*
X130315554Y-90914621D01*
X130280713Y-90996452D01*
X130241877Y-91075773D01*
X130199134Y-91152479D01*
X130152573Y-91226465D01*
X130102280Y-91297623D01*
X130048345Y-91365850D01*
X129990854Y-91431037D01*
X129929896Y-91493080D01*
X129865557Y-91551873D01*
X129797928Y-91607310D01*
X129727094Y-91659284D01*
X129653144Y-91707689D01*
X129576166Y-91752421D01*
X129496248Y-91793372D01*
X129463705Y-91808345D01*
X129427732Y-91823854D01*
X129389526Y-91839447D01*
X129350286Y-91854667D01*
X129311212Y-91869061D01*
X129273502Y-91882173D01*
X129238355Y-91893549D01*
X129206970Y-91902733D01*
X129065858Y-91943303D01*
X125511623Y-91945067D01*
X122970521Y-91942862D01*
X121851554Y-91932720D01*
X121788645Y-91922262D01*
X121726619Y-91909440D01*
X121665520Y-91894295D01*
X121605395Y-91876871D01*
X121546287Y-91857211D01*
X121488242Y-91835357D01*
X121375524Y-91785242D01*
X121267601Y-91726869D01*
X121164836Y-91660581D01*
X121067589Y-91586723D01*
X120976224Y-91505638D01*
X120891101Y-91417670D01*
X120812582Y-91323162D01*
X120741029Y-91222458D01*
X120676804Y-91115901D01*
X120620268Y-91003836D01*
X120571783Y-90886606D01*
X120531712Y-90764554D01*
X120514944Y-90701828D01*
X120500415Y-90638025D01*
X120493735Y-90602682D01*
X120488236Y-90564386D01*
X120483900Y-90523532D01*
X120480709Y-90480515D01*
X120478644Y-90435731D01*
X120477687Y-90389575D01*
X120477821Y-90342442D01*
X120479028Y-90294728D01*
X120481288Y-90246828D01*
X120484585Y-90199137D01*
X120488899Y-90152051D01*
X120494214Y-90105965D01*
X120500510Y-90061274D01*
X120507770Y-90018373D01*
X120515976Y-89977658D01*
X120525109Y-89939525D01*
X120544723Y-89870911D01*
X120567756Y-89802786D01*
X120594070Y-89735348D01*
X120623529Y-89668796D01*
X120655995Y-89603329D01*
X120691332Y-89539147D01*
X120729402Y-89476447D01*
X120770069Y-89415430D01*
X120813196Y-89356293D01*
X120858646Y-89299237D01*
X120906282Y-89244460D01*
X120955967Y-89192160D01*
X121007563Y-89142537D01*
X121060935Y-89095790D01*
X121115945Y-89052118D01*
X121172456Y-89011720D01*
X121230848Y-88973609D01*
X121289180Y-88938594D01*
X121347806Y-88906587D01*
X121407081Y-88877499D01*
X121467359Y-88851243D01*
X121528993Y-88827731D01*
X121592337Y-88806875D01*
X121657746Y-88788588D01*
X121725574Y-88772781D01*
X121796174Y-88759366D01*
X121869900Y-88748257D01*
X121947107Y-88739364D01*
X122028148Y-88732601D01*
X122113377Y-88727878D01*
X122203149Y-88725109D01*
X122297817Y-88724206D01*
X122583567Y-88724206D01*
X122583567Y-89623789D01*
D11*
X172546666Y-95156976D02*
X172546666Y-95633166D01*
X172832380Y-95061738D02*
X171832380Y-95395071D01*
X172832380Y-95728404D01*
X171832380Y-95918880D02*
X172832380Y-96252214D01*
X171832380Y-96585547D01*
X172451428Y-96918880D02*
X172451428Y-97680785D01*
X172308571Y-98490309D02*
X172308571Y-98156976D01*
X172832380Y-98156976D02*
X171832380Y-98156976D01*
X171832380Y-98633166D01*
X172832380Y-99156976D02*
X172784761Y-99061738D01*
X172689523Y-99014119D01*
X171832380Y-99014119D01*
X172832380Y-99680785D02*
X172784761Y-99585547D01*
X172737142Y-99537928D01*
X172641904Y-99490309D01*
X172356190Y-99490309D01*
X172260952Y-99537928D01*
X172213333Y-99585547D01*
X172165714Y-99680785D01*
X172165714Y-99823642D01*
X172213333Y-99918880D01*
X172260952Y-99966500D01*
X172356190Y-100014119D01*
X172641904Y-100014119D01*
X172737142Y-99966500D01*
X172784761Y-99918880D01*
X172832380Y-99823642D01*
X172832380Y-99680785D01*
X172165714Y-100347452D02*
X172832380Y-100537928D01*
X172356190Y-100728404D01*
X172832380Y-100918880D01*
X172165714Y-101109357D01*
X173442380Y-95061738D02*
X174442380Y-95395071D01*
X173442380Y-95728404D01*
X173537619Y-96014119D02*
X173490000Y-96061738D01*
X173442380Y-96156976D01*
X173442380Y-96395071D01*
X173490000Y-96490309D01*
X173537619Y-96537928D01*
X173632857Y-96585547D01*
X173728095Y-96585547D01*
X173870952Y-96537928D01*
X174442380Y-95966500D01*
X174442380Y-96585547D01*
X174347142Y-97014119D02*
X174394761Y-97061738D01*
X174442380Y-97014119D01*
X174394761Y-96966500D01*
X174347142Y-97014119D01*
X174442380Y-97014119D01*
X173442380Y-97680785D02*
X173442380Y-97776023D01*
X173490000Y-97871261D01*
X173537619Y-97918880D01*
X173632857Y-97966500D01*
X173823333Y-98014119D01*
X174061428Y-98014119D01*
X174251904Y-97966500D01*
X174347142Y-97918880D01*
X174394761Y-97871261D01*
X174442380Y-97776023D01*
X174442380Y-97680785D01*
X174394761Y-97585547D01*
X174347142Y-97537928D01*
X174251904Y-97490309D01*
X174061428Y-97442690D01*
X173823333Y-97442690D01*
X173632857Y-97490309D01*
X173537619Y-97537928D01*
X173490000Y-97585547D01*
X173442380Y-97680785D01*
X174347142Y-98442690D02*
X174394761Y-98490309D01*
X174442380Y-98442690D01*
X174394761Y-98395071D01*
X174347142Y-98442690D01*
X174442380Y-98442690D01*
X173442380Y-99109357D02*
X173442380Y-99204595D01*
X173490000Y-99299833D01*
X173537619Y-99347452D01*
X173632857Y-99395071D01*
X173823333Y-99442690D01*
X174061428Y-99442690D01*
X174251904Y-99395071D01*
X174347142Y-99347452D01*
X174394761Y-99299833D01*
X174442380Y-99204595D01*
X174442380Y-99109357D01*
X174394761Y-99014119D01*
X174347142Y-98966500D01*
X174251904Y-98918880D01*
X174061428Y-98871261D01*
X173823333Y-98871261D01*
X173632857Y-98918880D01*
X173537619Y-98966500D01*
X173490000Y-99014119D01*
X173442380Y-99109357D01*
X175052380Y-95109357D02*
X175052380Y-95728404D01*
X175433333Y-95395071D01*
X175433333Y-95537928D01*
X175480952Y-95633166D01*
X175528571Y-95680785D01*
X175623809Y-95728404D01*
X175861904Y-95728404D01*
X175957142Y-95680785D01*
X176004761Y-95633166D01*
X176052380Y-95537928D01*
X176052380Y-95252214D01*
X176004761Y-95156976D01*
X175957142Y-95109357D01*
X175052380Y-96347452D02*
X175052380Y-96442690D01*
X175100000Y-96537928D01*
X175147619Y-96585547D01*
X175242857Y-96633166D01*
X175433333Y-96680785D01*
X175671428Y-96680785D01*
X175861904Y-96633166D01*
X175957142Y-96585547D01*
X176004761Y-96537928D01*
X176052380Y-96442690D01*
X176052380Y-96347452D01*
X176004761Y-96252214D01*
X175957142Y-96204595D01*
X175861904Y-96156976D01*
X175671428Y-96109357D01*
X175433333Y-96109357D01*
X175242857Y-96156976D01*
X175147619Y-96204595D01*
X175100000Y-96252214D01*
X175052380Y-96347452D01*
X175957142Y-97109357D02*
X176004761Y-97156976D01*
X176052380Y-97109357D01*
X176004761Y-97061738D01*
X175957142Y-97109357D01*
X176052380Y-97109357D01*
X175052380Y-97776023D02*
X175052380Y-97871261D01*
X175100000Y-97966500D01*
X175147619Y-98014119D01*
X175242857Y-98061738D01*
X175433333Y-98109357D01*
X175671428Y-98109357D01*
X175861904Y-98061738D01*
X175957142Y-98014119D01*
X176004761Y-97966500D01*
X176052380Y-97871261D01*
X176052380Y-97776023D01*
X176004761Y-97680785D01*
X175957142Y-97633166D01*
X175861904Y-97585547D01*
X175671428Y-97537928D01*
X175433333Y-97537928D01*
X175242857Y-97585547D01*
X175147619Y-97633166D01*
X175100000Y-97680785D01*
X175052380Y-97776023D01*
X175052380Y-98442690D02*
X175052380Y-99109357D01*
X176052380Y-98680785D01*
X175957142Y-99490309D02*
X176004761Y-99537928D01*
X176052380Y-99490309D01*
X176004761Y-99442690D01*
X175957142Y-99490309D01*
X176052380Y-99490309D01*
X175147619Y-99918880D02*
X175100000Y-99966500D01*
X175052380Y-100061738D01*
X175052380Y-100299833D01*
X175100000Y-100395071D01*
X175147619Y-100442690D01*
X175242857Y-100490309D01*
X175338095Y-100490309D01*
X175480952Y-100442690D01*
X176052380Y-99871261D01*
X176052380Y-100490309D01*
X175052380Y-101109357D02*
X175052380Y-101204595D01*
X175100000Y-101299833D01*
X175147619Y-101347452D01*
X175242857Y-101395071D01*
X175433333Y-101442690D01*
X175671428Y-101442690D01*
X175861904Y-101395071D01*
X175957142Y-101347452D01*
X176004761Y-101299833D01*
X176052380Y-101204595D01*
X176052380Y-101109357D01*
X176004761Y-101014119D01*
X175957142Y-100966500D01*
X175861904Y-100918880D01*
X175671428Y-100871261D01*
X175433333Y-100871261D01*
X175242857Y-100918880D01*
X175147619Y-100966500D01*
X175100000Y-101014119D01*
X175052380Y-101109357D01*
X175147619Y-101823642D02*
X175100000Y-101871261D01*
X175052380Y-101966500D01*
X175052380Y-102204595D01*
X175100000Y-102299833D01*
X175147619Y-102347452D01*
X175242857Y-102395071D01*
X175338095Y-102395071D01*
X175480952Y-102347452D01*
X176052380Y-101776023D01*
X176052380Y-102395071D01*
X175052380Y-102728404D02*
X175052380Y-103347452D01*
X175433333Y-103014119D01*
X175433333Y-103156976D01*
X175480952Y-103252214D01*
X175528571Y-103299833D01*
X175623809Y-103347452D01*
X175861904Y-103347452D01*
X175957142Y-103299833D01*
X176004761Y-103252214D01*
X176052380Y-103156976D01*
X176052380Y-102871261D01*
X176004761Y-102776023D01*
X175957142Y-102728404D01*
%TO.C,R9*%
X157900666Y-99131380D02*
X158234000Y-98655190D01*
X158472095Y-99131380D02*
X158472095Y-98131380D01*
X158091142Y-98131380D01*
X157995904Y-98179000D01*
X157948285Y-98226619D01*
X157900666Y-98321857D01*
X157900666Y-98464714D01*
X157948285Y-98559952D01*
X157995904Y-98607571D01*
X158091142Y-98655190D01*
X158472095Y-98655190D01*
X157424476Y-99131380D02*
X157234000Y-99131380D01*
X157138761Y-99083761D01*
X157091142Y-99036142D01*
X156995904Y-98893285D01*
X156948285Y-98702809D01*
X156948285Y-98321857D01*
X156995904Y-98226619D01*
X157043523Y-98179000D01*
X157138761Y-98131380D01*
X157329238Y-98131380D01*
X157424476Y-98179000D01*
X157472095Y-98226619D01*
X157519714Y-98321857D01*
X157519714Y-98559952D01*
X157472095Y-98655190D01*
X157424476Y-98702809D01*
X157329238Y-98750428D01*
X157138761Y-98750428D01*
X157043523Y-98702809D01*
X156995904Y-98655190D01*
X156948285Y-98559952D01*
X159631047Y-99131380D02*
X160202476Y-99131380D01*
X159916761Y-99131380D02*
X159916761Y-98131380D01*
X160012000Y-98274238D01*
X160107238Y-98369476D01*
X160202476Y-98417095D01*
X159202476Y-99131380D02*
X159202476Y-98131380D01*
X159107238Y-98750428D02*
X158821523Y-99131380D01*
X158821523Y-98464714D02*
X159202476Y-98845666D01*
%TO.C,R3*%
X147486666Y-95194380D02*
X147820000Y-94718190D01*
X148058095Y-95194380D02*
X148058095Y-94194380D01*
X147677142Y-94194380D01*
X147581904Y-94242000D01*
X147534285Y-94289619D01*
X147486666Y-94384857D01*
X147486666Y-94527714D01*
X147534285Y-94622952D01*
X147581904Y-94670571D01*
X147677142Y-94718190D01*
X148058095Y-94718190D01*
X147153333Y-94194380D02*
X146534285Y-94194380D01*
X146867619Y-94575333D01*
X146724761Y-94575333D01*
X146629523Y-94622952D01*
X146581904Y-94670571D01*
X146534285Y-94765809D01*
X146534285Y-95003904D01*
X146581904Y-95099142D01*
X146629523Y-95146761D01*
X146724761Y-95194380D01*
X147010476Y-95194380D01*
X147105714Y-95146761D01*
X147153333Y-95099142D01*
X150296476Y-94559380D02*
X150867904Y-94559380D01*
X150582190Y-94559380D02*
X150582190Y-93559380D01*
X150677428Y-93702238D01*
X150772666Y-93797476D01*
X150867904Y-93845095D01*
X149677428Y-93559380D02*
X149582190Y-93559380D01*
X149486952Y-93607000D01*
X149439333Y-93654619D01*
X149391714Y-93749857D01*
X149344095Y-93940333D01*
X149344095Y-94178428D01*
X149391714Y-94368904D01*
X149439333Y-94464142D01*
X149486952Y-94511761D01*
X149582190Y-94559380D01*
X149677428Y-94559380D01*
X149772666Y-94511761D01*
X149820285Y-94464142D01*
X149867904Y-94368904D01*
X149915523Y-94178428D01*
X149915523Y-93940333D01*
X149867904Y-93749857D01*
X149820285Y-93654619D01*
X149772666Y-93607000D01*
X149677428Y-93559380D01*
X148915523Y-94559380D02*
X148915523Y-93559380D01*
X148344095Y-94559380D02*
X148772666Y-93987952D01*
X148344095Y-93559380D02*
X148915523Y-94130809D01*
%TO.C,U2*%
X104012904Y-93940380D02*
X104012904Y-94749904D01*
X103965285Y-94845142D01*
X103917666Y-94892761D01*
X103822428Y-94940380D01*
X103631952Y-94940380D01*
X103536714Y-94892761D01*
X103489095Y-94845142D01*
X103441476Y-94749904D01*
X103441476Y-93940380D01*
X103012904Y-94035619D02*
X102965285Y-93988000D01*
X102870047Y-93940380D01*
X102631952Y-93940380D01*
X102536714Y-93988000D01*
X102489095Y-94035619D01*
X102441476Y-94130857D01*
X102441476Y-94226095D01*
X102489095Y-94368952D01*
X103060523Y-94940380D01*
X102441476Y-94940380D01*
X106003285Y-93389000D02*
X105253285Y-93389000D01*
X105789000Y-93639000D01*
X105253285Y-93889000D01*
X106003285Y-93889000D01*
X105967571Y-94210428D02*
X106003285Y-94317571D01*
X106003285Y-94496142D01*
X105967571Y-94567571D01*
X105931857Y-94603285D01*
X105860428Y-94639000D01*
X105789000Y-94639000D01*
X105717571Y-94603285D01*
X105681857Y-94567571D01*
X105646142Y-94496142D01*
X105610428Y-94353285D01*
X105574714Y-94281857D01*
X105539000Y-94246142D01*
X105467571Y-94210428D01*
X105396142Y-94210428D01*
X105324714Y-94246142D01*
X105289000Y-94281857D01*
X105253285Y-94353285D01*
X105253285Y-94531857D01*
X105289000Y-94639000D01*
X105253285Y-95317571D02*
X105253285Y-94960428D01*
X105610428Y-94924714D01*
X105574714Y-94960428D01*
X105539000Y-95031857D01*
X105539000Y-95210428D01*
X105574714Y-95281857D01*
X105610428Y-95317571D01*
X105681857Y-95353285D01*
X105860428Y-95353285D01*
X105931857Y-95317571D01*
X105967571Y-95281857D01*
X106003285Y-95210428D01*
X106003285Y-95031857D01*
X105967571Y-94960428D01*
X105931857Y-94924714D01*
X105253285Y-95996142D02*
X105253285Y-95853285D01*
X105289000Y-95781857D01*
X105324714Y-95746142D01*
X105431857Y-95674714D01*
X105574714Y-95639000D01*
X105860428Y-95639000D01*
X105931857Y-95674714D01*
X105967571Y-95710428D01*
X106003285Y-95781857D01*
X106003285Y-95924714D01*
X105967571Y-95996142D01*
X105931857Y-96031857D01*
X105860428Y-96067571D01*
X105681857Y-96067571D01*
X105610428Y-96031857D01*
X105574714Y-95996142D01*
X105539000Y-95924714D01*
X105539000Y-95781857D01*
X105574714Y-95710428D01*
X105610428Y-95674714D01*
X105681857Y-95639000D01*
X105253285Y-96317571D02*
X105253285Y-96781857D01*
X105539000Y-96531857D01*
X105539000Y-96639000D01*
X105574714Y-96710428D01*
X105610428Y-96746142D01*
X105681857Y-96781857D01*
X105860428Y-96781857D01*
X105931857Y-96746142D01*
X105967571Y-96710428D01*
X106003285Y-96639000D01*
X106003285Y-96424714D01*
X105967571Y-96353285D01*
X105931857Y-96317571D01*
X105253285Y-97031857D02*
X105253285Y-97531857D01*
X106003285Y-97210428D01*
X105253285Y-97960428D02*
X105253285Y-98031857D01*
X105289000Y-98103285D01*
X105324714Y-98139000D01*
X105396142Y-98174714D01*
X105539000Y-98210428D01*
X105717571Y-98210428D01*
X105860428Y-98174714D01*
X105931857Y-98139000D01*
X105967571Y-98103285D01*
X106003285Y-98031857D01*
X106003285Y-97960428D01*
X105967571Y-97889000D01*
X105931857Y-97853285D01*
X105860428Y-97817571D01*
X105717571Y-97781857D01*
X105539000Y-97781857D01*
X105396142Y-97817571D01*
X105324714Y-97853285D01*
X105289000Y-97889000D01*
X105253285Y-97960428D01*
X105324714Y-98496142D02*
X105289000Y-98531857D01*
X105253285Y-98603285D01*
X105253285Y-98781857D01*
X105289000Y-98853285D01*
X105324714Y-98889000D01*
X105396142Y-98924714D01*
X105467571Y-98924714D01*
X105574714Y-98889000D01*
X106003285Y-98460428D01*
X106003285Y-98924714D01*
%TO.C,R8*%
X147613666Y-91130380D02*
X147947000Y-90654190D01*
X148185095Y-91130380D02*
X148185095Y-90130380D01*
X147804142Y-90130380D01*
X147708904Y-90178000D01*
X147661285Y-90225619D01*
X147613666Y-90320857D01*
X147613666Y-90463714D01*
X147661285Y-90558952D01*
X147708904Y-90606571D01*
X147804142Y-90654190D01*
X148185095Y-90654190D01*
X147042238Y-90558952D02*
X147137476Y-90511333D01*
X147185095Y-90463714D01*
X147232714Y-90368476D01*
X147232714Y-90320857D01*
X147185095Y-90225619D01*
X147137476Y-90178000D01*
X147042238Y-90130380D01*
X146851761Y-90130380D01*
X146756523Y-90178000D01*
X146708904Y-90225619D01*
X146661285Y-90320857D01*
X146661285Y-90368476D01*
X146708904Y-90463714D01*
X146756523Y-90511333D01*
X146851761Y-90558952D01*
X147042238Y-90558952D01*
X147137476Y-90606571D01*
X147185095Y-90654190D01*
X147232714Y-90749428D01*
X147232714Y-90939904D01*
X147185095Y-91035142D01*
X147137476Y-91082761D01*
X147042238Y-91130380D01*
X146851761Y-91130380D01*
X146756523Y-91082761D01*
X146708904Y-91035142D01*
X146661285Y-90939904D01*
X146661285Y-90749428D01*
X146708904Y-90654190D01*
X146756523Y-90606571D01*
X146851761Y-90558952D01*
X148645476Y-89860380D02*
X149216904Y-89860380D01*
X148931190Y-89860380D02*
X148931190Y-88860380D01*
X149026428Y-89003238D01*
X149121666Y-89098476D01*
X149216904Y-89146095D01*
X148026428Y-88860380D02*
X147931190Y-88860380D01*
X147835952Y-88908000D01*
X147788333Y-88955619D01*
X147740714Y-89050857D01*
X147693095Y-89241333D01*
X147693095Y-89479428D01*
X147740714Y-89669904D01*
X147788333Y-89765142D01*
X147835952Y-89812761D01*
X147931190Y-89860380D01*
X148026428Y-89860380D01*
X148121666Y-89812761D01*
X148169285Y-89765142D01*
X148216904Y-89669904D01*
X148264523Y-89479428D01*
X148264523Y-89241333D01*
X148216904Y-89050857D01*
X148169285Y-88955619D01*
X148121666Y-88908000D01*
X148026428Y-88860380D01*
X147264523Y-89860380D02*
X147264523Y-88860380D01*
X146693095Y-89860380D02*
X147121666Y-89288952D01*
X146693095Y-88860380D02*
X147264523Y-89431809D01*
%TO.C,R1*%
X150788666Y-103703380D02*
X151122000Y-103227190D01*
X151360095Y-103703380D02*
X151360095Y-102703380D01*
X150979142Y-102703380D01*
X150883904Y-102751000D01*
X150836285Y-102798619D01*
X150788666Y-102893857D01*
X150788666Y-103036714D01*
X150836285Y-103131952D01*
X150883904Y-103179571D01*
X150979142Y-103227190D01*
X151360095Y-103227190D01*
X149836285Y-103703380D02*
X150407714Y-103703380D01*
X150122000Y-103703380D02*
X150122000Y-102703380D01*
X150217238Y-102846238D01*
X150312476Y-102941476D01*
X150407714Y-102989095D01*
X151725380Y-104465619D02*
X151725380Y-105084666D01*
X152106333Y-104751333D01*
X152106333Y-104894190D01*
X152153952Y-104989428D01*
X152201571Y-105037047D01*
X152296809Y-105084666D01*
X152534904Y-105084666D01*
X152630142Y-105037047D01*
X152677761Y-104989428D01*
X152725380Y-104894190D01*
X152725380Y-104608476D01*
X152677761Y-104513238D01*
X152630142Y-104465619D01*
X152630142Y-105513238D02*
X152677761Y-105560857D01*
X152725380Y-105513238D01*
X152677761Y-105465619D01*
X152630142Y-105513238D01*
X152725380Y-105513238D01*
X151725380Y-105894190D02*
X151725380Y-106513238D01*
X152106333Y-106179904D01*
X152106333Y-106322761D01*
X152153952Y-106418000D01*
X152201571Y-106465619D01*
X152296809Y-106513238D01*
X152534904Y-106513238D01*
X152630142Y-106465619D01*
X152677761Y-106418000D01*
X152725380Y-106322761D01*
X152725380Y-106037047D01*
X152677761Y-105941809D01*
X152630142Y-105894190D01*
X152725380Y-106941809D02*
X151725380Y-106941809D01*
X152344428Y-107037047D02*
X152725380Y-107322761D01*
X152058714Y-107322761D02*
X152439666Y-106941809D01*
%TO.C,R5*%
X139993666Y-89987380D02*
X140327000Y-89511190D01*
X140565095Y-89987380D02*
X140565095Y-88987380D01*
X140184142Y-88987380D01*
X140088904Y-89035000D01*
X140041285Y-89082619D01*
X139993666Y-89177857D01*
X139993666Y-89320714D01*
X140041285Y-89415952D01*
X140088904Y-89463571D01*
X140184142Y-89511190D01*
X140565095Y-89511190D01*
X139088904Y-88987380D02*
X139565095Y-88987380D01*
X139612714Y-89463571D01*
X139565095Y-89415952D01*
X139469857Y-89368333D01*
X139231761Y-89368333D01*
X139136523Y-89415952D01*
X139088904Y-89463571D01*
X139041285Y-89558809D01*
X139041285Y-89796904D01*
X139088904Y-89892142D01*
X139136523Y-89939761D01*
X139231761Y-89987380D01*
X139469857Y-89987380D01*
X139565095Y-89939761D01*
X139612714Y-89892142D01*
X138502380Y-92368761D02*
X138502380Y-91797333D01*
X138502380Y-92083047D02*
X137502380Y-92083047D01*
X137645238Y-91987809D01*
X137740476Y-91892571D01*
X137788095Y-91797333D01*
X137502380Y-92987809D02*
X137502380Y-93083047D01*
X137550000Y-93178285D01*
X137597619Y-93225904D01*
X137692857Y-93273523D01*
X137883333Y-93321142D01*
X138121428Y-93321142D01*
X138311904Y-93273523D01*
X138407142Y-93225904D01*
X138454761Y-93178285D01*
X138502380Y-93083047D01*
X138502380Y-92987809D01*
X138454761Y-92892571D01*
X138407142Y-92844952D01*
X138311904Y-92797333D01*
X138121428Y-92749714D01*
X137883333Y-92749714D01*
X137692857Y-92797333D01*
X137597619Y-92844952D01*
X137550000Y-92892571D01*
X137502380Y-92987809D01*
X138502380Y-93749714D02*
X137502380Y-93749714D01*
X138121428Y-93844952D02*
X138502380Y-94130666D01*
X137835714Y-94130666D02*
X138216666Y-93749714D01*
%TO.C,R6*%
X136087380Y-92670333D02*
X135611190Y-92337000D01*
X136087380Y-92098904D02*
X135087380Y-92098904D01*
X135087380Y-92479857D01*
X135135000Y-92575095D01*
X135182619Y-92622714D01*
X135277857Y-92670333D01*
X135420714Y-92670333D01*
X135515952Y-92622714D01*
X135563571Y-92575095D01*
X135611190Y-92479857D01*
X135611190Y-92098904D01*
X135087380Y-93527476D02*
X135087380Y-93337000D01*
X135135000Y-93241761D01*
X135182619Y-93194142D01*
X135325476Y-93098904D01*
X135515952Y-93051285D01*
X135896904Y-93051285D01*
X135992142Y-93098904D01*
X136039761Y-93146523D01*
X136087380Y-93241761D01*
X136087380Y-93432238D01*
X136039761Y-93527476D01*
X135992142Y-93575095D01*
X135896904Y-93622714D01*
X135658809Y-93622714D01*
X135563571Y-93575095D01*
X135515952Y-93527476D01*
X135468333Y-93432238D01*
X135468333Y-93241761D01*
X135515952Y-93146523D01*
X135563571Y-93098904D01*
X135658809Y-93051285D01*
X132787380Y-92241761D02*
X132787380Y-91670333D01*
X132787380Y-91956047D02*
X131787380Y-91956047D01*
X131930238Y-91860809D01*
X132025476Y-91765571D01*
X132073095Y-91670333D01*
X131787380Y-92860809D02*
X131787380Y-92956047D01*
X131835000Y-93051285D01*
X131882619Y-93098904D01*
X131977857Y-93146523D01*
X132168333Y-93194142D01*
X132406428Y-93194142D01*
X132596904Y-93146523D01*
X132692142Y-93098904D01*
X132739761Y-93051285D01*
X132787380Y-92956047D01*
X132787380Y-92860809D01*
X132739761Y-92765571D01*
X132692142Y-92717952D01*
X132596904Y-92670333D01*
X132406428Y-92622714D01*
X132168333Y-92622714D01*
X131977857Y-92670333D01*
X131882619Y-92717952D01*
X131835000Y-92765571D01*
X131787380Y-92860809D01*
X132787380Y-93622714D02*
X131787380Y-93622714D01*
X132406428Y-93717952D02*
X132787380Y-94003666D01*
X132120714Y-94003666D02*
X132501666Y-93622714D01*
%TO.C,C4*%
X141009666Y-103608142D02*
X141057285Y-103655761D01*
X141200142Y-103703380D01*
X141295380Y-103703380D01*
X141438238Y-103655761D01*
X141533476Y-103560523D01*
X141581095Y-103465285D01*
X141628714Y-103274809D01*
X141628714Y-103131952D01*
X141581095Y-102941476D01*
X141533476Y-102846238D01*
X141438238Y-102751000D01*
X141295380Y-102703380D01*
X141200142Y-102703380D01*
X141057285Y-102751000D01*
X141009666Y-102798619D01*
X140152523Y-103036714D02*
X140152523Y-103703380D01*
X140390619Y-102655761D02*
X140628714Y-103370047D01*
X140009666Y-103370047D01*
X142152714Y-104259238D02*
X142819380Y-104259238D01*
X141771761Y-104021142D02*
X142486047Y-103783047D01*
X142486047Y-104402095D01*
X142724142Y-104783047D02*
X142771761Y-104830666D01*
X142819380Y-104783047D01*
X142771761Y-104735428D01*
X142724142Y-104783047D01*
X142819380Y-104783047D01*
X141819380Y-105164000D02*
X141819380Y-105830666D01*
X142819380Y-105402095D01*
X142152714Y-106640190D02*
X142819380Y-106640190D01*
X142152714Y-106211619D02*
X142676523Y-106211619D01*
X142771761Y-106259238D01*
X142819380Y-106354476D01*
X142819380Y-106497333D01*
X142771761Y-106592571D01*
X142724142Y-106640190D01*
X142295571Y-107449714D02*
X142295571Y-107116380D01*
X142819380Y-107116380D02*
X141819380Y-107116380D01*
X141819380Y-107592571D01*
%TO.C,Q3*%
X124047238Y-97702619D02*
X124142476Y-97655000D01*
X124237714Y-97559761D01*
X124380571Y-97416904D01*
X124475809Y-97369285D01*
X124571047Y-97369285D01*
X124523428Y-97607380D02*
X124618666Y-97559761D01*
X124713904Y-97464523D01*
X124761523Y-97274047D01*
X124761523Y-96940714D01*
X124713904Y-96750238D01*
X124618666Y-96655000D01*
X124523428Y-96607380D01*
X124332952Y-96607380D01*
X124237714Y-96655000D01*
X124142476Y-96750238D01*
X124094857Y-96940714D01*
X124094857Y-97274047D01*
X124142476Y-97464523D01*
X124237714Y-97559761D01*
X124332952Y-97607380D01*
X124523428Y-97607380D01*
X123761523Y-96607380D02*
X123142476Y-96607380D01*
X123475809Y-96988333D01*
X123332952Y-96988333D01*
X123237714Y-97035952D01*
X123190095Y-97083571D01*
X123142476Y-97178809D01*
X123142476Y-97416904D01*
X123190095Y-97512142D01*
X123237714Y-97559761D01*
X123332952Y-97607380D01*
X123618666Y-97607380D01*
X123713904Y-97559761D01*
X123761523Y-97512142D01*
X129380952Y-100131571D02*
X129238095Y-100179190D01*
X129190476Y-100226809D01*
X129142857Y-100322047D01*
X129142857Y-100464904D01*
X129190476Y-100560142D01*
X129238095Y-100607761D01*
X129333333Y-100655380D01*
X129714285Y-100655380D01*
X129714285Y-99655380D01*
X129380952Y-99655380D01*
X129285714Y-99703000D01*
X129238095Y-99750619D01*
X129190476Y-99845857D01*
X129190476Y-99941095D01*
X129238095Y-100036333D01*
X129285714Y-100083952D01*
X129380952Y-100131571D01*
X129714285Y-100131571D01*
X128761904Y-100607761D02*
X128619047Y-100655380D01*
X128380952Y-100655380D01*
X128285714Y-100607761D01*
X128238095Y-100560142D01*
X128190476Y-100464904D01*
X128190476Y-100369666D01*
X128238095Y-100274428D01*
X128285714Y-100226809D01*
X128380952Y-100179190D01*
X128571428Y-100131571D01*
X128666666Y-100083952D01*
X128714285Y-100036333D01*
X128761904Y-99941095D01*
X128761904Y-99845857D01*
X128714285Y-99750619D01*
X128666666Y-99703000D01*
X128571428Y-99655380D01*
X128333333Y-99655380D01*
X128190476Y-99703000D01*
X127761904Y-100655380D02*
X127761904Y-99655380D01*
X127380952Y-99655380D01*
X127285714Y-99703000D01*
X127238095Y-99750619D01*
X127190476Y-99845857D01*
X127190476Y-99988714D01*
X127238095Y-100083952D01*
X127285714Y-100131571D01*
X127380952Y-100179190D01*
X127761904Y-100179190D01*
X126857142Y-99655380D02*
X126190476Y-99655380D01*
X126619047Y-100655380D01*
X125333333Y-99655380D02*
X125809523Y-99655380D01*
X125857142Y-100131571D01*
X125809523Y-100083952D01*
X125714285Y-100036333D01*
X125476190Y-100036333D01*
X125380952Y-100083952D01*
X125333333Y-100131571D01*
X125285714Y-100226809D01*
X125285714Y-100464904D01*
X125333333Y-100560142D01*
X125380952Y-100607761D01*
X125476190Y-100655380D01*
X125714285Y-100655380D01*
X125809523Y-100607761D01*
X125857142Y-100560142D01*
X124857142Y-100655380D02*
X124857142Y-99655380D01*
X124285714Y-100655380D01*
X124285714Y-99655380D01*
%TO.C,U3*%
X115061904Y-87844380D02*
X115061904Y-88653904D01*
X115014285Y-88749142D01*
X114966666Y-88796761D01*
X114871428Y-88844380D01*
X114680952Y-88844380D01*
X114585714Y-88796761D01*
X114538095Y-88749142D01*
X114490476Y-88653904D01*
X114490476Y-87844380D01*
X114109523Y-87844380D02*
X113490476Y-87844380D01*
X113823809Y-88225333D01*
X113680952Y-88225333D01*
X113585714Y-88272952D01*
X113538095Y-88320571D01*
X113490476Y-88415809D01*
X113490476Y-88653904D01*
X113538095Y-88749142D01*
X113585714Y-88796761D01*
X113680952Y-88844380D01*
X113966666Y-88844380D01*
X114061904Y-88796761D01*
X114109523Y-88749142D01*
X114162714Y-94827285D02*
X114162714Y-94077285D01*
X113912714Y-94613000D01*
X113662714Y-94077285D01*
X113662714Y-94827285D01*
X113305571Y-94827285D02*
X113305571Y-94077285D01*
X113019857Y-94077285D01*
X112948428Y-94113000D01*
X112912714Y-94148714D01*
X112877000Y-94220142D01*
X112877000Y-94327285D01*
X112912714Y-94398714D01*
X112948428Y-94434428D01*
X113019857Y-94470142D01*
X113305571Y-94470142D01*
X112555571Y-94077285D02*
X112555571Y-94684428D01*
X112519857Y-94755857D01*
X112484142Y-94791571D01*
X112412714Y-94827285D01*
X112269857Y-94827285D01*
X112198428Y-94791571D01*
X112162714Y-94755857D01*
X112127000Y-94684428D01*
X112127000Y-94077285D01*
X111769857Y-94541571D02*
X111198428Y-94541571D01*
X110519857Y-94077285D02*
X110662714Y-94077285D01*
X110734142Y-94113000D01*
X110769857Y-94148714D01*
X110841285Y-94255857D01*
X110877000Y-94398714D01*
X110877000Y-94684428D01*
X110841285Y-94755857D01*
X110805571Y-94791571D01*
X110734142Y-94827285D01*
X110591285Y-94827285D01*
X110519857Y-94791571D01*
X110484142Y-94755857D01*
X110448428Y-94684428D01*
X110448428Y-94505857D01*
X110484142Y-94434428D01*
X110519857Y-94398714D01*
X110591285Y-94363000D01*
X110734142Y-94363000D01*
X110805571Y-94398714D01*
X110841285Y-94434428D01*
X110877000Y-94505857D01*
X109984142Y-94077285D02*
X109912714Y-94077285D01*
X109841285Y-94113000D01*
X109805571Y-94148714D01*
X109769857Y-94220142D01*
X109734142Y-94363000D01*
X109734142Y-94541571D01*
X109769857Y-94684428D01*
X109805571Y-94755857D01*
X109841285Y-94791571D01*
X109912714Y-94827285D01*
X109984142Y-94827285D01*
X110055571Y-94791571D01*
X110091285Y-94755857D01*
X110127000Y-94684428D01*
X110162714Y-94541571D01*
X110162714Y-94363000D01*
X110127000Y-94220142D01*
X110091285Y-94148714D01*
X110055571Y-94113000D01*
X109984142Y-94077285D01*
X109055571Y-94077285D02*
X109412714Y-94077285D01*
X109448428Y-94434428D01*
X109412714Y-94398714D01*
X109341285Y-94363000D01*
X109162714Y-94363000D01*
X109091285Y-94398714D01*
X109055571Y-94434428D01*
X109019857Y-94505857D01*
X109019857Y-94684428D01*
X109055571Y-94755857D01*
X109091285Y-94791571D01*
X109162714Y-94827285D01*
X109341285Y-94827285D01*
X109412714Y-94791571D01*
X109448428Y-94755857D01*
X108555571Y-94077285D02*
X108484142Y-94077285D01*
X108412714Y-94113000D01*
X108377000Y-94148714D01*
X108341285Y-94220142D01*
X108305571Y-94363000D01*
X108305571Y-94541571D01*
X108341285Y-94684428D01*
X108377000Y-94755857D01*
X108412714Y-94791571D01*
X108484142Y-94827285D01*
X108555571Y-94827285D01*
X108627000Y-94791571D01*
X108662714Y-94755857D01*
X108698428Y-94684428D01*
X108734142Y-94541571D01*
X108734142Y-94363000D01*
X108698428Y-94220142D01*
X108662714Y-94148714D01*
X108627000Y-94113000D01*
X108555571Y-94077285D01*
%TO.C,Q2*%
X115538238Y-97829619D02*
X115633476Y-97782000D01*
X115728714Y-97686761D01*
X115871571Y-97543904D01*
X115966809Y-97496285D01*
X116062047Y-97496285D01*
X116014428Y-97734380D02*
X116109666Y-97686761D01*
X116204904Y-97591523D01*
X116252523Y-97401047D01*
X116252523Y-97067714D01*
X116204904Y-96877238D01*
X116109666Y-96782000D01*
X116014428Y-96734380D01*
X115823952Y-96734380D01*
X115728714Y-96782000D01*
X115633476Y-96877238D01*
X115585857Y-97067714D01*
X115585857Y-97401047D01*
X115633476Y-97591523D01*
X115728714Y-97686761D01*
X115823952Y-97734380D01*
X116014428Y-97734380D01*
X115204904Y-96829619D02*
X115157285Y-96782000D01*
X115062047Y-96734380D01*
X114823952Y-96734380D01*
X114728714Y-96782000D01*
X114681095Y-96829619D01*
X114633476Y-96924857D01*
X114633476Y-97020095D01*
X114681095Y-97162952D01*
X115252523Y-97734380D01*
X114633476Y-97734380D01*
X121125952Y-100258571D02*
X120983095Y-100306190D01*
X120935476Y-100353809D01*
X120887857Y-100449047D01*
X120887857Y-100591904D01*
X120935476Y-100687142D01*
X120983095Y-100734761D01*
X121078333Y-100782380D01*
X121459285Y-100782380D01*
X121459285Y-99782380D01*
X121125952Y-99782380D01*
X121030714Y-99830000D01*
X120983095Y-99877619D01*
X120935476Y-99972857D01*
X120935476Y-100068095D01*
X120983095Y-100163333D01*
X121030714Y-100210952D01*
X121125952Y-100258571D01*
X121459285Y-100258571D01*
X120506904Y-100734761D02*
X120364047Y-100782380D01*
X120125952Y-100782380D01*
X120030714Y-100734761D01*
X119983095Y-100687142D01*
X119935476Y-100591904D01*
X119935476Y-100496666D01*
X119983095Y-100401428D01*
X120030714Y-100353809D01*
X120125952Y-100306190D01*
X120316428Y-100258571D01*
X120411666Y-100210952D01*
X120459285Y-100163333D01*
X120506904Y-100068095D01*
X120506904Y-99972857D01*
X120459285Y-99877619D01*
X120411666Y-99830000D01*
X120316428Y-99782380D01*
X120078333Y-99782380D01*
X119935476Y-99830000D01*
X119506904Y-100782380D02*
X119506904Y-99782380D01*
X119125952Y-99782380D01*
X119030714Y-99830000D01*
X118983095Y-99877619D01*
X118935476Y-99972857D01*
X118935476Y-100115714D01*
X118983095Y-100210952D01*
X119030714Y-100258571D01*
X119125952Y-100306190D01*
X119506904Y-100306190D01*
X118602142Y-99782380D02*
X117935476Y-99782380D01*
X118364047Y-100782380D01*
X117078333Y-99782380D02*
X117554523Y-99782380D01*
X117602142Y-100258571D01*
X117554523Y-100210952D01*
X117459285Y-100163333D01*
X117221190Y-100163333D01*
X117125952Y-100210952D01*
X117078333Y-100258571D01*
X117030714Y-100353809D01*
X117030714Y-100591904D01*
X117078333Y-100687142D01*
X117125952Y-100734761D01*
X117221190Y-100782380D01*
X117459285Y-100782380D01*
X117554523Y-100734761D01*
X117602142Y-100687142D01*
X116602142Y-100782380D02*
X116602142Y-99782380D01*
X116030714Y-100782380D01*
X116030714Y-99782380D01*
%TO.C,R2*%
X144438666Y-103703380D02*
X144772000Y-103227190D01*
X145010095Y-103703380D02*
X145010095Y-102703380D01*
X144629142Y-102703380D01*
X144533904Y-102751000D01*
X144486285Y-102798619D01*
X144438666Y-102893857D01*
X144438666Y-103036714D01*
X144486285Y-103131952D01*
X144533904Y-103179571D01*
X144629142Y-103227190D01*
X145010095Y-103227190D01*
X144057714Y-102798619D02*
X144010095Y-102751000D01*
X143914857Y-102703380D01*
X143676761Y-102703380D01*
X143581523Y-102751000D01*
X143533904Y-102798619D01*
X143486285Y-102893857D01*
X143486285Y-102989095D01*
X143533904Y-103131952D01*
X144105333Y-103703380D01*
X143486285Y-103703380D01*
X145708714Y-104902095D02*
X146375380Y-104902095D01*
X145327761Y-104664000D02*
X146042047Y-104425904D01*
X146042047Y-105044952D01*
X145375380Y-105330666D02*
X145375380Y-105997333D01*
X146375380Y-105568761D01*
X145375380Y-106568761D02*
X145375380Y-106664000D01*
X145423000Y-106759238D01*
X145470619Y-106806857D01*
X145565857Y-106854476D01*
X145756333Y-106902095D01*
X145994428Y-106902095D01*
X146184904Y-106854476D01*
X146280142Y-106806857D01*
X146327761Y-106759238D01*
X146375380Y-106664000D01*
X146375380Y-106568761D01*
X146327761Y-106473523D01*
X146280142Y-106425904D01*
X146184904Y-106378285D01*
X145994428Y-106330666D01*
X145756333Y-106330666D01*
X145565857Y-106378285D01*
X145470619Y-106425904D01*
X145423000Y-106473523D01*
X145375380Y-106568761D01*
%TO.C,C5*%
X116879666Y-89003142D02*
X116927285Y-89050761D01*
X117070142Y-89098380D01*
X117165380Y-89098380D01*
X117308238Y-89050761D01*
X117403476Y-88955523D01*
X117451095Y-88860285D01*
X117498714Y-88669809D01*
X117498714Y-88526952D01*
X117451095Y-88336476D01*
X117403476Y-88241238D01*
X117308238Y-88146000D01*
X117165380Y-88098380D01*
X117070142Y-88098380D01*
X116927285Y-88146000D01*
X116879666Y-88193619D01*
X115974904Y-88098380D02*
X116451095Y-88098380D01*
X116498714Y-88574571D01*
X116451095Y-88526952D01*
X116355857Y-88479333D01*
X116117761Y-88479333D01*
X116022523Y-88526952D01*
X115974904Y-88574571D01*
X115927285Y-88669809D01*
X115927285Y-88907904D01*
X115974904Y-89003142D01*
X116022523Y-89050761D01*
X116117761Y-89098380D01*
X116355857Y-89098380D01*
X116451095Y-89050761D01*
X116498714Y-89003142D01*
X118593952Y-91368619D02*
X118546333Y-91321000D01*
X118451095Y-91273380D01*
X118213000Y-91273380D01*
X118117761Y-91321000D01*
X118070142Y-91368619D01*
X118022523Y-91463857D01*
X118022523Y-91559095D01*
X118070142Y-91701952D01*
X118641571Y-92273380D01*
X118022523Y-92273380D01*
X117593952Y-92178142D02*
X117546333Y-92225761D01*
X117593952Y-92273380D01*
X117641571Y-92225761D01*
X117593952Y-92178142D01*
X117593952Y-92273380D01*
X117165380Y-91368619D02*
X117117761Y-91321000D01*
X117022523Y-91273380D01*
X116784428Y-91273380D01*
X116689190Y-91321000D01*
X116641571Y-91368619D01*
X116593952Y-91463857D01*
X116593952Y-91559095D01*
X116641571Y-91701952D01*
X117213000Y-92273380D01*
X116593952Y-92273380D01*
X116165380Y-91606714D02*
X116165380Y-92273380D01*
X116165380Y-91701952D02*
X116117761Y-91654333D01*
X116022523Y-91606714D01*
X115879666Y-91606714D01*
X115784428Y-91654333D01*
X115736809Y-91749571D01*
X115736809Y-92273380D01*
X114927285Y-91749571D02*
X115260619Y-91749571D01*
X115260619Y-92273380D02*
X115260619Y-91273380D01*
X114784428Y-91273380D01*
%TO.C,R7*%
X147613666Y-92781380D02*
X147947000Y-92305190D01*
X148185095Y-92781380D02*
X148185095Y-91781380D01*
X147804142Y-91781380D01*
X147708904Y-91829000D01*
X147661285Y-91876619D01*
X147613666Y-91971857D01*
X147613666Y-92114714D01*
X147661285Y-92209952D01*
X147708904Y-92257571D01*
X147804142Y-92305190D01*
X148185095Y-92305190D01*
X147280333Y-91781380D02*
X146613666Y-91781380D01*
X147042238Y-92781380D01*
X150550476Y-92781380D02*
X151121904Y-92781380D01*
X150836190Y-92781380D02*
X150836190Y-91781380D01*
X150931428Y-91924238D01*
X151026666Y-92019476D01*
X151121904Y-92067095D01*
X149931428Y-91781380D02*
X149836190Y-91781380D01*
X149740952Y-91829000D01*
X149693333Y-91876619D01*
X149645714Y-91971857D01*
X149598095Y-92162333D01*
X149598095Y-92400428D01*
X149645714Y-92590904D01*
X149693333Y-92686142D01*
X149740952Y-92733761D01*
X149836190Y-92781380D01*
X149931428Y-92781380D01*
X150026666Y-92733761D01*
X150074285Y-92686142D01*
X150121904Y-92590904D01*
X150169523Y-92400428D01*
X150169523Y-92162333D01*
X150121904Y-91971857D01*
X150074285Y-91876619D01*
X150026666Y-91829000D01*
X149931428Y-91781380D01*
X149169523Y-92781380D02*
X149169523Y-91781380D01*
X148598095Y-92781380D02*
X149026666Y-92209952D01*
X148598095Y-91781380D02*
X149169523Y-92352809D01*
%TO.C,U1*%
X151637904Y-99147380D02*
X151637904Y-99956904D01*
X151590285Y-100052142D01*
X151542666Y-100099761D01*
X151447428Y-100147380D01*
X151256952Y-100147380D01*
X151161714Y-100099761D01*
X151114095Y-100052142D01*
X151066476Y-99956904D01*
X151066476Y-99147380D01*
X150066476Y-100147380D02*
X150637904Y-100147380D01*
X150352190Y-100147380D02*
X150352190Y-99147380D01*
X150447428Y-99290238D01*
X150542666Y-99385476D01*
X150637904Y-99433095D01*
X154361333Y-102306380D02*
X154361333Y-101306380D01*
X154028000Y-102020666D01*
X153694666Y-101306380D01*
X153694666Y-102306380D01*
X152647047Y-102211142D02*
X152694666Y-102258761D01*
X152837523Y-102306380D01*
X152932761Y-102306380D01*
X153075619Y-102258761D01*
X153170857Y-102163523D01*
X153218476Y-102068285D01*
X153266095Y-101877809D01*
X153266095Y-101734952D01*
X153218476Y-101544476D01*
X153170857Y-101449238D01*
X153075619Y-101354000D01*
X152932761Y-101306380D01*
X152837523Y-101306380D01*
X152694666Y-101354000D01*
X152647047Y-101401619D01*
X152218476Y-102306380D02*
X152218476Y-101306380D01*
X151837523Y-101306380D01*
X151742285Y-101354000D01*
X151694666Y-101401619D01*
X151647047Y-101496857D01*
X151647047Y-101639714D01*
X151694666Y-101734952D01*
X151742285Y-101782571D01*
X151837523Y-101830190D01*
X152218476Y-101830190D01*
X151313714Y-101306380D02*
X150647047Y-101306380D01*
X151075619Y-102306380D01*
X150361333Y-101306380D02*
X149742285Y-101306380D01*
X150075619Y-101687333D01*
X149932761Y-101687333D01*
X149837523Y-101734952D01*
X149789904Y-101782571D01*
X149742285Y-101877809D01*
X149742285Y-102115904D01*
X149789904Y-102211142D01*
X149837523Y-102258761D01*
X149932761Y-102306380D01*
X150218476Y-102306380D01*
X150313714Y-102258761D01*
X150361333Y-102211142D01*
X149170857Y-101734952D02*
X149266095Y-101687333D01*
X149313714Y-101639714D01*
X149361333Y-101544476D01*
X149361333Y-101496857D01*
X149313714Y-101401619D01*
X149266095Y-101354000D01*
X149170857Y-101306380D01*
X148980380Y-101306380D01*
X148885142Y-101354000D01*
X148837523Y-101401619D01*
X148789904Y-101496857D01*
X148789904Y-101544476D01*
X148837523Y-101639714D01*
X148885142Y-101687333D01*
X148980380Y-101734952D01*
X149170857Y-101734952D01*
X149266095Y-101782571D01*
X149313714Y-101830190D01*
X149361333Y-101925428D01*
X149361333Y-102115904D01*
X149313714Y-102211142D01*
X149266095Y-102258761D01*
X149170857Y-102306380D01*
X148980380Y-102306380D01*
X148885142Y-102258761D01*
X148837523Y-102211142D01*
X148789904Y-102115904D01*
X148789904Y-101925428D01*
X148837523Y-101830190D01*
X148885142Y-101782571D01*
X148980380Y-101734952D01*
X148456571Y-101306380D02*
X147837523Y-101306380D01*
X148170857Y-101687333D01*
X148028000Y-101687333D01*
X147932761Y-101734952D01*
X147885142Y-101782571D01*
X147837523Y-101877809D01*
X147837523Y-102115904D01*
X147885142Y-102211142D01*
X147932761Y-102258761D01*
X148028000Y-102306380D01*
X148313714Y-102306380D01*
X148408952Y-102258761D01*
X148456571Y-102211142D01*
X146885142Y-102306380D02*
X147456571Y-102306380D01*
X147170857Y-102306380D02*
X147170857Y-101306380D01*
X147266095Y-101449238D01*
X147361333Y-101544476D01*
X147456571Y-101592095D01*
X146456571Y-101925428D02*
X145694666Y-101925428D01*
X145266095Y-101401619D02*
X145218476Y-101354000D01*
X145123238Y-101306380D01*
X144885142Y-101306380D01*
X144789904Y-101354000D01*
X144742285Y-101401619D01*
X144694666Y-101496857D01*
X144694666Y-101592095D01*
X144742285Y-101734952D01*
X145313714Y-102306380D01*
X144694666Y-102306380D01*
X144266095Y-101925428D02*
X143504190Y-101925428D01*
X142837523Y-101306380D02*
X142647047Y-101306380D01*
X142551809Y-101354000D01*
X142456571Y-101449238D01*
X142408952Y-101639714D01*
X142408952Y-101973047D01*
X142456571Y-102163523D01*
X142551809Y-102258761D01*
X142647047Y-102306380D01*
X142837523Y-102306380D01*
X142932761Y-102258761D01*
X143028000Y-102163523D01*
X143075619Y-101973047D01*
X143075619Y-101639714D01*
X143028000Y-101449238D01*
X142932761Y-101354000D01*
X142837523Y-101306380D01*
X142123238Y-101306380D02*
X141551809Y-101306380D01*
X141837523Y-102306380D02*
X141837523Y-101306380D01*
%TO.C,R10*%
X170695857Y-95194380D02*
X171029190Y-94718190D01*
X171267285Y-95194380D02*
X171267285Y-94194380D01*
X170886333Y-94194380D01*
X170791095Y-94242000D01*
X170743476Y-94289619D01*
X170695857Y-94384857D01*
X170695857Y-94527714D01*
X170743476Y-94622952D01*
X170791095Y-94670571D01*
X170886333Y-94718190D01*
X171267285Y-94718190D01*
X169743476Y-95194380D02*
X170314904Y-95194380D01*
X170029190Y-95194380D02*
X170029190Y-94194380D01*
X170124428Y-94337238D01*
X170219666Y-94432476D01*
X170314904Y-94480095D01*
X169124428Y-94194380D02*
X169029190Y-94194380D01*
X168933952Y-94242000D01*
X168886333Y-94289619D01*
X168838714Y-94384857D01*
X168791095Y-94575333D01*
X168791095Y-94813428D01*
X168838714Y-95003904D01*
X168886333Y-95099142D01*
X168933952Y-95146761D01*
X169029190Y-95194380D01*
X169124428Y-95194380D01*
X169219666Y-95146761D01*
X169267285Y-95099142D01*
X169314904Y-95003904D01*
X169362523Y-94813428D01*
X169362523Y-94575333D01*
X169314904Y-94384857D01*
X169267285Y-94289619D01*
X169219666Y-94242000D01*
X169124428Y-94194380D01*
X164330047Y-94686380D02*
X164901476Y-94686380D01*
X164615761Y-94686380D02*
X164615761Y-93686380D01*
X164711000Y-93829238D01*
X164806238Y-93924476D01*
X164901476Y-93972095D01*
X163901476Y-94686380D02*
X163901476Y-93686380D01*
X163806238Y-94305428D02*
X163520523Y-94686380D01*
X163520523Y-94019714D02*
X163901476Y-94400666D01*
%TO.C,R11*%
X136151857Y-103703380D02*
X136485190Y-103227190D01*
X136723285Y-103703380D02*
X136723285Y-102703380D01*
X136342333Y-102703380D01*
X136247095Y-102751000D01*
X136199476Y-102798619D01*
X136151857Y-102893857D01*
X136151857Y-103036714D01*
X136199476Y-103131952D01*
X136247095Y-103179571D01*
X136342333Y-103227190D01*
X136723285Y-103227190D01*
X135199476Y-103703380D02*
X135770904Y-103703380D01*
X135485190Y-103703380D02*
X135485190Y-102703380D01*
X135580428Y-102846238D01*
X135675666Y-102941476D01*
X135770904Y-102989095D01*
X134247095Y-103703380D02*
X134818523Y-103703380D01*
X134532809Y-103703380D02*
X134532809Y-102703380D01*
X134628047Y-102846238D01*
X134723285Y-102941476D01*
X134818523Y-102989095D01*
X137374380Y-104187714D02*
X137374380Y-103711523D01*
X137850571Y-103663904D01*
X137802952Y-103711523D01*
X137755333Y-103806761D01*
X137755333Y-104044857D01*
X137802952Y-104140095D01*
X137850571Y-104187714D01*
X137945809Y-104235333D01*
X138183904Y-104235333D01*
X138279142Y-104187714D01*
X138326761Y-104140095D01*
X138374380Y-104044857D01*
X138374380Y-103806761D01*
X138326761Y-103711523D01*
X138279142Y-103663904D01*
X137707714Y-105092476D02*
X138374380Y-105092476D01*
X137326761Y-104854380D02*
X138041047Y-104616285D01*
X138041047Y-105235333D01*
X137374380Y-105806761D02*
X137374380Y-105902000D01*
X137422000Y-105997238D01*
X137469619Y-106044857D01*
X137564857Y-106092476D01*
X137755333Y-106140095D01*
X137993428Y-106140095D01*
X138183904Y-106092476D01*
X138279142Y-106044857D01*
X138326761Y-105997238D01*
X138374380Y-105902000D01*
X138374380Y-105806761D01*
X138326761Y-105711523D01*
X138279142Y-105663904D01*
X138183904Y-105616285D01*
X137993428Y-105568666D01*
X137755333Y-105568666D01*
X137564857Y-105616285D01*
X137469619Y-105663904D01*
X137422000Y-105711523D01*
X137374380Y-105806761D01*
%TO.C,C1*%
X154471666Y-103608142D02*
X154519285Y-103655761D01*
X154662142Y-103703380D01*
X154757380Y-103703380D01*
X154900238Y-103655761D01*
X154995476Y-103560523D01*
X155043095Y-103465285D01*
X155090714Y-103274809D01*
X155090714Y-103131952D01*
X155043095Y-102941476D01*
X154995476Y-102846238D01*
X154900238Y-102751000D01*
X154757380Y-102703380D01*
X154662142Y-102703380D01*
X154519285Y-102751000D01*
X154471666Y-102798619D01*
X153519285Y-103703380D02*
X154090714Y-103703380D01*
X153805000Y-103703380D02*
X153805000Y-102703380D01*
X153900238Y-102846238D01*
X153995476Y-102941476D01*
X154090714Y-102989095D01*
X155741714Y-104259238D02*
X156408380Y-104259238D01*
X155360761Y-104021142D02*
X156075047Y-103783047D01*
X156075047Y-104402095D01*
X156313142Y-104783047D02*
X156360761Y-104830666D01*
X156408380Y-104783047D01*
X156360761Y-104735428D01*
X156313142Y-104783047D01*
X156408380Y-104783047D01*
X155408380Y-105164000D02*
X155408380Y-105830666D01*
X156408380Y-105402095D01*
X155741714Y-106640190D02*
X156408380Y-106640190D01*
X155741714Y-106211619D02*
X156265523Y-106211619D01*
X156360761Y-106259238D01*
X156408380Y-106354476D01*
X156408380Y-106497333D01*
X156360761Y-106592571D01*
X156313142Y-106640190D01*
X155884571Y-107449714D02*
X155884571Y-107116380D01*
X156408380Y-107116380D02*
X155408380Y-107116380D01*
X155408380Y-107592571D01*
%TO.C,Q1*%
X107156238Y-97702619D02*
X107251476Y-97655000D01*
X107346714Y-97559761D01*
X107489571Y-97416904D01*
X107584809Y-97369285D01*
X107680047Y-97369285D01*
X107632428Y-97607380D02*
X107727666Y-97559761D01*
X107822904Y-97464523D01*
X107870523Y-97274047D01*
X107870523Y-96940714D01*
X107822904Y-96750238D01*
X107727666Y-96655000D01*
X107632428Y-96607380D01*
X107441952Y-96607380D01*
X107346714Y-96655000D01*
X107251476Y-96750238D01*
X107203857Y-96940714D01*
X107203857Y-97274047D01*
X107251476Y-97464523D01*
X107346714Y-97559761D01*
X107441952Y-97607380D01*
X107632428Y-97607380D01*
X106251476Y-97607380D02*
X106822904Y-97607380D01*
X106537190Y-97607380D02*
X106537190Y-96607380D01*
X106632428Y-96750238D01*
X106727666Y-96845476D01*
X106822904Y-96893095D01*
X112743952Y-100131571D02*
X112601095Y-100179190D01*
X112553476Y-100226809D01*
X112505857Y-100322047D01*
X112505857Y-100464904D01*
X112553476Y-100560142D01*
X112601095Y-100607761D01*
X112696333Y-100655380D01*
X113077285Y-100655380D01*
X113077285Y-99655380D01*
X112743952Y-99655380D01*
X112648714Y-99703000D01*
X112601095Y-99750619D01*
X112553476Y-99845857D01*
X112553476Y-99941095D01*
X112601095Y-100036333D01*
X112648714Y-100083952D01*
X112743952Y-100131571D01*
X113077285Y-100131571D01*
X112124904Y-100607761D02*
X111982047Y-100655380D01*
X111743952Y-100655380D01*
X111648714Y-100607761D01*
X111601095Y-100560142D01*
X111553476Y-100464904D01*
X111553476Y-100369666D01*
X111601095Y-100274428D01*
X111648714Y-100226809D01*
X111743952Y-100179190D01*
X111934428Y-100131571D01*
X112029666Y-100083952D01*
X112077285Y-100036333D01*
X112124904Y-99941095D01*
X112124904Y-99845857D01*
X112077285Y-99750619D01*
X112029666Y-99703000D01*
X111934428Y-99655380D01*
X111696333Y-99655380D01*
X111553476Y-99703000D01*
X111124904Y-100655380D02*
X111124904Y-99655380D01*
X110743952Y-99655380D01*
X110648714Y-99703000D01*
X110601095Y-99750619D01*
X110553476Y-99845857D01*
X110553476Y-99988714D01*
X110601095Y-100083952D01*
X110648714Y-100131571D01*
X110743952Y-100179190D01*
X111124904Y-100179190D01*
X110220142Y-99655380D02*
X109553476Y-99655380D01*
X109982047Y-100655380D01*
X108696333Y-99655380D02*
X109172523Y-99655380D01*
X109220142Y-100131571D01*
X109172523Y-100083952D01*
X109077285Y-100036333D01*
X108839190Y-100036333D01*
X108743952Y-100083952D01*
X108696333Y-100131571D01*
X108648714Y-100226809D01*
X108648714Y-100464904D01*
X108696333Y-100560142D01*
X108743952Y-100607761D01*
X108839190Y-100655380D01*
X109077285Y-100655380D01*
X109172523Y-100607761D01*
X109220142Y-100560142D01*
X108220142Y-100655380D02*
X108220142Y-99655380D01*
X107648714Y-100655380D01*
X107648714Y-99655380D01*
%TO.C,R4*%
X147486666Y-97099380D02*
X147820000Y-96623190D01*
X148058095Y-97099380D02*
X148058095Y-96099380D01*
X147677142Y-96099380D01*
X147581904Y-96147000D01*
X147534285Y-96194619D01*
X147486666Y-96289857D01*
X147486666Y-96432714D01*
X147534285Y-96527952D01*
X147581904Y-96575571D01*
X147677142Y-96623190D01*
X148058095Y-96623190D01*
X146629523Y-96432714D02*
X146629523Y-97099380D01*
X146867619Y-96051761D02*
X147105714Y-96766047D01*
X146486666Y-96766047D01*
X150550476Y-97099380D02*
X151121904Y-97099380D01*
X150836190Y-97099380D02*
X150836190Y-96099380D01*
X150931428Y-96242238D01*
X151026666Y-96337476D01*
X151121904Y-96385095D01*
X149931428Y-96099380D02*
X149836190Y-96099380D01*
X149740952Y-96147000D01*
X149693333Y-96194619D01*
X149645714Y-96289857D01*
X149598095Y-96480333D01*
X149598095Y-96718428D01*
X149645714Y-96908904D01*
X149693333Y-97004142D01*
X149740952Y-97051761D01*
X149836190Y-97099380D01*
X149931428Y-97099380D01*
X150026666Y-97051761D01*
X150074285Y-97004142D01*
X150121904Y-96908904D01*
X150169523Y-96718428D01*
X150169523Y-96480333D01*
X150121904Y-96289857D01*
X150074285Y-96194619D01*
X150026666Y-96147000D01*
X149931428Y-96099380D01*
X149169523Y-97099380D02*
X149169523Y-96099380D01*
X148598095Y-97099380D02*
X149026666Y-96527952D01*
X148598095Y-96099380D02*
X149169523Y-96670809D01*
%TO.C,C6*%
X106719666Y-88749142D02*
X106767285Y-88796761D01*
X106910142Y-88844380D01*
X107005380Y-88844380D01*
X107148238Y-88796761D01*
X107243476Y-88701523D01*
X107291095Y-88606285D01*
X107338714Y-88415809D01*
X107338714Y-88272952D01*
X107291095Y-88082476D01*
X107243476Y-87987238D01*
X107148238Y-87892000D01*
X107005380Y-87844380D01*
X106910142Y-87844380D01*
X106767285Y-87892000D01*
X106719666Y-87939619D01*
X105862523Y-87844380D02*
X106053000Y-87844380D01*
X106148238Y-87892000D01*
X106195857Y-87939619D01*
X106291095Y-88082476D01*
X106338714Y-88272952D01*
X106338714Y-88653904D01*
X106291095Y-88749142D01*
X106243476Y-88796761D01*
X106148238Y-88844380D01*
X105957761Y-88844380D01*
X105862523Y-88796761D01*
X105814904Y-88749142D01*
X105767285Y-88653904D01*
X105767285Y-88415809D01*
X105814904Y-88320571D01*
X105862523Y-88272952D01*
X105957761Y-88225333D01*
X106148238Y-88225333D01*
X106243476Y-88272952D01*
X106291095Y-88320571D01*
X106338714Y-88415809D01*
X105354380Y-89511380D02*
X105354380Y-88939952D01*
X105354380Y-89225666D02*
X104354380Y-89225666D01*
X104497238Y-89130428D01*
X104592476Y-89035190D01*
X104640095Y-88939952D01*
X104354380Y-90130428D02*
X104354380Y-90225666D01*
X104402000Y-90320904D01*
X104449619Y-90368523D01*
X104544857Y-90416142D01*
X104735333Y-90463761D01*
X104973428Y-90463761D01*
X105163904Y-90416142D01*
X105259142Y-90368523D01*
X105306761Y-90320904D01*
X105354380Y-90225666D01*
X105354380Y-90130428D01*
X105306761Y-90035190D01*
X105259142Y-89987571D01*
X105163904Y-89939952D01*
X104973428Y-89892333D01*
X104735333Y-89892333D01*
X104544857Y-89939952D01*
X104449619Y-89987571D01*
X104402000Y-90035190D01*
X104354380Y-90130428D01*
X104354380Y-91082809D02*
X104354380Y-91178047D01*
X104402000Y-91273285D01*
X104449619Y-91320904D01*
X104544857Y-91368523D01*
X104735333Y-91416142D01*
X104973428Y-91416142D01*
X105163904Y-91368523D01*
X105259142Y-91320904D01*
X105306761Y-91273285D01*
X105354380Y-91178047D01*
X105354380Y-91082809D01*
X105306761Y-90987571D01*
X105259142Y-90939952D01*
X105163904Y-90892333D01*
X104973428Y-90844714D01*
X104735333Y-90844714D01*
X104544857Y-90892333D01*
X104449619Y-90939952D01*
X104402000Y-90987571D01*
X104354380Y-91082809D01*
X104687714Y-91844714D02*
X105354380Y-91844714D01*
X104782952Y-91844714D02*
X104735333Y-91892333D01*
X104687714Y-91987571D01*
X104687714Y-92130428D01*
X104735333Y-92225666D01*
X104830571Y-92273285D01*
X105354380Y-92273285D01*
X104830571Y-93082809D02*
X104830571Y-92749476D01*
X105354380Y-92749476D02*
X104354380Y-92749476D01*
X104354380Y-93225666D01*
%TO.C,C2*%
X100941142Y-100163333D02*
X100988761Y-100115714D01*
X101036380Y-99972857D01*
X101036380Y-99877619D01*
X100988761Y-99734761D01*
X100893523Y-99639523D01*
X100798285Y-99591904D01*
X100607809Y-99544285D01*
X100464952Y-99544285D01*
X100274476Y-99591904D01*
X100179238Y-99639523D01*
X100084000Y-99734761D01*
X100036380Y-99877619D01*
X100036380Y-99972857D01*
X100084000Y-100115714D01*
X100131619Y-100163333D01*
X100131619Y-100544285D02*
X100084000Y-100591904D01*
X100036380Y-100687142D01*
X100036380Y-100925238D01*
X100084000Y-101020476D01*
X100131619Y-101068095D01*
X100226857Y-101115714D01*
X100322095Y-101115714D01*
X100464952Y-101068095D01*
X101036380Y-100496666D01*
X101036380Y-101115714D01*
X106370380Y-100052380D02*
X106370380Y-99480952D01*
X106370380Y-99766666D02*
X105370380Y-99766666D01*
X105513238Y-99671428D01*
X105608476Y-99576190D01*
X105656095Y-99480952D01*
X105370380Y-100671428D02*
X105370380Y-100766666D01*
X105418000Y-100861904D01*
X105465619Y-100909523D01*
X105560857Y-100957142D01*
X105751333Y-101004761D01*
X105989428Y-101004761D01*
X106179904Y-100957142D01*
X106275142Y-100909523D01*
X106322761Y-100861904D01*
X106370380Y-100766666D01*
X106370380Y-100671428D01*
X106322761Y-100576190D01*
X106275142Y-100528571D01*
X106179904Y-100480952D01*
X105989428Y-100433333D01*
X105751333Y-100433333D01*
X105560857Y-100480952D01*
X105465619Y-100528571D01*
X105418000Y-100576190D01*
X105370380Y-100671428D01*
X105370380Y-101623809D02*
X105370380Y-101719047D01*
X105418000Y-101814285D01*
X105465619Y-101861904D01*
X105560857Y-101909523D01*
X105751333Y-101957142D01*
X105989428Y-101957142D01*
X106179904Y-101909523D01*
X106275142Y-101861904D01*
X106322761Y-101814285D01*
X106370380Y-101719047D01*
X106370380Y-101623809D01*
X106322761Y-101528571D01*
X106275142Y-101480952D01*
X106179904Y-101433333D01*
X105989428Y-101385714D01*
X105751333Y-101385714D01*
X105560857Y-101433333D01*
X105465619Y-101480952D01*
X105418000Y-101528571D01*
X105370380Y-101623809D01*
X105703714Y-102385714D02*
X106370380Y-102385714D01*
X105798952Y-102385714D02*
X105751333Y-102433333D01*
X105703714Y-102528571D01*
X105703714Y-102671428D01*
X105751333Y-102766666D01*
X105846571Y-102814285D01*
X106370380Y-102814285D01*
X105846571Y-103623809D02*
X105846571Y-103290476D01*
X106370380Y-103290476D02*
X105370380Y-103290476D01*
X105370380Y-103766666D01*
%TO.C,D1*%
X148185095Y-103703380D02*
X148185095Y-102703380D01*
X147947000Y-102703380D01*
X147804142Y-102751000D01*
X147708904Y-102846238D01*
X147661285Y-102941476D01*
X147613666Y-103131952D01*
X147613666Y-103274809D01*
X147661285Y-103465285D01*
X147708904Y-103560523D01*
X147804142Y-103655761D01*
X147947000Y-103703380D01*
X148185095Y-103703380D01*
X146661285Y-103703380D02*
X147232714Y-103703380D01*
X146947000Y-103703380D02*
X146947000Y-102703380D01*
X147042238Y-102846238D01*
X147137476Y-102941476D01*
X147232714Y-102989095D01*
X149677380Y-105148142D02*
X149677380Y-104671952D01*
X148677380Y-104671952D01*
X149153571Y-105481476D02*
X149153571Y-105814809D01*
X149677380Y-105957666D02*
X149677380Y-105481476D01*
X148677380Y-105481476D01*
X148677380Y-105957666D01*
X149677380Y-106386238D02*
X148677380Y-106386238D01*
X148677380Y-106624333D01*
X148725000Y-106767190D01*
X148820238Y-106862428D01*
X148915476Y-106910047D01*
X149105952Y-106957666D01*
X149248809Y-106957666D01*
X149439285Y-106910047D01*
X149534523Y-106862428D01*
X149629761Y-106767190D01*
X149677380Y-106624333D01*
X149677380Y-106386238D01*
%TO.C,C3*%
X100941142Y-102449333D02*
X100988761Y-102401714D01*
X101036380Y-102258857D01*
X101036380Y-102163619D01*
X100988761Y-102020761D01*
X100893523Y-101925523D01*
X100798285Y-101877904D01*
X100607809Y-101830285D01*
X100464952Y-101830285D01*
X100274476Y-101877904D01*
X100179238Y-101925523D01*
X100084000Y-102020761D01*
X100036380Y-102163619D01*
X100036380Y-102258857D01*
X100084000Y-102401714D01*
X100131619Y-102449333D01*
X100036380Y-102782666D02*
X100036380Y-103401714D01*
X100417333Y-103068380D01*
X100417333Y-103211238D01*
X100464952Y-103306476D01*
X100512571Y-103354095D01*
X100607809Y-103401714D01*
X100845904Y-103401714D01*
X100941142Y-103354095D01*
X100988761Y-103306476D01*
X101036380Y-103211238D01*
X101036380Y-102925523D01*
X100988761Y-102830285D01*
X100941142Y-102782666D01*
X104417619Y-104846380D02*
X104989047Y-104846380D01*
X104703333Y-104846380D02*
X104703333Y-103846380D01*
X104798571Y-103989238D01*
X104893809Y-104084476D01*
X104989047Y-104132095D01*
X103798571Y-103846380D02*
X103703333Y-103846380D01*
X103608095Y-103894000D01*
X103560476Y-103941619D01*
X103512857Y-104036857D01*
X103465238Y-104227333D01*
X103465238Y-104465428D01*
X103512857Y-104655904D01*
X103560476Y-104751142D01*
X103608095Y-104798761D01*
X103703333Y-104846380D01*
X103798571Y-104846380D01*
X103893809Y-104798761D01*
X103941428Y-104751142D01*
X103989047Y-104655904D01*
X104036666Y-104465428D01*
X104036666Y-104227333D01*
X103989047Y-104036857D01*
X103941428Y-103941619D01*
X103893809Y-103894000D01*
X103798571Y-103846380D01*
X102846190Y-103846380D02*
X102750952Y-103846380D01*
X102655714Y-103894000D01*
X102608095Y-103941619D01*
X102560476Y-104036857D01*
X102512857Y-104227333D01*
X102512857Y-104465428D01*
X102560476Y-104655904D01*
X102608095Y-104751142D01*
X102655714Y-104798761D01*
X102750952Y-104846380D01*
X102846190Y-104846380D01*
X102941428Y-104798761D01*
X102989047Y-104751142D01*
X103036666Y-104655904D01*
X103084285Y-104465428D01*
X103084285Y-104227333D01*
X103036666Y-104036857D01*
X102989047Y-103941619D01*
X102941428Y-103894000D01*
X102846190Y-103846380D01*
X102084285Y-104179714D02*
X102084285Y-104846380D01*
X102084285Y-104274952D02*
X102036666Y-104227333D01*
X101941428Y-104179714D01*
X101798571Y-104179714D01*
X101703333Y-104227333D01*
X101655714Y-104322571D01*
X101655714Y-104846380D01*
X100846190Y-104322571D02*
X101179523Y-104322571D01*
X101179523Y-104846380D02*
X101179523Y-103846380D01*
X100703333Y-103846380D01*
D12*
%TO.C,R9*%
X162660064Y-97944000D02*
X162205936Y-97944000D01*
X162660064Y-99414000D02*
X162205936Y-99414000D01*
%TO.C,R3*%
X144753064Y-94007000D02*
X144298936Y-94007000D01*
X144753064Y-95477000D02*
X144298936Y-95477000D01*
D13*
%TO.C,U2*%
X101224000Y-97901000D02*
G75*
G03*
X101224000Y-97901000I-100000J0D01*
G01*
D14*
X102724000Y-95401000D02*
X103524000Y-95401000D01*
X101624000Y-97301000D02*
X101624000Y-96501000D01*
X102724000Y-98401000D02*
X103524000Y-98401000D01*
X104624000Y-97301000D02*
X104624000Y-96501000D01*
D12*
%TO.C,R8*%
X144298936Y-89943000D02*
X144753064Y-89943000D01*
X144298936Y-91413000D02*
X144753064Y-91413000D01*
%TO.C,R1*%
X151357000Y-106018064D02*
X151357000Y-105563936D01*
X149887000Y-106018064D02*
X149887000Y-105563936D01*
%TO.C,R5*%
X138965000Y-93191064D02*
X138965000Y-92736936D01*
X140435000Y-93191064D02*
X140435000Y-92736936D01*
%TO.C,R6*%
X133250000Y-93064064D02*
X133250000Y-92609936D01*
X134720000Y-93064064D02*
X134720000Y-92609936D01*
%TO.C,C4*%
X139981000Y-106052252D02*
X139981000Y-105529748D01*
X141451000Y-106052252D02*
X141451000Y-105529748D01*
%TO.C,Q3*%
X130664000Y-98293000D02*
X129404000Y-98293000D01*
X123844000Y-102053000D02*
X123844000Y-98293000D01*
X130664000Y-104303000D02*
X130664000Y-98293000D01*
X123844000Y-98293000D02*
X125104000Y-98293000D01*
D11*
%TO.C,U3*%
X112894000Y-88782000D02*
X112894000Y-89307000D01*
X108594000Y-88782000D02*
X108594000Y-89307000D01*
X108594000Y-88782000D02*
X109119000Y-88782000D01*
X112894000Y-88782000D02*
X112369000Y-88782000D01*
X108594000Y-93082000D02*
X108594000Y-92557000D01*
X112894000Y-93082000D02*
X112894000Y-92557000D01*
X108594000Y-93082000D02*
X109119000Y-93082000D01*
D12*
%TO.C,Q2*%
X122155000Y-98420000D02*
X120895000Y-98420000D01*
X115335000Y-98420000D02*
X116595000Y-98420000D01*
X122155000Y-104430000D02*
X122155000Y-98420000D01*
X115335000Y-102180000D02*
X115335000Y-98420000D01*
%TO.C,R2*%
X143537000Y-106018064D02*
X143537000Y-105563936D01*
X145007000Y-106018064D02*
X145007000Y-105563936D01*
%TO.C,C5*%
X116324748Y-90905000D02*
X116847252Y-90905000D01*
X116324748Y-89435000D02*
X116847252Y-89435000D01*
%TO.C,R7*%
X144298936Y-93445000D02*
X144753064Y-93445000D01*
X144298936Y-91975000D02*
X144753064Y-91975000D01*
%TO.C,U1*%
X147828000Y-97881000D02*
X147028000Y-97881000D01*
X147828000Y-101001000D02*
X148628000Y-101001000D01*
X147828000Y-97881000D02*
X148628000Y-97881000D01*
X147828000Y-101001000D02*
X146028000Y-101001000D01*
%TO.C,R10*%
X166523936Y-95477000D02*
X166978064Y-95477000D01*
X166523936Y-94007000D02*
X166978064Y-94007000D01*
%TO.C,R11*%
X135409000Y-106145064D02*
X135409000Y-105690936D01*
X136879000Y-106145064D02*
X136879000Y-105690936D01*
%TO.C,C1*%
X153443000Y-105529748D02*
X153443000Y-106052252D01*
X154913000Y-105529748D02*
X154913000Y-106052252D01*
%TO.C,Q1*%
X106953000Y-98293000D02*
X108213000Y-98293000D01*
X113773000Y-104303000D02*
X113773000Y-98293000D01*
X113773000Y-98293000D02*
X112513000Y-98293000D01*
X106953000Y-102053000D02*
X106953000Y-98293000D01*
%TO.C,R4*%
X144298936Y-96039000D02*
X144753064Y-96039000D01*
X144298936Y-97509000D02*
X144753064Y-97509000D01*
%TO.C,C6*%
X105945000Y-91320252D02*
X105945000Y-90797748D01*
X107415000Y-91320252D02*
X107415000Y-90797748D01*
%TO.C,C2*%
X102862748Y-101065000D02*
X103385252Y-101065000D01*
X102862748Y-99595000D02*
X103385252Y-99595000D01*
%TO.C,D1*%
X148407000Y-104791000D02*
X148407000Y-107651000D01*
X146487000Y-107651000D02*
X146487000Y-104791000D01*
X148407000Y-107651000D02*
X146487000Y-107651000D01*
%TO.C,C3*%
X102862748Y-103351000D02*
X103385252Y-103351000D01*
X102862748Y-101881000D02*
X103385252Y-101881000D01*
%TD*%
M02*
