%TF.GenerationSoftware,KiCad,Pcbnew,(6.0.6-0)*%
%TF.CreationDate,2023-07-30T17:28:14+02:00*%
%TF.ProjectId,SR23_T04_Avionics_V1-0-0,53523233-5f54-4303-945f-4176696f6e69,rev?*%
%TF.SameCoordinates,Original*%
%TF.FileFunction,Soldermask,Bot*%
%TF.FilePolarity,Negative*%
%FSLAX46Y46*%
G04 Gerber Fmt 4.6, Leading zero omitted, Abs format (unit mm)*
G04 Created by KiCad (PCBNEW (6.0.6-0)) date 2023-07-30 17:28:14*
%MOMM*%
%LPD*%
G01*
G04 APERTURE LIST*
G04 Aperture macros list*
%AMRoundRect*
0 Rectangle with rounded corners*
0 $1 Rounding radius*
0 $2 $3 $4 $5 $6 $7 $8 $9 X,Y pos of 4 corners*
0 Add a 4 corners polygon primitive as box body*
4,1,4,$2,$3,$4,$5,$6,$7,$8,$9,$2,$3,0*
0 Add four circle primitives for the rounded corners*
1,1,$1+$1,$2,$3*
1,1,$1+$1,$4,$5*
1,1,$1+$1,$6,$7*
1,1,$1+$1,$8,$9*
0 Add four rect primitives between the rounded corners*
20,1,$1+$1,$2,$3,$4,$5,0*
20,1,$1+$1,$4,$5,$6,$7,0*
20,1,$1+$1,$6,$7,$8,$9,0*
20,1,$1+$1,$8,$9,$2,$3,0*%
G04 Aperture macros list end*
%ADD10R,1.700000X1.700000*%
%ADD11O,1.700000X1.700000*%
%ADD12R,1.400000X1.400000*%
%ADD13C,1.400000*%
%ADD14C,3.200000*%
%ADD15RoundRect,0.250000X0.600000X0.750000X-0.600000X0.750000X-0.600000X-0.750000X0.600000X-0.750000X0*%
%ADD16O,1.700000X2.000000*%
%ADD17R,1.600000X1.600000*%
%ADD18O,1.600000X1.600000*%
%ADD19RoundRect,0.250000X0.350000X0.450000X-0.350000X0.450000X-0.350000X-0.450000X0.350000X-0.450000X0*%
%ADD20R,1.000000X1.000000*%
%ADD21RoundRect,0.250000X-0.350000X-0.450000X0.350000X-0.450000X0.350000X0.450000X-0.350000X0.450000X0*%
%ADD22RoundRect,0.250000X0.450000X-0.350000X0.450000X0.350000X-0.450000X0.350000X-0.450000X-0.350000X0*%
%ADD23RoundRect,0.250000X0.475000X-0.337500X0.475000X0.337500X-0.475000X0.337500X-0.475000X-0.337500X0*%
%ADD24R,1.500000X2.000000*%
%ADD25R,3.800000X2.000000*%
%ADD26RoundRect,0.075000X0.075000X-0.350000X0.075000X0.350000X-0.075000X0.350000X-0.075000X-0.350000X0*%
%ADD27RoundRect,0.075000X-0.350000X-0.075000X0.350000X-0.075000X0.350000X0.075000X-0.350000X0.075000X0*%
%ADD28RoundRect,0.250000X-0.337500X-0.475000X0.337500X-0.475000X0.337500X0.475000X-0.337500X0.475000X0*%
%ADD29RoundRect,0.150000X-0.512500X-0.150000X0.512500X-0.150000X0.512500X0.150000X-0.512500X0.150000X0*%
%ADD30RoundRect,0.250000X-0.475000X0.337500X-0.475000X-0.337500X0.475000X-0.337500X0.475000X0.337500X0*%
%ADD31RoundRect,0.250000X0.450000X-0.325000X0.450000X0.325000X-0.450000X0.325000X-0.450000X-0.325000X0*%
G04 APERTURE END LIST*
D10*
%TO.C,J8*%
X162799000Y-101346000D03*
D11*
X160259000Y-101346000D03*
X157719000Y-101346000D03*
%TD*%
D12*
%TO.C,J12*%
X125603000Y-105963000D03*
D13*
X129413000Y-105963000D03*
%TD*%
D14*
%TO.C,H4*%
X176530000Y-106934000D03*
%TD*%
%TO.C,H2*%
X102743000Y-106934000D03*
%TD*%
%TO.C,H1*%
X102743000Y-91186000D03*
%TD*%
D10*
%TO.C,J6*%
X140585819Y-99060000D03*
%TD*%
D15*
%TO.C,J5*%
X170267000Y-92075000D03*
D16*
X167767000Y-92075000D03*
%TD*%
D10*
%TO.C,J14*%
X158745000Y-89916000D03*
D11*
X161285000Y-89916000D03*
%TD*%
D12*
%TO.C,J11*%
X108331000Y-105963000D03*
D13*
X112141000Y-105963000D03*
%TD*%
D17*
%TO.C,SW1*%
X177790000Y-100335000D03*
D18*
X177790000Y-97795000D03*
X170170000Y-97795000D03*
X170170000Y-100335000D03*
%TD*%
D15*
%TO.C,J4*%
X170287000Y-107078000D03*
D16*
X167787000Y-107078000D03*
%TD*%
D12*
%TO.C,J10*%
X116967000Y-105963000D03*
D13*
X120777000Y-105963000D03*
%TD*%
D10*
%TO.C,J7*%
X162814000Y-96012000D03*
D11*
X160274000Y-96012000D03*
X157734000Y-96012000D03*
%TD*%
D14*
%TO.C,H3*%
X176530000Y-91186000D03*
%TD*%
D10*
%TO.C,J9*%
X162799000Y-106553000D03*
D11*
X160259000Y-106553000D03*
X157719000Y-106553000D03*
%TD*%
D19*
%TO.C,R9*%
X163433000Y-98679000D03*
X161433000Y-98679000D03*
%TD*%
%TO.C,R3*%
X145526000Y-94742000D03*
X143526000Y-94742000D03*
%TD*%
D20*
%TO.C,U2*%
X104124000Y-97901000D03*
X104124000Y-95901000D03*
X102124000Y-95901000D03*
X102124000Y-97901000D03*
%TD*%
D21*
%TO.C,R8*%
X143526000Y-90678000D03*
X145526000Y-90678000D03*
%TD*%
D22*
%TO.C,R1*%
X150622000Y-106791000D03*
X150622000Y-104791000D03*
%TD*%
%TO.C,R5*%
X139700000Y-93964000D03*
X139700000Y-91964000D03*
%TD*%
%TO.C,R6*%
X133985000Y-93837000D03*
X133985000Y-91837000D03*
%TD*%
D23*
%TO.C,C4*%
X140716000Y-106828500D03*
X140716000Y-104753500D03*
%TD*%
D24*
%TO.C,Q3*%
X129554000Y-103353000D03*
X127254000Y-103353000D03*
X124954000Y-103353000D03*
D25*
X127254000Y-97053000D03*
%TD*%
D26*
%TO.C,U3*%
X111994000Y-92882000D03*
X111494000Y-92882000D03*
X110994000Y-92882000D03*
X110494000Y-92882000D03*
X109994000Y-92882000D03*
X109494000Y-92882000D03*
D27*
X108794000Y-92182000D03*
X108794000Y-91682000D03*
X108794000Y-91182000D03*
X108794000Y-90682000D03*
X108794000Y-90182000D03*
X108794000Y-89682000D03*
D26*
X109494000Y-88982000D03*
X109994000Y-88982000D03*
X110494000Y-88982000D03*
X110994000Y-88982000D03*
X111494000Y-88982000D03*
X111994000Y-88982000D03*
D27*
X112694000Y-89682000D03*
X112694000Y-90182000D03*
X112694000Y-90682000D03*
X112694000Y-91182000D03*
X112694000Y-91682000D03*
X112694000Y-92182000D03*
%TD*%
D24*
%TO.C,Q2*%
X121045000Y-103480000D03*
X118745000Y-103480000D03*
X116445000Y-103480000D03*
D25*
X118745000Y-97180000D03*
%TD*%
D22*
%TO.C,R2*%
X144272000Y-106791000D03*
X144272000Y-104791000D03*
%TD*%
D28*
%TO.C,C5*%
X117623500Y-90170000D03*
X115548500Y-90170000D03*
%TD*%
D21*
%TO.C,R7*%
X143526000Y-92710000D03*
X145526000Y-92710000D03*
%TD*%
D29*
%TO.C,U1*%
X146690500Y-100391000D03*
X146690500Y-99441000D03*
X146690500Y-98491000D03*
X148965500Y-98491000D03*
X148965500Y-100391000D03*
%TD*%
D21*
%TO.C,R10*%
X165751000Y-94742000D03*
X167751000Y-94742000D03*
%TD*%
D22*
%TO.C,R11*%
X136144000Y-106918000D03*
X136144000Y-104918000D03*
%TD*%
D30*
%TO.C,C1*%
X154178000Y-104753500D03*
X154178000Y-106828500D03*
%TD*%
D24*
%TO.C,Q1*%
X112663000Y-103353000D03*
X110363000Y-103353000D03*
X108063000Y-103353000D03*
D25*
X110363000Y-97053000D03*
%TD*%
D21*
%TO.C,R4*%
X143526000Y-96774000D03*
X145526000Y-96774000D03*
%TD*%
D23*
%TO.C,C6*%
X106680000Y-92096500D03*
X106680000Y-90021500D03*
%TD*%
D28*
%TO.C,C2*%
X102086500Y-100330000D03*
X104161500Y-100330000D03*
%TD*%
D31*
%TO.C,D1*%
X147447000Y-106816000D03*
X147447000Y-104766000D03*
%TD*%
D28*
%TO.C,C3*%
X102086500Y-102616000D03*
X104161500Y-102616000D03*
%TD*%
M02*
