M48
; DRILL file {KiCad (6.0.6-0)} date 2023 July 30, Sunday 17:28:10
; FORMAT={-:-/ absolute / inch / decimal}
; #@! TF.CreationDate,2023-07-30T17:28:10+02:00
; #@! TF.GenerationSoftware,Kicad,Pcbnew,(6.0.6-0)
; #@! TF.FileFunction,Plated,1,2,PTH
FMAT,2
INCH
; #@! TA.AperFunction,Plated,PTH,ViaDrill
T1C0.0157
; #@! TA.AperFunction,Plated,PTH,ViaDrill
T2C0.0236
; #@! TA.AperFunction,Plated,PTH,ComponentDrill
T3C0.0276
; #@! TA.AperFunction,Plated,PTH,ComponentDrill
T4C0.0315
; #@! TA.AperFunction,Plated,PTH,ComponentDrill
T5C0.0394
%
G90
G05
T1
X4.06Y-3.895
X4.2Y-3.4974
X4.25Y-3.7008
X4.345Y-3.995
X4.3764Y-3.7513
X4.445Y-3.72
X4.5Y-3.64
X4.525Y-4.025
X4.5425Y-3.7225
X4.605Y-3.66
X4.645Y-3.7523
X4.675Y-3.9896
X4.7558Y-3.7523
X4.82Y-4.14
X4.83Y-3.675
X4.85Y-4.0496
X5.0026Y-3.7518
X5.01Y-4.005
X5.105Y-3.7523
X5.2Y-3.675
X5.2782Y-4.227
X5.44Y-3.7504
X5.5Y-3.795
X5.5646Y-3.715
X5.59Y-3.57
X5.6Y-3.65
X5.6Y-4.205
X5.685Y-3.92
X5.74Y-4.125
X5.77Y-4.0
X5.865Y-4.125
X5.865Y-4.175
X5.885Y-4.0
X5.93Y-3.875
X5.99Y-4.07
T2
X4.21Y-3.78
X5.1495Y-4.1205
X5.275Y-3.7478
X5.275Y-3.795
X5.2981Y-4.1628
X5.3144Y-3.558
X5.445Y-4.21
X5.5Y-3.57
X5.79Y-3.67
X5.885Y-3.58
X5.915Y-3.745
X6.135Y-3.54
X6.155Y-3.7
X6.25Y-3.655
X6.49Y-3.91
X6.505Y-3.78
T3
X4.265Y-4.1718
X4.415Y-4.1718
X4.605Y-4.1718
X4.755Y-4.1718
X4.945Y-4.1718
X5.095Y-4.1718
T4
X6.6996Y-3.8502
X6.6996Y-3.9502
X6.9996Y-3.8502
X6.9996Y-3.9502
T5
X5.5349Y-3.9
X6.2094Y-3.99
X6.2094Y-4.195
X6.21Y-3.78
X6.2498Y-3.54
X6.3094Y-3.99
X6.3094Y-4.195
X6.31Y-3.78
X6.3498Y-3.54
X6.4094Y-3.99
X6.4094Y-4.195
X6.41Y-3.78
X6.605Y-3.625
X6.6058Y-4.2157
X6.7034Y-3.625
X6.7042Y-4.2157
T0
M30
