%TF.GenerationSoftware,KiCad,Pcbnew,(6.0.6-0)*%
%TF.CreationDate,2023-07-30T17:28:14+02:00*%
%TF.ProjectId,SR23_T04_Avionics_V1-0-0,53523233-5f54-4303-945f-4176696f6e69,rev?*%
%TF.SameCoordinates,Original*%
%TF.FileFunction,Soldermask,Top*%
%TF.FilePolarity,Negative*%
%FSLAX46Y46*%
G04 Gerber Fmt 4.6, Leading zero omitted, Abs format (unit mm)*
G04 Created by KiCad (PCBNEW (6.0.6-0)) date 2023-07-30 17:28:14*
%MOMM*%
%LPD*%
G01*
G04 APERTURE LIST*
G04 Aperture macros list*
%AMRoundRect*
0 Rectangle with rounded corners*
0 $1 Rounding radius*
0 $2 $3 $4 $5 $6 $7 $8 $9 X,Y pos of 4 corners*
0 Add a 4 corners polygon primitive as box body*
4,1,4,$2,$3,$4,$5,$6,$7,$8,$9,$2,$3,0*
0 Add four circle primitives for the rounded corners*
1,1,$1+$1,$2,$3*
1,1,$1+$1,$4,$5*
1,1,$1+$1,$6,$7*
1,1,$1+$1,$8,$9*
0 Add four rect primitives between the rounded corners*
20,1,$1+$1,$2,$3,$4,$5,0*
20,1,$1+$1,$4,$5,$6,$7,0*
20,1,$1+$1,$6,$7,$8,$9,0*
20,1,$1+$1,$8,$9,$2,$3,0*%
G04 Aperture macros list end*
%ADD10RoundRect,0.800000X-0.700000X0.000000X0.700000X0.000000X0.700000X0.000000X-0.700000X0.000000X0*%
%ADD11RoundRect,0.250000X-0.325000X-0.450000X0.325000X-0.450000X0.325000X0.450000X-0.325000X0.450000X0*%
%ADD12R,1.700000X1.700000*%
%ADD13O,1.700000X1.700000*%
%ADD14R,1.400000X1.400000*%
%ADD15C,1.400000*%
%ADD16C,3.200000*%
%ADD17RoundRect,0.250000X0.325000X0.450000X-0.325000X0.450000X-0.325000X-0.450000X0.325000X-0.450000X0*%
%ADD18RoundRect,0.250000X0.600000X0.750000X-0.600000X0.750000X-0.600000X-0.750000X0.600000X-0.750000X0*%
%ADD19O,1.700000X2.000000*%
%ADD20RoundRect,0.250000X-0.350000X-0.450000X0.350000X-0.450000X0.350000X0.450000X-0.350000X0.450000X0*%
%ADD21RoundRect,0.150000X0.150000X0.625000X-0.150000X0.625000X-0.150000X-0.625000X0.150000X-0.625000X0*%
%ADD22RoundRect,0.250000X0.350000X0.650000X-0.350000X0.650000X-0.350000X-0.650000X0.350000X-0.650000X0*%
%ADD23R,1.600000X1.600000*%
%ADD24O,1.600000X1.600000*%
%ADD25RoundRect,0.250000X0.450000X-0.325000X0.450000X0.325000X-0.450000X0.325000X-0.450000X-0.325000X0*%
G04 APERTURE END LIST*
D10*
%TO.C,U4*%
X136129000Y-91805250D03*
X136129000Y-94345250D03*
X136129000Y-96885250D03*
X136129000Y-99425250D03*
X136129000Y-101965250D03*
X136129000Y-104505250D03*
X136129000Y-107045250D03*
X153909000Y-107045250D03*
X153909000Y-104505250D03*
X153909000Y-101965250D03*
X153909000Y-99425250D03*
X153909000Y-96885250D03*
X153909000Y-94345250D03*
X153909000Y-91805250D03*
%TD*%
D11*
%TO.C,D2*%
X165599000Y-100711000D03*
X167649000Y-100711000D03*
%TD*%
D12*
%TO.C,J8*%
X162799000Y-101346000D03*
D13*
X160259000Y-101346000D03*
X157719000Y-101346000D03*
%TD*%
D14*
%TO.C,J12*%
X125603000Y-105963000D03*
D15*
X129413000Y-105963000D03*
%TD*%
D16*
%TO.C,H4*%
X176530000Y-106934000D03*
%TD*%
%TO.C,H2*%
X102743000Y-106934000D03*
%TD*%
D17*
%TO.C,D5*%
X111388000Y-99568000D03*
X109338000Y-99568000D03*
%TD*%
D16*
%TO.C,H1*%
X102743000Y-91186000D03*
%TD*%
D12*
%TO.C,J6*%
X140585819Y-99060000D03*
%TD*%
D18*
%TO.C,J5*%
X170267000Y-92075000D03*
D19*
X167767000Y-92075000D03*
%TD*%
D20*
%TO.C,R12*%
X109363000Y-97536000D03*
X111363000Y-97536000D03*
%TD*%
D17*
%TO.C,D7*%
X128279000Y-99568000D03*
X126229000Y-99568000D03*
%TD*%
D12*
%TO.C,J14*%
X158745000Y-89916000D03*
D13*
X161285000Y-89916000D03*
%TD*%
D21*
%TO.C,J2*%
X121515000Y-93313000D03*
X120515000Y-93313000D03*
X119515000Y-93313000D03*
X118515000Y-93313000D03*
D22*
X117215000Y-89438000D03*
X122815000Y-89438000D03*
%TD*%
D14*
%TO.C,J11*%
X108331000Y-105963000D03*
D15*
X112141000Y-105963000D03*
%TD*%
D23*
%TO.C,SW1*%
X177790000Y-100335000D03*
D24*
X177790000Y-97795000D03*
X170170000Y-97795000D03*
X170170000Y-100335000D03*
%TD*%
D18*
%TO.C,J4*%
X170287000Y-107078000D03*
D19*
X167787000Y-107078000D03*
%TD*%
D14*
%TO.C,J10*%
X116967000Y-105963000D03*
D15*
X120777000Y-105963000D03*
%TD*%
D20*
%TO.C,R13*%
X117745000Y-97536000D03*
X119745000Y-97536000D03*
%TD*%
D12*
%TO.C,J7*%
X162814000Y-96012000D03*
D13*
X160274000Y-96012000D03*
X157734000Y-96012000D03*
%TD*%
D17*
%TO.C,D6*%
X119770000Y-99568000D03*
X117720000Y-99568000D03*
%TD*%
D25*
%TO.C,D4*%
X132715000Y-107070000D03*
X132715000Y-105020000D03*
%TD*%
D22*
%TO.C,J3*%
X132086000Y-89438000D03*
X126486000Y-89438000D03*
D21*
X127786000Y-93313000D03*
X128786000Y-93313000D03*
X129786000Y-93313000D03*
X130786000Y-93313000D03*
%TD*%
D11*
%TO.C,D3*%
X165599000Y-97663000D03*
X167649000Y-97663000D03*
%TD*%
D16*
%TO.C,H3*%
X176530000Y-91186000D03*
%TD*%
D12*
%TO.C,J9*%
X162799000Y-106553000D03*
D13*
X160259000Y-106553000D03*
X157719000Y-106553000D03*
%TD*%
D21*
%TO.C,J1*%
X112244000Y-93313000D03*
X111244000Y-93313000D03*
X110244000Y-93313000D03*
X109244000Y-93313000D03*
D22*
X113544000Y-89438000D03*
X107944000Y-89438000D03*
%TD*%
D20*
%TO.C,R14*%
X126254000Y-97536000D03*
X128254000Y-97536000D03*
%TD*%
M02*
