%TF.GenerationSoftware,KiCad,Pcbnew,(6.0.6-0)*%
%TF.CreationDate,2023-07-30T17:28:14+02:00*%
%TF.ProjectId,SR23_T04_Avionics_V1-0-0,53523233-5f54-4303-945f-4176696f6e69,rev?*%
%TF.SameCoordinates,Original*%
%TF.FileFunction,Copper,L1,Top*%
%TF.FilePolarity,Positive*%
%FSLAX46Y46*%
G04 Gerber Fmt 4.6, Leading zero omitted, Abs format (unit mm)*
G04 Created by KiCad (PCBNEW (6.0.6-0)) date 2023-07-30 17:28:14*
%MOMM*%
%LPD*%
G01*
G04 APERTURE LIST*
G04 Aperture macros list*
%AMRoundRect*
0 Rectangle with rounded corners*
0 $1 Rounding radius*
0 $2 $3 $4 $5 $6 $7 $8 $9 X,Y pos of 4 corners*
0 Add a 4 corners polygon primitive as box body*
4,1,4,$2,$3,$4,$5,$6,$7,$8,$9,$2,$3,0*
0 Add four circle primitives for the rounded corners*
1,1,$1+$1,$2,$3*
1,1,$1+$1,$4,$5*
1,1,$1+$1,$6,$7*
1,1,$1+$1,$8,$9*
0 Add four rect primitives between the rounded corners*
20,1,$1+$1,$2,$3,$4,$5,0*
20,1,$1+$1,$4,$5,$6,$7,0*
20,1,$1+$1,$6,$7,$8,$9,0*
20,1,$1+$1,$8,$9,$2,$3,0*%
G04 Aperture macros list end*
%TA.AperFunction,SMDPad,CuDef*%
%ADD10RoundRect,0.800000X-0.700000X0.000000X0.700000X0.000000X0.700000X0.000000X-0.700000X0.000000X0*%
%TD*%
%TA.AperFunction,SMDPad,CuDef*%
%ADD11RoundRect,0.250000X-0.325000X-0.450000X0.325000X-0.450000X0.325000X0.450000X-0.325000X0.450000X0*%
%TD*%
%TA.AperFunction,ComponentPad*%
%ADD12R,1.700000X1.700000*%
%TD*%
%TA.AperFunction,ComponentPad*%
%ADD13O,1.700000X1.700000*%
%TD*%
%TA.AperFunction,ComponentPad*%
%ADD14R,1.400000X1.400000*%
%TD*%
%TA.AperFunction,ComponentPad*%
%ADD15C,1.400000*%
%TD*%
%TA.AperFunction,SMDPad,CuDef*%
%ADD16RoundRect,0.250000X0.325000X0.450000X-0.325000X0.450000X-0.325000X-0.450000X0.325000X-0.450000X0*%
%TD*%
%TA.AperFunction,ComponentPad*%
%ADD17RoundRect,0.250000X0.600000X0.750000X-0.600000X0.750000X-0.600000X-0.750000X0.600000X-0.750000X0*%
%TD*%
%TA.AperFunction,ComponentPad*%
%ADD18O,1.700000X2.000000*%
%TD*%
%TA.AperFunction,SMDPad,CuDef*%
%ADD19RoundRect,0.250000X-0.350000X-0.450000X0.350000X-0.450000X0.350000X0.450000X-0.350000X0.450000X0*%
%TD*%
%TA.AperFunction,SMDPad,CuDef*%
%ADD20RoundRect,0.150000X0.150000X0.625000X-0.150000X0.625000X-0.150000X-0.625000X0.150000X-0.625000X0*%
%TD*%
%TA.AperFunction,SMDPad,CuDef*%
%ADD21RoundRect,0.250000X0.350000X0.650000X-0.350000X0.650000X-0.350000X-0.650000X0.350000X-0.650000X0*%
%TD*%
%TA.AperFunction,ComponentPad*%
%ADD22R,1.600000X1.600000*%
%TD*%
%TA.AperFunction,ComponentPad*%
%ADD23O,1.600000X1.600000*%
%TD*%
%TA.AperFunction,SMDPad,CuDef*%
%ADD24RoundRect,0.250000X0.450000X-0.325000X0.450000X0.325000X-0.450000X0.325000X-0.450000X-0.325000X0*%
%TD*%
%TA.AperFunction,ViaPad*%
%ADD25C,1.000000*%
%TD*%
%TA.AperFunction,ViaPad*%
%ADD26C,0.800000*%
%TD*%
%TA.AperFunction,Conductor*%
%ADD27C,0.600000*%
%TD*%
%TA.AperFunction,Conductor*%
%ADD28C,0.400000*%
%TD*%
%TA.AperFunction,Conductor*%
%ADD29C,1.000000*%
%TD*%
%TA.AperFunction,Conductor*%
%ADD30C,2.000000*%
%TD*%
%TA.AperFunction,Conductor*%
%ADD31C,1.500000*%
%TD*%
%TA.AperFunction,Conductor*%
%ADD32C,0.300000*%
%TD*%
G04 APERTURE END LIST*
D10*
%TO.P,U4,1,PA02_A0_D0*%
%TO.N,MON_BAT_uC*%
X136129000Y-91805250D03*
%TO.P,U4,2,PA4_A1_D1*%
%TO.N,MON_BAT_POWER*%
X136129000Y-94345250D03*
%TO.P,U4,3,PA10_A2_D2*%
%TO.N,OUT1*%
X136129000Y-96885250D03*
%TO.P,U4,4,PA11_A3_D3*%
%TO.N,OUT2*%
X136129000Y-99425250D03*
%TO.P,U4,5,PA8_A4_D4_SDA*%
%TO.N,SDA*%
X136129000Y-101965250D03*
%TO.P,U4,6,PA9_A5_D5_SCL*%
%TO.N,SCL*%
X136129000Y-104505250D03*
%TO.P,U4,7,PB08_A6_D6_TX*%
%TO.N,OUT3*%
X136129000Y-107045250D03*
%TO.P,U4,8,PB09_A7_D7_RX*%
%TO.N,OUT4*%
X153909000Y-107045250D03*
%TO.P,U4,9,PA7_A8_D8_SCK*%
%TO.N,Servo3*%
X153909000Y-104505250D03*
%TO.P,U4,10,PA5_A9_D9_MISO*%
%TO.N,Servo2*%
X153909000Y-101965250D03*
%TO.P,U4,11,PA6_A10_D10_MOSI*%
%TO.N,Servo1*%
X153909000Y-99425250D03*
%TO.P,U4,12,3V3*%
%TO.N,+3.3V*%
X153909000Y-96885250D03*
%TO.P,U4,13,GND*%
%TO.N,GND*%
X153909000Y-94345250D03*
%TO.P,U4,14,5V*%
%TO.N,VUSB*%
X153909000Y-91805250D03*
%TD*%
D11*
%TO.P,D2,1,K*%
%TO.N,Net-(D2-Pad1)*%
X165599000Y-100711000D03*
%TO.P,D2,2,A*%
%TO.N,DIP_1b*%
X167649000Y-100711000D03*
%TD*%
D12*
%TO.P,J8,1,Pin_1*%
%TO.N,GND*%
X162799000Y-101346000D03*
D13*
%TO.P,J8,2,Pin_2*%
%TO.N,DIP_1b*%
X160259000Y-101346000D03*
%TO.P,J8,3,Pin_3*%
%TO.N,Servo2*%
X157719000Y-101346000D03*
%TD*%
D14*
%TO.P,J12,1,Pin_1*%
%TO.N,DIP_1b*%
X125603000Y-105963000D03*
D15*
%TO.P,J12,2,Pin_2*%
%TO.N,Net-(J12-Pad2)*%
X129413000Y-105963000D03*
%TD*%
D16*
%TO.P,D5,1,K*%
%TO.N,Net-(D5-Pad1)*%
X111388000Y-99568000D03*
%TO.P,D5,2,A*%
%TO.N,DIP_1b*%
X109338000Y-99568000D03*
%TD*%
D12*
%TO.P,J6,1,Pin_1*%
%TO.N,DIP_2b*%
X140585819Y-99060000D03*
%TD*%
D17*
%TO.P,J5,1,Pin_1*%
%TO.N,DIP_2a*%
X170267000Y-92075000D03*
D18*
%TO.P,J5,2,Pin_2*%
%TO.N,GND*%
X167767000Y-92075000D03*
%TD*%
D19*
%TO.P,R12,1*%
%TO.N,Net-(D5-Pad1)*%
X109363000Y-97536000D03*
%TO.P,R12,2*%
%TO.N,Net-(J11-Pad2)*%
X111363000Y-97536000D03*
%TD*%
D16*
%TO.P,D7,1,K*%
%TO.N,Net-(D7-Pad1)*%
X128279000Y-99568000D03*
%TO.P,D7,2,A*%
%TO.N,DIP_1b*%
X126229000Y-99568000D03*
%TD*%
D12*
%TO.P,J14,1,Pin_1*%
%TO.N,VUSB*%
X158745000Y-89916000D03*
D13*
%TO.P,J14,2,Pin_2*%
%TO.N,GND*%
X161285000Y-89916000D03*
%TD*%
D20*
%TO.P,J2,1,Pin_1*%
%TO.N,GND*%
X121515000Y-93313000D03*
%TO.P,J2,2,Pin_2*%
%TO.N,+3.3V*%
X120515000Y-93313000D03*
%TO.P,J2,3,Pin_3*%
%TO.N,SDA*%
X119515000Y-93313000D03*
%TO.P,J2,4,Pin_4*%
%TO.N,SCL*%
X118515000Y-93313000D03*
D21*
%TO.P,J2,MP*%
%TO.N,N/C*%
X117215000Y-89438000D03*
X122815000Y-89438000D03*
%TD*%
D14*
%TO.P,J11,1,Pin_1*%
%TO.N,DIP_1b*%
X108331000Y-105963000D03*
D15*
%TO.P,J11,2,Pin_2*%
%TO.N,Net-(J11-Pad2)*%
X112141000Y-105963000D03*
%TD*%
D22*
%TO.P,SW1,1*%
%TO.N,DIP_1a*%
X177790000Y-100335000D03*
D23*
%TO.P,SW1,2*%
%TO.N,DIP_2a*%
X177790000Y-97795000D03*
%TO.P,SW1,3*%
%TO.N,DIP_2b*%
X170170000Y-97795000D03*
%TO.P,SW1,4*%
%TO.N,DIP_1b*%
X170170000Y-100335000D03*
%TD*%
D17*
%TO.P,J4,1,Pin_1*%
%TO.N,DIP_1a*%
X170287000Y-107078000D03*
D18*
%TO.P,J4,2,Pin_2*%
%TO.N,GND*%
X167787000Y-107078000D03*
%TD*%
D14*
%TO.P,J10,1,Pin_1*%
%TO.N,DIP_1b*%
X116967000Y-105963000D03*
D15*
%TO.P,J10,2,Pin_2*%
%TO.N,Net-(J10-Pad2)*%
X120777000Y-105963000D03*
%TD*%
D19*
%TO.P,R13,1*%
%TO.N,Net-(D6-Pad1)*%
X117745000Y-97536000D03*
%TO.P,R13,2*%
%TO.N,Net-(J10-Pad2)*%
X119745000Y-97536000D03*
%TD*%
D12*
%TO.P,J7,1,Pin_1*%
%TO.N,GND*%
X162814000Y-96012000D03*
D13*
%TO.P,J7,2,Pin_2*%
%TO.N,DIP_1b*%
X160274000Y-96012000D03*
%TO.P,J7,3,Pin_3*%
%TO.N,Servo1*%
X157734000Y-96012000D03*
%TD*%
D16*
%TO.P,D6,1,K*%
%TO.N,Net-(D6-Pad1)*%
X119770000Y-99568000D03*
%TO.P,D6,2,A*%
%TO.N,DIP_1b*%
X117720000Y-99568000D03*
%TD*%
D24*
%TO.P,D4,1,K*%
%TO.N,GND*%
X132715000Y-107070000D03*
%TO.P,D4,2,A*%
%TO.N,Net-(D4-Pad2)*%
X132715000Y-105020000D03*
%TD*%
D21*
%TO.P,J3,MP*%
%TO.N,N/C*%
X132086000Y-89438000D03*
X126486000Y-89438000D03*
D20*
%TO.P,J3,4,Pin_4*%
%TO.N,SCL*%
X127786000Y-93313000D03*
%TO.P,J3,3,Pin_3*%
%TO.N,SDA*%
X128786000Y-93313000D03*
%TO.P,J3,2,Pin_2*%
%TO.N,+3.3V*%
X129786000Y-93313000D03*
%TO.P,J3,1,Pin_1*%
%TO.N,GND*%
X130786000Y-93313000D03*
%TD*%
D11*
%TO.P,D3,1,K*%
%TO.N,Net-(D3-Pad1)*%
X165599000Y-97663000D03*
%TO.P,D3,2,A*%
%TO.N,DIP_2b*%
X167649000Y-97663000D03*
%TD*%
D12*
%TO.P,J9,1,Pin_1*%
%TO.N,GND*%
X162799000Y-106553000D03*
D13*
%TO.P,J9,2,Pin_2*%
%TO.N,DIP_1b*%
X160259000Y-106553000D03*
%TO.P,J9,3,Pin_3*%
%TO.N,Servo3*%
X157719000Y-106553000D03*
%TD*%
D20*
%TO.P,J1,1,Pin_1*%
%TO.N,GND*%
X112244000Y-93313000D03*
%TO.P,J1,2,Pin_2*%
%TO.N,+3.3V*%
X111244000Y-93313000D03*
%TO.P,J1,3,Pin_3*%
%TO.N,SDA*%
X110244000Y-93313000D03*
%TO.P,J1,4,Pin_4*%
%TO.N,SCL*%
X109244000Y-93313000D03*
D21*
%TO.P,J1,MP*%
%TO.N,N/C*%
X113544000Y-89438000D03*
X107944000Y-89438000D03*
%TD*%
D19*
%TO.P,R14,1*%
%TO.N,Net-(D7-Pad1)*%
X126254000Y-97536000D03*
%TO.P,R14,2*%
%TO.N,Net-(J12-Pad2)*%
X128254000Y-97536000D03*
%TD*%
D25*
%TO.N,VUSB*%
X150241000Y-95123000D03*
D26*
X152146000Y-103378000D03*
X148971000Y-104775000D03*
X150622000Y-98425000D03*
%TO.N,GND*%
X114300000Y-92456000D03*
X132080000Y-93345000D03*
X122682000Y-93345000D03*
X134066869Y-107366500D03*
D25*
X156337000Y-93980000D03*
%TO.N,+3.3V*%
X139700000Y-90678000D03*
D26*
X112903000Y-94488500D03*
D25*
X134985177Y-90372936D03*
D26*
X106680000Y-88834500D03*
X103124000Y-98933000D03*
X107950000Y-94001500D03*
D25*
%TO.N,Net-(D2-Pad1)*%
X164846000Y-99314000D03*
%TO.N,Net-(D3-Pad1)*%
X165227000Y-96012000D03*
%TO.N,DIP_2b*%
X155829000Y-89916000D03*
X149479000Y-90932000D03*
D26*
X142240000Y-92710000D03*
D25*
X158750000Y-92837000D03*
X147066000Y-93218000D03*
D26*
%TO.N,SDA*%
X115380543Y-94552543D03*
X120798269Y-95309500D03*
X138176000Y-95260500D03*
X117983000Y-95309500D03*
D25*
X133985000Y-95193497D03*
D26*
X127065066Y-95296211D03*
X129667000Y-95309500D03*
X111161293Y-95284207D03*
%TO.N,SCL*%
X116968043Y-92965043D03*
D25*
X106934000Y-96012000D03*
X133985000Y-96393000D03*
D26*
X139700000Y-96393000D03*
%TO.N,OUT1*%
X114935000Y-102235000D03*
D25*
%TO.N,OUT3*%
X138303000Y-106934000D03*
D26*
%TO.N,OUT2*%
X122428000Y-105156000D03*
D25*
%TO.N,OUT4*%
X130796395Y-104660899D03*
D26*
%TO.N,Net-(R1-Pad1)*%
X148971000Y-106045000D03*
X149479000Y-101600000D03*
%TO.N,STAT*%
X145796000Y-104775000D03*
X146558000Y-101600000D03*
%TO.N,MON_BAT_POWER*%
X141340500Y-94361000D03*
%TO.N,MON_BAT_uC*%
X141986000Y-90678000D03*
D25*
%TO.N,Net-(D4-Pad2)*%
X134570607Y-105734747D03*
D26*
%TO.N,DIP_1b*%
X123190000Y-102859500D03*
X142240000Y-106807000D03*
X144399000Y-99568000D03*
%TO.N,Net-(J10-Pad2)*%
X118745000Y-101335500D03*
%TO.N,Net-(J11-Pad2)*%
X110363000Y-101473000D03*
%TO.N,Net-(J12-Pad2)*%
X127254000Y-101727000D03*
%TD*%
D27*
%TO.N,+3.3V*%
X112903000Y-94488500D02*
X113973500Y-94488500D01*
X113973500Y-94488500D02*
X114073000Y-94588000D01*
D28*
%TO.N,GND*%
X113101000Y-92456000D02*
X112244000Y-93313000D01*
D29*
%TO.N,VUSB*%
X153909000Y-91805250D02*
X153558750Y-91805250D01*
D27*
X152146000Y-103378000D02*
X151892000Y-103124000D01*
D30*
X156855750Y-91805250D02*
X158745000Y-89916000D01*
D27*
X151892000Y-103124000D02*
X150622000Y-103124000D01*
D29*
X153558750Y-91805250D02*
X150241000Y-95123000D01*
D27*
X150622000Y-98425000D02*
X150622000Y-103124000D01*
X150622000Y-103124000D02*
X148971000Y-104775000D01*
D30*
X153909000Y-91805250D02*
X156855750Y-91805250D01*
D27*
%TO.N,GND*%
X130786000Y-93313000D02*
X132048000Y-93313000D01*
X134066869Y-107366500D02*
X133643369Y-106943000D01*
X133643369Y-106943000D02*
X132588000Y-106943000D01*
D31*
X153909000Y-94345250D02*
X155971750Y-94345250D01*
D27*
X122650000Y-93313000D02*
X122682000Y-93345000D01*
X132048000Y-93313000D02*
X132080000Y-93345000D01*
X121515000Y-93313000D02*
X122650000Y-93313000D01*
X113101000Y-92456000D02*
X114300000Y-92456000D01*
D31*
X155971750Y-94345250D02*
X156337000Y-93980000D01*
D27*
%TO.N,+3.3V*%
X105410000Y-95504000D02*
X106912500Y-94001500D01*
X134985177Y-90372936D02*
X134985177Y-89519177D01*
X134985177Y-89519177D02*
X134620000Y-89154000D01*
D29*
X130810000Y-91440000D02*
X132427503Y-91440000D01*
D31*
X148717000Y-95631000D02*
X148717000Y-92329000D01*
X148717000Y-92329000D02*
X145542000Y-89154000D01*
D27*
X129786000Y-92618761D02*
X130810000Y-91594761D01*
X103124000Y-98933000D02*
X103316264Y-98933000D01*
D29*
X122047000Y-91440000D02*
X130810000Y-91440000D01*
D27*
X139700000Y-90678000D02*
X139700000Y-89281000D01*
X117094000Y-91440000D02*
X117094000Y-91567000D01*
X111733000Y-94588000D02*
X111244000Y-94099000D01*
X106680000Y-93769000D02*
X106912500Y-94001500D01*
X105410000Y-96839264D02*
X105410000Y-95504000D01*
X106680000Y-88834500D02*
X106680000Y-93769000D01*
D29*
X149971250Y-96885250D02*
X153909000Y-96885250D01*
D27*
X121693761Y-91440000D02*
X122047000Y-91440000D01*
X120515000Y-92618761D02*
X121693761Y-91440000D01*
D29*
X117094000Y-91440000D02*
X122047000Y-91440000D01*
X132427503Y-91440000D02*
X134620000Y-89247503D01*
D27*
X103316264Y-98933000D02*
X105410000Y-96839264D01*
X117094000Y-91567000D02*
X114073000Y-94588000D01*
D29*
X134620000Y-89247503D02*
X134620000Y-89154000D01*
D31*
X145542000Y-89154000D02*
X139573000Y-89154000D01*
X139573000Y-89154000D02*
X134620000Y-89154000D01*
D27*
X129786000Y-93313000D02*
X129786000Y-92618761D01*
X114073000Y-94588000D02*
X111733000Y-94588000D01*
X120515000Y-93313000D02*
X120515000Y-92618761D01*
D29*
X148717000Y-95631000D02*
X149971250Y-96885250D01*
D27*
X139700000Y-89281000D02*
X139573000Y-89154000D01*
X130810000Y-91594761D02*
X130810000Y-91440000D01*
X111244000Y-94099000D02*
X111244000Y-93313000D01*
X106912500Y-94001500D02*
X107950000Y-94001500D01*
D31*
%TO.N,Net-(D2-Pad1)*%
X165599000Y-100067000D02*
X164846000Y-99314000D01*
X165599000Y-100711000D02*
X165599000Y-100067000D01*
%TO.N,Net-(D3-Pad1)*%
X165227000Y-96012000D02*
X165599000Y-96384000D01*
X165599000Y-96384000D02*
X165599000Y-97663000D01*
D29*
%TO.N,DIP_2b*%
X149479000Y-90932000D02*
X150495000Y-89916000D01*
X150495000Y-89916000D02*
X155829000Y-89916000D01*
D27*
X142240000Y-92710000D02*
X142240000Y-97405819D01*
D31*
X170170000Y-97795000D02*
X167781000Y-97795000D01*
D29*
X146558000Y-92710000D02*
X147066000Y-93218000D01*
D27*
X142240000Y-97405819D02*
X140585819Y-99060000D01*
D29*
X142240000Y-92710000D02*
X146558000Y-92710000D01*
X158750000Y-92837000D02*
X164229610Y-92837000D01*
X167649000Y-96256390D02*
X167649000Y-97663000D01*
X164229610Y-92837000D02*
X167649000Y-96256390D01*
D31*
X167781000Y-97795000D02*
X167649000Y-97663000D01*
D27*
%TO.N,Net-(D5-Pad1)*%
X109363000Y-97543000D02*
X111388000Y-99568000D01*
X109363000Y-97536000D02*
X109363000Y-97543000D01*
%TO.N,Net-(D6-Pad1)*%
X119770000Y-99568000D02*
X119770000Y-99561000D01*
X119770000Y-99561000D02*
X117745000Y-97536000D01*
%TO.N,Net-(D7-Pad1)*%
X128279000Y-99568000D02*
X128279000Y-99561000D01*
X128279000Y-99561000D02*
X126254000Y-97536000D01*
%TO.N,SDA*%
X117904500Y-95388000D02*
X117983000Y-95309500D01*
X111125000Y-95377000D02*
X111161293Y-95340707D01*
X111161293Y-95340707D02*
X111161293Y-95284207D01*
X138176000Y-99918250D02*
X136129000Y-101965250D01*
X128786000Y-93313000D02*
X128786000Y-94428500D01*
X128786000Y-94428500D02*
X129667000Y-95309500D01*
X111136000Y-95388000D02*
X111125000Y-95377000D01*
X119515000Y-94026231D02*
X120798269Y-95309500D01*
D32*
X115380543Y-95312457D02*
X115305000Y-95388000D01*
D27*
X119515000Y-93313000D02*
X119515000Y-94026231D01*
X127065066Y-95296211D02*
X120811558Y-95296211D01*
X129783003Y-95193497D02*
X129667000Y-95309500D01*
D32*
X115380543Y-94552543D02*
X115380543Y-95312457D01*
D27*
X111265086Y-95388000D02*
X115305000Y-95388000D01*
X120811558Y-95296211D02*
X120798269Y-95309500D01*
X138176000Y-95260500D02*
X138176000Y-99918250D01*
X110244000Y-94366914D02*
X111161293Y-95284207D01*
X133985000Y-95193497D02*
X129783003Y-95193497D01*
X111161293Y-95284207D02*
X111265086Y-95388000D01*
X115305000Y-95388000D02*
X117904500Y-95388000D01*
X110244000Y-93313000D02*
X110244000Y-94366914D01*
D32*
%TO.N,SCL*%
X116968043Y-92965043D02*
X118167043Y-92965043D01*
D27*
X139065000Y-97028000D02*
X139065000Y-101981000D01*
X127786000Y-93313000D02*
X127786000Y-94758293D01*
X139065000Y-101981000D02*
X136540750Y-104505250D01*
X129166707Y-96139000D02*
X129286000Y-96139000D01*
X118515000Y-94371528D02*
X120282472Y-96139000D01*
X109244000Y-93313000D02*
X109244000Y-94639000D01*
X109244000Y-94639000D02*
X110617000Y-96012000D01*
X133801000Y-96209000D02*
X133985000Y-96393000D01*
X106934000Y-96012000D02*
X107131000Y-96209000D01*
X127786000Y-94758293D02*
X129166707Y-96139000D01*
X118515000Y-93313000D02*
X118515000Y-94371528D01*
X107131000Y-96209000D02*
X133801000Y-96209000D01*
X139700000Y-96393000D02*
X139065000Y-97028000D01*
D32*
X118167043Y-92965043D02*
X118515000Y-93313000D01*
D30*
%TO.N,DIP_1a*%
X171047000Y-107078000D02*
X177790000Y-100335000D01*
X170287000Y-107078000D02*
X171047000Y-107078000D01*
%TO.N,DIP_2a*%
X177790000Y-97795000D02*
X175987000Y-97795000D01*
X175987000Y-97795000D02*
X170267000Y-92075000D01*
D31*
%TO.N,Servo1*%
X155844750Y-99425250D02*
X157734000Y-97536000D01*
X153909000Y-99425250D02*
X155844750Y-99425250D01*
X157734000Y-97536000D02*
X157734000Y-96012000D01*
%TO.N,Servo2*%
X157099750Y-101965250D02*
X157719000Y-101346000D01*
X153909000Y-101965250D02*
X157099750Y-101965250D01*
%TO.N,Servo3*%
X157719000Y-106553000D02*
X155671250Y-104505250D01*
X155671250Y-104505250D02*
X153909000Y-104505250D01*
D27*
%TO.N,OUT1*%
X128524000Y-103759000D02*
X135397750Y-96885250D01*
X114935000Y-102235000D02*
X120523000Y-102235000D01*
X135397750Y-96885250D02*
X136129000Y-96885250D01*
X122047000Y-103759000D02*
X128524000Y-103759000D01*
X120523000Y-102235000D02*
X122047000Y-103759000D01*
%TO.N,OUT3*%
X138303000Y-106934000D02*
X136240250Y-106934000D01*
%TO.N,OUT2*%
X134618536Y-99425250D02*
X136129000Y-99425250D01*
X122428000Y-105156000D02*
X122936000Y-104648000D01*
X129395786Y-104648000D02*
X134618536Y-99425250D01*
X122936000Y-104648000D02*
X129395786Y-104648000D01*
%TO.N,OUT4*%
X133096000Y-109601000D02*
X151353250Y-109601000D01*
X151353250Y-109601000D02*
X153909000Y-107045250D01*
X130810000Y-104674504D02*
X130810000Y-107315000D01*
X130796395Y-104660899D02*
X130810000Y-104674504D01*
X130810000Y-107315000D02*
X133096000Y-109601000D01*
%TO.N,Net-(R1-Pad1)*%
X147955000Y-104140000D02*
X149479000Y-102616000D01*
X147955000Y-105031793D02*
X147955000Y-104140000D01*
X149479000Y-102616000D02*
X149479000Y-101600000D01*
X148968207Y-106045000D02*
X147955000Y-105031793D01*
X148971000Y-106045000D02*
X148968207Y-106045000D01*
%TO.N,STAT*%
X145796000Y-102362000D02*
X146558000Y-101600000D01*
X145796000Y-104775000D02*
X145796000Y-102362000D01*
%TO.N,MON_BAT_POWER*%
X136144750Y-94361000D02*
X136129000Y-94345250D01*
X141340500Y-94361000D02*
X136144750Y-94361000D01*
%TO.N,MON_BAT_uC*%
X141986000Y-90678000D02*
X140858750Y-91805250D01*
X140858750Y-91805250D02*
X136129000Y-91805250D01*
%TO.N,Net-(D4-Pad2)*%
X134570607Y-105734747D02*
X133728860Y-104893000D01*
X133728860Y-104893000D02*
X132588000Y-104893000D01*
D31*
%TO.N,DIP_1b*%
X170170000Y-100335000D02*
X168025000Y-100335000D01*
D27*
X117720000Y-99568000D02*
X114805207Y-99568000D01*
X114046000Y-101851207D02*
X114035000Y-101862207D01*
X109338000Y-99568000D02*
X108585000Y-100321000D01*
X114046000Y-100327207D02*
X114046000Y-101851207D01*
X142240000Y-101727000D02*
X142240000Y-106807000D01*
X114035000Y-103031000D02*
X116967000Y-105963000D01*
D31*
X168025000Y-100335000D02*
X167649000Y-100711000D01*
D27*
X114035000Y-101862207D02*
X114035000Y-103031000D01*
X126229000Y-99820500D02*
X123190000Y-102859500D01*
X126229000Y-99568000D02*
X126229000Y-99820500D01*
X144399000Y-99568000D02*
X142240000Y-101727000D01*
D30*
X160274000Y-101331000D02*
X160259000Y-101346000D01*
D27*
X114805207Y-99568000D02*
X114046000Y-100327207D01*
X108585000Y-105709000D02*
X108331000Y-105963000D01*
D29*
X160259000Y-101346000D02*
X160259000Y-106553000D01*
D27*
X108585000Y-100321000D02*
X108585000Y-105709000D01*
D30*
X160274000Y-96012000D02*
X160274000Y-101331000D01*
D27*
%TO.N,Net-(J10-Pad2)*%
X120845000Y-98636000D02*
X120845000Y-100351000D01*
X120845000Y-100351000D02*
X119860500Y-101335500D01*
X119860500Y-101335500D02*
X118745000Y-101335500D01*
X119745000Y-97536000D02*
X120845000Y-98636000D01*
%TO.N,Net-(J11-Pad2)*%
X112463000Y-100328660D02*
X111318660Y-101473000D01*
X111318660Y-101473000D02*
X110363000Y-101473000D01*
X111363000Y-97536000D02*
X112463000Y-98636000D01*
X112463000Y-98636000D02*
X112463000Y-100328660D01*
%TO.N,Net-(J12-Pad2)*%
X129354000Y-100328660D02*
X129354000Y-98636000D01*
X129354000Y-98636000D02*
X128254000Y-97536000D01*
X127254000Y-101727000D02*
X127955660Y-101727000D01*
X127955660Y-101727000D02*
X129354000Y-100328660D01*
%TD*%
M02*
